<svg id="Group_10462" data-name="Group 10462" xmlns="http://www.w3.org/2000/svg" width="109.639" height="119.09" viewBox="0 0 109.639 119.09">
  <path id="Path_2855" data-name="Path 2855" d="M54.82,0A54.82,54.82,0,1,1,0,54.82,54.82,54.82,0,0,1,54.82,0Z" transform="translate(0 9.45)" fill="#eee"/>
  <g id="Group_10460" data-name="Group 10460" transform="translate(57.025 31.482)">
    <path id="Path_2703" data-name="Path 2703" d="M915.6,222.148a2.379,2.379,0,0,0-4.567-1.205l-5.019,5.756,1.473,4.111,5.047-6.723a2.366,2.366,0,0,0,3.066-1.939Z" transform="translate(-865.864 -219.439)" fill="#ffb7b7"/>
    <path id="Path_2704" data-name="Path 2704" d="M611.559,124.365l16.66-17.779-2.247-3.572-20.9,17.67Z" transform="translate(-582.631 -99.268)" fill="#3f3d56"/>
    <path id="Path_2857" data-name="Path 2857" d="M5.844,0A5.844,5.844,0,1,1,0,5.844,5.844,5.844,0,0,1,5.844,0Z" transform="translate(19.366 2.606)" fill="#2f2e41"/>
    <path id="Path_2705" data-name="Path 2705" d="M816.894,233.684a12.255,12.255,0,0,1,4.458-2.883,6.272,6.272,0,0,1,3.377-.419,3.221,3.221,0,0,1,2.507,2.111,3.986,3.986,0,0,1-.407,2.728c-.4.851-.931,1.64-1.254,2.522a5.756,5.756,0,0,0,5.793,7.721,28.669,28.669,0,0,0-3.21.946,3.369,3.369,0,0,1-3.163-.517c-.851-.822-.868-2.154-.826-3.334q.092-2.633.184-5.267a6.69,6.69,0,0,0-.265-2.655,2.28,2.28,0,0,0-1.987-1.56,3.258,3.258,0,0,0-1.824.822,3.727,3.727,0,0,1-1.8.9c-.676.06-1.449-.44-1.4-1.117Z" transform="translate(-791.214 -228.535)" fill="#2f2e41"/>
    <path id="Path_2706" data-name="Path 2706" d="M661.708,461.113a2.378,2.378,0,0,1-1.792-4.37l5.048-5.727,4.27.922-6.005,5.882a2.365,2.365,0,0,1-1.521,3.293Z" transform="translate(-658.694 -413.424)" fill="#ffb7b7"/>
    <path id="Path_2707" data-name="Path 2707" d="M502.973,201,490.39,216.8l-3.837-1.761,14.79-23.024Z" transform="translate(-483.348 -173.821)" fill="#3f3d56"/>
    <path id="Path_2708" data-name="Path 2708" d="M510.373,540.968l-3-.047.36,10.221h2.638Z" transform="translate(-500.788 -466.092)" fill="#ffb7b7"/>
    <path id="Path_2709" data-name="Path 2709" d="M677.993,738.081H672.8a3.31,3.31,0,0,0-3.31,3.31v.108h8.505Z" transform="translate(-667.735 -653.892)" fill="#2f2e41"/>
    <path id="Path_2710" data-name="Path 2710" d="M631.26,524.511l-3.276,2.1,6.553,7.88,2.219-1.425Z" transform="translate(-601.82 -452.346)" fill="#ffb7b7"/>
    <path id="Path_2711" data-name="Path 2711" d="M844.127,710.049l-4.371,2.81h0a3.31,3.31,0,0,0-1,4.571l.058.09,7.157-4.6Z" transform="translate(-809.09 -630.41)" fill="#2f2e41"/>
    <path id="Path_2712" data-name="Path 2712" d="M714.876,345.24s-7.279-24.175-9.618-24.5-6.108,6.2-6.108,6.2c-4.886,6.236-9.925,26.431-9.925,26.431s8.4.526,14.54,3.793S717.152,357,717.152,357Z" transform="translate(-684.269 -304.286)" fill="#3f3d56"/>
    <path id="Path_2713" data-name="Path 2713" d="M714.876,345.24s-7.279-24.175-9.618-24.5-5.151,6.269-5.151,6.269c-2.435,10.064-10.882,26.364-10.882,26.364s8.4.526,14.54,3.793S717.152,357,717.152,357Z" transform="translate(-684.269 -304.286)" opacity="0.1"/>
    <path id="Path_2714" data-name="Path 2714" d="M520.4,278.985v12.148l1.429,17.6,7.142,13.311-3.409,2.435-9.739-12.661-3.852-12.572-6.05,27.831-4.545-.325,3.157-38.587,5.99-10.861Z" transform="translate(-495.762 -245.264)" fill="#2f2e41"/>
    <path id="Path_2715" data-name="Path 2715" d="M751.01,326.321a3.427,3.427,0,0,0-.162,4.708l-2.6,5.844,10.227,2.759,3.574-15.966-2.435-2.6a34.742,34.742,0,0,1-4.872-.263A60.413,60.413,0,0,0,751.01,326.321Z" transform="translate(-733.713 -304.349)" fill="#1a76ff"/>
    <path id="Path_2716" data-name="Path 2716" d="M787.291,323.828a4.364,4.364,0,0,0-6.132.959,15.877,15.877,0,0,0-1.673,16.569c5.259,11.575,9.836,17.5,11.7,17.5a.741.741,0,0,0,.239-.038,6.105,6.105,0,0,0,3.1-4.034,2.046,2.046,0,0,0-.649-2.048c-2.1-1.68-5.869-6.909-7.045-13.792a15.256,15.256,0,0,1,1.782-9.5,4.363,4.363,0,0,0-1.262-5.572h0Z" transform="translate(-758.541 -306.169)" fill="#3f3d56"/>
    <path id="Path_2856" data-name="Path 2856" d="M4.3,0A4.3,4.3,0,1,1,0,4.3,4.3,4.3,0,0,1,4.3,0Z" transform="translate(17.609 8.234) rotate(-28.663)" fill="#ffb7b7"/>
    <path id="Path_2717" data-name="Path 2717" d="M765.872,254.3h6.212l.064-.891.319.891h.959l.126-1.767.631,1.767h1.85v-.088a4.647,4.647,0,0,0-4.641-4.641h-.876a4.647,4.647,0,0,0-4.641,4.641Z" transform="translate(-748.474 -244.684)" fill="#2f2e41"/>
    <path id="Path_2718" data-name="Path 2718" d="M810.512,260.8l2.65-.86V253.5h-5.007l.124.124C810,255.346,811.922,261.457,810.512,260.8Z" transform="translate(-783.895 -247.972)" fill="#2f2e41"/>
  </g>
  <g id="Group_10461" data-name="Group 10461" transform="translate(2.741)">
    <path id="Path_2697" data-name="Path 2697" d="M292.151,160.4h-.483V147.164A7.664,7.664,0,0,0,284,139.5H255.948a7.664,7.664,0,0,0-7.664,7.664v72.641a7.664,7.664,0,0,0,7.664,7.664H284a7.664,7.664,0,0,0,7.664-7.664V169.83h.483Z" transform="translate(-248.284 -139.5)" fill="#3f3d56"/>
    <path id="Path_2698" data-name="Path 2698" d="M295.223,151.783h-3.662a2.719,2.719,0,0,1-2.518,3.746H272.972a2.719,2.719,0,0,1-2.518-3.746h-3.42a5.723,5.723,0,0,0-5.723,5.723V230.04a5.723,5.723,0,0,0,5.723,5.723h28.189a5.723,5.723,0,0,0,5.723-5.723h0V157.505a5.723,5.723,0,0,0-5.723-5.723Z" transform="translate(-259.196 -149.789)" fill="#fff"/>
    <path id="Path_142" data-name="Path 142" d="M740.638,286.635c-.141,0-.256.31-.256.692s.114.692.256.692H754.7c.142,0,.256-.31.256-.692s-.114-.692-.256-.692Z" transform="translate(-732.158 -270.844)" fill="#e6e6e6"/>
    <path id="Path_143" data-name="Path 143" d="M740.638,299.518c-.141,0-.256.31-.256.692s.114.692.256.692h7.179c.142,0,.256-.31.256-.692s-.114-.692-.256-.692Z" transform="translate(-732.158 -279.572)" fill="#e6e6e6"/>
    <path id="Path_142-2" data-name="Path 142" d="M737.673,361.871c-.141,0-.256.31-.256.692s.114.692.256.692h26.367c.142,0,.256-.31.256-.692s-.114-.692-.256-.692Z" transform="translate(-729.194 -315.757)" fill="#e6e6e6"/>
    <path id="Path_142-3" data-name="Path 142" d="M737.673,361.871c-.141,0-.256.31-.256.692s.114.692.256.692h26.367c.142,0,.256-.31.256-.692s-.114-.692-.256-.692Z" transform="translate(-729.194 -294.133)" fill="#e6e6e6"/>
    <path id="Path_143-2" data-name="Path 143" d="M737.673,374.754c-.141,0-.256.31-.256.692s.114.692.256.692h19.484c.142,0,.256-.31.256-.692s-.114-.692-.256-.692Z" transform="translate(-729.194 -323.45)" fill="#e6e6e6"/>
    <path id="Path_143-3" data-name="Path 143" d="M737.673,374.754c-.141,0-.256.31-.256.692s.114.692.256.692h19.484c.142,0,.256-.31.256-.692s-.114-.692-.256-.692Z" transform="translate(-729.194 -302.43)" fill="#e6e6e6"/>
    <path id="Path_142-4" data-name="Path 142" d="M737.673,387.345c-.141,0-.256.31-.256.692s.114.692.256.692h26.367c.142,0,.256-.31.256-.692s-.114-.692-.256-.692Z" transform="translate(-729.194 -330.477)" fill="#e6e6e6"/>
    <path id="Path_143-4" data-name="Path 143" d="M737.673,400.227c-.141,0-.256.31-.256.692s.114.692.256.692h19.484c.142,0,.256-.31.256-.692s-.114-.692-.256-.692Z" transform="translate(-729.194 -338.657)" fill="#e6e6e6"/>
    <path id="Ellipse_44" data-name="Ellipse 44" d="M13.7,0A13.7,13.7,0,1,1,0,13.7,13.7,13.7,0,0,1,13.7,0Z" transform="translate(8.224 28.697)" fill="#1a76ff"/>
    <path id="Path_2858" data-name="Path 2858" d="M0,0H2.592V6.672H0Z" transform="translate(15.848 40.316)" fill="#fff"/>
    <path id="Path_2696" data-name="Path 2696" d="M13.991,8.18a.637.637,0,0,1-.089-.441c.028-.093.054-.183.077-.266a2.106,2.106,0,0,0,.137-.706.779.779,0,0,0-.822-.81H10.636a.855.855,0,0,1-.81-.857,19.667,19.667,0,0,0,.625-2.477,1.378,1.378,0,0,0-1.6-1.481h0s-.255.116-.255.3V2.47a3.332,3.332,0,0,1-.717,1.809A12.8,12.8,0,0,1,6.776,5.7a2.041,2.041,0,0,1-1.14.617v5.94a4.494,4.494,0,0,0,1.85.37h4.143c.056,0,1.6.06,1.4-1.256-.06-.4,1.009-.7.772-1.41C13.525,9.119,14.526,9.1,13.991,8.18Z" transform="translate(13.39 34.444)" fill="#fff"/>
  </g>
</svg>
