<svg xmlns="http://www.w3.org/2000/svg" width="170.627" height="118.735" viewBox="0 0 170.627 118.735">
  <g id="Group_51" data-name="Group 51" transform="translate(0)">
    <path id="Path_2853" data-name="Path 2853" d="M59.367,0A59.367,59.367,0,1,1,0,59.367,59.367,59.367,0,0,1,59.367,0Z" transform="translate(20.027)" fill="#eee"/>
    <g id="keys_illustration_-_afk" data-name="keys illustration - afk">
      <path id="Path_2524" data-name="Path 2524" d="M12999.3,6100.359s13.666-5.422,14.313-5.023,1.833,1.041,1.089,1.637-6.5,3.671-5.951,4.068,11.188,1.741,12.144,2.036c.888.279,2.83.919,3.214,1.873a3.022,3.022,0,0,1-.145,2.1l-1.493-.247s-11.267-2.06-11.447-2.06S12999.3,6100.359,12999.3,6100.359Z" transform="translate(-12923.794 -6010.268)" fill="#edadad"/>
      <path id="Path_2515" data-name="Path 2515" d="M12983.956,5732.561c-.253,0-2.817,5.421-2.732,6.059s-2.557,7.861-3.1,9.01,1.6,2.042,1.6,2.042,2-.1,2.746-2.775c.4-.946.161-3.637.344-6.184a48,48,0,0,1,.687-5.6C12984.215,5731.922,12983.956,5732.561,12983.956,5732.561Z" transform="translate(-12902.365 -5706.836)" fill="#edadad"/>
      <path id="Ellipse_159" data-name="Ellipse 159" d="M7.5,1.422A6.082,6.082,0,1,0,13.586,7.5,6.082,6.082,0,0,0,7.5,1.422M7.5,0A7.5,7.5,0,1,1,0,7.5,7.5,7.5,0,0,1,7.5,0Z" transform="translate(75.99 42.813)" fill="#707070" opacity="0.27"/>
      <path id="Path_2512" data-name="Path 2512" d="M13278,5573.792l27.918-13.623h21.544v14.438l-39.729,18.287Z" transform="translate(-13156.987 -5559.233)" fill="#e4e4e4"/>
      <path id="Path_2514" data-name="Path 2514" d="M13056.478,5671.04s-5.094,3.095-6.255,3.16-20.314-1.74-21.474-1.74c-.587,0-1.809,1.212-4.986,2.667-3.025,1.383-8.006,2.993-8.777,4.464a25.056,25.056,0,0,0-1.9,8.285,92.025,92.025,0,0,0,.183,12.313,10.989,10.989,0,0,1,2.247-3.088,10.148,10.148,0,0,1,4.085-3.148v-1.761c-.066-1.468-.075-5.4.215-5.5a33,33,0,0,1,8.9.541c2.778.548,4.992,1.765,4.909,2.122-.99,4.16-10.765,3-14.632,4.869a13.489,13.489,0,0,0-5.72,5.966s1.291,1.356,1.935,1.1,5.354-1.935,6-2.257a8.413,8.413,0,0,1,3.031-.324c.517.065,12.382,1.422,15.154.97s6.064-.665,8.642-3.178a75.287,75.287,0,0,1,8.769-7.141c1.163-.647,6.964-3.548,6.964-3.548Z" transform="translate(-12933.837 -5653.499)" fill="#ffb6b6"/>
      <path id="Path_2511" data-name="Path 2511" d="M13354.276,5560H13328.8l-19.129,9.436,11.222,22.569,33.381-14.961Z" transform="translate(-13183.649 -5560)" fill="#2f2e41"/>
      <path id="Rectangle_360" data-name="Rectangle 360" d="M5.846,0h.293a5.846,5.846,0,0,1,5.846,5.846v12.48a1.9,1.9,0,0,1-1.9,1.9H1.9a1.9,1.9,0,0,1-1.9-1.9V5.846A5.846,5.846,0,0,1,5.846,0Z" transform="translate(71.792 54.859) rotate(13)" fill="#2f2e41"/>
      <path id="Path_2518" data-name="Path 2518" d="M12953.7,5947.18c0-.821,2.049-9.193,2.2-9.628s.131-1.183,1.294-.9,5.815,1.453,6.224,1.574a1.021,1.021,0,0,1,.647,1.232c-.131.646-2.212,9.29-2.212,9.29a.928.928,0,0,1-1.043.735c-.894-.08-6.131-1.4-6.131-1.4S12953.7,5948,12953.7,5947.18Z" transform="translate(-12883.919 -5875.332)" fill="#ccc"/>
      <path id="Rectangle_361" data-name="Rectangle 361" d="M3.784,1.714c-.61,0-.479.573-.479,1.183a2.184,2.184,0,0,0,2.2,1.246c1.1.024,2.118-.565,2.212-1.395,0-.61.129-1.029-.479-1.029L3.784,1.714M2.686,0h6a2.686,2.686,0,0,1,2.684,2.686V6.793A2.686,2.686,0,0,1,8.688,9.479h-6A2.686,2.686,0,0,1,0,6.793V2.686A2.686,2.686,0,0,1,2.686,0Z" transform="translate(79.246 59.678) rotate(-7)" fill="#1a76ff"/>
      <path id="Path_2519" data-name="Path 2519" d="M13040.4,5981.518s.56,2.438.646,2.73a4.993,4.993,0,0,0,.591.94l-.236,1.025a8.222,8.222,0,0,0,.236,1.674,5.13,5.13,0,0,0,.819.733s.179.411,0,.616a1.459,1.459,0,0,0-.178.734,1.222,1.222,0,0,0,.176.588,3.27,3.27,0,0,1,.353.792l.353,1.026s-.5.676-.353.97,2.291,1.878,2.291,2.114.439.381.439.381a6.658,6.658,0,0,0,.8-2.068,18.572,18.572,0,0,0-.454-2.423,7.236,7.236,0,0,1-.116-2.113c0-.382-.728-6.473-.816-6.916s.58-.976.58-.976v-.526Z" transform="translate(-12956.923 -5912.577)" fill="#1a76ff"/>
      <path id="Path_2520" data-name="Path 2520" d="M13056.461,6003.669l-1.538-11.448s.47-.848.582-.375,1.7,12.229,1.632,12.343S13056.461,6003.669,13056.461,6003.669Z" transform="translate(-12969.132 -5923.029)" fill="#fff"/>
      <path id="Path_2522" data-name="Path 2522" d="M12512,6071.253l45.353-7.847s2.942,17.328,2.942,18.745-.546,3.27-1.089,3.27-47.206,7.63-47.206,7.63Z" transform="translate(-12512.001 -5983.88)" fill="#e4e4e4"/>
      <path id="Path_2523" data-name="Path 2523" d="M12800.5,6046.136s6.961-1.2,7.545-1.2,3.272-1.927,4.36-1.927a33.633,33.633,0,0,1,5.03,0c1.257.253,3.438,2.012,6.12,1.927s11.652-1.172,12.741-.5,2.768,4.107,1.259,4.191-14.421,3.6-14,4.023,17.353,7.378,20.288,7.966,16.768,3.017,17.187,3.1,1.237.114,1.314.495.875,2.4,0,2.4-17.39-.759-19.064-.759-19.7,1.353-20.96.759-9.8-5.2-11.065-5.2a60.545,60.545,0,0,0-7,1.436,9.135,9.135,0,0,1-1.065.195s-.179-2.114-.847-6.338S12800.5,6046.136,12800.5,6046.136Z" transform="translate(-12755.08 -5966.13)" fill="#ffb6b6"/>
      <path id="Path_2521" data-name="Path 2521" d="M12512,6068.024l38.708-6.093,4.106,27.06-42.812,5.952Z" transform="translate(-12512.001 -5982.633)" fill="#3f3d56"/>
      <path id="Path_2851" data-name="Path 2851" d="M-9570.039,12935.406l3.146-.539s2.766,14.41,2.766,15.4v1.137l-3.3.77s-.052-1.275-.089-1.519S-9570.039,12935.406-9570.039,12935.406Z" transform="translate(9615.528 -12855.265)" fill="#edadad"/>
      <path id="Path_2852" data-name="Path 2852" d="M-9092.668,12541.5l-2.021,1.256,7.19,14.611,2.16-1.032Z" transform="translate(9215.278 -12524.065)" fill="#edadad"/>
      <path id="Ellipse_469" data-name="Ellipse 469" d="M9,.014A7.584,7.584,0,1,1,0,7.545a4.935,4.935,0,0,1,.033-.812c.056-.477.188-1.1.188-1.1h0A7.445,7.445,0,0,1,2.08,2.162C2.053,3.088,2,5.751,2,5.751a10.521,10.521,0,0,0-.258,1.717A5.846,5.846,0,1,0,7.584,1.623,4.3,4.3,0,0,1,8.914,0Z" transform="matrix(0.799, 0.602, -0.602, 0.799, 81.848, 39.868)" fill="#c7d5e5"/>
      <path id="Path_2516" data-name="Path 2516" d="M13036.5,5901.8l2.306-.5s.954,4.884.954,5.265-2.062.764-2.366.646S13036.5,5901.8,13036.5,5901.8Z" transform="translate(-12953.638 -5845.621)" fill="#3d3d3d"/>
      <path id="Path_2517" data-name="Path 2517" d="M0,.194,2.406,0s.853,5.105.853,5.528S1.2,6.382.894,6.253,0,.194,0,.194Z" transform="translate(78.993 53.829) rotate(42)" fill="#3d3d3d"/>
      <path id="Path_2879" data-name="Path 2879" d="M0,0,5.86,1.756" transform="translate(72.332 66.798) rotate(-2.522)" fill="none" stroke="#afadad" stroke-linecap="round" stroke-width="0.5"/>
      <g id="Group_10479" data-name="Group 10479" transform="translate(75.195 62.775) rotate(14)">
        <path id="Path_2880" data-name="Path 2880" d="M.142,0H2.063A.142.142,0,0,1,2.2.142V1.921a.142.142,0,0,1-.142.142H.142A.142.142,0,0,1,0,1.921V.142A.142.142,0,0,1,.142,0Z" transform="translate(0 0.996)" fill="#707070"/>
        <path id="Ellipse_330" data-name="Ellipse 330" d="M.892,0H.944a.84.84,0,0,1,.577.3,1.022,1.022,0,0,1,.113.161h0a1.148,1.148,0,0,1,.146.566h0s-.006.125-.012.147a2.068,2.068,0,0,1-.116.383L1.4,1.429a.871.871,0,0,0,.095-.4A.829.829,0,0,0,1.3.485a.547.547,0,0,0-.409-.2Zm0,0V.284a.547.547,0,0,0-.414.2.829.829,0,0,0-.194.543.872.872,0,0,0,.094.4l-.253.129a1.163,1.163,0,0,1-.1-.3C.021,1.262,0,1.029,0,1.011A1.054,1.054,0,0,1,.47.123.794.794,0,0,1,.843,0Z" transform="translate(0.211 0)" fill="#707070"/>
      </g>
      <g id="Group_10480" data-name="Group 10480" transform="translate(73.755 68.513) rotate(14)">
        <path id="Path_2880-2" data-name="Path 2880" d="M.142,0H2.063A.142.142,0,0,1,2.2.142V1.921a.142.142,0,0,1-.142.142H.142A.142.142,0,0,1,0,1.921V.142A.142.142,0,0,1,.142,0Z" transform="translate(0 0.996)" fill="#707070"/>
        <path id="Ellipse_330-2" data-name="Ellipse 330" d="M.892,0H.944a.84.84,0,0,1,.577.3,1.022,1.022,0,0,1,.113.161h0L1.3.488A.486.486,0,0,0,1.148.34.582.582,0,0,0,.89.284V0Zm0,0V.284a.547.547,0,0,0-.414.2.829.829,0,0,0-.194.543.872.872,0,0,0,.094.4l-.253.129a1.163,1.163,0,0,1-.1-.3C.021,1.262,0,1.029,0,1.011A1.054,1.054,0,0,1,.47.123.794.794,0,0,1,.843,0Z" transform="translate(0.211 0)" fill="#707070"/>
      </g>
    </g>
  </g>
</svg>
