<svg xmlns="http://www.w3.org/2000/svg" width="107.473" height="132.963" viewBox="0 0 107.473 132.963">
  <g id="undraw_Agreement_re_d4dv" transform="translate(0.46 0.46)" opacity="0.9">
    <ellipse id="Ellipse_258" data-name="Ellipse 258" cx="39.659" cy="0.899" rx="39.659" ry="0.899" transform="translate(27.233 130.705)" fill="#e6e6e6"/>
    <path id="Path_1887" data-name="Path 1887" d="M907.6,751.3V737.612S912.936,747.316,907.6,751.3Z" transform="translate(-802.958 -620.588)" fill="#f1f1f1"/>
    <path id="Path_1888" data-name="Path 1888" d="M866.138,770.275l-10.083-9.257S866.81,763.651,866.138,770.275Z" transform="translate(-761.165 -639.565)" fill="#f1f1f1"/>
    <path id="Path_1889" data-name="Path 1889" d="M339.4,149.723l-53.507,31.271a.819.819,0,0,1-1.119-.293L250.364,121.83a.819.819,0,0,1,.293-1.119L304.163,89.44a.819.819,0,0,1,1.119.293L339.69,148.6a.819.819,0,0,1-.293,1.119Z" transform="translate(-250.252 -89.328)" fill="#fbfbfb" stroke="#f0f0f0" stroke-width="0.8"/>
    <path id="Path_1892" data-name="Path 1892" d="M325.063,245.288l-13.271,7.756a.737.737,0,0,1-1.007-.264l-7.756-13.269a.737.737,0,0,1,.264-1.007l13.271-7.756a.737.737,0,0,1,1.007.264l7.756,13.271A.737.737,0,0,1,325.063,245.288Z" transform="translate(-292.962 -203.908)" fill="#acacac"/>
    <path id="Path_1893" data-name="Path 1893" d="M406.583,249.263l-41.506,24.262a.736.736,0,1,1-.741-1.27l41.507-24.262a.736.736,0,0,1,.741,1.27Z" transform="translate(-342.451 -217.891)" fill="#e6e6e6"/>
    <path id="Path_1894" data-name="Path 1894" d="M420.077,294.024,378.6,318.714a.736.736,0,1,1-.741-1.27l41.481-24.69a.736.736,0,0,1,.741,1.27Z" transform="translate(-353.412 -258.706)" fill="#e6e6e6"/>
    <path id="Path_1895" data-name="Path 1895" d="M455.358,164.63l-18.353,10.726a.736.736,0,0,1-.741-1.27l18.353-10.726a.736.736,0,1,1,.741,1.27Z" transform="translate(-400.774 -149.267)" fill="#ccc"/>
    <path id="Path_1896" data-name="Path 1896" d="M464.274,201.905l-13.773,8.05a.736.736,0,1,1-.741-1.27l13.773-8.05a.736.736,0,1,1,.741,1.27Z" transform="translate(-411.712 -179.492)" fill="#ccc"/>
    <path id="Path_1898" data-name="Path 1898" d="M437.138,349.6,405.656,368a.736.736,0,0,1-.741-1.27l31.482-18.4a.736.736,0,1,1,.741,1.27Z" transform="translate(-375.356 -299.242)" fill="#e6e6e6"/>
    <path id="Path_1899" data-name="Path 1899" d="M460.658,341.771l-41.506,24.262a.736.736,0,1,1-.741-1.27L459.917,340.5a.736.736,0,1,1,.741,1.27Z" transform="translate(-386.295 -292.892)" fill="#e6e6e6"/>
    <path id="Path_1901" data-name="Path 1901" d="M582.088,417.942a22.325,22.325,0,0,0,2.162-3.024,8.033,8.033,0,0,0,1.255-3.118,3.08,3.08,0,0,0-.923-2.632,2.167,2.167,0,0,0-2.543-.289,2.586,2.586,0,0,0-1.3,2.309,3.416,3.416,0,0,0,1.459,2.587,6.288,6.288,0,0,0,6.2.231c2.052-1.061,3.112-3.841,1.5-5.739-.337-.4-.893.047-.809.472a2.3,2.3,0,0,0,4.554-.563l-.724.423a5.533,5.533,0,0,0,5.5-.59,5.13,5.13,0,0,0,1.03-1,6.045,6.045,0,0,1,1.433-1.1l3.477-2.4c.511-.353.025-1.2-.491-.839l-3.149,2.176c-.525.363-1.053.72-1.574,1.088a10.8,10.8,0,0,0-.944,1,4.557,4.557,0,0,1-4.811.814.492.492,0,0,0-.725.423,1.331,1.331,0,1,1-2.643.313l-.809.472c1.04,1.227.348,3.107-.85,3.93a5.516,5.516,0,0,1-4.83.508,2.85,2.85,0,0,1-1.678-1.539,1.7,1.7,0,0,1,.386-1.944,1.219,1.219,0,0,1,1.694-.018,2.18,2.18,0,0,1,.578,1.967,7.881,7.881,0,0,1-1.195,2.7,20.771,20.771,0,0,1-1.934,2.7c-.4.472.291,1.158.7.679Z" transform="translate(-521.573 -345.508)" fill="#1a76ff"/>
    <path id="Path_1902" data-name="Path 1902" d="M606.587,541.491a1.654,1.654,0,0,1,.165.2l7.729-.189.9-1.648,2.665,1.036-1.312,3.069a1.248,1.248,0,0,1-1.3.748l-8.732-1.055a1.636,1.636,0,1,1-.119-2.163Z" transform="translate(-536.893 -460.248)" fill="#ffb7b7"/>
    <path id="Path_1903" data-name="Path 1903" d="M508.685,665.251h-2.541l-1.209-9.8h3.75Z" transform="translate(-413.794 -537.069)" fill="#ffb7b7"/>
    <path id="Path_1904" data-name="Path 1904" d="M720.064,795.492H711.87v-.1a3.19,3.19,0,0,1,3.188-3.188h5.005Z" transform="translate(-624.526 -664.847)" fill="#2f2e41"/>
    <path id="Path_1905" data-name="Path 1905" d="M392.778,662.017l-2.337-1,2.739-9.489L396.629,653Z" transform="translate(-320.965 -533.89)" fill="#ffb7b7"/>
    <path id="Path_1906" data-name="Path 1906" d="M595.537,787.1,588,783.881l.04-.095a3.19,3.19,0,0,1,4.186-1.68h0l4.6,1.966Z" transform="translate(-524.095 -656.454)" fill="#2f2e41"/>
    <path id="Path_1907" data-name="Path 1907" d="M458.68,468.822,458.5,471.8l5.372.575,5.621.6-1.655-4.522Z" transform="translate(-376.143 -385.458)" fill="#ffb7b7"/>
    <path id="Path_1908" data-name="Path 1908" d="M675.658,502.01l-2.089-14.548,3.617-1.185,1.062-1.457,5.17.306.759,1.7,2.757,1.3L686.509,496l.309,6.582Z" transform="translate(-593.474 -415.627)" fill="#2f2e41"/>
    <path id="Path_1909" data-name="Path 1909" d="M661.9,509.562l-3.679-1.472.016-.067c.016-.067,1.582-6.61,1.789-7.661a1.833,1.833,0,0,1,1.041-1.411l.024-.009,1.456.443.64,5.024Z" transform="translate(-581.025 -427.08)" fill="#2f2e41"/>
    <path id="Path_1910" data-name="Path 1910" d="M618.81,610.5l-4.9-1,7.828-21.6,2.679-7.368s1.7-5.907,2.467-8.193l.463-3.067,10.967,1.213s3.063,4.5,2.132,11.83l.421,27.559-4.9.251-4.1-27.795-7.2,15.236s-2.268,6.5-3.891,7.915Z" transform="translate(-545.104 -484.098)" fill="#2f2e41"/>
    <path id="Path_1911" data-name="Path 1911" d="M712.845,543.328a1.644,1.644,0,0,1,.258.014l5.117-5.8-.6-1.781,2.571-1.249,1.36,3.052a1.247,1.247,0,0,1-.333,1.459l-6.711,5.686a1.636,1.636,0,1,1-1.667-1.384Z" transform="translate(-624.031 -455.919)" fill="#ffb7b7"/>
    <path id="Path_1912" data-name="Path 1912" d="M736.744,511.985l-2.134-5.02.832-3.5.9-1.133a.517.517,0,0,1,.415,0c.331.135.613.539.837,1.213l2,5.7Z" transform="translate(-642.964 -429.794)" fill="#2f2e41"/>
    <path id="Path_1913" data-name="Path 1913" d="M687.367,437.036v-3.785a5.072,5.072,0,0,1,10.143,0v3.785a.682.682,0,0,1-.681.681h-8.781A.682.682,0,0,1,687.367,437.036Z" transform="translate(-604.659 -369.704)" fill="#2f2e41"/>
    <circle id="Ellipse_309" data-name="Ellipse 309" cx="3.718" cy="3.718" r="3.718" transform="translate(83.018 60.488)" fill="#ffb7b7"/>
    <path id="Path_1914" data-name="Path 1914" d="M681.025,439.393a4.017,4.017,0,0,1,4.012-4.012h.755a4.017,4.017,0,0,1,4.012,4.012v.076h-1.6l-.546-1.528-.109,1.528h-.827l-.275-.771-.055.771h-5.369Z" transform="translate(-599.518 -375.542)" fill="#2f2e41"/>
    <path id="Path_1915" data-name="Path 1915" d="M706.168,451.18a.674.674,0,0,1-.053-.712c.8-1.526,1.925-4.345.435-6.084l-.107-.125h4.328v6.5l-3.932.693a.693.693,0,0,1-.121.011.679.679,0,0,1-.55-.281Z" transform="translate(-619.797 -382.74)" fill="#2f2e41"/>
    <path id="Path_1916" data-name="Path 1916" d="M212.9,657.979l2.3.821,4.259-8.468-3.39-1.213Z" transform="translate(-177.018 -531.937)" fill="#9f616a"/>
    <path id="Path_1917" data-name="Path 1917" d="M432.6,783.175l1.063-2.976,4.523,1.617a3.064,3.064,0,0,1,1.853,3.913l-.034.094Z" transform="translate(-398.099 -655.117)" fill="#2f2e41"/>
    <path id="Path_1918" data-name="Path 1918" d="M291.835,667.634h2.439l1.16-9.408h-3.6Z" transform="translate(-241.016 -539.32)" fill="#9f616a"/>
    <path id="Path_1919" data-name="Path 1919" d="M515.548,793.065h4.8a3.061,3.061,0,0,1,3.061,3.061v.1h-7.864Z" transform="translate(-465.351 -665.549)" fill="#2f2e41"/>
    <path id="Path_1920" data-name="Path 1920" d="M489.459,470.648l1.061-2.1s3.951.99,4.313,3.28Z" transform="translate(-444.198 -402.437)" fill="#f1f1f1"/>
    <path id="Path_1921" data-name="Path 1921" d="M218.868,515.254l2.884,16.1L214.093,544.9l4.576,1.791,7.762-13.131.995-3.581.6,18.7,4.127-.125,1.892-17.462-3.033-16.233Z" transform="translate(-177.984 -423.079)" fill="#2f2e41"/>
    <path id="Path_1922" data-name="Path 1922" d="M464.9,502.046a26.621,26.621,0,0,1-6.989-.824l-.1-.021,2.207-10.234.1-9.44a10.783,10.783,0,0,1,3-7.221,1.72,1.72,0,0,1,.915-1.125,2.729,2.729,0,0,1,2,.1l3.221,1.208.015.045c.039.115,4.282,14.042,4.282,14.042s-.257,12.169-.346,12.568C473.2,501.145,467.257,502.046,464.9,502.046Z" transform="translate(-418.543 -406.065)" fill="#3f3d56"/>
    <circle id="Ellipse_310" data-name="Ellipse 310" cx="4.354" cy="4.354" r="4.354" transform="translate(45.263 56.748)" fill="#9f616a"/>
    <path id="Path_1923" data-name="Path 1923" d="M259.823,432.715l7.616,10.627,1.125-4.962Z" transform="translate(-215.061 -356.479)" opacity="0.2"/>
    <path id="Path_1924" data-name="Path 1924" d="M572.912,545.863a1.868,1.868,0,0,1-2.8-.582l-6.555,1.049,1.42-3.144,6.007-.514a1.878,1.878,0,0,1,1.933,3.19Z" transform="translate(-504.272 -462.396)" fill="#9f616a"/>
    <path id="Path_1925" data-name="Path 1925" d="M345.842,454.848l2.359-.231.653,3.286-2.965.053Z" transform="translate(-284.804 -374.237)" fill="#f1f1f1"/>
    <path id="Path_1926" data-name="Path 1926" d="M508.257,506.329l-11.534-1.024-5.825-9.264-.018-.082a3.189,3.189,0,0,1,5.954-2.136l3.42,6.672,6.9,1.043Z" transform="translate(-445.29 -421.519)" fill="#3f3d56"/>
    <path id="Path_1927" data-name="Path 1927" d="M488.5,419.575l3.614.129c.22.008.818-2.369.9-2.862a1.348,1.348,0,0,1,1.4-1.088c.27.026.952-.48,1.656-1.078a2.654,2.654,0,0,0-.2-4.23q-.06-.039-.118-.072a6.43,6.43,0,0,0-3.07-.706,5.742,5.742,0,0,0-2.8.564,5.094,5.094,0,0,0-2.4,4.323,12.574,12.574,0,0,0,1.108,5.015" transform="translate(-442.59 -354.694)" fill="#2f2e41"/>
  </g>
</svg>
