<svg xmlns="http://www.w3.org/2000/svg" width="58.939" height="18.726" viewBox="0 0 58.939 18.726"><defs><style>.a{isolation:isolate;}.b{fill:none;stroke-linejoin:round;}.c,.d{stroke:none;}.d{fill:#1c1c1c;}</style></defs><g class="a" transform="translate(0.5 0.5)"><g transform="translate(0 0)"><g class="b" transform="translate(-10 160.914)"><path class="c" d="M46.59-158.354l5,2.653,2.967.128c5.293.244,6.922.488,9.2,1.373,2.048.8,3.735,2.105,4.037,3.129a16.452,16.452,0,0,1,.14,2.886v2.4H62.564l.082-.268a8.167,8.167,0,0,0,.07-2.676,5.8,5.8,0,0,0-4.072-4.293A5.656,5.656,0,0,0,51.709-149a7.23,7.23,0,0,0,0,3c.082.2-.524.209-11.832.209H27.951l.174-.791a5.707,5.707,0,0,0-4.223-6.48,5.7,5.7,0,0,0-6.992,5.957,5.436,5.436,0,0,1,.035.733c-.058,0-6.411-1.268-6.69-1.338C10-147.765,10-147.8,10-149.453v-1.687l.3-.116a1.73,1.73,0,0,1,.582-.116c.151,0,.279-.07.279-.151s.082-.9.174-1.827a17.1,17.1,0,0,1,.535-3.5,20.248,20.248,0,0,1,4.875-.1c1.152.058,1.221.047,1.256-.174.116-.8.047-.756,1.187-.756h1.035l.151.547c.14.512.2.559.675.7a53.852,53.852,0,0,0,8.749.8l1.827.07.035-1.315.035-1.326h1.629l.442,1.361.442,1.361,5.724-.07c6.4-.07,5.7.023,6.364-.861l.221-.3-2.757-1.489c-1.512-.815-2.78-1.5-2.8-1.524a2.65,2.65,0,0,1,.512-.977C41.541-160.96,43.728-159.866,46.59-158.354Z"/><path class="d" d="M 41.47814559936523 -160.9143829345703 C 41.47493362426758 -160.9143829345703 41.47257995605469 -160.9139099121094 41.47114562988281 -160.9129486083984 C 41.31980514526367 -160.7852478027344 40.90121459960938 -159.9935913085938 40.95915603637695 -159.9356536865234 C 40.98280715942383 -159.91259765625 42.2509651184082 -159.2261810302734 43.7633056640625 -158.4114837646484 L 46.52074432373047 -156.9221954345703 L 46.29962539672852 -156.6194915771484 C 45.63687515258789 -155.7356109619141 46.33450698852539 -155.8284301757812 39.93575668334961 -155.7586669921875 L 34.21157455444336 -155.6889038085938 L 33.32712554931641 -158.410888671875 L 31.69772720336914 -158.410888671875 L 31.62795639038086 -155.7698974609375 L 29.80109786987305 -155.8396606445312 C 25.27532577514648 -156.0377197265625 22.1690559387207 -156.3167724609375 21.05224609375 -156.6425476074219 C 20.57572555541992 -156.7820739746094 20.51719665527344 -156.8287811279297 20.37765502929688 -157.3407745361328 L 20.2263069152832 -157.8876647949219 L 19.19108581542969 -157.8876647949219 C 18.05125427246094 -157.8877410888672 18.12098693847656 -157.9343719482422 18.0045166015625 -157.1314849853516 C 17.9696159362793 -156.9103546142578 17.89987945556641 -156.8991088867188 16.74817657470703 -156.9570770263672 C 14.28161239624023 -157.0735473632812 11.97762298583984 -157.02685546875 11.87298583984375 -156.8524322509766 C 11.73344421386719 -156.6313171386719 11.53598785400391 -155.3518981933594 11.33793640136719 -153.3506164550781 C 11.2451171875 -152.4194488525391 11.16352844238281 -151.593505859375 11.16352844238281 -151.5237426757812 C 11.16352844238281 -151.4421539306641 11.03581237792969 -151.3723754882812 10.88445281982422 -151.3723754882812 C 10.72187805175781 -151.3723754882812 10.46587371826172 -151.32568359375 10.30270385742188 -151.2559204101562 L 9.999992370605469 -151.1394348144531 L 9.999992370605469 -149.4526824951172 C 9.999992370605469 -147.8002014160156 9.999992370605469 -147.7653198242188 10.25599670410156 -147.7073822021484 C 10.53505706787109 -147.6376190185547 16.88768768310547 -146.3694458007812 16.94563674926758 -146.3694458007812 C 16.95745468139648 -146.3694458007812 16.94563674926758 -146.6952056884766 16.91074752807617 -147.1025543212891 C 16.56192398071289 -150.8722076416016 20.23809051513672 -154.0133361816406 23.90250778198242 -153.0597381591797 C 26.79947662353516 -152.3035583496094 28.70732498168945 -149.3716888427734 28.12557601928711 -146.5793304443359 L 27.95116424560547 -145.7882690429688 L 39.87662506103516 -145.7882690429688 C 51.18485641479492 -145.7882690429688 51.79026794433594 -145.8000946044922 51.70867538452148 -145.9975738525391 C 51.49938583374023 -146.4628601074219 51.49938583374023 -148.3009643554688 51.70867538452148 -148.9992065429688 C 52.59313583374023 -152.0824584960938 55.58293151855469 -153.8158874511719 58.64307403564453 -153.0248413085938 C 60.63311767578125 -152.5010375976562 62.28497695922852 -150.7557373046875 62.71538543701172 -148.7313842773438 C 62.84368515014648 -148.0798492431641 62.80820465087891 -146.5793304443359 62.64562606811523 -146.0555114746094 L 62.56403732299805 -145.7876739501953 L 67.93938446044922 -145.7876739501953 L 67.93938446044922 -148.1844940185547 C 67.93938446044922 -149.7205200195312 67.89268493652344 -150.7675628662109 67.79986572265625 -151.0702667236328 C 67.49715423583984 -152.0942687988281 65.81041717529297 -153.396728515625 63.76243591308594 -154.1996154785156 C 61.48210525512695 -155.0840759277344 59.85330581665039 -155.3282470703125 54.56012725830078 -155.5724334716797 L 51.5933837890625 -155.7007293701172 L 46.59049606323242 -158.3535461425781 C 43.78728485107422 -159.8347778320312 41.63120269775391 -160.9143829345703 41.47814559936523 -160.9143829345703 M 41.47814559936523 -161.4143829345703 C 41.61854553222656 -161.4143829345703 41.71129608154297 -161.4143829345703 43.26442718505859 -160.6364898681641 C 44.20268630981445 -160.1665496826172 45.46686553955078 -159.5127868652344 46.8240966796875 -158.7956237792969 L 51.72784423828125 -156.1953735351562 L 54.58172607421875 -156.0719604492188 C 59.93633651733398 -155.824951171875 61.59840393066406 -155.5752716064453 63.94324493408203 -154.665771484375 C 65.80936431884766 -153.9341888427734 67.87175750732422 -152.5839385986328 68.27863311767578 -151.2144317626953 C 68.31931304931641 -151.0816802978516 68.43938446044922 -150.6749114990234 68.43938446044922 -148.1844940185547 L 68.43938446044922 -145.7876739501953 C 68.43938446044922 -145.5115356445312 68.21552276611328 -145.2876739501953 67.93938446044922 -145.2876739501953 L 62.56403732299805 -145.2876739501953 C 62.40560531616211 -145.2876739501953 62.25655746459961 -145.3627624511719 62.16225433349609 -145.4900665283203 C 62.06795501708984 -145.6173706054688 62.03956604003906 -145.7818298339844 62.08573532104492 -145.9333801269531 L 62.16732788085938 -146.2012176513672 C 62.30558013916016 -146.6466827392578 62.33859634399414 -148.0503845214844 62.22551727294922 -148.6311492919922 C 61.83475494384766 -150.4615478515625 60.30979156494141 -152.0691070556641 58.51580810546875 -152.5413055419922 C 58.06928634643555 -152.6567230224609 57.61323547363281 -152.7155303955078 57.16244506835938 -152.7155303955078 C 54.84914398193359 -152.7155303955078 52.85059356689453 -151.1666564941406 52.18929672241211 -148.8613433837891 C 52.18874359130859 -148.8594360351562 52.18819427490234 -148.8575439453125 52.18762588500977 -148.8556518554688 C 51.99427795410156 -148.2106018066406 52.03028869628906 -146.5014495849609 52.16466522216797 -146.2026824951172 C 52.16678619384766 -146.1979827880859 52.1688232421875 -146.1932525634766 52.17078399658203 -146.1884918212891 C 52.24308776855469 -146.0135040283203 52.22590637207031 -145.825439453125 52.12362670898438 -145.6725311279297 C 51.95998382568359 -145.4278564453125 51.68141555786133 -145.3895721435547 51.30572509765625 -145.3621978759766 C 50.98021697998047 -145.3384704589844 50.46504592895508 -145.3230895996094 49.63532638549805 -145.3122863769531 C 47.91727447509766 -145.2899322509766 44.65597534179688 -145.2882690429688 39.87662506103516 -145.2882690429688 L 27.95116424560547 -145.2882690429688 C 27.79965591430664 -145.2882690429688 27.65630722045898 -145.3569641113281 27.56140518188477 -145.4750823974609 C 27.46649551391602 -145.5931854248047 27.43026733398438 -145.7479553222656 27.46289443969727 -145.8959197998047 L 27.6365852355957 -146.6837005615234 C 28.15846633911133 -149.1955108642578 26.39112854003906 -151.8934020996094 23.77622604370117 -152.5759429931641 C 23.37787628173828 -152.6796112060547 22.96827697753906 -152.7322235107422 22.55915451049805 -152.7322235107422 C 21.13441467285156 -152.7322235107422 19.74109649658203 -152.1002655029297 18.73647689819336 -150.9983978271484 C 17.75053787231445 -149.9170227050781 17.27896499633789 -148.5498046875 17.40861511230469 -147.1486206054688 C 17.47997665405273 -146.3157043457031 17.47027587890625 -146.2012329101562 17.31459426879883 -146.0316467285156 C 17.21990585327148 -145.9284973144531 17.08566665649414 -145.8694458007812 16.94563674926758 -145.8694458007812 C 16.75798797607422 -145.8694458007812 10.44914245605469 -147.1557006835938 10.14569091796875 -147.2199249267578 L 10.14564514160156 -147.2197113037109 C 9.781669616699219 -147.3020782470703 9.593986511230469 -147.5152435302734 9.537086486816406 -147.9109039306641 C 9.499992370605469 -148.1688385009766 9.499992370605469 -148.5711669921875 9.499992370605469 -149.4526824951172 L 9.499992370605469 -151.1394348144531 C 9.499992370605469 -151.3462982177734 9.627372741699219 -151.5317993164062 9.8204345703125 -151.6060943603516 L 10.11566162109375 -151.7196807861328 C 10.27622985839844 -151.7867889404297 10.49150848388672 -151.838623046875 10.68962097167969 -151.8607177734375 C 10.71331787109375 -152.1165466308594 10.7578125 -152.5716247558594 10.84040832519531 -153.4002075195312 C 11.16103363037109 -156.64013671875 11.36856079101562 -156.9898376464844 11.44832611083984 -157.1163940429688 C 11.60610198974609 -157.3721313476562 11.89646148681641 -157.4323272705078 12.52403259277344 -157.4766235351562 C 12.93669891357422 -157.5057525634766 13.50528717041016 -157.5211334228516 14.1683464050293 -157.5211334228516 C 14.97604751586914 -157.5211486816406 15.87629699707031 -157.4988098144531 16.77175521850586 -157.4565124511719 C 17.13380813598633 -157.4383087158203 17.37641143798828 -157.4276733398438 17.5416259765625 -157.4273223876953 C 17.58859634399414 -157.7464294433594 17.6455192565918 -158.0019683837891 17.88500595092773 -158.1896209716797 C 18.13840484619141 -158.3881683349609 18.46238708496094 -158.3881683349609 18.87255477905273 -158.38818359375 L 20.2263069152832 -158.3876647949219 C 20.45108795166016 -158.3876647949219 20.64823532104492 -158.2376708984375 20.70819473266602 -158.0210266113281 L 20.85954666137695 -157.4741363525391 C 20.89800262451172 -157.3330230712891 20.92693328857422 -157.2432098388672 20.94608688354492 -157.2052154541016 C 20.99769592285156 -157.1795196533203 21.13735198974609 -157.1386260986328 21.19275665283203 -157.1223907470703 C 22.24735641479492 -156.8147735595703 25.31246566772461 -156.5365600585938 29.82295608520508 -156.3391723632812 L 31.14155578613281 -156.2888336181641 L 31.19789505004883 -158.4240417480469 C 31.20502471923828 -158.6949615478516 31.42670440673828 -158.910888671875 31.69772720336914 -158.910888671875 L 33.32712554931641 -158.910888671875 C 33.54373550415039 -158.910888671875 33.7357177734375 -158.7714080810547 33.80265426635742 -158.5653991699219 L 34.57340240478516 -156.1933441162109 L 39.92966461181641 -156.2586212158203 C 40.50249481201172 -156.2648773193359 41.0179557800293 -156.2698211669922 41.48274612426758 -156.2742614746094 C 43.58972549438477 -156.2944641113281 44.64730453491211 -156.3045806884766 45.19881439208984 -156.3788909912109 C 45.55956649780273 -156.427490234375 45.5693359375 -156.44189453125 45.73249435424805 -156.6825103759766 C 45.74785614013672 -156.7051696777344 45.76388549804688 -156.7288055419922 45.78087997436523 -156.7535400390625 L 43.52569580078125 -157.9715576171875 C 40.69143676757812 -159.4983520507812 40.68060684204102 -159.5089111328125 40.6100959777832 -159.5776672363281 C 40.60859680175781 -159.5791320800781 40.60711669921875 -159.5805969238281 40.60563659667969 -159.5820770263672 C 40.50154495239258 -159.6861419677734 40.4477653503418 -159.8274841308594 40.45421600341797 -159.9800262451172 C 40.46825790405273 -160.3124847412109 40.93527603149414 -161.114990234375 41.14869689941406 -161.2950897216797 C 41.16267776489258 -161.306884765625 41.17727661132812 -161.3178863525391 41.19245529174805 -161.3280792236328 C 41.27656555175781 -161.3845367431641 41.3753547668457 -161.4143829345703 41.47814559936523 -161.4143829345703 Z"/></g><g class="b" transform="translate(-75.637 18.343)"><path class="c" d="M123.978-9.22a4.326,4.326,0,0,1,3.176,4.549,4.333,4.333,0,0,1-5,3.991,4.383,4.383,0,0,1-3.013-6.69A4.468,4.468,0,0,1,123.978-9.22Zm-2.513,1.676a3.014,3.014,0,0,0-1.524,2.024,3.014,3.014,0,0,0,1.582,3.153,2.53,2.53,0,0,0,1.291.244,2.547,2.547,0,0,0,2.153-.931,2.877,2.877,0,0,0,.047-3.839A2.95,2.95,0,0,0,121.465-7.545Z"/><path class="d" d="M 122.8826599121094 -9.384492874145508 C 121.4508972167969 -9.384492874145508 119.9403533935547 -8.614658355712891 119.137939453125 -7.370521545410156 C 117.4275512695312 -4.729531288146973 119.0681838989258 -1.076361656188965 122.1513824462891 -0.6808309555053711 C 124.7461853027344 -0.343256950378418 126.9916763305664 -2.135236263275146 127.1542739868164 -4.671591281890869 C 127.2938003540039 -6.823641300201416 126.0723419189453 -8.557101249694824 123.9782409667969 -9.220460891723633 C 123.6278991699219 -9.331592559814453 123.2579956054688 -9.384492874145508 122.8826599121094 -9.384492874145508 M 122.8141403198242 -2.123421192169189 C 122.2093200683594 -2.123421192169189 121.8835601806641 -2.181361198425293 121.5229187011719 -2.367591381072998 C 120.3594055175781 -2.984241485595703 119.6966400146484 -4.322181224822998 119.9408187866211 -5.520581245422363 C 120.1270523071289 -6.381411552429199 120.6969833374023 -7.149401187896729 121.464973449707 -7.544931411743164 C 122.6403274536133 -8.161588668823242 124.3040161132812 -7.858864784240723 125.0134735107422 -6.893401145935059 C 125.9795227050781 -5.613411426544189 125.9558715820312 -4.19447135925293 124.9667587280273 -3.054001331329346 C 124.3731842041016 -2.379421234130859 123.7683639526367 -2.123421192169189 122.8141403198242 -2.123421192169189 M 122.8826599121094 -9.884490966796875 C 123.31787109375 -9.884490966796875 123.7373428344727 -9.821431159973145 124.1294250488281 -9.697061538696289 C 126.4573745727539 -8.959621429443359 127.8076782226562 -7.021551132202148 127.6532211303711 -4.639241218566895 C 127.4888153076172 -2.074400901794434 125.3926010131836 -0.1399812698364258 122.7772903442383 -0.1399812698364258 C 122.5488052368164 -0.1399812698364258 122.3165130615234 -0.1551313400268555 122.0868682861328 -0.1850109100341797 C 120.4889297485352 -0.3900012969970703 119.1159591674805 -1.414701461791992 118.4150848388672 -2.925971031188965 C 117.6961898803711 -4.476041316986084 117.8095397949219 -6.239161491394043 118.71826171875 -7.642321586608887 C 119.5965423583984 -9.004071235656738 121.2313690185547 -9.884490966796875 122.8826599121094 -9.884490966796875 Z M 122.8141403198242 -2.623421192169189 C 123.6320037841797 -2.623421192169189 124.0970687866211 -2.822531223297119 124.5913925170898 -3.38430118560791 C 125.4210433959961 -4.340931415557861 125.4302825927734 -5.511151313781738 124.6143798828125 -6.592191219329834 C 124.6130905151367 -6.59390115737915 124.6118240356445 -6.595611572265625 124.6105499267578 -6.597331047058105 C 124.2676620483398 -7.063971519470215 123.5678329467773 -7.365521430969238 122.8276596069336 -7.365571022033691 C 122.4165420532227 -7.365571022033691 122.0257110595703 -7.274491310119629 121.697265625 -7.102170944213867 C 121.0702590942383 -6.779234886169434 120.5862655639648 -6.134740829467773 120.4301910400391 -5.41797399520874 C 120.2318572998047 -4.437385559082031 120.8009414672852 -3.317308902740479 121.7550048828125 -2.810473442077637 C 122.0011749267578 -2.683743476867676 122.2236557006836 -2.623421192169189 122.8141403198242 -2.623421192169189 Z"/></g><g class="b" transform="translate(-695.296 17.954)"><path class="c" d="M709.164-8.773a3.914,3.914,0,0,1,1.943,1.245,4.366,4.366,0,0,1-.14,6,4.379,4.379,0,0,1-7.1-1.28,3.013,3.013,0,0,1-.361-1.768,4.24,4.24,0,0,1,2.432-3.968A4.49,4.49,0,0,1,709.164-8.773Zm-2.548,1.535a2.908,2.908,0,0,0,.419,5.41,2.906,2.906,0,0,0,3.4-4.118A3.251,3.251,0,0,0,708.9-7.318,3.471,3.471,0,0,0,706.616-7.237Z"/><path class="d" d="M 707.89306640625 -8.970847129821777 C 707.2175903320312 -8.970847129821777 706.5243530273438 -8.82151985168457 705.9414672851562 -8.540981292724609 C 704.3824462890625 -7.7729811668396 703.5216674804688 -6.365281105041504 703.5098266601562 -4.573281288146973 C 703.4979858398438 -3.70064115524292 703.5447387695312 -3.491341114044189 703.8704223632812 -2.804931163787842 C 705.1966552734375 -0.000804901123046875 708.7918701171875 0.6508064270019531 710.9674682617188 -1.524940967559814 C 712.5962524414062 -3.165581226348877 712.666015625 -5.759871482849121 711.1069946289062 -7.528211116790771 C 710.5488891601562 -8.15609073638916 710.0369262695312 -8.493680953979492 709.1642456054688 -8.772741317749023 C 708.7722778320312 -8.906524658203125 708.3365478515625 -8.970847129821777 707.89306640625 -8.970847129821777 M 707.8743286132812 -1.703334331512451 C 707.6021118164062 -1.703334331512451 707.3206176757812 -1.74265718460083 707.0347290039062 -1.827051162719727 C 704.4871215820312 -2.571990966796875 704.2192993164062 -6.073801040649414 706.6160888671875 -7.237331390380859 C 707.1865234375 -7.516397476196289 708.2567749023438 -7.551264762878418 708.8964233398438 -7.318331241607666 C 709.4545288085938 -7.120861053466797 710.1527709960938 -6.492391109466553 710.4318237304688 -5.945510864257812 C 711.459228515625 -3.942418098449707 709.9287719726562 -1.703334331512451 707.8743286132812 -1.703334331512451 M 707.89306640625 -9.470850944519043 C 708.4046630859375 -9.470850944519043 708.8851318359375 -9.395698547363281 709.3212280273438 -9.247469902038574 C 710.2655639648438 -8.944886207580566 710.8511962890625 -8.568621635437012 711.480712890625 -7.860391139984131 C 712.3185424804688 -6.910031318664551 712.7626342773438 -5.705271244049072 712.7324829101562 -4.466521263122559 C 712.7023315429688 -3.228091239929199 712.2015380859375 -2.058310985565186 711.3223266601562 -1.172671318054199 C 710.3901977539062 -0.2405109405517578 709.1668701171875 0.2721490859985352 707.87646484375 0.2721490859985352 C 705.9619140625 0.2721490859985352 704.253662109375 -0.8250112533569336 703.4183959960938 -2.591171264648438 C 703.0543823242188 -3.358411312103271 702.9970703125 -3.637310981750488 703.0098876953125 -4.580071449279785 C 703.0230102539062 -6.567691326141357 703.9856567382812 -8.13490104675293 705.7205200195312 -8.989511489868164 C 706.3668823242188 -9.300621032714844 707.136962890625 -9.470850944519043 707.89306640625 -9.470850944519043 Z M 707.8743286132812 -2.203330993652344 C 708.69921875 -2.203330993652344 709.458251953125 -2.639571189880371 709.9046630859375 -3.3702712059021 C 710.3489990234375 -4.097531318664551 710.3789672851562 -4.953001022338867 709.9869384765625 -5.717310905456543 C 709.7635498046875 -6.155120849609375 709.1644897460938 -6.693111419677734 708.7296142578125 -6.84696102142334 C 708.5093383789062 -6.927171230316162 708.1984252929688 -6.972280979156494 707.872314453125 -6.972280979156494 C 707.465087890625 -6.972280979156494 707.0679321289062 -6.901741027832031 706.8358154296875 -6.788191318511963 C 705.7265014648438 -6.249661445617676 705.4037475585938 -5.199681282043457 705.47119140625 -4.396400928497314 C 705.537353515625 -3.607800960540771 706.0197143554688 -2.644781112670898 707.175048828125 -2.30695104598999 C 707.408447265625 -2.238070964813232 707.643310546875 -2.203330993652344 707.8743286132812 -2.203330993652344 Z"/></g></g></g></svg>