<svg xmlns="http://www.w3.org/2000/svg" width="58.939" height="19.561" viewBox="0 0 58.939 19.561"><defs><style>.a{isolation:isolate;}.b{fill:none;stroke-linejoin:round;}.c,.d{stroke:none;}.d{fill:#1a76ff;}</style></defs><g class="a" transform="translate(0.5 0.5)"><g transform="translate(0 0)"><g class="b" transform="translate(-10 167.971)"><path class="c" d="M35.339-167.894a8.359,8.359,0,0,1,1.129.233c.221.07,2.4,1.14,4.852,2.373a40.168,40.168,0,0,0,4.979,2.315c.291.047,2.769.268,5.526.489,6.341.524,7.854.686,9.366,1.059a24.9,24.9,0,0,1,6.143,2.444,4.109,4.109,0,0,1,.605,2.64c0,1.559-.291,2.013-1.4,2.222l-.407.07-.012.744a2.151,2.151,0,0,1-.209,1.047c-.186.3-.2.3-1.862.3H62.389l.151-.6a7,7,0,0,0-.012-2.99,6.08,6.08,0,0,0-6.992-4.4,6.122,6.122,0,0,0-4.642,7.667l.082.326H25.846l.163-.547a7.123,7.123,0,0,0-.069-3.316,6.123,6.123,0,0,0-6.713-4.165,6.209,6.209,0,0,0-4.817,4.177,7.287,7.287,0,0,0-.1,3.153c.174.6.163.617-.512.547a4.507,4.507,0,0,1-2.373-1.059l-.721-.559V-155.1a4.629,4.629,0,0,0-.116-1.454A2.486,2.486,0,0,1,10-157.923c0-.314.116-.5.524-.919l.524-.535-.082-1.745-.07-1.745.314-.2a4.977,4.977,0,0,1,1.676-.361c1.559-.163,1.373-.1,6.073-1.873,4.723-1.78,6.05-2.234,7.155-2.444A78.823,78.823,0,0,1,35.339-167.894Zm-8.982,1.85c-.314.128-.326.163-.268.628a12.754,12.754,0,0,0,.617,1.92l.547,1.42H37.305l.535-.361c.477-.314,1.012-.884,1.012-1.07a17.851,17.851,0,0,0-2.315-1.7,6.688,6.688,0,0,0-2.513-.942A60.5,60.5,0,0,0,26.358-166.044Zm-3.548,1.4a13.231,13.231,0,0,0-2.245,1.1c-.082.14.035.326.442.768l.547.582h2.315c1.966,0,2.315-.023,2.268-.163-.035-.093-.233-.815-.442-1.606-.407-1.606-.407-1.606-.6-1.606C25.009-165.567,23.985-165.149,22.809-164.648Z"/><path class="d" d="M 32.71229934692383 -167.9712066650391 C 30.22072601318359 -167.9712066650391 26.8541374206543 -167.8753814697266 26.11355590820312 -167.7435150146484 C 25.00856781005859 -167.5336303710938 23.68188858032227 -167.0801696777344 18.95868682861328 -165.2999877929688 C 14.25852584838867 -163.5316467285156 14.44475936889648 -163.5895843505859 12.88572692871094 -163.427001953125 C 11.97821807861328 -163.3223571777344 11.41950988769531 -163.2058868408203 11.21022033691406 -163.0663604736328 L 10.89630126953125 -162.8682861328125 L 10.96604919433594 -161.1229858398438 L 11.04763793945312 -159.3777008056641 L 10.52382659912109 -158.8426361083984 C 10.11648559570312 -158.4234619140625 10.00000762939453 -158.2372283935547 10.00000762939453 -157.9232940673828 C 10.00000762939453 -157.5277557373047 10.36065673828125 -156.6900024414062 10.58176422119141 -156.5504608154297 C 10.65152740478516 -156.5037689208984 10.69823455810547 -155.9107666015625 10.69823455810547 -155.0960693359375 L 10.69823455810547 -153.7232513427734 L 11.41950988769531 -153.1645355224609 C 12.33826446533203 -152.4781188964844 12.98978424072266 -152.1872406005859 13.79264831542969 -152.1056518554688 C 14.46780014038086 -152.035888671875 14.47904968261719 -152.0476837158203 14.30463790893555 -152.6525421142578 C 14.09535598754883 -153.3507843017578 14.15329742431641 -154.9559478759766 14.40928649902344 -155.8055267333984 C 15.07262802124023 -157.9351043701172 17.00353622436523 -159.6100463867188 19.22591781616211 -159.9825134277344 C 22.08799743652344 -160.4707794189453 25.07833862304688 -158.6209411621094 25.93915939331055 -155.8173522949219 C 26.21819686889648 -154.9216613769531 26.25308609008789 -153.3046569824219 26.00831604003906 -152.5011749267578 L 25.84573745727539 -151.9542846679688 L 50.97588729858398 -151.9542846679688 L 50.8942985534668 -152.2800598144531 C 49.98677825927734 -155.8055267333984 52.04597854614258 -159.2021026611328 55.53650665283203 -159.9470520019531 C 58.57297515869141 -160.5874176025391 61.71409606933594 -158.6091156005859 62.52878570556641 -155.5495300292969 C 62.74989700317383 -154.7584686279297 62.74989700317383 -153.3507843017578 62.54061889648438 -152.5597076416016 L 62.38926696777344 -151.9554748535156 L 64.05294036865234 -151.9554748535156 C 65.71660614013672 -151.9554748535156 65.72843933105469 -151.9554748535156 65.91466522216797 -152.2581787109375 C 66.04236602783203 -152.4444274902344 66.11214447021484 -152.8163146972656 66.12395477294922 -153.3052520751953 L 66.13578796386719 -154.0496063232422 L 66.54315185546875 -154.1193695068359 C 67.64812469482422 -154.3286590576172 67.93898773193359 -154.7821350097656 67.93898773193359 -156.3411712646484 C 67.93898773193359 -157.6442260742188 67.69482421875 -158.6794586181641 67.33359527587891 -158.9815826416016 C 66.6123046875 -159.5751647949219 63.23824691772461 -160.9249267578125 61.19086837768555 -161.4250946044922 C 59.67854690551758 -161.7975769042969 58.16621780395508 -161.9601593017578 51.82485961914062 -162.4839935302734 C 49.06743621826172 -162.7051086425781 46.58965682983398 -162.9262390136719 46.29878997802734 -162.9729309082031 C 45.94996643066406 -163.0196380615234 44.27446746826172 -163.7988739013672 41.31958770751953 -165.2881622314453 C 38.8648567199707 -166.5208587646484 36.68918609619141 -167.5915679931641 36.46807861328125 -167.6613311767578 C 36.2587890625 -167.731689453125 35.74679946899414 -167.8363342285156 35.33944702148438 -167.8942718505859 C 34.95532989501953 -167.9479522705078 33.94026565551758 -167.9712066650391 32.71229934692383 -167.9712066650391 M 37.30523681640625 -162.0766296386719 L 27.25341796875 -162.0766296386719 L 26.70653915405273 -163.4961700439453 C 26.40384674072266 -164.2760009765625 26.12478637695312 -165.1368103027344 26.08990859985352 -165.4158630371094 C 26.03196716308594 -165.8811645507812 26.04378890991211 -165.9160461425781 26.35773849487305 -166.0443420410156 C 26.76507949829102 -166.2069244384766 32.98937606811523 -166.3003234863281 34.02399826049805 -166.1483917236328 C 34.84993743896484 -166.0319213867188 35.68767929077148 -165.7179870605469 36.53725814819336 -165.2059783935547 C 37.24670791625977 -164.7755737304688 38.85244750976562 -163.6008148193359 38.85244750976562 -163.5074005126953 C 38.85244750976562 -163.3217620849609 38.31739807128906 -162.751220703125 37.84027862548828 -162.4372711181641 L 37.30523681640625 -162.0766296386719 M 23.86811828613281 -162.1930999755859 L 21.55292892456055 -162.1930999755859 L 21.00605773925781 -162.7748718261719 C 20.59870910644531 -163.2171173095703 20.48224639892578 -163.4033508300781 20.56382751464844 -163.5428771972656 C 20.62175750732422 -163.6475219726562 21.63392639160156 -164.147705078125 22.80925750732422 -164.6478729248047 C 23.98458862304688 -165.1486358642578 25.00857925415039 -165.5672149658203 25.08957672119141 -165.5678100585938 C 25.28704833984375 -165.5678100585938 25.28704833984375 -165.5678100585938 25.69438934326172 -163.9620513916016 C 25.90367889404297 -163.1709899902344 26.10173797607422 -162.4490966796875 26.13661956787109 -162.3562774658203 C 26.18332672119141 -162.2161560058594 25.83450698852539 -162.1930999755859 23.86811828613281 -162.1930999755859 M 32.71229934692383 -168.4712066650391 C 33.67551803588867 -168.4712066650391 34.92520904541016 -168.4570159912109 35.40864944458008 -168.3894653320312 C 35.80339813232422 -168.3333129882812 36.36642837524414 -168.2229919433594 36.62740707397461 -168.13525390625 L 36.62739944458008 -168.1352386474609 C 37.01068496704102 -168.0047454833984 40.18737411499023 -166.4162292480469 41.54396820068359 -165.7349853515625 C 45.43645858764648 -163.7731323242188 46.21513748168945 -163.4959869384766 46.36927795410156 -163.4678802490234 C 46.37357711791992 -163.4673156738281 46.37374877929688 -163.4673004150391 46.37802886962891 -163.4666137695312 C 46.63794708251953 -163.4248962402344 49.03964996337891 -163.2089385986328 51.86483001708984 -162.9823913574219 C 58.38347625732422 -162.4439239501953 59.79572677612305 -162.2836608886719 61.31044769287109 -161.9105834960938 C 63.24334716796875 -161.4383850097656 66.79927062988281 -160.06884765625 67.65132141113281 -159.3676452636719 C 68.36253356933594 -158.7728424072266 68.43898773193359 -157.0530853271484 68.43898773193359 -156.3411712646484 C 68.43898773193359 -154.7682342529297 68.16017150878906 -153.916748046875 66.63619995117188 -153.6280975341797 C 66.63385009765625 -153.6276550292969 66.63148498535156 -153.6272277832031 66.62913513183594 -153.6268157958984 L 66.6239013671875 -153.2973022460938 C 66.60912322998047 -152.6848907470703 66.51461029052734 -152.2573699951172 66.3349609375 -151.9871520996094 C 66.19951629638672 -151.7684936523438 66.0399169921875 -151.5679473876953 65.61758422851562 -151.4997253417969 C 65.34378051757812 -151.4554748535156 64.93925476074219 -151.4554748535156 64.05294036865234 -151.4554748535156 L 62.38926696777344 -151.4554748535156 C 62.23526000976562 -151.4554748535156 62.08984756469727 -151.5264434814453 61.99509811401367 -151.6478576660156 C 61.90034484863281 -151.7692718505859 61.86682891845703 -151.9275817871094 61.90424728393555 -152.0769653320312 L 62.05559539794922 -152.6811981201172 C 62.05613708496094 -152.6833343505859 62.05668640136719 -152.6854553222656 62.05724716186523 -152.6875915527344 C 62.24528884887695 -153.3983764648438 62.24041748046875 -154.7238159179688 62.04724884033203 -155.4149322509766 C 62.04668807983398 -155.4169158935547 62.04614639282227 -155.4188842773438 62.04562759399414 -155.4208831787109 C 61.40584564208984 -157.8235626220703 59.15493774414062 -159.5674438476562 56.69344711303711 -159.5674438476562 C 56.33921051025391 -159.5674438476562 55.98466491699219 -159.5305633544922 55.63967895507812 -159.4578094482422 C 54.10865020751953 -159.1310577392578 52.82334899902344 -158.23779296875 52.02173614501953 -156.9428253173828 C 51.19670867919922 -155.6100463867188 50.96827697753906 -153.9983673095703 51.37850952148438 -152.4047088623047 L 51.46090698242188 -152.0757598876953 C 51.49831771850586 -151.9263763427734 51.46480560302734 -151.7680816650391 51.37005615234375 -151.6466674804688 C 51.27530670166016 -151.5252532958984 51.12989807128906 -151.4542846679688 50.97588729858398 -151.4542846679688 L 25.84573745727539 -151.4542846679688 C 25.68790817260742 -151.4542846679688 25.53933715820312 -151.52880859375 25.44496917724609 -151.6553192138672 C 25.3505859375 -151.7818450927734 25.32148742675781 -151.9454803466797 25.3664665222168 -152.0967712402344 L 25.52904891967773 -152.6436614990234 C 25.74384689331055 -153.3487854003906 25.70940780639648 -154.873779296875 25.46178817749023 -155.6686248779297 C 24.76908874511719 -157.9246520996094 22.5369987487793 -159.5606536865234 20.15376663208008 -159.5606536865234 C 19.87009811401367 -159.5606536865234 19.58622741699219 -159.5367584228516 19.31001663208008 -159.4896240234375 C 17.27138900756836 -159.1479644775391 15.49436950683594 -157.6077728271484 14.88666915893555 -155.6568298339844 C 14.65786743164062 -154.8974456787109 14.60320663452148 -153.3979034423828 14.78358840942383 -152.7960968017578 C 14.78408813476562 -152.7944183349609 14.78457641601562 -152.7927551269531 14.78506851196289 -152.7910766601562 C 14.89045715332031 -152.4255523681641 14.98147583007812 -152.1098937988281 14.77376937866211 -151.8338165283203 C 14.58021926879883 -151.5765838623047 14.27436828613281 -151.5765838623047 14.17385864257812 -151.5765838623047 C 14.05720901489258 -151.5765838623047 13.92097473144531 -151.5897369384766 13.74125671386719 -151.6083068847656 C 12.84681701660156 -151.6991882324219 12.11171722412109 -152.0232391357422 11.12024688720703 -152.7639923095703 C 11.117919921875 -152.7657165527344 11.11560821533203 -152.7674865722656 11.11331939697266 -152.7692565917969 L 10.39204406738281 -153.3279724121094 C 10.26979064941406 -153.4226684570312 10.19823455810547 -153.568603515625 10.19823455810547 -153.7232513427734 L 10.19823455810547 -155.0960693359375 C 10.19823455810547 -155.7099914550781 10.17083740234375 -156.1036682128906 10.14710998535156 -156.2724609375 C 9.787269592285156 -156.6653289794922 9.500007629394531 -157.5040740966797 9.500007629394531 -157.9232940673828 C 9.500007629394531 -158.4646759033203 9.775726318359375 -158.7902526855469 10.16524505615234 -159.1910858154297 L 10.53801727294922 -159.5718688964844 L 10.46659851074219 -161.0996398925781 L 10.39669799804688 -162.8483123779297 C 10.38955688476562 -163.0269317626953 10.47831726074219 -163.1957702636719 10.62948608398438 -163.2911529541016 L 10.93896484375 -163.4864196777344 C 11.14997863769531 -163.6251678466797 11.53012847900391 -163.7740020751953 12.82846069335938 -163.9237060546875 C 12.83026123046875 -163.9239196777344 12.83205413818359 -163.9241027832031 12.83386993408203 -163.9243011474609 L 12.96685028076172 -163.9381103515625 C 14.28164672851562 -164.0742340087891 14.28164672851562 -164.0742340087891 18.40141677856445 -165.6245269775391 L 18.78261947631836 -165.7679748535156 C 23.53181838989258 -167.5579376220703 24.88469696044922 -168.01904296875 26.02024841308594 -168.2347412109375 C 26.02213668823242 -168.2350921630859 26.02401733398438 -168.2354431152344 26.02590942382812 -168.2357788085938 C 26.87721633911133 -168.3873596191406 30.51985931396484 -168.4712066650391 32.71229934692383 -168.4712066650391 Z M 38.21021270751953 -163.4157867431641 C 37.74882507324219 -163.7779083251953 36.79998016357422 -164.4617614746094 36.27791595458984 -164.7785034179688 C 35.49194717407227 -165.2521667480469 34.70970916748047 -165.5467529296875 33.95417785644531 -165.6532897949219 C 33.64592742919922 -165.6985473632812 32.71229934692383 -165.7253265380859 31.45389938354492 -165.7253265380859 C 29.19977569580078 -165.7253265380859 27.04483413696289 -165.6486663818359 26.57378005981445 -165.5804138183594 C 26.57820892333984 -165.5408325195312 26.58297348022461 -165.5025482177734 26.58607864379883 -165.4776458740234 C 26.61128616333008 -165.2759246826172 26.85840606689453 -164.4866943359375 27.17265701293945 -163.6770935058594 L 27.59661102294922 -162.5766296386719 L 37.15246200561523 -162.5766296386719 L 37.56081771850586 -162.8518829345703 C 37.56234741210938 -162.8529052734375 37.56388854980469 -162.8539428710938 37.56543731689453 -162.8549652099609 C 37.81007766723633 -163.0159301757812 38.05359268188477 -163.2427520751953 38.21021270751953 -163.4157867431641 Z M 25.51400375366211 -162.7097015380859 C 25.38971710205078 -163.1596069335938 25.23654556274414 -163.7376708984375 25.21101760864258 -163.8341674804688 C 25.21058654785156 -163.8358154296875 25.21015930175781 -163.8374633789062 25.20973587036133 -163.839111328125 C 25.08191680908203 -164.3430023193359 24.98226547241211 -164.7358245849609 24.91326522827148 -164.9776153564453 C 24.58396148681641 -164.8494415283203 23.96648406982422 -164.5974273681641 23.0052490234375 -164.1878814697266 C 22.18394470214844 -163.83837890625 21.5268669128418 -163.5248565673828 21.17366409301758 -163.3387145996094 C 21.22260665893555 -163.2808685302734 21.28710174560547 -163.2078094482422 21.37205505371094 -163.1155395507812 L 21.76914978027344 -162.6930999755859 L 23.86811828613281 -162.6930999755859 C 24.38025283813477 -162.6930999755859 25.07368087768555 -162.6930999755859 25.51400375366211 -162.7097015380859 Z"/></g><g class="b" transform="translate(-80.169 20.102)"><path class="c" d="M127.73-10.705a4.652,4.652,0,0,1,2.443,7.772,4.618,4.618,0,0,1-7.866-2.5,4.657,4.657,0,0,1,3.746-5.27A3.4,3.4,0,0,1,127.73-10.705ZM125.659-8.96A3.075,3.075,0,0,0,126.5-3.1a3.191,3.191,0,0,0,3.432-2.723A3.1,3.1,0,0,0,125.659-8.96Z"/><path class="d" d="M 126.9180450439453 -10.81000232696533 C 126.6852569580078 -10.81000232696533 126.4437408447266 -10.77511978149414 126.0538330078125 -10.70535469055176 C 123.6109466552734 -10.26371479034424 121.9123840332031 -7.889944553375244 122.3079071044922 -5.435184478759766 C 122.9015045166016 -1.68860912322998 127.4851531982422 -0.2223606109619141 130.1734161376953 -2.933714866638184 C 132.720947265625 -5.51618480682373 131.3132629394531 -10.00711441040039 127.7299194335938 -10.70535469055176 C 127.3749008178711 -10.77511978149414 127.1508331298828 -10.81000232696533 126.9180450439453 -10.81000232696533 M 126.8634185791016 -3.069467067718506 C 126.7411651611328 -3.069467067718506 126.6184997558594 -3.078234195709229 126.4966430664062 -3.096304416656494 C 123.4016418457031 -3.549774646759033 122.8198852539062 -7.680064678192139 125.6588897705078 -8.960064888000488 C 127.741096496582 -9.902462005615234 130.1958770751953 -8.099242210388184 129.9286499023438 -5.818894863128662 C 129.7465057373047 -4.305519104003906 128.3170471191406 -3.069467067718506 126.8634185791016 -3.069467067718506 M 126.9180450439453 -11.31000423431396 C 127.1938018798828 -11.31000423431396 127.4500045776367 -11.26992511749268 127.8263320922852 -11.19597434997559 C 128.773681640625 -11.01137447357178 129.640625 -10.56868457794189 130.3326873779297 -9.915904998779297 C 130.9815368652344 -9.303884506225586 131.4663696289062 -8.52153491973877 131.7347869873047 -7.653434753417969 C 132.3021545410156 -5.818514823913574 131.8515319824219 -3.922874450683594 130.5293579101562 -2.582574844360352 C 129.5431823730469 -1.587924957275391 128.2471618652344 -1.040635108947754 126.8791580200195 -1.040635108947754 C 125.6953887939453 -1.040635108947754 124.5392303466797 -1.448774337768555 123.6236877441406 -2.189865112304688 C 122.6422119140625 -2.98432445526123 122.0164489746094 -4.079484462738037 121.8140716552734 -5.356944561004639 C 121.6021728515625 -6.672034740447998 121.9199981689453 -8.007225036621094 122.7092132568359 -9.115264892578125 C 123.4965972900391 -10.22073459625244 124.6528167724609 -10.96017456054688 125.9648895263672 -11.19737434387207 C 126.3733825683594 -11.27047443389893 126.6458740234375 -11.31000423431396 126.9180450439453 -11.31000423431396 Z M 126.8634185791016 -3.569464683532715 C 128.0838012695312 -3.569464683532715 129.2841796875 -4.648514747619629 129.4322204589844 -5.878644466400146 C 129.5138549804688 -6.57514476776123 129.2912139892578 -7.26048469543457 128.80517578125 -7.806844711303711 C 128.2989807128906 -8.375824928283691 127.5639190673828 -8.715534210205078 126.8388442993164 -8.715564727783203 C 126.5020599365234 -8.715564727783203 126.1744232177734 -8.644564628601074 125.8650512695312 -8.504545211791992 C 124.5473785400391 -7.910454750061035 124.2237396240234 -6.673144817352295 124.3467712402344 -5.794004440307617 C 124.4705200195312 -4.909834861755371 125.1267852783203 -3.80235481262207 126.5691223144531 -3.591024875640869 C 126.665885925293 -3.576674461364746 126.7646179199219 -3.569464683532715 126.8634185791016 -3.569464683532715 Z"/></g><g class="b" transform="translate(-735.427 20.102)"><path class="c" d="M746.48-10.705a4.925,4.925,0,0,1,3.35,2.641,3.371,3.371,0,0,1,.314,1.885,3.309,3.309,0,0,1-.361,1.978,4.731,4.731,0,0,1-2.234,2.234,3.131,3.131,0,0,1-1.943.384,3.131,3.131,0,0,1-1.943-.384,4.563,4.563,0,0,1-2.222-2.211,3.339,3.339,0,0,1-.372-2,3.37,3.37,0,0,1,.314-1.885,4.866,4.866,0,0,1,3.4-2.64A3.5,3.5,0,0,1,746.48-10.705ZM744.386-8.96a3.039,3.039,0,0,0-1.827,2.548A3.047,3.047,0,0,0,746.4-3.2a3.065,3.065,0,0,0,2.257-2.676A3.084,3.084,0,0,0,744.386-8.96Z"/><path class="d" d="M 745.6480712890625 -10.81000232696533 C 745.4124755859375 -10.81000232696533 745.1710815429688 -10.77511978149414 744.781494140625 -10.70535469055176 C 743.3501586914062 -10.43753433227539 742.0123291015625 -9.402294158935547 741.3839111328125 -8.064945220947266 C 741.1047973632812 -7.483184337615967 741.0699462890625 -7.262064456939697 741.0699462890625 -6.180124759674072 C 741.0699462890625 -5.05148458480835 741.0935668945312 -4.900134563446045 741.4423828125 -4.178834915161133 C 741.896484375 -3.201544761657715 742.6408081054688 -2.468424797058105 743.6647338867188 -1.968254089355469 C 744.3860473632812 -1.60760498046875 744.5255737304688 -1.58454418182373 745.607421875 -1.58454418182373 C 746.6893310546875 -1.58454418182373 746.828857421875 -1.60760498046875 747.5501708984375 -1.968254089355469 C 748.550537109375 -2.456604957580566 749.3297119140625 -3.236424446105957 749.7838134765625 -4.201894760131836 C 750.1213989257812 -4.899534702301025 750.1444702148438 -5.050894737243652 750.1444702148438 -6.179534435272217 C 750.1444702148438 -7.261474609375 750.109619140625 -7.48259449005127 749.83056640625 -8.064353942871094 C 749.2257080078125 -9.367414474487305 747.8646850585938 -10.43753433227539 746.4801025390625 -10.70535469055176 C 746.113525390625 -10.77511978149414 745.8836669921875 -10.81000232696533 745.6480712890625 -10.81000232696533 M 745.5801391601562 -3.084249496459961 C 743.8751831054688 -3.084249496459961 742.3881225585938 -4.583015918731689 742.5592041015625 -6.411884307861328 C 742.6644287109375 -7.552354335784912 743.3271484375 -8.482944488525391 744.3860473632812 -8.960063934326172 C 746.4566040039062 -9.902473449707031 748.88818359375 -8.134125709533691 748.65576171875 -5.876834392547607 C 748.5274658203125 -4.585594654083252 747.6666259765625 -3.573424339294434 746.3984985351562 -3.200954437255859 C 746.1239624023438 -3.121593475341797 745.8494873046875 -3.084249496459961 745.5801391601562 -3.084249496459961 M 745.6480712890625 -11.31000423431396 C 745.9249267578125 -11.31000423431396 746.1869506835938 -11.2701244354248 746.5736083984375 -11.19653415679932 C 748.1202392578125 -10.89737510681152 749.6098022460938 -9.724703788757324 750.28271484375 -8.277765274047852 C 750.6110229492188 -7.59260368347168 750.6444702148438 -7.267435073852539 750.6444702148438 -6.179534435272217 C 750.6444702148438 -5.019845485687256 750.6166381835938 -4.775364398956299 750.2348022460938 -3.985978126525879 C 749.72900390625 -2.912428855895996 748.8765258789062 -2.059356689453125 747.76953125 -1.51893424987793 C 746.9547119140625 -1.111514091491699 746.73828125 -1.08454418182373 745.607421875 -1.08454418182373 C 744.4766235351562 -1.08454418182373 744.2601928710938 -1.111514091491699 743.441162109375 -1.521044731140137 C 742.3148803710938 -2.071159362792969 741.4890747070312 -2.893917083740234 740.9906005859375 -3.964553833007812 C 740.5985717773438 -4.775800704956055 740.5699462890625 -5.022212505340576 740.5699462890625 -6.180124759674072 C 740.5699462890625 -7.269584655761719 740.6034545898438 -7.594074726104736 740.93310546875 -8.281225204467773 C 741.6249389648438 -9.753554344177246 743.10009765625 -10.89942455291748 744.6895141601562 -11.19682502746582 C 745.1007080078125 -11.27047443389893 745.3734741210938 -11.31000423431396 745.6480712890625 -11.31000423431396 Z M 745.5801391601562 -3.584244728088379 C 745.8082885742188 -3.584244728088379 746.036865234375 -3.616894721984863 746.2596435546875 -3.68128490447998 C 747.3395385742188 -3.99848461151123 748.050048828125 -4.837954521179199 748.158203125 -5.926264762878418 C 748.2294311523438 -6.61830472946167 748.002197265625 -7.293674468994141 747.5185546875 -7.829734325408936 C 747.0162963867188 -8.386444091796875 746.2894287109375 -8.718844413757324 745.57421875 -8.718924522399902 C 745.2350463867188 -8.718924522399902 744.905029296875 -8.646944046020508 744.5932006835938 -8.50499439239502 C 743.704833984375 -8.104724884033203 743.1456298828125 -7.32535457611084 743.0570678710938 -6.365944385528564 C 742.990234375 -5.650984764099121 743.2218627929688 -4.962854385375977 743.7092895507812 -4.427694320678711 C 744.197509765625 -3.891674995422363 744.87939453125 -3.584244728088379 745.5801391601562 -3.584244728088379 Z"/></g></g></g></svg>