<svg xmlns="http://www.w3.org/2000/svg" width="24.948" height="24.841" viewBox="0 0 24.948 24.841"><defs><style>.a{fill:#1a76ff;}</style></defs><circle class="a" cx="5.175" cy="5.175" r="5.175" transform="translate(7.245 7.246)"/><path class="a" d="M19.684,30.035a10.35,10.35,0,1,1,10.351-10.35A10.363,10.363,0,0,1,19.684,30.035Zm0-18.631a8.28,8.28,0,1,0,8.28,8.28A8.29,8.29,0,0,0,19.684,11.4Z" transform="translate(-7.264 -7.263)"/><g transform="translate(0)"><path class="a" d="M16.369,11.881c-.571,0-1.036-.348-1.036-.777V8.777c0-.428.464-.777,1.036-.777s1.036.348,1.036.777V11.1C17.4,11.533,16.941,11.881,16.369,11.881Z" transform="translate(-3.948 -8)"/><path class="a" d="M16.369,24.543c-.571,0-1.036-.348-1.036-.776V21.442c0-.428.463-.776,1.036-.776s1.036.348,1.036.776v2.325C17.4,24.2,16.941,24.543,16.369,24.543Z" transform="translate(-3.948 0.299)"/><path class="a" d="M11.1,17.4H8.777C8.347,17.4,8,16.94,8,16.369s.347-1.036.777-1.036H11.1c.428,0,.777.464.777,1.036S11.533,17.4,11.1,17.4Z" transform="translate(-8 -3.948)"/><path class="a" d="M23.771,17.4H21.443c-.428,0-.777-.464-.777-1.036s.347-1.036.777-1.036h2.328c.43,0,.777.464.777,1.036S24.2,17.4,23.771,17.4Z" transform="translate(0.4 -3.948)"/></g></svg>