<svg xmlns="http://www.w3.org/2000/svg" width="50.624" height="66.46" viewBox="0 0 50.624 66.46"><defs><style>.a{fill:#2d2d2d;}</style></defs><g transform="translate(0 0)"><path class="a" d="M109.391,13.794,96.875,1.953A7.111,7.111,0,0,0,91.969,0H68.139A7.147,7.147,0,0,0,61,7.139V59.321a7.147,7.147,0,0,0,7.139,7.139h36.345a7.147,7.147,0,0,0,7.139-7.139V18.98a7.169,7.169,0,0,0-2.233-5.186Zm-3.782,1.782H95.918a.65.65,0,0,1-.649-.649V5.794Zm-1.124,46.99H68.139a3.249,3.249,0,0,1-3.245-3.245V7.139a3.249,3.249,0,0,1,3.245-3.245H91.374V14.928a4.548,4.548,0,0,0,4.543,4.543H107.73v39.85A3.249,3.249,0,0,1,104.485,62.566Z" transform="translate(-61 0)"/><path class="a" d="M160.315,200H130.063a1.766,1.766,0,1,0,0,3.481h30.252a1.766,1.766,0,1,0,0-3.481Z" transform="translate(-120.225 -173.867)"/><path class="a" d="M160.315,280H130.063a1.766,1.766,0,1,0,0,3.481h30.252a1.766,1.766,0,1,0,0-3.481Z" transform="translate(-120.225 -243.415)"/><path class="a" d="M138.18,360h-8.439a1.741,1.741,0,0,0,0,3.481h8.439a1.741,1.741,0,0,0,0-3.481Z" transform="translate(-118.973 -312.961)"/></g></svg>