<svg xmlns="http://www.w3.org/2000/svg" width="55.547" height="19.235" viewBox="0 0 55.547 19.235"><defs><style>.a{isolation:isolate;}.b{fill:#1c1c1c;}.c{fill:none;stroke-linejoin:round;}.d,.e{stroke:none;}.e{fill:#1c1c1c;}</style></defs><g class="a" transform="translate(0 0.5)"><g transform="translate(0 3.179)"><path class="b" d="M97.648,166.708a.3.3,0,0,0-.42.1l-1.14,1.822a.3.3,0,0,0,.258.466h.593l-.853,1.378a.3.3,0,1,0,.518.321l1.14-1.843a.3.3,0,0,0-.259-.465H96.9l.848-1.356A.3.3,0,0,0,97.648,166.708Z" transform="translate(-92.796 -160.458)"/><path class="b" d="M20.06,12.847a1.254,1.254,0,0,1-.6-1.07v-.6a3.47,3.47,0,0,1-2.041-3.159V5.571a1.179,1.179,0,0,1,.524-2.236h.293V2.569H18.8v.766h.563V.842a.282.282,0,1,0-.563,0V2.569h-.561V.842a.842.842,0,1,1,1.685,0V3.335h1.926V.842a.842.842,0,1,1,1.685,0V3.335h.293a1.179,1.179,0,0,1,.524,2.236c0,2.657,0,2.515-.007,2.669a.28.28,0,1,1-.56-.036c.008-.129.006.019.006-2.51H17.98V8.017a2.9,2.9,0,0,0,5.488,1.329.28.28,0,1,1,.5.257,3.458,3.458,0,0,1-1.658,1.575v.6a1.254,1.254,0,0,1-.6,1.07,1.932,1.932,0,0,1-.8.21A2.28,2.28,0,0,1,20.06,12.847Zm2.911-12a.282.282,0,1,0-.563,0V3.335h.563Zm.969,4.28.014,0A.619.619,0,0,0,23.825,3.9H17.943a.619.619,0,0,0-.115,1.227C17.925,5.141,23.848,5.14,23.94,5.123Zm-2.193,6.251a3.489,3.489,0,0,1-1.727,0v.4a.7.7,0,0,0,.693.693,1.588,1.588,0,0,0,.562-.037.694.694,0,0,0,.472-.656v-.4Z" transform="translate(-16.763 0)"/></g><g transform="translate(26.769 4.025)"><g transform="translate(0 0)"><g class="c" transform="translate(-251.28 -187.222)"><path class="d" d="M256.173,187.576a3.443,3.443,0,0,1,1.732,1.8l-2.425-1.055-1.384,1.5,2.426,1.055a6.735,6.735,0,0,1-3.121-.307,3.3,3.3,0,0,1-1.539-1.427,5.339,5.339,0,0,1-.582-1.6C252.628,187.253,254.807,186.981,256.173,187.576Z"/><path class="e" d="M 254.0550842285156 187.2218627929688 C 253.0624694824219 187.2218627929688 252.0393981933594 187.3790893554688 251.2799987792969 187.5419158935547 C 251.3652648925781 187.97412109375 251.5341491699219 188.57421875 251.8624267578125 189.1447906494141 C 252.1898498535156 189.7153167724609 252.6775207519531 190.2568969726562 253.4012756347656 190.572021484375 C 254.2568511962891 190.9450836181641 255.4320678710938 190.9776153564453 256.5220336914062 190.8788604736328 L 254.0957183837891 189.8235015869141 L 255.4794769287109 188.3253021240234 L 257.9049682617188 189.3800811767578 C 257.5869750976562 188.6806335449219 257.0553588867188 187.9605102539062 256.1730346679688 187.5762023925781 C 255.5764923095703 187.3163757324219 254.8250122070312 187.2218627929688 254.0550842285156 187.2218627929688 M 254.0550842285156 186.7218627929688 C 254.9897308349609 186.7218627929688 255.7694854736328 186.8550720214844 256.3726806640625 187.1177978515625 C 257.2439575195312 187.4972839355469 257.9126281738281 188.1887969970703 258.3601379394531 189.1731567382812 C 258.4457702636719 189.3615264892578 258.4065246582031 189.5831756591797 258.2614135742188 189.730712890625 C 258.1163330078125 189.8782348632812 257.895263671875 189.9210968017578 257.70556640625 189.8386077880859 L 255.6057891845703 188.9254608154297 L 254.9405517578125 189.6457214355469 L 256.7214660644531 190.4203643798828 C 256.9309387207031 190.511474609375 257.0520324707031 190.7329864501953 257.0156555175781 190.95849609375 C 256.979248046875 191.1840362548828 256.7946472167969 191.3562164306641 256.567138671875 191.3768157958984 C 256.2022399902344 191.4098815917969 255.8496551513672 191.4266357421875 255.5191802978516 191.4266357421875 C 254.5843200683594 191.4266357421875 253.8045196533203 191.2933197021484 253.2014312744141 191.0303497314453 C 252.4643249511719 190.7093963623047 251.8678283691406 190.1587066650391 251.4287719726562 189.3936767578125 C 251.0601501464844 188.7529754638672 250.8776245117188 188.0856170654297 250.7894592285156 187.6386871337891 C 250.7366333007812 187.3708953857422 250.9083251953125 187.1102447509766 251.1751708984375 187.0530242919922 C 251.7520141601562 186.9293365478516 252.8931884765625 186.7218627929688 254.0550842285156 186.7218627929688 Z"/></g></g></g><g transform="translate(10.601)"><g transform="translate(0 0)"><g class="c" transform="translate(0.329 -119.135)"><path class="d" d="M3.02,122.073a10.8,10.8,0,0,1,7.164-2.938H20.674a11.741,11.741,0,0,1,4.45.85l4.258,4,9.421.584c3.177.726,5.311,2.758,5.311,5.056l0,2.594a1.452,1.452,0,0,1-.318.817,2.455,2.455,0,0,1-.885.539l-1.62-.026a3.071,3.071,0,0,0,.065-.887,4.037,4.037,0,0,0-.487-1.856,5.71,5.71,0,0,0-5.211-3.069,5.43,5.43,0,0,0-5.425,4.038,3.088,3.088,0,0,0,0,1.774l-16.321.1a3.088,3.088,0,0,0,0-1.774,5.6,5.6,0,0,0-5.435-4.242A5.463,5.463,0,0,0,3.433,130.6a5.291,5.291,0,0,0-.693,2.148,3.119,3.119,0,0,0,0,.891,2.378,2.378,0,0,1-2.774-1.775c-.685-2.233.033-7.155.033-7.155Zm10.149.831a6,6,0,0,0,3.406,5.1,7.241,7.241,0,0,0,1.71.49,11.01,11.01,0,0,0,1.79.138,17.77,17.77,0,0,0,4.018-.508h0l1.821.792,1.384-1.5-1.826-.794a5.855,5.855,0,0,0-3.354-4.61c-3.244-1.414-7.979-.005-8.179.056l-.79.239Z"/><path class="e" d="M 10.18337249755859 119.1349945068359 C 7.37969970703125 119.1349945068359 4.630760192871094 120.4989776611328 3.019550323486328 122.0734405517578 L 0 124.7115478515625 C 0 124.7115478515625 -0.7182998657226562 129.63427734375 -0.03321075439453125 131.8668975830078 C 0.6518936157226562 134.0995178222656 2.740375518798828 133.64208984375 2.740371704101562 133.6420593261719 C 2.655071258544922 133.3553161621094 2.740371704101562 133.0541381835938 2.740371704101562 132.7508239746094 C 2.740371704101562 132.1512756347656 3.117240905761719 131.1245880126953 3.433452606201172 130.6025390625 C 4.405342102050781 128.9955444335938 5.790641784667969 127.6259384155273 8.480579376220703 127.6259384155273 C 11.60134124755859 127.6259384155273 13.31636047363281 129.8469085693359 13.91603088378906 131.8683624267578 C 14.00134086608887 132.1550903320312 14.04614067077637 132.4518890380859 14.04614067077637 132.7552032470703 C 14.04614067077637 133.0585327148438 14.0013313293457 133.3553161621094 13.91603088378906 133.6420593261719 L 30.23677062988281 133.5452575683594 C 30.15147018432617 133.2585144042969 30.10666084289551 132.9617156982422 30.10666084289551 132.6583862304688 C 30.10666084289551 132.3550872802734 30.15147018432617 132.0582885742188 30.23677062988281 131.7715454101562 C 30.83645057678223 129.7500915527344 32.5402717590332 127.7331466674805 35.66189193725586 127.7331466674805 C 38.37509918212891 127.7331466674805 39.91667175292969 129.1732635498047 40.87305068969727 130.8021392822266 C 41.17290115356445 131.3129577636719 41.35966110229492 132.0748443603516 41.35966110229492 132.6583862304688 C 41.35966110229492 132.9617156982422 41.38003921508789 133.2585144042969 41.29474258422852 133.5452575683594 L 42.91445159912109 133.5710296630859 C 42.91445159912109 133.5710296630859 43.4984016418457 133.3709259033203 43.79904174804688 133.0319519042969 C 44.09967041015625 132.6929779052734 44.11698150634766 132.2151794433594 44.11698150634766 132.2151794433594 L 44.11447143554688 129.6211853027344 C 44.11447143554688 127.3230590820312 41.98026275634766 125.2915573120117 38.80350112915039 124.5655059814453 L 29.38294982910156 123.9815216064453 L 25.12457084655762 119.9846038818359 C 23.78132057189941 119.4288482666016 22.24248123168945 119.1349945068359 20.67435073852539 119.1349945068359 L 10.18337249755859 119.1349945068359 M 25.91467094421387 128.9199981689453 L 24.09322166442871 128.1277465820312 C 22.95035362243652 128.4044189453125 20.52250862121582 128.8682556152344 18.28510093688965 128.4978332519531 C 17.69231986999512 128.3996887207031 17.11331176757812 128.2430114746094 16.57481002807617 128.00830078125 C 13.33085060119629 126.5946426391602 13.17403030395508 123.0548858642578 13.16886138916016 122.9047241210938 L 13.14904022216797 122.3129119873047 L 13.93914031982422 122.0734405517578 C 14.1390323638916 122.0125579833984 18.87444496154785 120.6042327880859 22.11841011047363 122.0178680419922 C 24.67912101745605 123.1335296630859 25.31585121154785 125.5759429931641 25.47266006469727 126.6277465820312 L 27.29841041564941 127.4217834472656 L 25.91467094421387 128.9199981689453 M 10.18337249755859 118.6349945068359 L 20.67435073852539 118.6349945068359 C 22.30731010437012 118.6349945068359 23.91227149963379 118.9419097900391 25.31573104858398 119.5225830078125 C 25.37154006958008 119.5456848144531 25.42271041870117 119.5786895751953 25.46675109863281 119.6200408935547 L 29.59374237060547 123.4936370849609 L 38.83444213867188 124.0664672851562 C 38.86153030395508 124.0681457519531 38.8884391784668 124.072021484375 38.91490173339844 124.0780792236328 C 42.32398986816406 124.8572235107422 44.61447143554688 127.0848236083984 44.61447143554688 129.6211853027344 L 44.61698150634766 132.2146911621094 C 44.61698913574219 132.2208862304688 44.61688232421875 132.2270812988281 44.61664962768555 132.2332763671875 C 44.61421966552734 132.300537109375 44.58106994628906 132.9037170410156 44.17312240600586 133.3637084960938 C 43.79597091674805 133.7889556884766 43.14905166625977 134.0191650390625 43.07653045654297 134.0440368652344 C 43.0218391418457 134.0627746582031 42.96430969238281 134.07177734375 42.90650177001953 134.0709686279297 L 41.28678894042969 134.0451965332031 C 41.1303596496582 134.0427093505859 40.98411178588867 133.9671325683594 40.89157104492188 133.8409881591797 C 40.79904174804688 133.71484375 40.77088928222656 133.5526428222656 40.81550216674805 133.4026794433594 C 40.86540222167969 133.2349395751953 40.86325073242188 133.0384826660156 40.86075973510742 132.8110046386719 C 40.86021041870117 132.7603149414062 40.85966110229492 132.7094421386719 40.85966110229492 132.6583862304688 C 40.85966110229492 132.1419067382812 40.68395233154297 131.4676818847656 40.44185256958008 131.0552368164062 C 39.32688140869141 129.1562805175781 37.76333999633789 128.233154296875 35.66189193725586 128.233154296875 C 32.08592224121094 128.233154296875 30.97227096557617 131.0503234863281 30.71612167358398 131.9137573242188 C 30.64345169067383 132.1580352783203 30.60666084289551 132.408447265625 30.60666084289551 132.6583862304688 C 30.60666084289551 132.9083557128906 30.64345169067383 133.1587677001953 30.71601104736328 133.4026794433594 C 30.76087188720703 133.5534973144531 30.73213958740234 133.7166137695312 30.63846206665039 133.8429870605469 C 30.54477119445801 133.9693908691406 30.39706039428711 134.0443115234375 30.2397403717041 134.0452575683594 L 13.91900062561035 134.1420440673828 C 13.76054763793945 134.1434020996094 13.61117935180664 134.06884765625 13.51612091064453 133.9421691894531 C 13.42106056213379 133.8155059814453 13.39163017272949 133.6512756347656 13.43679046630859 133.4994812011719 C 13.50935173034668 133.2555694580078 13.54614067077637 133.0051574707031 13.54614067077637 132.7552032470703 C 13.54614067077637 132.5052185058594 13.50935173034668 132.2548217773438 13.43679046630859 132.0109558105469 C 12.87958145141602 130.1326141357422 11.28506088256836 128.1259460449219 8.480579376220703 128.1259460449219 C 5.867862701416016 128.1259460449219 4.679328918457031 129.5086669921875 3.861289978027344 130.8612976074219 C 3.579952239990234 131.3257751464844 3.240371704101562 132.2719879150391 3.240371704101562 132.7508239746094 C 3.240371704101562 132.8762359619141 3.229011535644531 132.9962463378906 3.218990325927734 133.1021575927734 C 3.203769683837891 133.2630615234375 3.190620422363281 133.4020233154297 3.219612121582031 133.4994812011719 C 3.259250640869141 133.6327209472656 3.241630554199219 133.7764282226562 3.171001434326172 133.8961334228516 C 3.100372314453125 134.0158386230469 2.983100891113281 134.1007537841797 2.847320556640625 134.1304931640625 C 2.823841094970703 134.1356201171875 2.608951568603516 134.1807098388672 2.296741485595703 134.1807098388672 C 1.652420043945312 134.1807098388672 0.08900070190429688 133.9695434570312 -0.5112075805664062 132.0135803222656 C -1.221138000488281 129.6999969482422 -0.524749755859375 124.8448944091797 -0.4947586059570312 124.6393585205078 C -0.4775505065917969 124.5213928222656 -0.4187507629394531 124.4134521484375 -0.3289680480957031 124.3350067138672 L 2.680305480957031 121.7058715820312 C 4.137722015380859 120.2868804931641 6.972316741943359 118.6349945068359 10.18337249755859 118.6349945068359 Z M 26.45356369018555 127.5995864868164 L 25.27325057983398 127.0862579345703 C 25.1151008605957 127.0174789428711 25.00356101989746 126.8720474243164 24.97813034057617 126.7014770507812 C 24.83946990966797 125.7714385986328 24.26379013061523 123.4979705810547 21.918701171875 122.4762420654297 C 21.02671051025391 122.0875549316406 19.91585159301758 121.8904724121094 18.61694145202637 121.8904571533203 C 16.28301048278809 121.8904418945312 14.17347145080566 122.5247497558594 14.08481025695801 122.5517425537109 L 13.6616153717041 122.6800079345703 L 13.66858100891113 122.8879852294922 C 13.67329025268555 123.0246887207031 13.8182201385498 126.2616195678711 16.77456092834473 127.5499267578125 C 17.24343109130859 127.7542953491211 17.77910995483398 127.9072494506836 18.36678123474121 128.0045471191406 C 18.89196014404297 128.0914916992188 19.46687126159668 128.1355895996094 20.07553100585938 128.1355895996094 C 21.69416999816895 128.1355895996094 23.21380043029785 127.8261947631836 23.97557067871094 127.6417770385742 C 24.08081817626953 127.6162872314453 24.19429969787598 127.6260604858398 24.2935905456543 127.6692657470703 L 25.78841209411621 128.3197631835938 L 26.45356369018555 127.5995864868164 Z"/></g></g></g><g class="c" transform="translate(-41.135 0.135)"><path class="d" d="M89.316,9.762a4.5,4.5,0,0,1,2.526,2.481,4.792,4.792,0,0,1-.012,3.181,4.629,4.629,0,0,1-2.17,2.3,4.754,4.754,0,0,1-3.721,0,4.3,4.3,0,0,1-1.183-6.948,5.419,5.419,0,0,1,1.183-.85,3.288,3.288,0,0,1,1.745-.345A3.651,3.651,0,0,1,89.316,9.762Zm-2.733,1.459a2.884,2.884,0,0,0-.677,4.743,2.888,2.888,0,0,0,4.031-.253A2.845,2.845,0,0,0,87.6,10.969,3.688,3.688,0,0,0,86.583,11.221Z"/><path class="e" d="M 88.09407806396484 9.572559356689453 C 87.97139739990234 9.572559356689453 87.83628845214844 9.574806213378906 87.68575286865234 9.578857421875 C 86.75591278076172 9.601707458496094 86.49164581298828 9.647987365722656 85.94029998779297 9.923376083374023 C 85.57293701171875 10.10677719116211 85.04441833496094 10.48587608337402 84.75733184814453 10.77297592163086 C 82.63278198242188 12.8858470916748 83.22984313964844 16.38854598999023 85.94029235839844 17.72095680236816 C 86.64048004150391 18.06548690795898 86.78988647460938 18.10005569458008 87.80059051513672 18.10005569458008 C 88.81130981445312 18.10005569458008 88.96012878417969 18.06548690795898 89.660888671875 17.72095680236816 C 90.61358642578125 17.2498664855957 91.47489929199219 16.34284591674805 91.83113861083984 15.42410659790039 C 92.1990966796875 14.49423694610596 92.1990966796875 13.04697704315186 91.84285736083984 12.24308681488037 C 91.28037261962891 11.01379585266113 90.47589874267578 10.22161674499512 89.31636810302734 9.762247085571289 C 88.96685028076172 9.620994567871094 88.66380310058594 9.572559356689453 88.09407806396484 9.572559356689453 M 87.82344055175781 16.66510772705078 C 86.98500061035156 16.66510772705078 86.51451110839844 16.49284744262695 85.90573120117188 15.96433639526367 C 84.37824249267578 14.6207971572876 84.73388671875 12.09425640106201 86.58304595947266 11.22121620178223 C 86.81273651123047 11.10637664794922 87.28382110595703 11.00266647338867 87.60488891601562 10.96867752075195 C 90.16573333740234 10.77356719970703 91.64716339111328 13.7711820602417 89.93627166748047 15.71179676055908 C 89.33921813964844 16.38971710205078 88.74217224121094 16.66510772705078 87.82344055175781 16.66510772705078 M 88.09407806396484 9.07255744934082 C 88.72174072265625 9.07255744934082 89.09060668945312 9.13172721862793 89.50370788574219 9.298666000366211 C 90.76978302001953 9.800237655639648 91.6846923828125 10.69572639465332 92.29751586914062 12.03504657745361 C 92.29836273193359 12.03686714172363 92.29917907714844 12.03868675231934 92.29998779296875 12.04051685333252 C 92.71006774902344 12.96589660644531 92.70831298828125 14.56630706787109 92.29605865478516 15.60808658599854 C 91.89801025390625 16.63469696044922 90.95014190673828 17.6412353515625 89.88250732421875 18.16915702819824 C 89.10425567626953 18.55178642272949 88.87088775634766 18.60005569458008 87.80059051513672 18.60005569458008 C 86.72966003417969 18.60005569458008 86.49626922607422 18.55177688598633 85.71953582763672 18.16958618164062 C 84.27179718017578 17.45790672302246 83.29441070556641 16.15533638000488 83.03816223144531 14.59597682952881 C 82.78517150878906 13.05641651153564 83.28327178955078 11.53376770019531 84.40474700927734 10.41844749450684 C 84.72602844238281 10.0971565246582 85.30284881591797 9.682765960693359 85.71697235107422 9.47602653503418 C 86.36025238037109 9.154716491699219 86.71205902099609 9.102636337280273 87.67346954345703 9.079006195068359 C 87.83439636230469 9.074676513671875 87.97236633300781 9.07255744934082 88.09407806396484 9.07255744934082 Z M 87.82344055175781 16.16510772705078 C 88.59670257568359 16.16510772705078 89.05139923095703 15.96000671386719 89.56105041503906 15.38133716583252 C 90.20198059082031 14.65433692932129 90.35057067871094 13.70217704772949 89.95867919921875 12.8341064453125 C 89.57598114013672 11.9863862991333 88.76467132568359 11.459716796875 87.84134674072266 11.4596061706543 C 87.77834320068359 11.4596061706543 87.71419525146484 11.46199035644531 87.65026092529297 11.46667671203613 C 87.34989166259766 11.49931144714355 86.95743560791016 11.59304428100586 86.80664825439453 11.66843700408936 C 86.80329132080078 11.67011642456055 86.79991149902344 11.67175674438477 86.79651641845703 11.6733570098877 C 86.08036804199219 12.01146697998047 85.58553314208984 12.69025707244873 85.47283172607422 13.48909664154053 C 85.36055755615234 14.28487682342529 85.64583587646484 15.06985664367676 86.23594665527344 15.58889675140381 C 86.75026702880859 16.03538703918457 87.10688781738281 16.16510772705078 87.82344055175781 16.16510772705078 Z"/></g><g class="c" transform="translate(-68.499 0.135)"><path class="d" d="M89.316,9.762a4.5,4.5,0,0,1,2.526,2.481,4.792,4.792,0,0,1-.012,3.181,4.629,4.629,0,0,1-2.17,2.3,4.754,4.754,0,0,1-3.72,0,4.3,4.3,0,0,1-1.183-6.947,5.419,5.419,0,0,1,1.183-.85,3.288,3.288,0,0,1,1.745-.344A3.65,3.65,0,0,1,89.316,9.762Zm-2.733,1.459a2.883,2.883,0,0,0-.677,4.743,2.888,2.888,0,0,0,4.03-.253A2.845,2.845,0,0,0,87.6,10.969,3.687,3.687,0,0,0,86.583,11.221Z"/><path class="e" d="M 88.09356689453125 9.57255744934082 C 87.97092437744141 9.57255744934082 87.83584594726562 9.574802398681641 87.68537902832031 9.578847885131836 C 86.755615234375 9.60169792175293 86.49138641357422 9.647987365722656 85.94008636474609 9.923347473144531 C 85.57274627685547 10.10672760009766 85.04428100585938 10.48577880859375 84.75721740722656 10.77285766601562 C 82.63285827636719 12.88551807403564 83.2298583984375 16.38787841796875 85.94007873535156 17.72015762329102 C 86.64019775390625 18.06464767456055 86.78959655761719 18.09920883178711 87.80020904541016 18.09920883178711 C 88.81083679199219 18.09920883178711 88.95964813232422 18.06464767456055 89.66033935546875 17.72015762329102 C 90.61296081542969 17.24910736083984 91.47418975830078 16.34217834472656 91.83039855957031 15.42352771759033 C 92.19832611083984 14.49374771118164 92.19832611083984 13.04663848876953 91.84211730957031 12.24281787872314 C 91.27967834472656 11.01365852355957 90.47528076171875 10.2215576171875 89.31584930419922 9.762228012084961 C 88.96633911132812 9.620973587036133 88.66331481933594 9.57255744934082 88.09356689453125 9.57255744934082 M 87.82305908203125 16.66440773010254 C 86.98468780517578 16.66440773010254 86.51423645019531 16.49215698242188 85.905517578125 15.963698387146 C 84.37815093994141 14.62029838562012 84.73378753662109 12.09400844573975 86.58277893066406 11.2210578918457 C 86.81244659423828 11.10622787475586 87.28348541259766 11.00252723693848 87.60451507568359 10.96854782104492 C 90.16545867919922 10.77349662780762 91.64645385742188 13.77077484130859 89.93569946289062 15.71118831634521 C 89.33869934082031 16.3890495300293 88.74170684814453 16.66440773010254 87.82305908203125 16.66440773010254 M 88.09356689453125 9.07255744934082 C 88.72126770019531 9.07255744934082 89.09014129638672 9.13172721862793 89.50319671630859 9.29865837097168 C 90.76915740966797 9.800178527832031 91.68399810791016 10.69558715820312 92.29677581787109 12.03477764129639 C 92.297607421875 12.03658771514893 92.29843902587891 12.03841781616211 92.29924774169922 12.04024791717529 C 92.70928955078125 12.96555805206299 92.70752716064453 14.56581783294678 92.29531860351562 15.60750770568848 C 91.89730072021484 16.63402938842773 90.94950103759766 17.64047813415527 89.8819580078125 18.16835784912109 C 89.10379028320312 18.55094909667969 88.87042999267578 18.59920883178711 87.80020904541016 18.59920883178711 C 86.72934722900391 18.59920883178711 86.49597930908203 18.55093765258789 85.71932983398438 18.16878890991211 C 84.27169799804688 17.45716857910156 83.29438781738281 16.15471839904785 83.03815460205078 14.59547805786133 C 82.78517913818359 13.05605792999268 83.28324890136719 11.53354835510254 84.40464019775391 10.41832733154297 C 84.72586822509766 10.09707832336426 85.30265808105469 9.682718276977539 85.71676635742188 9.475997924804688 C 86.36000823974609 9.154708862304688 86.71179962158203 9.102628707885742 87.673095703125 9.078998565673828 C 87.83370208740234 9.074678421020508 87.97161865234375 9.07255744934082 88.09356689453125 9.07255744934082 Z M 87.82305908203125 16.16440773010254 C 88.59623718261719 16.16440773010254 89.05088806152344 15.95932769775391 89.56047821044922 15.38072776794434 C 90.20133972167969 14.65382766723633 90.34992218017578 13.7017879486084 89.95809173583984 12.83382797241211 C 89.57543182373047 11.98619842529297 88.76419830322266 11.4595775604248 87.84096527099609 11.4594783782959 C 87.77796173095703 11.4594783782959 87.71379852294922 11.46186256408691 87.64985656738281 11.46655082702637 C 87.34954833984375 11.49918174743652 86.95714569091797 11.5928897857666 86.80638122558594 11.66827774047852 C 86.80301666259766 11.66995811462402 86.79963684082031 11.67159843444824 86.79624938964844 11.67319774627686 C 86.08016967773438 12.01127815246582 85.58538055419922 12.6899881362915 85.47270202636719 13.48874855041504 C 85.36045074462891 14.2844181060791 85.64569091796875 15.06928825378418 86.23574066162109 15.58825778961182 C 86.75 16.03469848632812 87.10657501220703 16.16440773010254 87.82305908203125 16.16440773010254 Z"/></g></g></svg>