<svg xmlns="http://www.w3.org/2000/svg" width="18.463" height="16.446" viewBox="0 0 18.463 16.446"><defs><style>.a{fill:#2d2d2d;}</style></defs><g transform="translate(-251.968 -413.504)"><g transform="translate(255.988 413.504)"><path class="a" d="M309.148,262.5a2.9,2.9,0,1,0,2.049.85A2.9,2.9,0,0,0,309.148,262.5Zm0,4.058a1.159,1.159,0,1,1,.82-.339A1.16,1.16,0,0,1,309.148,266.558Z" transform="translate(-303.942 -260.181)"/><path class="a" d="M276.613,227.5a5.223,5.223,0,1,0,3.687,1.53A5.211,5.211,0,0,0,276.613,227.5Zm0,9.275a4.062,4.062,0,1,1,2.868-1.19A4.057,4.057,0,0,1,276.613,236.775Z" transform="translate(-271.406 -227.5)"/></g><g transform="translate(251.969 423.927)"><path class="a" d="M113.107,250.194a.51.51,0,0,0-.782.656l.508.613a17.821,17.821,0,0,1-6.112-1.015.309.309,0,0,1,0-.571,11.771,11.771,0,0,1,3.236-.783v-1.015c-2.327.3-4.674.888-4.674,2.073,0,1.819,5.393,2.242,7.7,2.327l-.761.761a.508.508,0,0,0,.719.719l1.459-1.438a.6.6,0,0,0,.042-.761c-.36-.423-.952-1.121-1.332-1.565Z" transform="translate(-105.283 -248.079)"/><path class="a" d="M373.406,248.079v1.015a12,12,0,0,1,3.236.782.309.309,0,0,1,0,.571,18.645,18.645,0,0,1-6.535,1.036.519.519,0,0,0-.508.529.483.483,0,0,0,.508.486c2.115-.063,7.973-.423,7.973-2.327,0-1.205-2.348-1.8-4.674-2.094Z" transform="translate(-359.617 -248.079)"/></g></g></svg>