<svg xmlns="http://www.w3.org/2000/svg" width="20.138" height="20.138" viewBox="0 0 20.138 20.138"><defs><style>.a{fill:#2d2d2d;}</style></defs><g transform="translate(-1084.94 -509.407)"><path class="a" d="M79.617,125.712a1.915,1.915,0,1,0,1.916,1.917A1.923,1.923,0,0,0,79.617,125.712Z" transform="translate(1015.348 391.827)"/><path class="a" d="M1.126,3.247a6.638,6.638,0,0,1,9.349,0,.658.658,0,0,0,.458.2.635.635,0,0,0,.458-.2.648.648,0,0,0,0-.93A7.918,7.918,0,0,0,.2,2.318a.648.648,0,0,0,0,.93A.648.648,0,0,0,1.126,3.247Z" transform="translate(1096.885 509.407) rotate(45)"/><path class="a" d="M1.126,3.247a6.638,6.638,0,0,1,9.349,0,.658.658,0,0,0,.458.2.635.635,0,0,0,.458-.2.648.648,0,0,0,0-.93A7.918,7.918,0,0,0,.2,2.317a.648.648,0,0,0,0,.93A.648.648,0,0,0,1.126,3.247Z" transform="translate(1093.134 529.545) rotate(-135)"/><path class="a" d="M7.084,2.648a.614.614,0,0,0,.458-.2.648.648,0,0,0,0-.93,5.192,5.192,0,0,0-7.345,0,.648.648,0,0,0,0,.93.648.648,0,0,0,.93,0,3.888,3.888,0,0,1,5.5,0A.635.635,0,0,0,7.084,2.648Z" transform="translate(1096.322 512.691) rotate(45)"/><path class="a" d="M7.083,2.648a.614.614,0,0,0,.458-.2.648.648,0,0,0,0-.93,5.192,5.192,0,0,0-7.345,0,.648.648,0,0,0,0,.93.648.648,0,0,0,.93,0,3.888,3.888,0,0,1,5.5,0A.635.635,0,0,0,7.083,2.648Z" transform="translate(1093.696 526.26) rotate(-135)"/></g></svg>