<svg xmlns="http://www.w3.org/2000/svg" xmlns:xlink="http://www.w3.org/1999/xlink" width="36.031" height="35.934" viewBox="0 0 36.031 35.934"><defs><style>.a{fill:#1a76ff;}.b{filter:url(#g);}.c{filter:url(#e);}.d{filter:url(#c);}.e{filter:url(#a);}</style><filter id="a" x="0" y="0.893" width="35.986" height="35.041" filterUnits="userSpaceOnUse"><feOffset input="SourceAlpha"/><feGaussianBlur stdDeviation="3" result="b"/><feFlood flood-color="#1c1c1c" flood-opacity="0.102"/><feComposite operator="in" in2="b"/><feComposite in="SourceGraphic"/></filter><filter id="c" x="7.39" y="1.515" width="27.126" height="27.126" filterUnits="userSpaceOnUse"><feOffset input="SourceAlpha"/><feGaussianBlur stdDeviation="3" result="d"/><feFlood flood-color="#1c1c1c" flood-opacity="0.102"/><feComposite operator="in" in2="d"/><feComposite in="SourceGraphic"/></filter><filter id="e" x="6.264" y="9.307" width="20.459" height="20.459" filterUnits="userSpaceOnUse"><feOffset input="SourceAlpha"/><feGaussianBlur stdDeviation="3" result="f"/><feFlood flood-color="#1c1c1c" flood-opacity="0.102"/><feComposite operator="in" in2="f"/><feComposite in="SourceGraphic"/></filter><filter id="g" x="14.958" y="0" width="21.072" height="21.072" filterUnits="userSpaceOnUse"><feOffset input="SourceAlpha"/><feGaussianBlur stdDeviation="3" result="h"/><feFlood flood-color="#1c1c1c" flood-opacity="0.102"/><feComposite operator="in" in2="h"/><feComposite in="SourceGraphic"/></filter></defs><g transform="translate(9 9)"><g class="e" transform="matrix(1, 0, 0, 1, -9, -9)"><path class="a" d="M17.513,29.177a.473.473,0,0,0-.473.473v4.2a1.419,1.419,0,0,1-1.418,1.418H2.363A1.419,1.419,0,0,1,.945,33.846V21.531a1.419,1.419,0,0,1,1.418-1.418h4.2a.473.473,0,0,0,0-.945h-4.2A2.366,2.366,0,0,0,0,21.531V33.846a2.366,2.366,0,0,0,2.363,2.363h13.26a2.366,2.366,0,0,0,2.363-2.363v-4.2A.473.473,0,0,0,17.513,29.177Zm0,0" transform="translate(9 -9.27)"/></g><g class="d" transform="matrix(1, 0, 0, 1, -9, -9)"><path class="a" d="M156.367,39.228l6.9-6.9,2.225,2.225-6.9,6.9Zm0,0" transform="translate(-139.98 -21.81)"/></g><g class="c" transform="matrix(1, 0, 0, 1, -9, -9)"><path class="a" d="M132.543,199.678,135,199l-1.778-1.778Zm0,0" transform="translate(-117.28 -178.91)"/></g><g class="b" transform="matrix(1, 0, 0, 1, -9, -9)"><path class="a" d="M318.7.614a1.183,1.183,0,0,0-1.671,0l-.5.5,2.225,2.225.5-.5a1.182,1.182,0,0,0,0-1.671Zm0,0" transform="translate(-292.57 8.73)"/></g></g></svg>