<svg xmlns="http://www.w3.org/2000/svg" width="203.551" height="289.431" viewBox="0 0 203.551 289.431"><defs><style>.a{opacity:0.9;}.b{fill:#595f6a;}.c{isolation:isolate;}.d{fill:#fff;opacity:0.3;}.e,.f{fill:#696e78;}.e{stroke:#707070;}</style></defs><g class="a" transform="translate(1.764 -15.453)"><g transform="translate(-5.495 62.29)"><path class="b" d="M134.517,1.33H37.837C24.074,1.352,12.921,12.848,12.9,27.037V218.218c.021,14.189,11.174,25.685,24.937,25.707h96.68c13.764-.022,24.916-11.518,24.937-25.707V27.037c-.021-14.189-11.174-25.685-24.937-25.707Zm13.428,216.888a13.64,13.64,0,0,1-13.428,13.842H37.837a13.64,13.64,0,0,1-13.428-13.842V27.037A13.64,13.64,0,0,1,37.837,13.195h21.1a7.776,7.776,0,0,0,7.673,7.435h39.171a7.776,7.776,0,0,0,7.673-7.435h21.1a13.64,13.64,0,0,1,13.428,13.842Z" transform="translate(-9.169 -1.33)"/></g><g class="c" transform="translate(132.397 15.953)"><ellipse class="d" cx="29.973" cy="29.973" rx="29.973" ry="29.973" transform="translate(7.685 1.665)"/><path class="e" d="M56.753,14.749a31.572,31.572,0,0,0-44.653,0,1.913,1.913,0,0,0,2.706,2.706,27.748,27.748,0,1,1,0,39.241A1.913,1.913,0,1,0,12.1,59.4,31.574,31.574,0,0,0,56.753,14.749Z" transform="translate(2.889 -5.5)"/><path class="f" d="M24.414,10.059A1.914,1.914,0,0,0,22.5,11.972V32.91a1.914,1.914,0,0,0,.561,1.353L33.53,44.732a1.913,1.913,0,1,0,2.706-2.706l-9.908-9.908V11.972a1.914,1.914,0,0,0-1.914-1.914Z" transform="translate(12.902 -1.335)"/><path class="f" d="M49.336,22.914c0-1.057-1.561-1.914-3.487-1.914H7.487C5.561,21,4,21.857,4,22.914s1.561,1.914,3.487,1.914H45.849C47.775,24.827,49.336,23.971,49.336,22.914Z" transform="translate(-24.459 8.661)"/><path class="f" d="M11.065,18.827H32.523c1.693,0,3.065-.857,3.065-1.914S34.215,15,32.523,15H11.065C9.372,15,8,15.857,8,16.914S9.372,18.827,11.065,18.827Z" transform="translate(-10.711 3.179)"/><path class="f" d="M25.191,28.914A1.912,1.912,0,0,0,23.281,27H9.91a1.914,1.914,0,0,0,0,3.827H23.281A1.912,1.912,0,0,0,25.191,28.914Z" transform="translate(-0.314 14.143)"/></g></g></svg>