<svg xmlns="http://www.w3.org/2000/svg" width="17.536" height="604.93" viewBox="0 0 17.536 604.93"><defs><style>.a,.b{fill:none;stroke-linecap:round;stroke-linejoin:round;stroke-width:2px;}.a{stroke:#1a76ff;}.b{stroke:#f0f0f0;}</style></defs><g transform="translate(-300.54 -2.471)"><path class="a" d="M-13964.433-7191.792l4.192,4.192,10.516-10.516" transform="translate(14266.387 7202)"/><path class="b" d="M-13964.433-7191.792l4.192,4.192,10.516-10.516" transform="translate(14266.387 7239)"/><path class="b" d="M-13964.433-7191.792l4.192,4.192,10.516-10.516" transform="translate(14266.387 7276)"/><path class="b" d="M-13964.433-7191.792l4.192,4.192,10.516-10.516" transform="translate(14266.387 7313)"/><path class="b" d="M-13964.433-7191.792l4.192,4.192,10.516-10.516" transform="translate(14266.387 7350)"/><path class="b" d="M-13964.433-7191.792l4.192,4.192,10.516-10.516" transform="translate(14266.387 7387)"/><path class="b" d="M-13964.433-7191.792l4.192,4.192,10.516-10.516" transform="translate(14266.387 7424)"/><path class="b" d="M-13964.433-7191.792l4.192,4.192,10.516-10.516" transform="translate(14266.387 7461)"/><path class="b" d="M-13964.433-7191.792l4.192,4.192,10.516-10.516" transform="translate(14266.387 7498)"/><path class="b" d="M-13964.433-7191.792l4.192,4.192,10.516-10.516" transform="translate(14266.387 7535)"/><path class="b" d="M-13964.433-7191.792l4.192,4.192,10.516-10.516" transform="translate(14266.387 7572)"/><path class="b" d="M-13964.433-7191.792l4.192,4.192,10.516-10.516" transform="translate(14266.387 7609)"/><path class="b" d="M-13964.433-7191.792l4.192,4.192,10.516-10.516" transform="translate(14266.387 7646)"/><path class="b" d="M-13964.433-7191.792l4.192,4.192,10.516-10.516" transform="translate(14266.387 7683)"/><path class="b" d="M-13964.433-7191.792l4.192,4.192,10.516-10.516" transform="translate(14266.387 7720)"/><path class="b" d="M-13964.433-7191.792l4.192,4.192,10.516-10.516" transform="translate(14266.387 7757)"/><path class="b" d="M-13964.433-7191.792l4.192,4.192,10.516-10.516" transform="translate(14266.387 7794)"/></g></svg>