<svg xmlns="http://www.w3.org/2000/svg" xmlns:xlink="http://www.w3.org/1999/xlink" width="36.753" height="36.653" viewBox="0 0 36.753 36.653"><defs><style>.a{fill:#1a76ff;}.b{filter:url(#g);}.c{filter:url(#e);}.d{filter:url(#c);}.e{filter:url(#a);}</style><filter id="a" x="0" y="0.929" width="36.707" height="35.724" filterUnits="userSpaceOnUse"><feOffset input="SourceAlpha"/><feGaussianBlur stdDeviation="3" result="b"/><feFlood flood-color="#1c1c1c" flood-opacity="0.102"/><feComposite operator="in" in2="b"/><feComposite in="SourceGraphic"/></filter><filter id="c" x="7.686" y="1.576" width="27.491" height="27.492" filterUnits="userSpaceOnUse"><feOffset input="SourceAlpha"/><feGaussianBlur stdDeviation="3" result="d"/><feFlood flood-color="#1c1c1c" flood-opacity="0.102"/><feComposite operator="in" in2="d"/><feComposite in="SourceGraphic"/></filter><filter id="e" x="6.515" y="9.681" width="20.558" height="20.558" filterUnits="userSpaceOnUse"><feOffset input="SourceAlpha"/><feGaussianBlur stdDeviation="3" result="f"/><feFlood flood-color="#1c1c1c" flood-opacity="0.102"/><feComposite operator="in" in2="f"/><feComposite in="SourceGraphic"/></filter><filter id="g" x="15.558" y="0" width="21.195" height="21.195" filterUnits="userSpaceOnUse"><feOffset input="SourceAlpha"/><feGaussianBlur stdDeviation="3" result="h"/><feFlood flood-color="#1c1c1c" flood-opacity="0.102"/><feComposite operator="in" in2="h"/><feComposite in="SourceGraphic"/></filter></defs><g transform="translate(9 9)"><g class="e" transform="matrix(1, 0, 0, 1, -9, -9)"><path class="a" d="M18.215,29.578a.491.491,0,0,0-.492.492v4.364a1.476,1.476,0,0,1-1.475,1.475H2.458A1.476,1.476,0,0,1,.983,34.434V21.626a1.476,1.476,0,0,1,1.475-1.475H6.822a.492.492,0,0,0,0-.983H2.458A2.46,2.46,0,0,0,0,21.626V34.434a2.46,2.46,0,0,0,2.458,2.458H16.249a2.46,2.46,0,0,0,2.458-2.458V30.07A.492.492,0,0,0,18.215,29.578Zm0,0" transform="translate(9 -9.24)"/></g><g class="d" transform="matrix(1, 0, 0, 1, -9, -9)"><path class="a" d="M156.367,39.5l7.177-7.177,2.315,2.315-7.177,7.177Zm0,0" transform="translate(-139.68 -21.75)"/></g><g class="c" transform="matrix(1, 0, 0, 1, -9, -9)"><path class="a" d="M132.543,199.777l2.558-.708-1.849-1.849Zm0,0" transform="translate(-117.03 -178.54)"/></g><g class="b" transform="matrix(1, 0, 0, 1, -9, -9)"><path class="a" d="M318.786.628a1.23,1.23,0,0,0-1.738,0l-.521.521,2.315,2.315.521-.521a1.23,1.23,0,0,0,0-1.738Zm0,0" transform="translate(-291.97 8.73)"/></g></g></svg>