<svg xmlns="http://www.w3.org/2000/svg" width="103.596" height="171.485" viewBox="0 0 103.596 171.485"><defs><style>.a{fill:#696e78;}</style></defs><g transform="translate(0 0)"><g transform="translate(0 0)"><path class="a" d="M98.868,1.33H30.528C20.8,1.345,12.915,9.472,12.9,19.5V154.644c.015,10.03,7.9,18.156,17.628,18.172H98.868c9.729-.015,17.613-8.142,17.628-18.172V19.5c-.015-10.03-7.9-18.156-17.628-18.172Zm9.492,153.314a9.642,9.642,0,0,1-9.492,9.785H30.528a9.642,9.642,0,0,1-9.492-9.785V19.5a9.642,9.642,0,0,1,9.492-9.785H45.443a5.5,5.5,0,0,0,5.424,5.256H78.556A5.5,5.5,0,0,0,83.98,9.717H98.9a9.642,9.642,0,0,1,9.492,9.785Z" transform="translate(-12.9 -1.33)"/></g></g></svg>