<svg xmlns="http://www.w3.org/2000/svg" width="28.016" height="14.352" viewBox="0 0 28.016 14.352"><defs><style>.a{fill:#2d2d2d;}</style></defs><g transform="translate(-386.631 -26.324)"><g transform="translate(383.129 12.824)"><path class="a" d="M31.432,20.45c-.253-.287-6.308-6.95-13.921-6.95S3.842,20.163,3.59,20.45a.344.344,0,0,0,0,.458c.253.28,6.308,6.943,13.921,6.943s13.668-6.663,13.921-6.95A.335.335,0,0,0,31.432,20.45ZM17.511,27.168c-6.527,0-12.055-5.317-13.2-6.492,1.141-1.175,6.663-6.492,13.2-6.492s12.055,5.317,13.2,6.492C29.566,21.851,24.044,27.168,17.511,27.168Z"/><path class="a" d="M21.942,17.5a4.442,4.442,0,1,0,4.442,4.442A4.451,4.451,0,0,0,21.942,17.5Zm0,8.2A3.759,3.759,0,1,1,25.7,21.942,3.765,3.765,0,0,1,21.942,25.7Z" transform="translate(-4.432 -1.266)"/></g></g></svg>