<svg xmlns="http://www.w3.org/2000/svg" xmlns:xlink="http://www.w3.org/1999/xlink" width="41" height="41" viewBox="0 0 41 41"><defs><style>.a{fill:#f0f0f0;}.b{fill:#1a76ff;}.c{filter:url(#g);}.d{filter:url(#e);}.e{filter:url(#c);}.f{filter:url(#a);}</style><filter id="a" x="2.84" y="3.468" width="35.891" height="34.951" filterUnits="userSpaceOnUse"><feOffset input="SourceAlpha"/><feGaussianBlur stdDeviation="3" result="b"/><feFlood flood-color="#1c1c1c" flood-opacity="0.102"/><feComposite operator="in" in2="b"/><feComposite in="SourceGraphic"/></filter><filter id="c" x="10.19" y="4.087" width="27.077" height="27.077" filterUnits="userSpaceOnUse"><feOffset input="SourceAlpha"/><feGaussianBlur stdDeviation="3" result="d"/><feFlood flood-color="#1c1c1c" flood-opacity="0.102"/><feComposite operator="in" in2="d"/><feComposite in="SourceGraphic"/></filter><filter id="e" x="9.07" y="11.838" width="20.446" height="20.446" filterUnits="userSpaceOnUse"><feOffset input="SourceAlpha"/><feGaussianBlur stdDeviation="3" result="f"/><feFlood flood-color="#1c1c1c" flood-opacity="0.102"/><feComposite operator="in" in2="f"/><feComposite in="SourceGraphic"/></filter><filter id="g" x="17.719" y="2.58" width="21.056" height="21.056" filterUnits="userSpaceOnUse"><feOffset input="SourceAlpha"/><feGaussianBlur stdDeviation="3" result="h"/><feFlood flood-color="#1c1c1c" flood-opacity="0.102"/><feComposite operator="in" in2="h"/><feComposite in="SourceGraphic"/></filter></defs><g transform="translate(-0.054 -0.123)"><circle class="a" cx="20.5" cy="20.5" r="20.5" transform="translate(0.054 0.123)"/><g transform="translate(11.894 11.703)"><g class="f" transform="matrix(1, 0, 0, 1, -11.84, -11.58)"><path class="b" d="M17.421,29.124a.47.47,0,0,0-.47.47v4.174a1.412,1.412,0,0,1-1.41,1.41H2.35a1.412,1.412,0,0,1-1.41-1.41V21.518a1.412,1.412,0,0,1,1.41-1.41H6.524a.47.47,0,0,0,0-.94H2.35A2.353,2.353,0,0,0,0,21.518v12.25a2.353,2.353,0,0,0,2.35,2.35H15.54a2.353,2.353,0,0,0,2.35-2.35V29.594A.47.47,0,0,0,17.421,29.124Zm0,0" transform="translate(11.84 -6.7)"/></g><g class="e" transform="matrix(1, 0, 0, 1, -11.84, -11.58)"><path class="b" d="M156.367,39.192l6.864-6.864,2.214,2.214-6.864,6.864Zm0,0" transform="translate(-137.18 -19.24)"/></g><g class="d" transform="matrix(1, 0, 0, 1, -11.84, -11.58)"><path class="b" d="M132.543,199.665l2.446-.678-1.769-1.769Zm0,0" transform="translate(-114.47 -176.38)"/></g><g class="c" transform="matrix(1, 0, 0, 1, -11.84, -11.58)"><path class="b" d="M318.688.612a1.177,1.177,0,0,0-1.662,0l-.5.5,2.214,2.214.5-.5a1.176,1.176,0,0,0,0-1.662Zm0,0" transform="translate(-289.81 11.31)"/></g></g></g></svg>