<svg xmlns="http://www.w3.org/2000/svg" xmlns:xlink="http://www.w3.org/1999/xlink" width="38.923" height="38.923" viewBox="0 0 38.923 38.923"><defs><style>.a{fill:#fff;stroke:#707070;}.b{fill:#e6e6e6;}.c{clip-path:url(#a);}.d{fill:#787c81;}</style><clipPath id="a"><ellipse class="a" cx="19.462" cy="19.462" rx="19.462" ry="19.462"/></clipPath></defs><g transform="translate(0.001 0)"><ellipse class="b" cx="19.462" cy="19.462" rx="19.462" ry="19.462" transform="translate(-0.001 0)"/><g class="c" transform="translate(-0.001 0)"><g transform="translate(2.696 4.58)"><g transform="translate(0 0)"><path class="d" d="M34.372,313.442c-.085-.634-.15-1.275-.262-1.9a16.727,16.727,0,0,0-7.082-10.926,13.19,13.19,0,0,1-9.39,3.819,13.229,13.229,0,0,1-9.4-3.832c-.53.418-1.085.817-1.6,1.269a16.539,16.539,0,0,0-5.63,10.7c-.033.288-.078.582-.118.87v1.046s8.37,3.741,16.739,3.741,16.739-3.741,16.739-3.741S34.372,313.789,34.372,313.442Z" transform="translate(-0.9 -283.815)"/><path class="d" d="M111.284,1c-.552.109-1.114.18-1.649.333a8.369,8.369,0,1,0,4.058-.147c-.36-.082-.732-.126-1.1-.186Z" transform="translate(-95.208 -1)"/></g></g></g></g></svg>