<svg xmlns="http://www.w3.org/2000/svg" width="179.989" height="103.771" viewBox="0 0 179.989 103.771"><defs><style>.a{fill:#f0f0f0;}.b{fill:red;}</style></defs><rect class="a" width="179.989" height="103.771" rx="9"/><rect class="a" width="174.954" height="98.733" rx="9" transform="translate(2.517 2.517)"/><g transform="translate(80.988 32.771)"><path class="b" d="M9.5,19A9.5,9.5,0,1,1,19,9.5,9.511,9.511,0,0,1,9.5,19Zm0-17.273A7.773,7.773,0,1,0,17.273,9.5,7.781,7.781,0,0,0,9.5,1.727Z"/><path class="b" d="M146.274,72.545a1.273,1.273,0,1,1,1.272-1.273A1.274,1.274,0,0,1,146.274,72.545Z" transform="translate(-136.775 -57.517)"/><path class="b" d="M150.955,147.636a.955.955,0,0,1-.955-.955v-5.727a.955.955,0,0,1,1.909,0v5.727A.955.955,0,0,1,150.955,147.636Z" transform="translate(-141.455 -136.212)"/></g></svg>