<svg xmlns="http://www.w3.org/2000/svg" xmlns:xlink="http://www.w3.org/1999/xlink" width="33.72" height="36.856" viewBox="0 0 33.72 36.856"><defs><style>.a{fill:#fd8279;}.b{filter:url(#a);}</style><filter id="a" x="0" y="0" width="33.72" height="36.856" filterUnits="userSpaceOnUse"><feOffset input="SourceAlpha"/><feGaussianBlur stdDeviation="3" result="b"/><feFlood flood-opacity="0.102"/><feComposite operator="in" in2="b"/><feComposite in="SourceGraphic"/></filter></defs><g transform="translate(-701 -348.001)"><g transform="translate(470.17 -18.043)"><g class="b" transform="matrix(1, 0, 0, 1, 230.83, 366.04)"><path class="a" d="M22.967,35.726a2.819,2.819,0,0,1-2.57-2.914c-.274-2.944-.724-9.862-.749-9.95a1.006,1.006,0,0,1,.175-.589.587.587,0,0,1,.449-.236H32.4a.55.55,0,0,1,.449.236.766.766,0,0,1,.15.589c0,.059-.474,7.006-.724,9.95a2.782,2.782,0,0,1-2.62,2.914c-1.1.029-2.2.029-3.294.029C25.212,35.756,24.064,35.756,22.967,35.726ZM19.124,20.389a.709.709,0,0,1-.624-.765V19.24a.709.709,0,0,1,.624-.765h2.545c.524,0,2.071-1.575,2.87-1.575h3.618c.8,0,2.37,1.575,2.894,1.6H33.6a.709.709,0,0,1,.624.765h0v.383a.729.729,0,0,1-.624.765H19.124Z" transform="translate(-9.5 -7.9)"/></g></g></g></svg>