<svg xmlns="http://www.w3.org/2000/svg" width="116.549" height="116.549" viewBox="0 0 116.549 116.549"><defs><style>.a{fill:#e6e6e6;}.b{opacity:0.8;}.c{fill:#4c4c4c;}</style></defs><path class="a" d="M58.274,0A58.274,58.274,0,1,1,0,58.274,58.274,58.274,0,0,1,58.274,0Z"/><g class="b" transform="translate(15.028 17.707)"><path class="c" d="M85.268,27.66a34.681,34.681,0,0,0-6.31,0,1.979,1.979,0,0,0-1.865,2.118,8.47,8.47,0,0,1-.113,1.02c-3.146-3.913-6.206-7.844-9.387-11.61a4.471,4.471,0,0,0-2.44-1.386c-2.423-.479-4.89-.819-7.356-1.055a153.566,153.566,0,0,0-33,.41,9.282,9.282,0,0,0-6.973,3.94c-2.127,2.99-4.55,5.761-6.851,8.629-.227.288-.479.567-1,1.168.305-2.144-.506-3.216-2.162-3.338a28.475,28.475,0,0,0-5.718,0C-.1,27.878-.671,29.8.872,31.434a5.5,5.5,0,0,0,2.284,1.525,48,48,0,0,0,4.863.976c-.784,1.351-1.612,2.772-2.423,4.21a17.8,17.8,0,0,0-2.423,9.588c.166,4.55,0,9.108.044,13.667,0,2.571,1.011,3.6,3.547,3.6H80.379c2.615,0,3.574-.994,3.582-3.556,0-4.4-.148-8.8.044-13.2a17.031,17.031,0,0,0-2.388-9.465l-2.955-5.23c.68,0,1.185.1,1.691.087a7.562,7.562,0,0,0,6.031-2.3C87.761,29.821,87.264,27.921,85.268,27.66ZM14.408,28.819a61.125,61.125,0,0,0,3.957-4.968c2.17-3.486,5.4-4.5,9.239-4.855a162.709,162.709,0,0,1,33.783.3,8.726,8.726,0,0,1,6.72,3.687c2.336,3.329,4.924,6.476,7.635,9.98H11.331C12.464,31.434,13.405,30.109,14.408,28.819ZM25.643,51.847H14.12c-1.97,0-3.643-1.194-3.73-2.615s1.307-5.16,3.277-4.968l6.363.619c1.961.192,6.293,3.565,7.321,4.785S27.621,51.847,25.643,51.847Zm50.666-2.615c-.087,1.456-1.743,2.615-3.739,2.615H61.012c-1.97,0-2.737-.994-1.743-2.214s5.36-4.593,7.321-4.785l6.363-.619c2-.192,3.434,3.5,3.356,4.968Z" transform="translate(-0.003 -16.051)"/><path class="c" d="M5.864,75.18c0,1.743-.087,3.347,0,4.933a2.728,2.728,0,0,0,2.868,2.676h6.1a2.536,2.536,0,0,0,2.676-2.327,46.255,46.255,0,0,0,.044-5.282Z" transform="translate(-0.751 -23.644)"/><path class="c" d="M80.685,75.22c0,1.743-.07,3.277,0,4.82a2.772,2.772,0,0,0,2.946,2.754h5.892a2.693,2.693,0,0,0,2.841-2.536c.122-1.639,0-3.286,0-5.038Z" transform="translate(-10.359 -23.649)"/></g><g class="b" transform="translate(36.35 76.857)"><path class="c" d="M33.787,33.876a8.433,8.433,0,0,0-4.119,2.208.458.458,0,0,1-.092.068c-2.974,1.789-4.65.428-4.719.347-1.9-1.588-.157-4.25-.083-4.361a16.5,16.5,0,0,1,2.808-3.278H19.5L16,39.576a.423.423,0,0,1,.1.073A100.437,100.437,0,0,0,31.612,52.317a1.536,1.536,0,0,0,1.973-.211,1.278,1.278,0,0,0-.094-1.839l-3.92-3.633a.406.406,0,0,1,0-.6.488.488,0,0,1,.656,0l2.087,1.934h0l1.847,1.712h0l.924.877a1.868,1.868,0,0,0,2.5.02,1.556,1.556,0,0,0,.021-2.318l-3.6-3.479h0l-.683-.655a.406.406,0,0,1,0-.608.488.488,0,0,1,.656,0l5.25,5.05a1.955,1.955,0,0,0,1.974.377,1.726,1.726,0,0,0,1.171-1.52,1.605,1.605,0,0,0-.554-1.254l-3.149-2.825-2.193-1.973a.41.41,0,0,1-.155-.423.445.445,0,0,1,.336-.32.485.485,0,0,1,.461.131l6.234,5.593a1.831,1.831,0,0,0,1.72.425,1.667,1.667,0,0,0,1.22-1.2,1.542,1.542,0,0,0-.561-1.565Z" transform="translate(-10.459 -24.963)"/><path class="c" d="M11.638,21.143A18.221,18.221,0,0,0,4,19.765V36.549H6.821a1.375,1.375,0,0,0,1.335-.929l4.239-12.937a1.256,1.256,0,0,0-.757-1.541Z" transform="translate(-4 -19.753)"/><path class="c" d="M45.645,24.536a4.656,4.656,0,0,0-3.122-.064,13.059,13.059,0,0,0-6.617,5.469c0,.026-1.418,2.14-.083,3.278.046.039,1.238.963,3.546-.4a9.011,9.011,0,0,1,4.876-2.465.485.485,0,0,1,.351.111L56.7,40.734c.055.047.106.1.157.15a4,4,0,0,0,2.577-1.8l-4.387-11.08Z" transform="translate(-20.638 -22.316)"/><path class="c" d="M88.054,24.549a21.841,21.841,0,0,0-7.693,1.344,1.253,1.253,0,0,0-.748,1.639L84.752,40.5a1.417,1.417,0,0,0,1.321.856h2.9V24.571C88.747,24.558,88.428,24.549,88.054,24.549Z" transform="translate(-44.465 -22.497)"/></g></svg>