<svg xmlns="http://www.w3.org/2000/svg" xmlns:xlink="http://www.w3.org/1999/xlink" width="38.923" height="38.923" viewBox="0 0 38.923 38.923"><defs><style>.a{fill:#fff;stroke:#707070;}.b{fill:#e6e6e6;}.c{clip-path:url(#a);}.d{fill:#787c81;}</style><clipPath id="a"><ellipse class="a" cx="19.462" cy="19.462" rx="19.462" ry="19.462"/></clipPath></defs><g transform="translate(0.001 0)"><ellipse class="b" cx="19.462" cy="19.462" rx="19.462" ry="19.462" transform="translate(-0.001 0)"/><g class="c" transform="translate(-0.001 0)"><g transform="translate(2.748 4.58)"><g transform="translate(0 0)"><path class="d" d="M.907,313.442c.085-.634.15-1.275.262-1.9A16.727,16.727,0,0,1,8.25,300.613a13.19,13.19,0,0,0,9.39,3.819,13.229,13.229,0,0,0,9.4-3.832c.53.418,1.085.817,1.6,1.269a16.539,16.539,0,0,1,5.63,10.7c.033.288.078.582.118.87v1.046s-8.37,3.741-16.739,3.741S.9,314.488.9,314.488.907,313.789.907,313.442Z" transform="translate(-0.9 -283.815)"/><path class="d" d="M112.588,1c.552.109,1.114.18,1.649.333a8.369,8.369,0,1,1-4.058-.147c.36-.082.732-.126,1.1-.186Z" transform="translate(-95.186 -1)"/></g></g></g></g></svg>