<svg xmlns="http://www.w3.org/2000/svg" width="82.692" height="120.636" viewBox="0 0 82.692 120.636"><defs><style>.a{fill:#1a76ff;}.b{fill:#3f3d56;}.c{fill:#fff;}</style></defs><g transform="translate(-23.601 14.556)"><g transform="translate(23.601 -14.556)"><path class="a" d="M495.476,423.587H478.431a1.743,1.743,0,0,1-1.741-1.741V365.685a1.743,1.743,0,0,1,1.741-1.741h17.045a1.743,1.743,0,0,1,1.741,1.741v56.161A1.743,1.743,0,0,1,495.476,423.587Z" transform="translate(-476.691 -302.951)"/><path class="a" d="M608.714,341.431H591.67a1.7,1.7,0,0,1-1.741-1.662v-87.4a1.7,1.7,0,0,1,1.741-1.662h17.044a1.7,1.7,0,0,1,1.741,1.662v87.4A1.7,1.7,0,0,1,608.714,341.431Z" transform="translate(-558.846 -220.795)"/><path class="a" d="M721.951,299.58H704.907a1.743,1.743,0,0,1-1.741-1.741V194.761a1.743,1.743,0,0,1,1.741-1.741h17.045a1.743,1.743,0,0,1,1.741,1.741V297.839a1.743,1.743,0,0,1-1.741,1.741Z" transform="translate(-641 -178.944)"/><path class="b" d="M3.519,0A3.519,3.519,0,1,1,0,3.519,3.519,3.519,0,0,1,3.519,0Z" transform="translate(6.745 46.917)"/><path class="b" d="M3.519,0A3.519,3.519,0,1,1,0,3.519,3.519,3.519,0,0,1,3.519,0Z" transform="translate(37.826 12.901)"/><path class="b" d="M3.519,0A3.519,3.519,0,1,1,0,3.519,3.519,3.519,0,0,1,3.519,0Z" transform="translate(68.91 0)"/><path class="b" d="M332.348,57.994l31.406-34.1.056-.023,30.48-12.58.209.508L364.076,24.356l-31.66,34.373Z" transform="translate(-322.186 -8.192)"/><path class="c" d="M569.915,276.729a2.977,2.977,0,0,0-1.16-.918,11.26,11.26,0,0,0-1.743-.573v-3.406a4.961,4.961,0,0,1,2.479,1.13l.691-1.474a4.575,4.575,0,0,0-1.349-.833,6.634,6.634,0,0,0-1.712-.439V268.49h-1.6v1.743a4.386,4.386,0,0,0-1.75.587,3.477,3.477,0,0,0-1.185,1.162,2.92,2.92,0,0,0-.422,1.546,2.644,2.644,0,0,0,.486,1.654,3.077,3.077,0,0,0,1.209.959,11.179,11.179,0,0,0,1.773.587v3.264a5.3,5.3,0,0,1-2.95-1.177l-.692,1.476a5.214,5.214,0,0,0,1.578.9,7.25,7.25,0,0,0,1.953.407v1.711h1.6v-1.743a4.143,4.143,0,0,0,2.377-1.09,2.881,2.881,0,0,0,.887-2.142A2.556,2.556,0,0,0,569.915,276.729Zm-4.284-1.851a3.075,3.075,0,0,1-1.067-.573,1.128,1.128,0,0,1-.377-.886,1.427,1.427,0,0,1,.386-1.02,1.95,1.95,0,0,1,1.058-.549Zm2.386,4.513a1.816,1.816,0,0,1-1.005.524v-2.808a2.808,2.808,0,0,1,1.005.5.988.988,0,0,1,.345.785,1.442,1.442,0,0,1-.346,1Z" transform="translate(-555.927 -169.587)"/><path class="c" d="M569.915,276.729a2.977,2.977,0,0,0-1.16-.918,11.26,11.26,0,0,0-1.743-.573v-3.406a4.961,4.961,0,0,1,2.479,1.13l.691-1.474a4.575,4.575,0,0,0-1.349-.833,6.634,6.634,0,0,0-1.712-.439V268.49h-1.6v1.743a4.386,4.386,0,0,0-1.75.587,3.477,3.477,0,0,0-1.185,1.162,2.92,2.92,0,0,0-.422,1.546,2.644,2.644,0,0,0,.486,1.654,3.077,3.077,0,0,0,1.209.959,11.179,11.179,0,0,0,1.773.587v3.264a5.3,5.3,0,0,1-2.95-1.177l-.692,1.476a5.214,5.214,0,0,0,1.578.9,7.25,7.25,0,0,0,1.953.407v1.711h1.6v-1.743a4.143,4.143,0,0,0,2.377-1.09,2.881,2.881,0,0,0,.887-2.142A2.556,2.556,0,0,0,569.915,276.729Zm-4.284-1.851a3.075,3.075,0,0,1-1.067-.573,1.128,1.128,0,0,1-.377-.886,1.427,1.427,0,0,1,.386-1.02,1.95,1.95,0,0,1,1.058-.549Zm2.386,4.513a1.816,1.816,0,0,1-1.005.524v-2.808a2.808,2.808,0,0,1,1.005.5.988.988,0,0,1,.345.785,1.442,1.442,0,0,1-.346,1Z" transform="translate(-524.843 -169.587)"/><path class="c" d="M569.915,276.729a2.977,2.977,0,0,0-1.16-.918,11.26,11.26,0,0,0-1.743-.573v-3.406a4.961,4.961,0,0,1,2.479,1.13l.691-1.474a4.575,4.575,0,0,0-1.349-.833,6.634,6.634,0,0,0-1.712-.439V268.49h-1.6v1.743a4.386,4.386,0,0,0-1.75.587,3.477,3.477,0,0,0-1.185,1.162,2.92,2.92,0,0,0-.422,1.546,2.644,2.644,0,0,0,.486,1.654,3.077,3.077,0,0,0,1.209.959,11.179,11.179,0,0,0,1.773.587v3.264a5.3,5.3,0,0,1-2.95-1.177l-.692,1.476a5.214,5.214,0,0,0,1.578.9,7.25,7.25,0,0,0,1.953.407v1.711h1.6v-1.743a4.143,4.143,0,0,0,2.377-1.09,2.881,2.881,0,0,0,.887-2.142A2.556,2.556,0,0,0,569.915,276.729Zm-4.284-1.851a3.075,3.075,0,0,1-1.067-.573,1.128,1.128,0,0,1-.377-.886,1.427,1.427,0,0,1,.386-1.02,1.95,1.95,0,0,1,1.058-.549Zm2.386,4.513a1.816,1.816,0,0,1-1.005.524v-2.808a2.808,2.808,0,0,1,1.005.5.988.988,0,0,1,.345.785,1.442,1.442,0,0,1-.346,1Z" transform="translate(-493.76 -169.587)"/></g></g></svg>