<svg xmlns="http://www.w3.org/2000/svg" xmlns:xlink="http://www.w3.org/1999/xlink" width="34.378" height="34.29" viewBox="0 0 34.378 34.29"><defs><style>.a{fill:#1a76ff;}.b{filter:url(#g);}.c{filter:url(#e);}.d{filter:url(#c);}.e{filter:url(#a);}</style><filter id="a" x="0" y="0.811" width="34.338" height="33.479" filterUnits="userSpaceOnUse"><feOffset input="SourceAlpha"/><feGaussianBlur stdDeviation="3" result="b"/><feFlood flood-color="#1c1c1c" flood-opacity="0.102"/><feComposite operator="in" in2="b"/><feComposite in="SourceGraphic"/></filter><filter id="c" x="6.712" y="1.376" width="26.289" height="26.289" filterUnits="userSpaceOnUse"><feOffset input="SourceAlpha"/><feGaussianBlur stdDeviation="3" result="d"/><feFlood flood-color="#1c1c1c" flood-opacity="0.102"/><feComposite operator="in" in2="d"/><feComposite in="SourceGraphic"/></filter><filter id="e" x="5.69" y="8.455" width="20.234" height="20.234" filterUnits="userSpaceOnUse"><feOffset input="SourceAlpha"/><feGaussianBlur stdDeviation="3" result="f"/><feFlood flood-color="#1c1c1c" flood-opacity="0.102"/><feComposite operator="in" in2="f"/><feComposite in="SourceGraphic"/></filter><filter id="g" x="13.588" y="0" width="20.791" height="20.79" filterUnits="userSpaceOnUse"><feOffset input="SourceAlpha"/><feGaussianBlur stdDeviation="3" result="h"/><feFlood flood-color="#1c1c1c" flood-opacity="0.102"/><feComposite operator="in" in2="h"/><feComposite in="SourceGraphic"/></filter></defs><g transform="translate(9 9)"><g class="e" transform="matrix(1, 0, 0, 1, -9, -9)"><path class="a" d="M15.908,28.26a.429.429,0,0,0-.429.429V32.5a1.289,1.289,0,0,1-1.288,1.288H2.146A1.289,1.289,0,0,1,.859,32.5V21.314a1.289,1.289,0,0,1,1.288-1.288H5.958a.429.429,0,0,0,0-.859H2.146A2.149,2.149,0,0,0,0,21.314V32.5a2.149,2.149,0,0,0,2.146,2.146H14.191A2.149,2.149,0,0,0,16.338,32.5V28.689A.429.429,0,0,0,15.908,28.26Zm0,0" transform="translate(9 -9.36)"/></g><g class="d" transform="matrix(1, 0, 0, 1, -9, -9)"><path class="a" d="M156.367,38.6l6.268-6.268,2.021,2.021-6.268,6.268Zm0,0" transform="translate(-140.65 -21.95)"/></g><g class="c" transform="matrix(1, 0, 0, 1, -9, -9)"><path class="a" d="M132.543,199.453l2.234-.619-1.615-1.615Zm0,0" transform="translate(-117.85 -179.76)"/></g><g class="b" transform="matrix(1, 0, 0, 1, -9, -9)"><path class="a" d="M318.5.582a1.074,1.074,0,0,0-1.518,0l-.455.455,2.021,2.021L319,2.6a1.074,1.074,0,0,0,0-1.518Zm0,0" transform="translate(-293.94 8.73)"/></g></g></svg>