<svg xmlns="http://www.w3.org/2000/svg" xmlns:xlink="http://www.w3.org/1999/xlink" width="40" height="38" viewBox="0 0 40 38"><defs><style>.a{fill:#fff;stroke:#707070;}.b{fill:#e6e6e6;}.c{clip-path:url(#a);}.d{fill:#787c81;fill-rule:evenodd;}</style><clipPath id="a"><ellipse class="a" cx="20" cy="19" rx="20" ry="19" transform="translate(0.163 0)"/></clipPath></defs><g transform="translate(-0.163 0)"><ellipse class="b" cx="20" cy="19" rx="20" ry="19" transform="translate(0.163 0)"/><g class="c" transform="translate(0 0)"><g transform="translate(-1.34 13.323)"><g transform="translate(0)"><path class="d" d="M188.677,4.44A5.857,5.857,0,1,1,182.82,10.3a5.857,5.857,0,0,1,5.857-5.857Z" transform="translate(-167.384 -4.065)"/><path class="d" d="M141.586,155.43c4.492,0,9.105,4.847,10.705,9.407-2.573,2.486-8.327,4.417-12.19,4.417-3.575,0-8.61-4.315-8.715-4.417,1.6-4.559,5.708-9.407,10.2-9.407Z" transform="translate(-120.293 -142.307)"/><path class="d" d="M355.782,0a4.8,4.8,0,1,1-4.8,4.8A4.8,4.8,0,0,1,355.782,0Z" transform="translate(-321.346)"/><path class="d" d="M338.945,123.81c3.684,0,6.837,2.634,8.149,6.373-2.109,2.038-8.289,4.306-8.821,4.231a19.445,19.445,0,0,0-5.684-7.445A8.238,8.238,0,0,1,338.945,123.81Z" transform="translate(-304.509 -113.356)"/><path class="d" d="M44.442,0a4.8,4.8,0,1,1-4.8,4.8A4.8,4.8,0,0,1,44.442,0Z" transform="translate(-36.293)"/><path class="d" d="M8.149,123.81a8.24,8.24,0,0,1,6.355,3.16,18.821,18.821,0,0,0-5.414,7.444c-.532.074-6.981-2.193-9.091-4.231,1.312-3.739,4.466-6.373,8.149-6.373Z" transform="translate(0 -113.356)"/></g></g></g></g></svg>