<svg xmlns="http://www.w3.org/2000/svg" xmlns:xlink="http://www.w3.org/1999/xlink" width="41" height="41" viewBox="0 0 41 41"><defs><style>.a{fill:#f0f0f0;}.b{fill:#1a76ff;}.c{filter:url(#g);}.d{filter:url(#e);}.e{filter:url(#c);}.f{filter:url(#a);}</style><filter id="a" x="2.948" y="3.742" width="35.67" height="34.742" filterUnits="userSpaceOnUse"><feOffset input="SourceAlpha"/><feGaussianBlur stdDeviation="3" result="b"/><feFlood flood-color="#1c1c1c" flood-opacity="0.102"/><feComposite operator="in" in2="b"/><feComposite in="SourceGraphic"/></filter><filter id="c" x="10.208" y="4.353" width="26.966" height="26.966" filterUnits="userSpaceOnUse"><feOffset input="SourceAlpha"/><feGaussianBlur stdDeviation="3" result="d"/><feFlood flood-color="#1c1c1c" flood-opacity="0.102"/><feComposite operator="in" in2="d"/><feComposite in="SourceGraphic"/></filter><filter id="e" x="9.101" y="12.009" width="20.416" height="20.416" filterUnits="userSpaceOnUse"><feOffset input="SourceAlpha"/><feGaussianBlur stdDeviation="3" result="f"/><feFlood flood-color="#1c1c1c" flood-opacity="0.102"/><feComposite operator="in" in2="f"/><feComposite in="SourceGraphic"/></filter><filter id="g" x="17.644" y="2.865" width="21.018" height="21.018" filterUnits="userSpaceOnUse"><feOffset input="SourceAlpha"/><feGaussianBlur stdDeviation="3" result="h"/><feFlood flood-color="#1c1c1c" flood-opacity="0.102"/><feComposite operator="in" in2="h"/><feComposite in="SourceGraphic"/></filter></defs><g transform="translate(0.2 0.131)"><circle class="a" cx="20.5" cy="20.5" r="20.5" transform="translate(-0.2 -0.131)"/><g transform="translate(11.747 11.734)"><g class="f" transform="matrix(1, 0, 0, 1, -11.95, -11.86)"><path class="b" d="M17.206,29a.464.464,0,0,0-.464.464v4.123a1.4,1.4,0,0,1-1.393,1.393H2.321A1.4,1.4,0,0,1,.929,33.588v-12.1A1.394,1.394,0,0,1,2.321,20.1H6.444a.464.464,0,0,0,0-.929H2.321A2.324,2.324,0,0,0,0,21.489v12.1A2.324,2.324,0,0,0,2.321,35.91H15.349a2.324,2.324,0,0,0,2.321-2.321V29.466A.464.464,0,0,0,17.206,29Zm0,0" transform="translate(11.95 -6.43)"/></g><g class="e" transform="matrix(1, 0, 0, 1, -11.95, -11.86)"><path class="b" d="M156.367,39.107l6.779-6.779,2.186,2.186-6.779,6.779Zm0,0" transform="translate(-137.16 -18.97)"/></g><g class="d" transform="matrix(1, 0, 0, 1, -11.95, -11.86)"><path class="b" d="M132.543,199.635l2.416-.669-1.747-1.747Zm0,0" transform="translate(-114.44 -176.21)"/></g><g class="c" transform="matrix(1, 0, 0, 1, -11.95, -11.86)"><path class="b" d="M318.661.608a1.162,1.162,0,0,0-1.642,0l-.492.492,2.186,2.186.492-.492a1.162,1.162,0,0,0,0-1.642Zm0,0" transform="translate(-289.88 11.6)"/></g></g></g></svg>