<svg xmlns="http://www.w3.org/2000/svg" xmlns:xlink="http://www.w3.org/1999/xlink" width="34.089" height="34.003" viewBox="0 0 34.089 34.003"><defs><style>.a{fill:#1a76ff;}.b{filter:url(#g);}.c{filter:url(#e);}.d{filter:url(#c);}.e{filter:url(#a);}</style><filter id="a" x="0" y="0.797" width="34.049" height="33.206" filterUnits="userSpaceOnUse"><feOffset input="SourceAlpha"/><feGaussianBlur stdDeviation="3" result="b"/><feFlood flood-color="#1c1c1c" flood-opacity="0.102"/><feComposite operator="in" in2="b"/><feComposite in="SourceGraphic"/></filter><filter id="c" x="6.594" y="1.352" width="26.143" height="26.143" filterUnits="userSpaceOnUse"><feOffset input="SourceAlpha"/><feGaussianBlur stdDeviation="3" result="d"/><feFlood flood-color="#1c1c1c" flood-opacity="0.102"/><feComposite operator="in" in2="d"/><feComposite in="SourceGraphic"/></filter><filter id="e" x="5.589" y="8.305" width="20.194" height="20.194" filterUnits="userSpaceOnUse"><feOffset input="SourceAlpha"/><feGaussianBlur stdDeviation="3" result="f"/><feFlood flood-color="#1c1c1c" flood-opacity="0.102"/><feComposite operator="in" in2="f"/><feComposite in="SourceGraphic"/></filter><filter id="g" x="13.348" y="0" width="20.741" height="20.741" filterUnits="userSpaceOnUse"><feOffset input="SourceAlpha"/><feGaussianBlur stdDeviation="3" result="h"/><feFlood flood-color="#1c1c1c" flood-opacity="0.102"/><feComposite operator="in" in2="h"/><feComposite in="SourceGraphic"/></filter></defs><g transform="translate(-1.456 -1.498)"><g transform="translate(10.456 10.498)"><g class="e" transform="matrix(1, 0, 0, 1, -9, -9)"><path class="a" d="M15.627,28.1a.422.422,0,0,0-.422.422v3.744A1.267,1.267,0,0,1,13.94,33.53H2.108A1.267,1.267,0,0,1,.843,32.265V21.276a1.266,1.266,0,0,1,1.265-1.265H5.853a.422.422,0,0,0,0-.843H2.108A2.111,2.111,0,0,0,0,21.276V32.265a2.111,2.111,0,0,0,2.108,2.108H13.94a2.111,2.111,0,0,0,2.108-2.108V28.521A.422.422,0,0,0,15.627,28.1Zm0,0" transform="translate(9 -9.37)"/></g><g class="d" transform="matrix(1, 0, 0, 1, -9, -9)"><path class="a" d="M156.367,38.485l6.157-6.157,1.986,1.986-6.157,6.157Zm0,0" transform="translate(-140.77 -21.98)"/></g><g class="c" transform="matrix(1, 0, 0, 1, -9, -9)"><path class="a" d="M132.543,199.413l2.194-.608-1.587-1.587Zm0,0" transform="translate(-117.95 -179.91)"/></g><g class="b" transform="matrix(1, 0, 0, 1, -9, -9)"><path class="a" d="M318.465.577a1.056,1.056,0,0,0-1.491,0l-.447.447,1.986,1.986.447-.447a1.055,1.055,0,0,0,0-1.491Zm0,0" transform="translate(-294.18 8.73)"/></g></g></g></svg>