<svg xmlns="http://www.w3.org/2000/svg" xmlns:xlink="http://www.w3.org/1999/xlink" width="32.886" height="35.856" viewBox="0 0 32.886 35.856"><defs><style>.a{fill:#fd8279;}.b{filter:url(#a);}</style><filter id="a" x="0" y="0" width="32.886" height="35.856" filterUnits="userSpaceOnUse"><feOffset input="SourceAlpha"/><feGaussianBlur stdDeviation="3" result="b"/><feFlood flood-opacity="0.102"/><feComposite operator="in" in2="b"/><feComposite in="SourceGraphic"/></filter></defs><g transform="translate(9 9)"><g class="b" transform="matrix(1, 0, 0, 1, -9, -9)"><path class="a" d="M22.73,34.728a2.67,2.67,0,0,1-2.434-2.76c-.26-2.788-.685-9.339-.709-9.423a.953.953,0,0,1,.165-.558.555.555,0,0,1,.425-.223H31.661a.521.521,0,0,1,.425.223.725.725,0,0,1,.142.558c0,.056-.449,6.635-.685,9.423a2.634,2.634,0,0,1-2.481,2.76c-1.04.028-2.079.028-3.119.028C24.856,34.756,23.769,34.756,22.73,34.728ZM19.091,20.2a.671.671,0,0,1-.591-.725v-.362a.671.671,0,0,1,.591-.725H21.5c.5,0,1.961-1.492,2.717-1.492h3.426c.756,0,2.245,1.492,2.741,1.519H32.8a.671.671,0,0,1,.591.725h0v.362a.69.69,0,0,1-.591.725h-13.7Z" transform="translate(-9.5 -7.9)"/></g></g></svg>