<svg xmlns="http://www.w3.org/2000/svg" xmlns:xlink="http://www.w3.org/1999/xlink" width="119.966" height="106.51" viewBox="0 0 119.966 106.51"><defs><style>.a{fill:#696e78;}.b{filter:url(#g);}.c{filter:url(#e);}.d{filter:url(#c);}.e{filter:url(#a);}</style><filter id="a" x="19.136" y="0" width="100.829" height="100.411" filterUnits="userSpaceOnUse"><feOffset input="SourceAlpha"/><feGaussianBlur stdDeviation="3" result="b"/><feFlood flood-opacity="0.102"/><feComposite operator="in" in2="b"/><feComposite in="SourceGraphic"/></filter><filter id="c" x="0" y="13.992" width="111.232" height="76.768" filterUnits="userSpaceOnUse"><feOffset input="SourceAlpha"/><feGaussianBlur stdDeviation="3" result="d"/><feFlood flood-opacity="0.102"/><feComposite operator="in" in2="d"/><feComposite in="SourceGraphic"/></filter><filter id="e" x="37.031" y="75.51" width="31" height="31" filterUnits="userSpaceOnUse"><feOffset input="SourceAlpha"/><feGaussianBlur stdDeviation="3" result="f"/><feFlood flood-opacity="0.102"/><feComposite operator="in" in2="f"/><feComposite in="SourceGraphic"/></filter><filter id="g" x="70.031" y="75.51" width="31" height="31" filterUnits="userSpaceOnUse"><feOffset input="SourceAlpha"/><feGaussianBlur stdDeviation="3" result="h"/><feFlood flood-opacity="0.102"/><feComposite operator="in" in2="h"/><feComposite in="SourceGraphic"/></filter></defs><g transform="translate(19147.941 22927.51)"><g transform="translate(-19119.805 -22918.51)"><g class="e" transform="matrix(1, 0, 0, 1, -28.14, -9)"><path class="a" d="M8.792,55,.53,45.849a2.046,2.046,0,0,1-.523-1.543L.918,26.974A2.039,2.039,0,0,1,1.6,25.557L23.774,5.644a2.058,2.058,0,0,1,1.773-.49L39.859,7.962,51.234.347A2.063,2.063,0,0,1,53.91.68L60.8,8.3a2.049,2.049,0,0,1-.154,2.9l-1.527,1.373A9.251,9.251,0,0,0,45.348,24.938L29.289,39.357A9.251,9.251,0,0,0,15.524,51.719L11.7,55.15A2.062,2.062,0,0,1,8.792,55ZM4.99,28.034l-.613,11.6L35.861,11.362l-10.1-1.981ZM17.053,50.345a7.218,7.218,0,1,1,5.353,2.375A7.174,7.174,0,0,1,17.053,50.345Zm3.287-7.095a3.092,3.092,0,1,0,2.065-.791A3.072,3.072,0,0,0,20.339,43.251ZM46.877,23.564a7.218,7.218,0,1,1,5.355,2.376A7.17,7.17,0,0,1,46.877,23.564Zm3.289-7.094a3.093,3.093,0,1,0,2.065-.791A3.072,3.072,0,0,0,50.166,16.47Z" transform="translate(65.39 9) rotate(42)"/></g></g><g transform="translate(-19138.941 -22904.518)"><g class="d" transform="matrix(1, 0, 0, 1, -9, -22.99)"><path class="a" d="M-19050.674-22846.193h-58.939a2.324,2.324,0,0,1-2.322-2.324,2.324,2.324,0,0,1,2.322-2.324h58.465c.3-.2.795-.734.795-2.105a2.75,2.75,0,0,0-.607-1.943,1.292,1.292,0,0,0-.189-.152h-57.365c-.059,0-.133,0-.215,0-.867,0-4.014-.209-5.865-2.059-1.883-1.883-2.775-5.271-2.93-5.9l-7.713-37.32h-11.377a2.325,2.325,0,0,1-2.324-2.324,2.324,2.324,0,0,1,2.324-2.322h13.123a2.327,2.327,0,0,1,2.234,1.676l8.213,39.049c.01.039.02.076.027.117a9.7,9.7,0,0,0,1.707,3.732,4.537,4.537,0,0,0,2.5.707h0c.074-.006.148-.01.223-.01h57.906a2.259,2.259,0,0,1,.561.068,5.493,5.493,0,0,1,2.369,1.377,7.043,7.043,0,0,1,2.037,5.3,7.055,7.055,0,0,1-2.033,5.3,5.5,5.5,0,0,1-2.365,1.383A2.325,2.325,0,0,1-19050.674-22846.193Z" transform="translate(19147.94 22927.95)"/></g><g class="c" transform="matrix(1, 0, 0, 1, -9, -22.99)"><circle class="a" cx="6.5" cy="6.5" r="6.5" transform="translate(46.03 84.51)"/></g><g class="b" transform="matrix(1, 0, 0, 1, -9, -22.99)"><circle class="a" cx="6.5" cy="6.5" r="6.5" transform="translate(79.03 84.51)"/></g></g></g></svg>