<svg xmlns="http://www.w3.org/2000/svg" width="730" height="287" viewBox="0 0 730 287"><defs><style>.a{fill:#fff;stroke:#1a76ff;stroke-linecap:round;stroke-width:3px;stroke-dasharray:4 9;}.b{fill:rgba(26,118,255,0.05);}.c{fill:#acacac;}.d{stroke:none;}.e{fill:none;}</style></defs><g class="a"><rect class="d" width="730" height="287" rx="18"/><rect class="e" x="1.5" y="1.5" width="727" height="284" rx="16.5"/></g><rect class="b" width="694" height="251" rx="18" transform="translate(18 18)"/><g transform="translate(347.192 48.564)"><path class="c" d="M95.121,9.726,86.3,1.377A5.014,5.014,0,0,0,82.836,0h-16.8A5.04,5.04,0,0,0,61,5.034V41.828a5.04,5.04,0,0,0,5.034,5.034H91.661A5.04,5.04,0,0,0,96.7,41.828V13.383a5.055,5.055,0,0,0-1.574-3.657Zm-2.667,1.257H85.621a.458.458,0,0,1-.458-.458V4.085Zm-.793,33.133H66.034a2.291,2.291,0,0,1-2.288-2.288V5.034a2.291,2.291,0,0,1,2.288-2.288H82.417v7.78a3.207,3.207,0,0,0,3.2,3.2h8.329v28.1A2.291,2.291,0,0,1,91.661,44.116Z" transform="translate(-61 0)"/><path class="c" d="M150.785,200H129.454a1.245,1.245,0,1,0,0,2.455h21.331a1.245,1.245,0,1,0,0-2.455Z" transform="translate(-122.518 -181.574)"/><path class="c" d="M150.785,280H129.454a1.245,1.245,0,1,0,0,2.455h21.331a1.245,1.245,0,1,0,0-2.455Z" transform="translate(-122.518 -254.204)"/><path class="c" d="M135.178,360h-5.95a1.227,1.227,0,0,0,0,2.455h5.95a1.227,1.227,0,0,0,0-2.455Z" transform="translate(-121.635 -326.833)"/></g></svg>