<svg xmlns="http://www.w3.org/2000/svg" xmlns:xlink="http://www.w3.org/1999/xlink" width="41.84" height="41.712" viewBox="0 0 41.84 41.712"><defs><style>.a{fill:#1a76ff;}.b{filter:url(#g);}.c{filter:url(#e);}.d{filter:url(#c);}.e{filter:url(#a);}</style><filter id="a" x="0" y="1.181" width="41.781" height="40.531" filterUnits="userSpaceOnUse"><feOffset input="SourceAlpha"/><feGaussianBlur stdDeviation="3" result="b"/><feFlood flood-color="#1c1c1c" flood-opacity="0.102"/><feComposite operator="in" in2="b"/><feComposite in="SourceGraphic"/></filter><filter id="c" x="9.771" y="2.003" width="30.066" height="30.066" filterUnits="userSpaceOnUse"><feOffset input="SourceAlpha"/><feGaussianBlur stdDeviation="3" result="d"/><feFlood flood-color="#1c1c1c" flood-opacity="0.102"/><feComposite operator="in" in2="d"/><feComposite in="SourceGraphic"/></filter><filter id="e" x="8.282" y="12.306" width="21.252" height="21.252" filterUnits="userSpaceOnUse"><feOffset input="SourceAlpha"/><feGaussianBlur stdDeviation="3" result="f"/><feFlood flood-color="#1c1c1c" flood-opacity="0.102"/><feComposite operator="in" in2="f"/><feComposite in="SourceGraphic"/></filter><filter id="g" x="19.778" y="0" width="22.062" height="22.062" filterUnits="userSpaceOnUse"><feOffset input="SourceAlpha"/><feGaussianBlur stdDeviation="3" result="h"/><feFlood flood-color="#1c1c1c" flood-opacity="0.102"/><feComposite operator="in" in2="h"/><feComposite in="SourceGraphic"/></filter></defs><g transform="translate(9 9)"><g class="e" transform="matrix(1, 0, 0, 1, -9, -9)"><path class="a" d="M23.156,32.4a.625.625,0,0,0-.625.625v5.548a1.877,1.877,0,0,1-1.875,1.875H3.124A1.877,1.877,0,0,1,1.25,38.575V22.292a1.877,1.877,0,0,1,1.875-1.875H8.672a.625.625,0,0,0,0-1.25H3.124A3.128,3.128,0,0,0,0,22.292V38.575A3.128,3.128,0,0,0,3.124,41.7H20.657a3.128,3.128,0,0,0,3.124-3.124V33.027A.625.625,0,0,0,23.156,32.4Zm0,0" transform="translate(9 -8.99)"/></g><g class="d" transform="matrix(1, 0, 0, 1, -9, -9)"><path class="a" d="M156.367,41.452l9.124-9.124,2.942,2.942-9.123,9.124Zm0,0" transform="translate(-137.6 -21.32)"/></g><g class="c" transform="matrix(1, 0, 0, 1, -9, -9)"><path class="a" d="M132.543,200.471l3.252-.9-2.351-2.351Zm0,0" transform="translate(-115.26 -175.91)"/></g><g class="b" transform="matrix(1, 0, 0, 1, -9, -9)"><path class="a" d="M319.4.725a1.564,1.564,0,0,0-2.209,0l-.663.663,2.942,2.942.663-.663a1.563,1.563,0,0,0,0-2.209Zm0,0" transform="translate(-287.75 8.73)"/></g></g></svg>