<svg xmlns="http://www.w3.org/2000/svg" width="58.938" height="21.64" viewBox="0 0 58.938 21.64"><defs><style>.a{isolation:isolate;}.b{fill:none;stroke-linejoin:round;}.c,.d{stroke:none;}.d{fill:#1c1c1c;}</style></defs><g class="a" transform="translate(0.499 0.5)"><g transform="translate(0 0)"><g class="b" transform="translate(-9.997 185.551)"><path class="c" d="M36.817-185.415a29.445,29.445,0,0,1,4.839.673,37.935,37.935,0,0,1,10.767,5.511l1,.731,1.218.07c3.666.221,9.107,1.741,11.068,3.1a3.281,3.281,0,0,1,1.219,1.625c0,.1.2.325.429.476a1.033,1.033,0,0,1,.534.72c.116.5,0,1.706-.163,1.706a.786.786,0,0,0-.325.221c-.2.2-.209.348-.163,1.207a6.19,6.19,0,0,1-.012,1.288l-.07.3H61.739l.116-.708a5.744,5.744,0,0,0-4.154-6.2,5.759,5.759,0,0,0-7.031,4.328,7.615,7.615,0,0,0,.07,2.6c.081.2-.569.209-12.531.209H25.6l.07-.267a8.93,8.93,0,0,0,.151-1.068,5.582,5.582,0,0,0-1.648-4.293,5.4,5.4,0,0,0-4.072-1.683,5.634,5.634,0,0,0-5.024,3.191,5.942,5.942,0,0,0-.58,2.715l.047.592h-.789c-.7,0-.777-.023-.777-.232s-.081-.232-1.1-.232h-1.1v-.348a2.22,2.22,0,0,0-.244-.835,5.9,5.9,0,0,1-.511-2.645,1.81,1.81,0,0,1,.662-1.253c.186-.14.209-.336.209-1.868a9.86,9.86,0,0,1,.163-2.251c.406-1.346,3.434-4.258,5.488-5.279a1.606,1.606,0,0,0,.615-.418.922.922,0,0,0-.232-.359l-.232-.244,1.357-.151C27.93-185.531,31.909-185.728,36.817-185.415Zm-8.771,1.5A42.461,42.461,0,0,0,16.42-180.75c-1.091.452-1.346.6-1.172.673.789.313,16.464,1.706,16.685,1.485.046-.046-.708-5-.8-5.3A7.789,7.789,0,0,0,28.046-183.918Zm4.2.151c-.093.128,0,.789.383,2.68.278,1.38.522,2.529.545,2.552s2.6.151,5.732.29,5.964.278,6.289.313l.615.058v-2.564l-.789-.58a14.645,14.645,0,0,0-4.316-2.077,34.893,34.893,0,0,0-5.175-.7C33.116-183.941,32.4-183.941,32.246-183.767Z"/><path class="d" d="M 32.75262451171875 -185.5506134033203 C 29.21024322509766 -185.5506134033203 25.15459823608398 -185.2377624511719 18.0447998046875 -184.4863739013672 L 16.68737030029297 -184.3356170654297 L 16.91970825195312 -184.0920257568359 C 17.04682922363281 -183.9530944824219 17.15147018432617 -183.7910919189453 17.15147018432617 -183.7325592041016 C 17.15147018432617 -183.6740264892578 16.87300872802734 -183.4771575927734 16.5366096496582 -183.3145751953125 C 14.48271942138672 -182.2935333251953 11.45449829101562 -179.3811798095703 11.04831695556641 -178.0355377197266 C 10.94368743896484 -177.6873168945312 10.8857421875 -176.9216766357422 10.8857421875 -175.7847595214844 C 10.8857421875 -174.2528991699219 10.86267852783203 -174.0560302734375 10.67704010009766 -173.91650390625 C 10.32881164550781 -173.6729125976562 10.09647369384766 -173.2206268310547 10.01547241210938 -172.6636962890625 C 9.922653198242188 -172.03759765625 10.18988037109375 -170.6795501708984 10.52628326416016 -170.0185699462891 C 10.66522216796875 -169.7513275146484 10.76986694335938 -169.3806457519531 10.76986694335938 -169.1831665039062 L 10.76986694335938 -168.8349456787109 L 11.87190246582031 -168.8349456787109 C 12.89293670654297 -168.8349456787109 12.97393798828125 -168.8237152099609 12.97393798828125 -168.6031799316406 C 12.97393798828125 -168.3938903808594 13.05552673339844 -168.3708343505859 13.75138092041016 -168.3708343505859 L 14.54006958007812 -168.3708343505859 L 14.49335861206055 -168.962646484375 C 14.44665145874023 -169.7743988037109 14.66717910766602 -170.8421478271484 15.07334899902344 -171.6775360107422 C 15.99031829833984 -173.6037445068359 17.98567962646484 -174.8683624267578 20.09751129150391 -174.8683624267578 C 21.73342132568359 -174.8683624267578 23.03292083740234 -174.3344879150391 24.16983032226562 -173.1857452392578 C 25.31856918334961 -172.0257720947266 25.94525909423828 -170.4129180908203 25.81755828857422 -168.8928833007812 C 25.77085113525391 -168.4518280029297 25.71290969848633 -167.9646606445312 25.66680145263672 -167.8251342773438 L 25.59703063964844 -167.5584869384766 L 38.20890045166016 -167.5584869384766 C 50.1710205078125 -167.5584869384766 50.82077026367188 -167.5697174072266 50.73978042602539 -167.7671966552734 C 50.57719039916992 -168.1733551025391 50.54229736328125 -169.7164611816406 50.67000961303711 -170.3662109375 C 51.33158111572266 -173.4990997314453 54.58032989501953 -175.5063171386719 57.70137023925781 -174.6939544677734 C 60.3819580078125 -173.9862670898438 62.28448867797852 -171.1548919677734 61.85527038574219 -168.4979400634766 L 61.73938751220703 -167.7902526855469 L 67.15791320800781 -167.7902526855469 L 67.22767639160156 -168.0917816162109 C 67.27438354492188 -168.2537689208984 67.27438354492188 -168.8343505859375 67.23948669433594 -169.3794555664062 C 67.19338226318359 -170.2379150390625 67.20461273193359 -170.388671875 67.40208435058594 -170.5861511230469 C 67.51795959472656 -170.7020263671875 67.66871643066406 -170.8066711425781 67.72666168212891 -170.8066711425781 C 67.88923645019531 -170.8066711425781 68.005126953125 -172.0133514404297 67.88923645019531 -172.5123443603516 C 67.81948089599609 -172.8375244140625 67.66871643066406 -173.0349884033203 67.35537719726562 -173.2318572998047 C 67.12361907958984 -173.3826293945312 66.9261474609375 -173.6031494140625 66.9261474609375 -173.7078094482422 C 66.9261474609375 -174.0560302734375 66.25334167480469 -174.9611968994141 65.70764923095703 -175.3324890136719 C 63.74658203125 -176.6899261474609 58.30500793457031 -178.2093658447266 54.63945007324219 -178.4304809570312 L 53.42095184326172 -178.5002593994141 L 52.42296981811523 -179.2310028076172 C 48.93064880371094 -181.7371978759766 44.498291015625 -184.0116271972656 41.65570831298828 -184.7423858642578 C 40.48331832885742 -185.0438995361328 38.60383987426758 -185.2993011474609 36.81716918945312 -185.4151916503906 C 35.43927764892578 -185.5030059814453 34.13542556762695 -185.5506134033203 32.75262451171875 -185.5506134033203 M 31.65105056762695 -178.5689239501953 C 29.50897979736328 -178.5689239501953 15.98014831542969 -179.7870941162109 15.24834060668945 -180.0776214599609 C 15.07392883300781 -180.1468048095703 15.32934188842773 -180.2981567382812 16.42013931274414 -180.7504425048828 C 20.32986831665039 -182.4100036621094 24.6463508605957 -183.5818023681641 28.04586029052734 -183.918212890625 C 29.72788238525391 -184.0807952880859 31.07407760620117 -184.0690002441406 31.13261032104492 -183.8951568603516 C 31.22542953491211 -183.5930328369141 31.97922897338867 -178.6385955810547 31.93312072753906 -178.5924835205078 C 31.91706085205078 -178.576416015625 31.81927490234375 -178.5689239501953 31.65105056762695 -178.5689239501953 M 45.80960083007812 -177.8735504150391 L 45.19474029541016 -177.9315032958984 C 44.86957168579102 -177.9663696289062 42.0269889831543 -178.1059112548828 38.90594863891602 -178.2448425292969 C 35.77309036254883 -178.3843688964844 33.19713973999023 -178.5120697021484 33.17409133911133 -178.5351409912109 C 33.15103149414062 -178.5581817626953 32.90744018554688 -179.7069396972656 32.62897872924805 -181.0874328613281 C 32.24588012695312 -182.9781646728516 32.15304946899414 -183.6397552490234 32.24588012695312 -183.7674407958984 C 32.39663314819336 -183.9412841796875 33.11614608764648 -183.9412841796875 35.53009033203125 -183.7910919189453 C 37.39833831787109 -183.6746368408203 39.4055290222168 -183.3961639404297 40.70502090454102 -183.0946502685547 C 41.89987945556641 -182.8043518066406 43.95317840576172 -181.8300170898438 45.02091979980469 -181.0176696777344 L 45.80960083007812 -180.4376983642578 L 45.80960083007812 -177.8735504150391 M 32.75262069702148 -186.0506134033203 C 34.08663177490234 -186.0506134033203 35.38827896118164 -186.0072631835938 36.84896850585938 -185.9141845703125 C 38.71158981323242 -185.7933654785156 40.60092926025391 -185.5299224853516 41.78025054931641 -185.2266235351562 C 44.66608047485352 -184.4847564697266 49.16242218017578 -182.1862945556641 52.71449279785156 -179.6372222900391 L 53.59709167480469 -178.9909820556641 L 54.66803741455078 -178.9296569824219 C 58.4534912109375 -178.7013244628906 63.95608901977539 -177.1529998779297 65.99221801757812 -175.7436065673828 C 66.53033447265625 -175.3774871826172 67.31594848632812 -174.4536743164062 67.41561889648438 -173.8324584960938 C 67.45426940917969 -173.7874755859375 67.5296630859375 -173.7154083251953 67.62531280517578 -173.6527557373047 C 68.05421447753906 -173.3822631835938 68.27941131591797 -173.0732574462891 68.3773193359375 -172.6209411621094 C 68.48726654052734 -172.1389923095703 68.45693969726562 -170.8963317871094 68.15884399414062 -170.5210723876953 C 68.08131408691406 -170.4234771728516 67.97850799560547 -170.3556976318359 67.86525726318359 -170.3250885009766 C 67.83805847167969 -170.3061218261719 67.79578399658203 -170.2727508544922 67.75563049316406 -170.2326049804688 C 67.74221038818359 -170.2191772460938 67.73553466796875 -170.2113494873047 67.73264312744141 -170.2077178955078 C 67.70101165771484 -170.1114501953125 67.72441101074219 -169.6736602783203 67.73862457275391 -169.4089202880859 C 67.75055694580078 -169.2216491699219 67.80216979980469 -168.3185424804688 67.71303558349609 -167.9713897705078 L 67.64504241943359 -167.6775360107422 C 67.59258270263672 -167.4508056640625 67.39063262939453 -167.2902526855469 67.15791320800781 -167.2902526855469 L 61.73938751220703 -167.2902526855469 C 61.59265899658203 -167.2902526855469 61.45333862304688 -167.3547058105469 61.35833740234375 -167.4665222167969 C 61.26333999633789 -167.5783386230469 61.22225189208984 -167.7262420654297 61.2459602355957 -167.8710479736328 L 61.36183929443359 -168.5787353515625 C 61.75075912475586 -170.9862060546875 60.01609802246094 -173.5657348632812 57.57373809814453 -174.2105255126953 C 57.15517044067383 -174.3194580078125 56.7224006652832 -174.3749237060547 56.28913116455078 -174.3749237060547 C 53.82100677490234 -174.3749237060547 51.66443634033203 -172.6471099853516 51.15992736816406 -170.2662353515625 C 51.03583526611328 -169.6285400390625 51.09918212890625 -168.2147827148438 51.20397186279297 -167.9530181884766 C 51.27381134033203 -167.7827758789062 51.25621032714844 -167.5955963134766 51.15410995483398 -167.443359375 C 50.98942947387695 -167.1978302001953 50.70255279541016 -167.1596832275391 50.31525039672852 -167.1326141357422 C 49.97412872314453 -167.1087799072266 49.43147277832031 -167.0933227539062 48.55570983886719 -167.0824890136719 C 46.74411010742188 -167.0601043701172 43.4382209777832 -167.0584869384766 38.20890045166016 -167.0584869384766 L 25.59703063964844 -167.0584869384766 C 25.44210052490234 -167.0584869384766 25.29592895507812 -167.1303100585938 25.20124816894531 -167.2529449462891 C 25.10657119750977 -167.3755798339844 25.07410049438477 -167.5351715087891 25.11331176757812 -167.68505859375 L 25.18307876586914 -167.9517059326172 C 25.18574905395508 -167.9619140625 25.18875122070312 -167.9720153808594 25.19205093383789 -167.9820404052734 C 25.20095825195312 -168.0127410888672 25.23936080932617 -168.1817626953125 25.31977462768555 -168.9402160644531 C 25.43319320678711 -170.3121643066406 24.87075805664062 -171.7673797607422 23.81455993652344 -172.8339233398438 C 22.77845001220703 -173.8808135986328 21.59735870361328 -174.3683624267578 20.09751129150391 -174.3683624267578 C 18.18981170654297 -174.3683624267578 16.35218048095703 -173.2006225585938 15.52481079101562 -171.4626312255859 C 15.16421890258789 -170.720947265625 14.9511833190918 -169.7322845458984 14.99222946166992 -168.9966583251953 L 15.03852081298828 -168.4101715087891 C 15.04949188232422 -168.2711639404297 15.00191116333008 -168.1338958740234 14.90726852416992 -168.0314788818359 C 14.81262969970703 -167.9290618896484 14.67951965332031 -167.8708343505859 14.54006958007812 -167.8708343505859 L 13.75138092041016 -167.8708343505859 C 13.33132171630859 -167.8708343505859 13.12841796875 -167.8789520263672 12.959228515625 -167.9292602539062 C 12.84608459472656 -167.962890625 12.61660003662109 -168.0621490478516 12.51924133300781 -168.3279418945312 C 12.34102630615234 -168.3349456787109 12.08071899414062 -168.3349456787109 11.87190246582031 -168.3349456787109 L 10.76986694335938 -168.3349456787109 C 10.49372863769531 -168.3349456787109 10.26986694335938 -168.5588073730469 10.26986694335938 -168.8349456787109 L 10.26986694335938 -169.1831665039062 C 10.26986694335938 -169.2805633544922 10.19519805908203 -169.5714416503906 10.08264923095703 -169.7879333496094 C 9.691238403320312 -170.5569610595703 9.413963317871094 -172.0158233642578 9.520881652832031 -172.7370147705078 C 9.6195068359375 -173.4151763916016 9.909957885742188 -173.9643859863281 10.34111022949219 -174.2903289794922 C 10.3857421875 -174.4989471435547 10.3857421875 -175.23681640625 10.3857421875 -175.7847595214844 C 10.3857421875 -176.9680023193359 10.44756317138672 -177.773681640625 10.56947326660156 -178.1794128417969 C 10.87869262695312 -179.2038421630859 12.25190734863281 -180.6030731201172 12.82797241210938 -181.1571502685547 C 14.00315093994141 -182.2874755859375 15.30635070800781 -183.2613525390625 16.31402969360352 -183.7623138427734 C 16.31570053100586 -183.7631225585938 16.3173713684082 -183.7639465332031 16.31903839111328 -183.7647552490234 C 16.37213897705078 -183.7904205322266 16.42200088500977 -183.8162994384766 16.46780014038086 -183.8414001464844 L 16.3255615234375 -183.9905242919922 C 16.19437026977539 -184.1280517578125 16.15251159667969 -184.3280944824219 16.21754837036133 -184.5066986083984 C 16.2825813293457 -184.685302734375 16.44326019287109 -184.8115844726562 16.63217926025391 -184.8325653076172 L 17.98960876464844 -184.9833221435547 C 25.44659042358398 -185.7713928222656 29.30912017822266 -186.0506134033203 32.75262069702148 -186.0506134033203 Z M 30.70137786865234 -183.5107727050781 C 30.5837287902832 -183.5223999023438 30.39731979370117 -183.5331726074219 30.11037826538086 -183.5331726074219 C 29.56156158447266 -183.5331726074219 28.84545135498047 -183.4931640625 28.09397125244141 -183.4205322265625 C 24.78057479858398 -183.0926361083984 20.54701614379883 -181.9445343017578 16.74300003051758 -180.3440704345703 C 20.17040634155273 -179.9257507324219 29.03987503051758 -179.1390075683594 31.38045883178711 -179.0733184814453 C 31.2366828918457 -180.1508026123047 30.85053253173828 -182.6820220947266 30.70137786865234 -183.5107727050781 Z M 40.58903884887695 -182.6082763671875 C 39.27517700195312 -182.912841796875 37.27775573730469 -183.1811828613281 35.49898147583008 -183.2920532226562 C 34.27254104614258 -183.3683624267578 33.55366134643555 -183.4009246826172 33.09529113769531 -183.4009246826172 C 32.92889022827148 -183.4009246826172 32.80910491943359 -183.3963775634766 32.72345352172852 -183.3903656005859 C 32.7796745300293 -182.8615417480469 33.01884460449219 -181.68115234375 33.1190185546875 -181.1867218017578 C 33.32617568969727 -180.1597290039062 33.48513412475586 -179.4027252197266 33.57331466674805 -179.0043792724609 C 34.28599548339844 -178.9609527587891 36.13187408447266 -178.8688812255859 38.92819976806641 -178.7443389892578 C 41.70027542114258 -178.6209411621094 44.8537483215332 -178.4698791503906 45.24479293823242 -178.4290008544922 L 45.30960083007812 -178.4228820800781 L 45.30960083007812 -180.1847534179688 L 44.72470855712891 -180.6148529052734 C 44.72251129150391 -180.6164703369141 44.72034072875977 -180.6181030273438 44.71817016601562 -180.6197357177734 C 43.72296905517578 -181.3769226074219 41.75560760498047 -182.3242797851562 40.58903884887695 -182.6082763671875 Z"/></g><g class="b" transform="translate(-93.188 -7.08)"><path class="c" d="M140.8,19.317a4.4,4.4,0,0,1,2.912,3.794,4.172,4.172,0,0,1-2.321,4.1,3.977,3.977,0,0,1-2.993.371,4.229,4.229,0,0,1-2.889-2.39,3.258,3.258,0,0,1-.3-1.8,3.12,3.12,0,0,1,.313-1.8,4.927,4.927,0,0,1,2.065-2.065,3.346,3.346,0,0,1,1.683-.336A5.376,5.376,0,0,1,140.8,19.317ZM138,20.942a2.84,2.84,0,0,0-.51,4.56,2.6,2.6,0,0,0,1.972.731,2.757,2.757,0,0,0,2.715-2.065,2.912,2.912,0,0,0-1.8-3.469A3.221,3.221,0,0,0,138,20.942Z"/><path class="d" d="M 139.5498046875 19.18433952331543 C 139.4578399658203 19.18433952331543 139.364013671875 19.18597793579102 139.2692108154297 19.18940544128418 C 138.3989410400391 19.21246528625488 138.1204681396484 19.27040481567383 137.5865936279297 19.52580451965332 C 136.7630462646484 19.93197441101074 135.9276428222656 20.76737403869629 135.5214691162109 21.5909538269043 C 135.2429962158203 22.15970420837402 135.2081146240234 22.3565845489502 135.2081146240234 23.38944435119629 C 135.2081146240234 24.39925384521484 135.2429962158203 24.63101387023926 135.5096435546875 25.18794441223145 C 136.0902252197266 26.42951393127441 137.0645599365234 27.23003387451172 138.3989410400391 27.5782642364502 C 139.4429931640625 27.84489822387695 140.3245086669922 27.74086380004883 141.3922729492188 27.20697402954102 C 142.9353637695312 26.45257568359375 143.8404998779297 24.8515453338623 143.7127990722656 23.11098480224609 C 143.5850982666016 21.39407539367676 142.37841796875 19.82733535766602 140.8004608154297 19.31710433959961 C 140.5437622070312 19.23807907104492 140.07666015625 19.18433952331543 139.5498046875 19.18433952331543 M 139.4660797119141 26.23263549804688 C 138.6076354980469 26.23263549804688 138.0276489257812 26.01270484924316 137.4937744140625 25.50188446044922 C 136.0778045654297 24.15567398071289 136.3332214355469 21.91612434387207 138.0039978027344 20.9417839050293 C 138.6306762695312 20.57050132751465 139.7445220947266 20.45401954650879 140.3824768066406 20.69820404052734 C 141.78662109375 21.22025489807129 142.5871276855469 22.77516555786133 142.1809692382812 24.16749382019043 C 141.8215026855469 25.43212509155273 140.7655792236328 26.23263549804688 139.4660797119141 26.23263549804688 M 139.5498046875 18.68433570861816 C 140.1099853515625 18.68433570861816 140.6325225830078 18.74224472045898 140.9475708007812 18.83923530578613 C 140.9498138427734 18.83992385864258 140.9520568847656 18.84063529968262 140.9542846679688 18.84135437011719 C 142.7293701171875 19.41532516479492 144.0687561035156 21.15581512451172 144.2114105224609 23.07389450073242 C 144.3539123535156 25.01602554321289 143.3335113525391 26.81447410583496 141.6118927001953 27.65616416931152 C 140.8445892333984 28.03985404968262 140.1563873291016 28.21947479248047 139.4501037597656 28.21947479248047 C 139.0725708007812 28.21947479248047 138.6882629394531 28.1681957244873 138.2752227783203 28.06271553039551 C 136.7830200195312 27.67331504821777 135.7010192871094 26.77757453918457 135.0567169189453 25.39974403381348 C 134.7425537109375 24.74361419677734 134.7081146240234 24.41216468811035 134.7081146240234 23.38944435119629 C 134.7081146240234 22.34023475646973 134.739501953125 22.05099487304688 135.0724029541016 21.37108421325684 C 135.5259246826172 20.45151519775391 136.4471740722656 19.53026390075684 137.3654327392578 19.0773754119873 C 137.3672332763672 19.07649421691895 137.3690185546875 19.07562446594238 137.3708190917969 19.07476425170898 C 137.9739837646484 18.78620529174805 138.3263549804688 18.71421432495117 139.2559661865234 18.68958473205566 C 139.3501129150391 18.68615531921387 139.4506072998047 18.68433570861816 139.5498046875 18.68433570861816 Z M 139.4660797119141 25.73263549804688 C 140.545654296875 25.73263549804688 141.4016418457031 25.08052444458008 141.7000122070312 24.03078460693359 C 142.0355529785156 22.88054466247559 141.3659057617188 21.59727478027344 140.2082366943359 21.1668643951416 C 140.0430145263672 21.10364532470703 139.8145446777344 21.06976509094238 139.5604400634766 21.06976509094238 C 139.0796051025391 21.06976509094238 138.5687103271484 21.18838500976562 138.2588500976562 21.3719539642334 C 137.5999755859375 21.75620460510254 137.1747741699219 22.39603424072266 137.0892639160156 23.12915420532227 C 137.0026397705078 23.87185478210449 137.2756500244141 24.60460472106934 137.8382873535156 25.1395149230957 C 138.2846984863281 25.5666446685791 138.7407684326172 25.73263549804688 139.4660797119141 25.73263549804688 Z"/></g><g class="b" transform="translate(-740.449 -6.798)"><path class="c" d="M752.221,19.116a4.832,4.832,0,0,1,2.3,2.216,3.291,3.291,0,0,1,.336,1.833,3.1,3.1,0,0,1-.336,1.8A4.306,4.306,0,0,1,746.56,21.7a3.38,3.38,0,0,1,1.033-1.566,3.621,3.621,0,0,1,3.063-1.253A4.275,4.275,0,0,1,752.221,19.116Zm-3.052,1.543a2.847,2.847,0,0,0-.452,4.594,2.544,2.544,0,0,0,1.926.7,2.6,2.6,0,0,0,2.123-.963,2.857,2.857,0,0,0-1.207-4.571A3.251,3.251,0,0,0,749.169,20.659Z"/><path class="d" d="M 750.5762329101562 18.88415908813477 C 749.2477416992188 18.88418769836426 748.5478515625 19.18130683898926 747.5924682617188 20.13730430603027 C 746.9539794921875 20.78706359863281 746.7919311523438 21.03064346313477 746.5595703125 21.70345306396484 C 746.0369873046875 23.30448341369629 746.4200439453125 25.01016426086426 747.56884765625 26.15891456604004 C 749.69189453125 28.27074432373047 753.1841430664062 27.67895889282227 754.5186157226562 24.96405410766602 C 754.8201293945312 24.33735466003418 754.85498046875 24.15171432495117 754.85498046875 23.16555404663086 C 754.85498046875 22.19062423706055 754.8201293945312 21.98192405700684 754.5186157226562 21.3321647644043 C 754.1006469726562 20.42759323120117 753.0914306640625 19.45267486572266 752.22119140625 19.11626434326172 C 751.7930908203125 18.95435905456543 751.3200073242188 18.88450050354004 750.6639404296875 18.88450050354004 C 750.6345825195312 18.88450622558594 750.605224609375 18.8841609954834 750.5762329101562 18.88415908813477 M 750.6431884765625 25.95020484924316 C 749.7959594726562 25.95020484924316 749.320556640625 25.77580451965332 748.7169799804688 25.25375366210938 C 747.26611328125 23.966064453125 747.4866333007812 21.6455135345459 749.1692504882812 20.65935325622559 C 749.8077392578125 20.28805923461914 750.9097900390625 20.17161750793457 751.5595703125 20.41577339172363 C 753.4739379882812 21.13529396057129 754.0888061523438 23.44401359558105 752.7662353515625 24.98710441589355 C 752.1981201171875 25.64868354797363 751.5364990234375 25.95020484924316 750.6431884765625 25.95020484924316 M 750.576171875 18.38416481018066 L 750.5792236328125 18.38416481018066 C 750.60595703125 18.38416481018066 750.6327514648438 18.3842830657959 750.659912109375 18.38452339172363 L 750.6639404296875 18.3845043182373 C 751.3803100585938 18.3845043182373 751.9151611328125 18.4659538269043 752.3980712890625 18.64859390258789 C 753.3930053710938 19.03318405151367 754.498291015625 20.09615325927734 754.9725341796875 21.12243461608887 C 755.322021484375 21.87557411193848 755.35498046875 22.1619930267334 755.35498046875 23.16555404663086 C 755.35498046875 24.22018432617188 755.3045043945312 24.48386383056641 754.9691772460938 25.18083381652832 C 754.1340942382812 26.87991333007812 752.4664916992188 27.93306350708008 750.6154174804688 27.93306350708008 C 749.34375 27.93306350708008 748.1365356445312 27.42888450622559 747.2162475585938 26.51340484619141 C 745.935791015625 25.23303413391113 745.5023803710938 23.33087348937988 746.084228515625 21.54830360412598 C 746.0851440429688 21.54560470581055 746.0860595703125 21.54291343688965 746.0869750976562 21.54023361206055 C 746.3428344726562 20.79938316345215 746.5468139648438 20.48803329467773 747.23583984375 19.78686332702637 C 748.2846069335938 18.73738479614258 749.1267700195312 18.38418388366699 750.576171875 18.38416481018066 Z M 750.6431884765625 25.45020484924316 C 751.390625 25.45020484924316 751.912109375 25.21429443359375 752.3869018554688 24.66136360168457 C 752.9033203125 24.0588436126709 753.0896606445312 23.28460311889648 752.8978271484375 22.53752326965332 C 752.701904296875 21.77461433410645 752.1500244140625 21.17185401916504 751.3836669921875 20.88380432128906 C 751.2181396484375 20.82160377502441 750.9866333007812 20.78734397888184 750.7317504882812 20.78734397888184 C 750.2531127929688 20.78733444213867 749.7384643554688 20.90676307678223 749.4205932617188 21.09159469604492 C 748.7615966796875 21.47783470153809 748.3401489257812 22.13357353210449 748.2659301757812 22.88979339599609 C 748.191650390625 23.64595031738281 748.4761962890625 24.37038803100586 749.0467529296875 24.87789916992188 C 749.5606689453125 25.32178688049316 749.9193115234375 25.45020484924316 750.6431884765625 25.45020484924316 Z"/></g></g></g></svg>