<svg xmlns="http://www.w3.org/2000/svg" width="50.885" height="51.504" viewBox="0 0 50.885 51.504"><defs><style>.a{fill:#fff;}.b{fill:none;stroke:#1a76ff;stroke-linecap:round;stroke-linejoin:round;stroke-width:3px;}.c,.d{stroke:none;}.d{fill:#1a76ff;}</style></defs><g transform="translate(1.044 1.037)"><g class="a" transform="translate(0.398 -0.033)"><path class="c" d="M 24 49.25 C 18.32818031311035 49.24999237060547 12.82697010040283 47.22417068481445 8.509750366210938 43.54571151733398 L 8.306520462036133 43.37255096435547 C 4.072309970855713 39.76481246948242 1.216279983520508 34.75955200195312 0.2645600140094757 29.2787914276123 L 0.1577499955892563 28.66367149353027 C -0.7876499891281128 23.21939086914062 0.1958599984645844 17.57561111450195 2.927079916000366 12.77199077606201 L 3.166079998016357 12.35166168212891 C 5.944039821624756 7.465871334075928 10.3772497177124 3.702121257781982 15.64904975891113 1.753741264343262 L 15.72015953063965 1.727471232414246 C 18.37925910949707 0.7447012662887573 21.16501998901367 0.2463912516832352 24 0.2463912516832352 C 26.83498001098633 0.2463912516832352 29.62074089050293 0.7447012662887573 32.27991104125977 1.72749125957489 L 32.35087966918945 1.753721237182617 C 37.62276077270508 3.702131271362305 42.05596923828125 7.465891361236572 44.83393096923828 12.35168170928955 L 45.07291030883789 12.77199077606201 C 47.80413818359375 17.57562065124512 48.78765106201172 23.21940040588379 47.84225082397461 28.6636905670166 L 47.73543930053711 29.2787914276123 C 46.78371810913086 34.75955200195312 43.92768859863281 39.76481246948242 39.69345855712891 43.37256240844727 L 39.49026870727539 43.54570007324219 C 35.17303085327148 47.22418212890625 29.67181968688965 49.25 24 49.25 Z"/><path class="d" d="M 24 1.496387481689453 C 21.34262657165527 1.496387481689453 18.68525505065918 1.964252471923828 16.15341949462891 2.899982452392578 L 16.0823802947998 2.926231384277344 C 11.07889175415039 4.775440216064453 6.889289855957031 8.332382202148438 4.252708435058594 12.96951293945312 L 4.013721466064453 13.38983154296875 C 1.418880462646484 17.95357131958008 0.4911308288574219 23.27737045288086 1.389320373535156 28.44982147216797 L 1.496131896972656 29.06493186950684 C 2.399971008300781 34.26995086669922 5.096019744873047 38.9948616027832 9.117229461669922 42.42108917236328 L 9.320438385009766 42.5942497253418 C 13.41564178466797 46.08354187011719 18.61985015869141 47.99999237060547 24 47.99999237060547 L 24 48 C 29.38014030456543 48 34.5843505859375 46.08354949951172 38.67955780029297 42.5942497253418 L 38.88277053833008 42.42110061645508 C 42.90396881103516 38.9948616027832 45.60002136230469 34.26996231079102 46.50386810302734 29.06494140625 L 46.61067962646484 28.44983100891113 C 47.50886154174805 23.27738189697266 46.58111953735352 17.95358085632324 43.98627853393555 13.38984298706055 L 43.74729156494141 12.96952056884766 C 41.11072158813477 8.332389831542969 36.92110061645508 4.77545166015625 31.9176197052002 2.926231384277344 L 31.84658050537109 2.899982452392578 C 29.31474494934082 1.964252471923828 26.65737342834473 1.496387481689453 24 1.496387481689453 M 24 -1.003620147705078 C 26.98332977294922 -1.003620147705078 29.91489028930664 -0.479217529296875 32.71324920654297 0.5550117492675781 L 32.78413009643555 0.5811996459960938 C 38.33200073242188 2.631622314453125 42.99721908569336 6.592350006103516 45.92055892944336 11.73385238647461 L 46.15953826904297 12.15414047241211 C 49.03371047973633 17.20917129516602 50.06867980957031 23.14831161499023 49.07381820678711 28.8775520324707 L 48.96701049804688 29.49265098571777 C 47.96546936035156 35.26026153564453 44.95996856689453 40.52747344970703 40.504150390625 44.32403182983398 L 40.30097198486328 44.49715042114258 C 35.75777053833008 48.36816024780273 29.96865081787109 50.5 24 50.5 C 18.03133010864258 50.49999237060547 12.24222183227539 48.3681526184082 7.699058532714844 44.4971809387207 L 7.495761871337891 44.32394027709961 C 3.040031433105469 40.52748107910156 0.03451919555664062 35.26026153564453 -0.967010498046875 29.49265098571777 L -1.073818206787109 28.87753105163574 C -2.068691253662109 23.1483211517334 -1.033718109130859 17.20917129516602 1.840450286865234 12.15415954589844 L 2.079448699951172 11.73381042480469 C 5.002799987792969 6.592330932617188 9.668018341064453 2.631599426269531 15.21572113037109 0.5812606811523438 L 15.28691101074219 0.5549507141113281 C 18.0851001739502 -0.479217529296875 21.01666069030762 -1.003620147705078 24 -1.003620147705078 Z"/></g><path class="b" d="M13248.584,12948.91l6.51,5.705,17.384-15.719" transform="translate(-13236.323 -12922.85)"/></g></svg>