<svg xmlns="http://www.w3.org/2000/svg" width="31.178" height="20.783" viewBox="0 0 31.178 20.783"><g transform="translate(0 0)"><path d="M69.873,45a5.873,5.873,0,1,0,5.873,5.873A5.873,5.873,0,0,0,69.873,45ZM73.4,52.106H68.641V47.349h1.624v3.132H73.4Z" transform="translate(-44.568 -45)"/><path d="M32.026,16.182a8.312,8.312,0,0,1-3.354-2.742H22.3a6.544,6.544,0,0,0-5.7-3.44A6.741,6.741,0,0,0,10,16.88a6.741,6.741,0,0,0,6.594,6.88,6.543,6.543,0,0,0,5.7-3.44h4.186l1.648-1.72,1.648,1.72L31.43,18.6l1.648,1.72,3.354-3.808A6.668,6.668,0,0,1,32.026,16.182ZM13.3,18.6a1.721,1.721,0,1,1,1.648-1.72A1.686,1.686,0,0,1,13.3,18.6Z" transform="translate(-10 -2.977)"/></g></svg>