<svg xmlns="http://www.w3.org/2000/svg" width="25.456" height="20" viewBox="0 0 25.456 20"><g transform="translate(4)"><path d="M4.727-35a2.7,2.7,0,0,0-1.65.575L13.7-24.776a1.437,1.437,0,0,0,2.047,0l10.586-9.68A2.693,2.693,0,0,0,24.727-35Zm22.637,2.069q-5.2,4.759-10.408,9.519a3.37,3.37,0,0,1-4.457,0Q7.289-28.146,2.075-32.88A2.676,2.676,0,0,0,2-32.273v14.545A2.742,2.742,0,0,0,4.727-15h20a2.742,2.742,0,0,0,2.727-2.727V-32.273A2.232,2.232,0,0,0,27.364-32.931Z" transform="translate(-6 35)"/></g></svg>