<svg xmlns="http://www.w3.org/2000/svg" width="19" height="19" viewBox="0 0 19 19"><defs><style>.a{fill:#1a76ff;}</style></defs><path class="a" d="M9.5,0A9.5,9.5,0,1,0,19,9.5,9.511,9.511,0,0,0,9.5,0Zm0,17.273A7.773,7.773,0,1,1,17.273,9.5,7.781,7.781,0,0,1,9.5,17.273Z"/><path class="a" d="M146.274,70a1.273,1.273,0,1,0,1.272,1.273A1.274,1.274,0,0,0,146.274,70Z" transform="translate(-136.775 -66.028)"/><path class="a" d="M150.955,140a.955.955,0,0,0-.955.955v5.727a.955.955,0,0,0,1.909,0v-5.727A.955.955,0,0,0,150.955,140Z" transform="translate(-141.455 -132.424)"/></svg>