<svg xmlns="http://www.w3.org/2000/svg" width="36.181" height="11.304" viewBox="0 0 36.181 11.304"><path d="M9.312.15V6.811a4.414,4.414,0,0,1-2.254,4,4.6,4.6,0,0,1-4.7,0,4.414,4.414,0,0,1-2.254-4V.15h2.06V6.872a2.5,2.5,0,0,0,2.543,2.5,2.5,2.5,0,0,0,2.543-2.5V.15Z" transform="translate(-0.105 -0.15)"/><path d="M315.394,3.1a3.39,3.39,0,0,0-2.383.814V.15H311.09V11.359h1.7v-.993c.072.061.144.115.219.168A4.1,4.1,0,1,0,315.394,3.1Zm-.032,6.6a2.514,2.514,0,1,1,2.531-2.5,2.5,2.5,0,0,1-2.531,2.5Z" transform="translate(-292.247 -0.15)"/><path d="M169.891,50a4.07,4.07,0,1,0,4.069,4.07A4.07,4.07,0,0,0,169.891,50Zm-.041,6.564a2.535,2.535,0,1,1,2.535-2.535A2.535,2.535,0,0,1,169.85,56.564Z" transform="translate(-155.779 -46.98)"/><path d="M466.96,50a4.07,4.07,0,1,0,4.07,4.07A4.07,4.07,0,0,0,466.96,50Zm-.04,6.564a2.535,2.535,0,1,1,2.535-2.535A2.535,2.535,0,0,1,466.92,56.564Z" transform="translate(-434.849 -46.98)"/></svg>