<svg xmlns="http://www.w3.org/2000/svg" width="35.141" height="10.979" viewBox="0 0 35.141 10.979"><path d="M9.048.15V6.62A4.287,4.287,0,0,1,6.858,10.5a4.473,4.473,0,0,1-4.561,0A4.287,4.287,0,0,1,.107,6.62V.15h2V6.679a2.427,2.427,0,0,0,2.47,2.43,2.427,2.427,0,0,0,2.47-2.43V.15Z" transform="translate(-0.105 -0.15)"/><path d="M315.27,3.017a3.293,3.293,0,0,0-2.315.79V.15H311.09V11.037h1.653v-.965c.069.059.14.111.213.164a3.981,3.981,0,1,0,2.315-7.22Zm-.031,6.412A2.441,2.441,0,1,1,317.7,7a2.429,2.429,0,0,1-2.458,2.432Z" transform="translate(-292.788 -0.15)"/><path d="M169.774,50a3.953,3.953,0,1,0,3.952,3.953A3.953,3.953,0,0,0,169.774,50Zm-.039,6.375a2.462,2.462,0,1,1,2.462-2.462A2.462,2.462,0,0,1,169.734,56.375Z" transform="translate(-156.067 -47.066)"/><path d="M466.843,50a3.953,3.953,0,1,0,3.953,3.953A3.953,3.953,0,0,0,466.843,50Zm-.039,6.375a2.462,2.462,0,1,1,2.462-2.462A2.462,2.462,0,0,1,466.8,56.375Z" transform="translate(-435.655 -47.066)"/></svg>