<svg xmlns="http://www.w3.org/2000/svg" width="35.708" height="11.156" viewBox="0 0 35.708 11.156"><path d="M9.192.15V6.724a4.356,4.356,0,0,1-2.225,3.946,4.545,4.545,0,0,1-4.635,0A4.356,4.356,0,0,1,.108,6.724V.15H2.141V6.784A2.466,2.466,0,0,0,4.65,9.253,2.466,2.466,0,0,0,7.16,6.784V.15Z" transform="translate(-0.105 -0.15)"/><path d="M315.338,3.063a3.346,3.346,0,0,0-2.352.8V.15h-1.9V11.213h1.679v-.98c.071.06.142.113.216.166a4.046,4.046,0,1,0,2.352-7.336Zm-.032,6.516a2.481,2.481,0,1,1,2.5-2.471,2.468,2.468,0,0,1-2.5,2.471Z" transform="translate(-292.493 -0.15)"/><path d="M169.837,50a4.017,4.017,0,1,0,4.016,4.017A4.017,4.017,0,0,0,169.837,50Zm-.04,6.478a2.5,2.5,0,1,1,2.5-2.5A2.5,2.5,0,0,1,169.8,56.478Z" transform="translate(-155.91 -47.019)"/><path d="M466.907,50a4.017,4.017,0,1,0,4.017,4.017A4.017,4.017,0,0,0,466.907,50Zm-.039,6.478a2.5,2.5,0,1,1,2.5-2.5A2.5,2.5,0,0,1,466.867,56.478Z" transform="translate(-435.215 -47.019)"/></svg>