<svg xmlns="http://www.w3.org/2000/svg" width="35.701" height="11.154" viewBox="0 0 35.701 11.154"><path d="M9.19.15V6.723a4.356,4.356,0,0,1-2.224,3.946,4.544,4.544,0,0,1-4.634,0A4.356,4.356,0,0,1,.108,6.723V.15H2.14V6.783A2.465,2.465,0,0,0,4.649,9.251,2.465,2.465,0,0,0,7.158,6.783V.15Z" transform="translate(-0.105 -0.15)"/><path d="M315.337,3.062a3.346,3.346,0,0,0-2.351.8V.15h-1.9V11.211h1.679v-.98c.071.06.142.113.216.166a4.045,4.045,0,1,0,2.351-7.335Zm-.032,6.514a2.48,2.48,0,1,1,2.5-2.47,2.467,2.467,0,0,1-2.5,2.47Z" transform="translate(-292.497 -0.15)"/><path d="M169.837,50a4.016,4.016,0,1,0,4.015,4.016A4.016,4.016,0,0,0,169.837,50Zm-.04,6.477a2.5,2.5,0,1,1,2.5-2.5A2.5,2.5,0,0,1,169.8,56.477Z" transform="translate(-155.912 -47.02)"/><path d="M466.906,50a4.016,4.016,0,1,0,4.016,4.016A4.016,4.016,0,0,0,466.906,50Zm-.039,6.477a2.5,2.5,0,1,1,2.5-2.5A2.5,2.5,0,0,1,466.866,56.477Z" transform="translate(-435.221 -47.02)"/></svg>