<svg xmlns="http://www.w3.org/2000/svg" width="54.268" height="16.954" viewBox="0 0 54.268 16.954"><g transform="translate(-0.105 -0.15)"><path d="M13.915.15v9.992a6.621,6.621,0,0,1-3.381,6,6.907,6.907,0,0,1-7.044,0,6.621,6.621,0,0,1-3.381-6V.15H3.2V10.232a3.747,3.747,0,0,0,3.814,3.752,3.747,3.747,0,0,0,3.814-3.752V.15Z" transform="translate(0)"/><path d="M317.545,4.577A5.085,5.085,0,0,0,313.971,5.8V.15H311.09V16.963h2.552v-1.49c.107.091.216.172.329.253a6.148,6.148,0,1,0,3.574-11.149Zm-.048,9.9a3.77,3.77,0,1,1,3.8-3.755,3.75,3.75,0,0,1-3.8,3.755Z" transform="translate(-282.722)"/><path d="M171.925,50a6.1,6.1,0,1,0,6.1,6.1,6.1,6.1,0,0,0-6.1-6.1Zm-.061,9.845a3.8,3.8,0,1,1,3.8-3.8A3.8,3.8,0,0,1,171.865,59.845Z" transform="translate(-150.655 -45.32)"/><path d="M468.995,50a6.1,6.1,0,1,0,6.1,6.1,6.1,6.1,0,0,0-6.1-6.1Zm-.06,9.845a3.8,3.8,0,1,1,3.8-3.8A3.8,3.8,0,0,1,468.935,59.845Z" transform="translate(-420.726 -45.32)"/></g></svg>