<svg xmlns="http://www.w3.org/2000/svg" width="58.938" height="23.325" viewBox="0 0 58.938 23.325"><defs><style>.a{isolation:isolate;}.b{fill:none;stroke-linejoin:round;}.c,.d{stroke:none;}.d{fill:#1c1c1c;}</style></defs><g class="a" transform="translate(0.5 0.5)"><g transform="translate(0 0)"><g class="b" transform="translate(-10.002 199.802)"><path class="c" d="M33.927-199.747c9.97.186,10.874.44,19.708,5.553a13.119,13.119,0,0,0,4.058,1.89c3.165.858,6.585,2.3,7.617,3.2a8.988,8.988,0,0,1,1.82,2.6,2.643,2.643,0,0,0,.521.812.761.761,0,0,1,.267.847,1.65,1.65,0,0,1-.209.7,2.322,2.322,0,0,0-.163,1.136c0,1.5-.29,1.774-2.226,2.087-.556.093-1.437.209-1.936.244l-.916.081.07-.579a5.737,5.737,0,0,0-.579-3.037,5.644,5.644,0,0,0-9.135-1.428,5.481,5.481,0,0,0-1.542,4.347l.07,1.032-2.342-.07c-1.275-.035-5.773-.116-9.982-.174s-9.112-.151-10.9-.186l-3.246-.07-.012-1.067a5.3,5.3,0,0,0-1.82-4.081,5.368,5.368,0,0,0-3.826-1.449,5.6,5.6,0,0,0-5.623,5.147l-.081.73-1.02-.151a16.484,16.484,0,0,1-1.7-.336l-.672-.186-.081-2.632c-.047-1.438-.058-3.373-.023-4.3a6.5,6.5,0,0,1,.359-2.493,27.743,27.743,0,0,1,3.884-6.515c.707-.73,2.04-1.148,4.533-1.414C21.152-199.77,27.655-199.875,33.927-199.747Zm4.464,1.055c0,.081.244,1.577.545,3.3l.545,3.165h.3c.163,0,1.751.1,3.536.232,3.686.267,10.318.7,10.654.7.2,0,.174-.058-.174-.417a39.591,39.591,0,0,0-6.249-4.6,14.476,14.476,0,0,0-5.831-2.1C39.063-198.855,38.39-198.913,38.39-198.692Zm-12.3,2.875c-.174,1.623-.29,2.98-.267,3,.058.07,10.04.22,10.155.162a25.346,25.346,0,0,0,.093-3.119v-3.061l-4.834.023-4.846.035Zm-7.153-2.724c-2.412.278-2.747.371-3.2.87a7.248,7.248,0,0,0-.7.962,12.068,12.068,0,0,0-1.055,2.817c-.139.87-.2.858,4.834.858,2.412,0,4.382-.023,4.382-.046s.255-1.275.579-2.794a26.012,26.012,0,0,0,.5-2.875A28.615,28.615,0,0,0,18.937-198.541Z"/><path class="d" d="M 28.52335357666016 -199.8018341064453 C 24.23513412475586 -199.8018341064453 20.46968460083008 -199.6967163085938 18.79853057861328 -199.5161743164062 C 16.3059196472168 -199.2495269775391 14.97270965576172 -198.8321228027344 14.26562118530273 -198.1019744873047 C 13.21028137207031 -197.0123443603516 11.10079956054688 -193.4650115966797 10.38187408447266 -191.5867156982422 C 10.12705993652344 -190.8908538818359 10.06912231445312 -190.543212890625 10.02240753173828 -189.0941162109375 C 9.987533569335938 -188.1664886474609 9.998764038085938 -186.2308502197266 10.04547882080078 -184.7929992675781 L 10.12647247314453 -182.1614837646484 L 10.79869842529297 -181.975830078125 C 11.16996765136719 -181.8717803955078 11.93502044677734 -181.7210235595703 12.50318908691406 -181.6400146484375 L 13.52362823486328 -181.4892578125 L 13.60462951660156 -182.2194213867188 C 13.91738891601562 -185.2104034423828 16.27104949951172 -187.3665924072266 19.2271614074707 -187.3665924072266 C 20.75783920288086 -187.3665924072266 21.93968963623047 -186.914306640625 23.05297088623047 -185.9174957275391 C 24.25905990600586 -184.8278656005859 24.85028076171875 -183.5064849853516 24.87334060668945 -181.8368835449219 L 24.88516235351562 -180.7703247070312 L 28.1309814453125 -180.7005615234375 C 29.91646957397461 -180.6656799316406 34.8200798034668 -180.5728607177734 39.02841186523438 -180.5149230957031 C 43.23673248291016 -180.4569702148438 47.73476028442383 -180.3759765625 49.0100212097168 -180.3411102294922 L 51.35186004638672 -180.2713317871094 L 51.28208923339844 -181.3030242919922 C 51.18927001953125 -183.0648498535156 51.68767166137695 -184.4796447753906 52.82400131225586 -185.6502685546875 C 55.58264923095703 -188.4668273925781 60.24326324462891 -187.7366790771484 61.95899200439453 -184.2224578857422 C 62.43432998657227 -183.2605438232422 62.64303207397461 -182.1242218017578 62.53839111328125 -181.1853637695312 L 62.46862030029297 -180.6059722900391 L 63.38442993164062 -180.6869659423828 C 63.8834228515625 -180.7218475341797 64.76434326171875 -180.8377380371094 65.3206787109375 -180.9305419921875 C 67.25694274902344 -181.243896484375 67.54663848876953 -181.5223693847656 67.54663848876953 -183.0175476074219 C 67.54663848876953 -183.6436614990234 67.60517120361328 -184.0261688232422 67.709228515625 -184.1538848876953 C 67.79022216796875 -184.2585296630859 67.89485931396484 -184.5712890625 67.91792297363281 -184.8497467041016 C 67.97586822509766 -185.3020324707031 67.94097900390625 -185.4066772460938 67.65128326416016 -185.6963806152344 C 67.46623229980469 -185.8701934814453 67.23387908935547 -186.2414855957031 67.12982940673828 -186.5081329345703 C 66.83953857421875 -187.2501220703125 65.91249847412109 -188.5714721679688 65.3094482421875 -189.1047668457031 C 64.27777099609375 -190.0087432861328 60.85754013061523 -191.4465942382812 57.69271850585938 -192.3050537109375 C 56.26670074462891 -192.6988067626953 56.04676055908203 -192.8034515380859 53.63516235351562 -194.194580078125 C 44.80110931396484 -199.3068695068359 43.89654159545898 -199.5616760253906 33.92674255371094 -199.7473449707031 C 32.10923767089844 -199.7843475341797 30.27313613891602 -199.8018341064453 28.52335357666016 -199.8018341064453 M 35.2785530090332 -192.6390838623047 C 32.98817443847656 -192.6390838623047 25.87233352661133 -192.7552185058594 25.82344055175781 -192.8140869140625 C 25.80038070678711 -192.837158203125 25.916259765625 -194.1939849853516 26.09008026123047 -195.8169097900391 L 26.3916015625 -198.7736053466797 L 31.23727035522461 -198.8084869384766 L 36.07170104980469 -198.8315124511719 L 36.07170104980469 -195.7707824707031 C 36.07170104980469 -194.0781097412109 36.03681182861328 -192.6751556396484 35.9788818359375 -192.652099609375 C 35.96078872680664 -192.6430511474609 35.70230484008789 -192.6390838623047 35.2785530090332 -192.6390838623047 M 53.97157287597656 -191.2958374023438 C 53.63574981689453 -191.2958374023438 47.00400161743164 -191.7250671386719 43.31772994995117 -191.99169921875 C 41.53224182128906 -192.1188201904297 39.94421005249023 -192.2234497070312 39.78163146972656 -192.2234497070312 L 39.4801025390625 -192.2234497070312 L 38.93559265136719 -195.3882598876953 C 38.63405990600586 -197.1152191162109 38.39048004150391 -198.6110076904297 38.39048004150391 -198.6920013427734 C 38.39048385620117 -198.9125213623047 39.06269073486328 -198.8545837402344 41.71788024902344 -198.4141387939453 C 44.14072036743164 -198.0203704833984 45.41598129272461 -197.5562744140625 47.54911804199219 -196.3158874511719 C 49.62429809570312 -195.0985565185547 52.77730178833008 -192.7798004150391 53.79775238037109 -191.7132263183594 C 54.14537811279297 -191.3537750244141 54.16844177246094 -191.2958374023438 53.97157287597656 -191.2958374023438 M 18.43275451660156 -193.0346069335938 C 13.79376983642578 -193.0346069335938 13.85189056396484 -193.0458374023438 13.98715209960938 -193.8924713134766 C 14.10303115844727 -194.5534515380859 14.67119216918945 -196.0835418701172 15.04188919067383 -196.7096405029297 C 15.20388031005859 -196.9993438720703 15.52846908569336 -197.4279937744141 15.7371711730957 -197.6715545654297 C 16.18944931030273 -198.1705474853516 16.52527236938477 -198.2627868652344 18.93687057495117 -198.5412445068359 C 20.83823394775391 -198.7735900878906 24.18870544433594 -198.9007110595703 24.28153228759766 -198.7499542236328 C 24.31641006469727 -198.6920013427734 24.09588241577148 -197.3936920166016 23.78313064575195 -195.8748321533203 C 23.45854949951172 -194.3559875488281 23.20373153686523 -193.1037902832031 23.20373153686523 -193.0807495117188 C 23.20373153686523 -193.0576782226562 21.23319244384766 -193.0346221923828 18.82159042358398 -193.0346221923828 C 18.68831634521484 -193.0346221923828 18.55897903442383 -193.0346069335938 18.43275451660156 -193.0346069335938 M 28.52334976196289 -200.3018341064453 C 30.3360710144043 -200.3018341064453 32.15745162963867 -200.2834625244141 33.93692016601562 -200.2472381591797 C 39.06257247924805 -200.1517944335938 41.76037979125977 -200.0271911621094 44.34244918823242 -199.2997131347656 C 46.92326354980469 -198.5725860595703 49.34493255615234 -197.2550354003906 53.88560104370117 -194.6273345947266 C 56.27042007446289 -193.2516632080078 56.45457077026367 -193.1656494140625 57.82580184936523 -192.7870178222656 C 61.10593032836914 -191.8972778320312 64.53884124755859 -190.4447784423828 65.63896179199219 -189.4808349609375 C 66.30709838867188 -188.8899841308594 67.27536010742188 -187.5084991455078 67.595458984375 -186.6903076171875 C 67.67645263671875 -186.4827575683594 67.86985015869141 -186.1770477294922 67.99359130859375 -186.0608367919922 C 67.99739837646484 -186.0572662353516 68.00114440917969 -186.0536193847656 68.00482940673828 -186.0499267578125 C 68.40457153320312 -185.6501922607422 68.49000549316406 -185.3910675048828 68.41518402099609 -184.7965545654297 C 68.38834381103516 -184.4958953857422 68.279541015625 -184.0895233154297 68.11898803710938 -183.8670654296875 C 68.10331726074219 -183.8220672607422 68.04663848876953 -183.6177978515625 68.04663848876953 -183.0175476074219 C 68.04663848876953 -182.3399963378906 68.00460815429688 -181.6389465332031 67.50227355957031 -181.1665954589844 C 67.0816650390625 -180.7711029052734 66.43911743164062 -180.6050415039062 65.40055847167969 -180.4369659423828 C 64.84415435791016 -180.3441467285156 63.95283889770508 -180.225830078125 63.42435455322266 -180.1885528564453 L 62.51267242431641 -180.10791015625 C 62.362548828125 -180.0947723388672 62.21440124511719 -180.1497955322266 62.10951995849609 -180.258056640625 C 62.004638671875 -180.3663177490234 61.95419311523438 -180.5160980224609 61.97220993041992 -180.6657562255859 L 62.0419807434082 -181.2451477050781 C 62.13748931884766 -182.1022644042969 61.93907928466797 -183.1341247558594 61.5107307434082 -184.0009460449219 C 60.64363098144531 -185.7769622802734 58.87789154052734 -186.87890625 56.90153121948242 -186.87890625 C 55.49943161010742 -186.87890625 54.17819213867188 -186.3183135986328 53.18121337890625 -185.3004150390625 C 52.14117050170898 -184.2289733886719 51.69577026367188 -182.9677429199219 51.78121948242188 -181.3327789306641 L 51.85072326660156 -180.3050689697266 C 51.8602409362793 -180.1643371582031 51.80987167358398 -180.026123046875 51.71202087402344 -179.9245147705078 C 51.61418151855469 -179.8228912353516 51.47795104980469 -179.7677764892578 51.33697128295898 -179.7715454101562 L 48.99513244628906 -179.8413238525391 C 47.73342895507812 -179.8758239746094 43.19927978515625 -179.9574432373047 39.02153015136719 -180.0149688720703 C 34.63697052001953 -180.0753326416016 29.56980133056641 -180.17236328125 28.12121200561523 -180.2006683349609 L 24.87442016601562 -180.2704467773438 C 24.60467147827148 -180.2762298583984 24.38817977905273 -180.4949951171875 24.38518905639648 -180.7647857666016 L 24.37337112426758 -181.8313446044922 C 24.35219955444336 -183.3642272949219 23.82612228393555 -184.545166015625 22.71778106689453 -185.5464782714844 C 21.69865036010742 -186.458984375 20.62158966064453 -186.8665924072266 19.2271614074707 -186.8665924072266 C 16.54212188720703 -186.8665924072266 14.38664245605469 -184.8903045654297 14.10192108154297 -182.1674194335938 L 14.02058029174805 -181.4341278076172 C 14.00561141967773 -181.2992095947266 13.93643188476562 -181.1761779785156 13.82893371582031 -181.0932922363281 C 13.72142791748047 -181.0104217529297 13.58486175537109 -180.9748077392578 13.4505615234375 -180.99462890625 L 12.43012237548828 -181.1453857421875 C 11.83647918701172 -181.2300109863281 11.05950927734375 -181.3834686279297 10.66377258300781 -181.494384765625 L 9.993370056152344 -181.6795196533203 C 9.782089233398438 -181.7378692626953 9.633453369140625 -181.9270172119141 9.626708984375 -182.1461029052734 L 9.545722961425781 -184.7776184082031 C 9.498191833496094 -186.2401428222656 9.487892150878906 -188.1853332519531 9.522758483886719 -189.1129150390625 C 9.569770812988281 -190.5713653564453 9.631683349609375 -190.9921417236328 9.912361145019531 -191.7586364746094 C 9.913192749023438 -191.7609100341797 9.914039611816406 -191.76318359375 9.914909362792969 -191.7654418945312 C 10.65773773193359 -193.7061767578125 12.82138061523438 -197.3294982910156 13.90646362304688 -198.4498291015625 C 14.70899963378906 -199.2785339355469 16.11093139648438 -199.7315216064453 18.7453498840332 -200.0133361816406 C 20.39234161376953 -200.1912536621094 24.13925170898438 -200.3018341064453 28.52334976196289 -200.3018341064453 Z M 35.53024673461914 -193.1396789550781 C 35.55141448974609 -193.5838775634766 35.57170104980469 -194.4407653808594 35.57170104980469 -195.7707824707031 L 35.57170104980469 -198.3291320800781 L 31.23965072631836 -198.3085021972656 L 26.84353637695312 -198.2768402099609 L 26.58750152587891 -195.7661743164062 C 26.47354888916016 -194.7021636962891 26.38919448852539 -193.7950897216797 26.34822082519531 -193.2813873291016 C 27.94852066040039 -193.2234191894531 33.29229736328125 -193.1390838623047 35.27854919433594 -193.1390838623047 C 35.37667083740234 -193.1390838623047 35.45982360839844 -193.1392974853516 35.53024673461914 -193.1396789550781 Z M 23.73117828369141 -198.3124694824219 C 23.65344619750977 -198.3141937255859 23.56062698364258 -198.3152618408203 23.45011138916016 -198.3152618408203 C 22.36793899536133 -198.3152618408203 20.32073211669922 -198.2066345214844 18.99752044677734 -198.0449371337891 C 16.59235382080078 -197.7672119140625 16.41694641113281 -197.6760101318359 16.11246871948242 -197.3410949707031 C 15.90591812133789 -197.0993347167969 15.61373519897461 -196.7078247070312 15.47830200195312 -196.4656219482422 C 15.47629165649414 -196.4620208740234 15.4742317199707 -196.4584503173828 15.47212982177734 -196.4548950195312 C 15.13617706298828 -195.8874816894531 14.59029006958008 -194.4312133789062 14.4802360534668 -193.8095092773438 L 14.47600173950195 -193.7830963134766 C 14.4692268371582 -193.7409057617188 14.46118545532227 -193.6908416748047 14.45527267456055 -193.6469116210938 C 14.88991928100586 -193.5346069335938 16.40307235717773 -193.5346069335938 18.4327507019043 -193.5346069335938 L 18.82159042358398 -193.5346221923828 C 20.75045776367188 -193.5346221923828 22.16231155395508 -193.5484619140625 22.78886032104492 -193.5621948242188 C 22.8818359375 -194.0322265625 23.05071258544922 -194.840087890625 23.29417037963867 -195.9793243408203 C 23.50597381591797 -197.0079803466797 23.65630340576172 -197.8384399414062 23.73117828369141 -198.3124694824219 Z M 52.92277526855469 -191.8533172607422 C 51.62134552001953 -193.0031127929688 49.06893539428711 -194.8446655273438 47.2961311340332 -195.8846282958984 C 45.20462036132812 -197.1007843017578 43.98796081542969 -197.5386352539062 41.63767242431641 -197.9206237792969 C 40.40546417236328 -198.1250152587891 39.46300506591797 -198.2706756591797 38.95118713378906 -198.3078308105469 C 39.03940200805664 -197.7503967285156 39.21356201171875 -196.7032318115234 39.42814254760742 -195.4742584228516 L 39.90213012695312 -192.7193298339844 C 40.40739059448242 -192.6956024169922 42.17135620117188 -192.5745849609375 43.35324096679688 -192.4904479980469 C 46.36553192138672 -192.2725524902344 50.88587951660156 -191.9765319824219 52.92277526855469 -191.8533172607422 Z"/></g><g class="b" transform="translate(-81.507 -19.308)"><path class="c" d="M129.256,33.147a4.351,4.351,0,0,1,3.374,4.927,4.236,4.236,0,0,1-2.191,3.049,4.306,4.306,0,0,1-5.912-1.924,3.355,3.355,0,0,1-.313-1.878,2.851,2.851,0,0,1,.394-1.947,5.121,5.121,0,0,1,.858-1.136A4.638,4.638,0,0,1,129.256,33.147Zm-1.785,1.519a3.509,3.509,0,0,0-1.785,1.8,2.839,2.839,0,0,0,1.542,3.478,2.693,2.693,0,0,0,3.037-.464,2.531,2.531,0,0,0,.962-2.1A2.834,2.834,0,0,0,127.471,34.666Z"/><path class="d" d="M 128.5356750488281 33.07636642456055 C 127.4550628662109 33.07636642456055 126.2567596435547 33.51071166992188 125.4655456542969 34.23655319213867 C 125.2107391357422 34.45708465576172 124.8282165527344 34.97854232788086 124.6076812744141 35.37288284301758 C 124.2251586914062 36.06816482543945 124.2133331298828 36.16097259521484 124.2133331298828 37.32036209106445 C 124.2133331298828 38.39875411987305 124.2476348876953 38.6192741394043 124.5260925292969 39.19867324829102 C 125.5459747314453 41.38975143432617 128.2821502685547 42.28246307373047 130.4383239746094 41.12310409545898 C 131.6089477539062 40.49699401855469 132.3745727539062 39.4304313659668 132.62939453125 38.07417297363281 C 133.0349731445312 35.85946273803711 131.4930572509766 33.62227249145508 129.2558746337891 33.14693450927734 C 129.0261993408203 33.09929656982422 128.7841491699219 33.07636642456055 128.5356750488281 33.07636642456055 M 128.4198150634766 40.21563339233398 C 128.0236968994141 40.21563339233398 127.6213836669922 40.12436676025391 127.2273864746094 39.94065475463867 C 125.8823547363281 39.3027229309082 125.2562561035156 37.91158294677734 125.6854858398438 36.46250152587891 C 125.8711242675781 35.82517242431641 126.856689453125 34.83960342407227 127.4709777832031 34.6657829284668 C 129.4414978027344 34.12067413330078 131.2270202636719 35.39594268798828 131.2264099121094 37.3788948059082 C 131.2264099121094 38.27163314819336 130.9485473632812 38.87409210205078 130.2644958496094 39.47714233398438 C 129.7091979980469 39.96767807006836 129.0728607177734 40.21563339233398 128.4198150634766 40.21563339233398 M 128.5356750488281 32.57636260986328 C 128.8218536376953 32.57636260986328 129.0983276367188 32.60361480712891 129.357421875 32.65735244750977 C 130.5691070556641 32.914794921875 131.6296081542969 33.63131332397461 132.3459625244141 34.67542266845703 C 133.0657653808594 35.72456359863281 133.3410949707031 36.96358489990234 133.1212158203125 38.16424179077148 C 132.8394317626953 39.66403198242188 131.9705200195312 40.87062454223633 130.6741485595703 41.56400299072266 C 129.9824066162109 41.93595504760742 129.1994171142578 42.13283157348633 128.4108123779297 42.13283157348633 C 126.5469207763672 42.13283157348633 124.8452301025391 41.06538391113281 124.0744476318359 39.41319274902344 C 123.7466888427734 38.73067855834961 123.7133331298828 38.4065055847168 123.7133331298828 37.32036209106445 C 123.7133331298828 36.11514282226562 123.7302398681641 35.93047332763672 124.1696166992188 35.13186264038086 C 124.3976135253906 34.7241325378418 124.8102874755859 34.14510726928711 125.1324615478516 33.86359024047852 C 126.0010070800781 33.0694694519043 127.3043365478516 32.57636260986328 128.5356750488281 32.57636260986328 Z M 128.4198303222656 39.71563339233398 C 128.9559173583984 39.71563339233398 129.4793243408203 39.50358200073242 129.9334716796875 39.10241317749023 C 130.5115966796875 38.59274291992188 130.7264099121094 38.12571334838867 130.7264099121094 37.3788948059082 C 130.7266082763672 36.71740341186523 130.4852142333984 36.11787414550781 130.0466918945312 35.69059371948242 C 129.6156768798828 35.27063369750977 129.0240631103516 35.03934478759766 128.3808288574219 35.03934478759766 C 128.1254272460938 35.03934478759766 127.8641510009766 35.0757942199707 127.6042785644531 35.14768218994141 C 127.1510620117188 35.27594375610352 126.3022766113281 36.13288497924805 126.1655426025391 36.60233306884766 C 125.8053588867188 37.81832504272461 126.3065185546875 38.95050430297852 127.441650390625 39.4888916015625 C 127.7633514404297 39.63887405395508 128.0934600830078 39.71563339233398 128.4198303222656 39.71563339233398 Z"/></g><g class="b" transform="translate(-756.781 -18.845)"><path class="c" d="M767.084,32.754a4.43,4.43,0,0,1,2.875,2.458,3.138,3.138,0,0,1,.313,1.7,3.122,3.122,0,0,1-.313,1.7,4.324,4.324,0,0,1-7.837.1,3.18,3.18,0,0,1-.313-1.809,3.137,3.137,0,0,1,.336-1.843,4.352,4.352,0,0,1,3.061-2.377A3.241,3.241,0,0,1,767.084,32.754Zm-1.982,1.46a2.89,2.89,0,0,0-.916.533,2.811,2.811,0,0,0,.649,4.73,2.027,2.027,0,0,0,1.356.255,2.488,2.488,0,0,0,1.809-.8,2.648,2.648,0,0,0,.846-2.017A2.831,2.831,0,0,0,765.1,34.214Z"/><path class="d" d="M 766.0637817382812 32.58417510986328 C 765.8150634765625 32.58417510986328 765.5585327148438 32.62203979492188 765.2072143554688 32.69567489624023 C 763.8504028320312 32.98537445068359 762.7489624023438 33.83199310302734 762.1465454101562 35.07237243652344 C 761.8450317382812 35.68665313720703 761.8101196289062 35.8723030090332 761.8101196289062 36.91580200195312 C 761.8101196289062 37.94748306274414 761.8444213867188 38.14495468139648 762.1228637695312 38.7243537902832 C 763.7569580078125 42.02870941162109 768.39453125 41.9707145690918 769.9595336914062 38.62029266357422 C 770.2255249023438 38.06336212158203 770.2722778320312 37.80854415893555 770.2722778320312 36.91580200195312 C 770.2722778320312 36.03429412841797 770.2261352539062 35.76765441894531 769.9595336914062 35.2113151550293 C 769.391357421875 33.98216247558594 768.3478393554688 33.09001541137695 767.0844116210938 32.75360488891602 C 766.6532592773438 32.63941955566406 766.3641967773438 32.58417510986328 766.0637817382812 32.58417510986328 M 765.812744140625 39.7492561340332 C 765.4588623046875 39.7492561340332 765.2522583007812 39.68087768554688 764.8353881835938 39.47697448730469 C 762.9221801757812 38.53811264038086 762.5863647460938 36.10346221923828 764.1862182617188 34.7472038269043 C 764.4410400390625 34.52668380737305 764.8472290039062 34.28368377685547 765.10205078125 34.21392440795898 C 767.0149536132812 33.63454437255859 768.8468017578125 34.95587539672852 768.8462524414062 36.91462326049805 C 768.8462524414062 37.71454238891602 768.5914306640625 38.35247421264648 768.0001831054688 38.93186569213867 C 767.478759765625 39.46515274047852 767.0145874023438 39.66202545166016 766.191650390625 39.73179244995117 C 766.04443359375 39.74278259277344 765.921630859375 39.7492561340332 765.812744140625 39.7492561340332 M 766.063720703125 32.08417510986328 C 766.43505859375 32.08417510986328 766.778564453125 32.15537261962891 767.21240234375 32.270263671875 C 768.6163940429688 32.64408874511719 769.7821044921875 33.63825988769531 770.411865234375 34.99828720092773 C 770.7249755859375 35.65238189697266 770.7722778320312 36.01422119140625 770.7722778320312 36.91580200195312 C 770.7722778320312 37.8309440612793 770.727294921875 38.17299270629883 770.4107055664062 38.83578491210938 C 769.5953979492188 40.58141326904297 767.9085083007812 41.66823196411133 766.0101928710938 41.66823196411133 C 765.1332397460938 41.66823196411133 764.277099609375 41.43271255493164 763.5343017578125 40.98713302612305 C 762.7434692382812 40.51273345947266 762.1004638671875 39.80691528320312 761.6746826171875 38.94600296020508 C 761.673828125 38.94431304931641 761.6730346679688 38.94262313842773 761.6721801757812 38.94092559814453 C 761.34130859375 38.25241470336914 761.3101196289062 37.96283340454102 761.3101196289062 36.91580200195312 C 761.3101196289062 35.79647445678711 761.3572387695312 35.54574203491211 761.6976928710938 34.85205459594727 C 762.36767578125 33.47255325317383 763.5772705078125 32.53241348266602 765.1028442382812 32.20669555664062 C 765.5185546875 32.11955261230469 765.7964477539062 32.08417510986328 766.063720703125 32.08417510986328 Z M 766.1519165039062 39.23336791992188 C 766.865966796875 39.17254638671875 767.2144775390625 39.02022552490234 767.6426391601562 38.58231353759766 C 767.6451416015625 38.57976531982422 767.647705078125 38.57724380493164 767.6502075195312 38.57474517822266 C 768.131591796875 38.10304260253906 768.3462524414062 37.59104537963867 768.3462524414062 36.91462326049805 C 768.346435546875 36.26613235473633 768.1024780273438 35.67036437988281 767.6593017578125 35.23689270019531 C 767.2240600585938 34.81115341186523 766.6392211914062 34.57666397094727 766.0125732421875 34.57661437988281 C 765.75830078125 34.57661437988281 765.5007934570312 34.61559295654297 765.2469482421875 34.69246292114258 C 765.24267578125 34.69375228881836 765.2384033203125 34.69499206542969 765.2340698242188 34.69618225097656 C 765.078857421875 34.73867416381836 764.7376708984375 34.93121337890625 764.513427734375 35.12528228759766 C 764.5121459960938 35.12639236450195 764.5108642578125 35.12750244140625 764.509521484375 35.12859344482422 C 763.8895874023438 35.6541633605957 763.5889892578125 36.39856338500977 763.6848754882812 37.17093276977539 C 763.7843627929688 37.9725227355957 764.2839965820312 38.64943313598633 765.0556640625 39.02810287475586 C 765.4315795898438 39.21200561523438 765.55908203125 39.24925231933594 765.812744140625 39.24925231933594 C 765.8997192382812 39.24925231933594 766.00439453125 39.24435043334961 766.1519165039062 39.23336791992188 Z"/></g></g></g></svg>