<svg xmlns="http://www.w3.org/2000/svg" width="13.922" height="18.184" viewBox="0 0 13.922 18.184"><defs><style>.a{fill:#2d2d2d;}</style></defs><path class="a" d="M34.778,29.127a4.385,4.385,0,0,1-.994-2.782V24.407a4.851,4.851,0,0,0-3.826-4.745v-.919a1.043,1.043,0,0,0-2.087,0v.919a4.851,4.851,0,0,0-3.826,4.745v1.938a4.385,4.385,0,0,1-.994,2.782l-.82,1.043a1.126,1.126,0,0,0,.869,1.838H34.778a1.126,1.126,0,0,0,.869-1.838Z" transform="translate(-21.979 -17.7)"/><path class="a" d="M42.484,83.384A2.491,2.491,0,0,0,44.968,80.9H40A2.491,2.491,0,0,0,42.484,83.384Z" transform="translate(-35.523 -65.201)"/></svg>