<svg xmlns="http://www.w3.org/2000/svg" xmlns:xlink="http://www.w3.org/1999/xlink" width="42.722" height="39.17" viewBox="0 0 42.722 39.17"><defs><style>.a{fill:#1a76ff;}.b{filter:url(#e);}.c{filter:url(#c);}.d{filter:url(#a);}</style><filter id="a" x="0" y="0" width="42.722" height="31.578" filterUnits="userSpaceOnUse"><feOffset input="SourceAlpha"/><feGaussianBlur stdDeviation="5" result="b"/><feFlood flood-opacity="0.102"/><feComposite operator="in" in2="b"/><feComposite in="SourceGraphic"/></filter><filter id="c" x="0.218" y="3.796" width="38.335" height="31.578" filterUnits="userSpaceOnUse"><feOffset input="SourceAlpha"/><feGaussianBlur stdDeviation="5" result="d"/><feFlood flood-opacity="0.102"/><feComposite operator="in" in2="d"/><feComposite in="SourceGraphic"/></filter><filter id="e" x="7.992" y="7.592" width="34.73" height="31.578" filterUnits="userSpaceOnUse"><feOffset input="SourceAlpha"/><feGaussianBlur stdDeviation="5" result="f"/><feFlood flood-opacity="0.102"/><feComposite operator="in" in2="f"/><feComposite in="SourceGraphic"/></filter></defs><g transform="translate(-64.123 -78.563)"><g class="d" transform="matrix(1, 0, 0, 1, 64.12, 78.56)"><path class="a" d="M119.122,94.6c0,.3-.327.538-.731.538h-11.26c-.4,0-.731-.241-.731-.538v-.5c0-.3.327-.538.731-.538h11.26c.4,0,.731.241.731.538Z" transform="translate(-91.4 -78.56)"/></g><g class="c" transform="matrix(1, 0, 0, 1, 64.12, 78.56)"><path class="a" d="M198.735,239.981c0,.3-.327.538-.731.538h-6.873c-.4,0-.731-.241-.731-.538v-.5c0-.3.327-.538.731-.538H198c.4,0,.731.241.731.538Z" transform="translate(-175.18 -220.14)"/></g><g class="b" transform="matrix(1, 0, 0, 1, 64.12, 78.56)"><path class="a" d="M279.131,385.333c0,.3-.392.538-.876.538h-2.978c-.484,0-.876-.241-.876-.538v-.5c0-.3.392-.538.876-.538h2.978c.484,0,.876.241.876.538Z" transform="translate(-251.41 -361.7)"/></g></g></svg>