<svg xmlns="http://www.w3.org/2000/svg" width="14.451" height="14.404" viewBox="0 0 14.451 14.404"><defs><style>.a{fill:#2d2d2d;}</style></defs><g transform="translate(-183.166 -113.158)"><path class="a" d="M195.562,118.309h-1.479c-.625,0-.625,0-.18-.445l.733-.733c.637-.637.625-.637.048-1.214s-.565-.577-1.2.06l-1.888,1.888a1.7,1.7,0,0,1-1.455.445,1.671,1.671,0,0,1,.445-1.455l1.876-1.888c.637-.637.637-.637.06-1.214s-.565-.577-1.2.06l-.733.733c-.445.445-.445.445-.445-.18v-1.479c0-.89,0-.89-.89-.89H189.2c-.89,0-.89,0-.89.89v1.479c0,.625,0,.625-.445.18l-.733-.733c-.637-.637-.625-.637-1.2-.06s-.577.577.06,1.214l1.876,1.888a1.671,1.671,0,0,1,.445,1.455,1.7,1.7,0,0,1-1.455-.445l-1.888-1.888c-.637-.637-.625-.637-1.2-.06s-.589.577.048,1.214l.733.733c.445.445.445.445-.18.445H182.89c-.89,0-.89,0-.89.89s0,.89.89.89h1.479c.625,0,.625,0,.18.445l-.733.733c-.637.637-.625.637-.048,1.214s.565.577,1.2-.06l1.888-1.888a1.7,1.7,0,0,1,1.455-.445,1.671,1.671,0,0,1-.445,1.455l-1.876,1.888c-.637.637-.637.637-.06,1.214s.565.577,1.2-.06l.733-.733c.445-.445.445-.445.445.18v1.479c0,.89,0,.89.89.89h.048c.89,0,.89,0,.89-.89v-1.479c0-.625,0-.625.445-.18l.733.733c.637.637.625.637,1.2.06s.577-.577-.06-1.214l-1.876-1.888a1.671,1.671,0,0,1-.445-1.455,1.7,1.7,0,0,1,1.455.445l1.888,1.888c.637.637.625.637,1.2.06s.589-.577-.048-1.214l-.733-.733c-.445-.445-.445-.445.18-.445h1.479c.89,0,.89,0,.89-.89S196.452,118.309,195.562,118.309Z" transform="translate(1.165 1.161)"/></g></svg>