<svg xmlns="http://www.w3.org/2000/svg" width="13.753" height="13.754" viewBox="0 0 13.753 13.754"><defs><style>.a{fill:#2d2d2d;}</style></defs><g transform="translate(0)"><path class="a" d="M17.6,10.729a6.877,6.877,0,1,0,6.877,6.877A6.885,6.885,0,0,0,17.6,10.729m0,12.65a5.773,5.773,0,1,1,5.772-5.773A5.779,5.779,0,0,1,17.6,23.379M17.5,19.823a.885.885,0,1,0,.627.259.856.856,0,0,0-.627-.259m1.944-5.7a2.836,2.836,0,0,0-.881-.383,4.111,4.111,0,0,0-1.009-.124,2.8,2.8,0,0,0-.949.162,2.838,2.838,0,0,0-.8.436,2.23,2.23,0,0,0-.561.636,1.488,1.488,0,0,0-.21.76.59.59,0,0,0,.21.491.766.766,0,0,0,.491.167.667.667,0,0,0,.4-.108.939.939,0,0,0,.243-.264,2.311,2.311,0,0,0,.172-.34,1.4,1.4,0,0,1,.2-.34,1.037,1.037,0,0,1,.324-.264,1.151,1.151,0,0,1,.545-.108,1.109,1.109,0,0,1,.76.243.866.866,0,0,1,.275.685.827.827,0,0,1-.139.475,2.162,2.162,0,0,1-.349.394q-.21.189-.453.367a4.226,4.226,0,0,0-.453.383,2.063,2.063,0,0,0-.35.448,1.11,1.11,0,0,0-.14.566.808.808,0,0,0,.172.491.6.6,0,0,0,.518.232.762.762,0,0,0,.4-.087.619.619,0,0,0,.21-.221,1.481,1.481,0,0,0,.124-.3,1.082,1.082,0,0,1,.146-.3,1.06,1.06,0,0,1,.265-.259L19,17.677q.216-.156.448-.345a3.044,3.044,0,0,0,.421-.415,2.021,2.021,0,0,0,.308-.507,1.623,1.623,0,0,0,.119-.637,1.881,1.881,0,0,0-.856-1.65" transform="translate(-10.728 -10.729)"/></g></svg>