<svg xmlns="http://www.w3.org/2000/svg" xmlns:xlink="http://www.w3.org/1999/xlink" width="46.765" height="42.084" viewBox="0 0 46.765 42.084"><defs><style>.a{fill:#1c1c1c;}.b{filter:url(#e);}.c{filter:url(#c);}.d{filter:url(#a);}</style><filter id="a" x="0" y="0" width="46.765" height="32.08" filterUnits="userSpaceOnUse"><feOffset input="SourceAlpha"/><feGaussianBlur stdDeviation="5" result="b"/><feFlood flood-opacity="0.102"/><feComposite operator="in" in2="b"/><feComposite in="SourceGraphic"/></filter><filter id="c" x="0.287" y="5.003" width="40.984" height="32.08" filterUnits="userSpaceOnUse"><feOffset input="SourceAlpha"/><feGaussianBlur stdDeviation="5" result="d"/><feFlood flood-opacity="0.102"/><feComposite operator="in" in2="d"/><feComposite in="SourceGraphic"/></filter><filter id="e" x="10.532" y="10.004" width="36.233" height="32.08" filterUnits="userSpaceOnUse"><feOffset input="SourceAlpha"/><feGaussianBlur stdDeviation="5" result="f"/><feFlood flood-opacity="0.102"/><feComposite operator="in" in2="f"/><feComposite in="SourceGraphic"/></filter></defs><g transform="translate(15 15)"><g class="d" transform="matrix(1, 0, 0, 1, -15, -15)"><path class="a" d="M123.165,94.934c0,.392-.431.709-.964.709H107.363c-.532,0-.964-.318-.964-.709v-.662c0-.392.431-.709.964-.709H122.2c.532,0,.964.318.964.709Z" transform="translate(-91.4 -78.56)"/></g><g class="c" transform="matrix(1, 0, 0, 1, -15, -15)"><path class="a" d="M201.384,240.312c0,.392-.431.709-.964.709h-9.057c-.532,0-.964-.317-.964-.709v-.662c0-.392.431-.709.964-.709h9.057c.532,0,.964.317.964.709Z" transform="translate(-175.11 -218.94)"/></g><g class="b" transform="matrix(1, 0, 0, 1, -15, -15)"><path class="a" d="M280.634,385.664c0,.392-.517.709-1.154.709h-3.925c-.638,0-1.154-.317-1.154-.709V385c0-.391.517-.709,1.154-.709h3.925c.638,0,1.154.318,1.154.709Z" transform="translate(-248.87 -359.29)"/></g></g></svg>