<svg xmlns="http://www.w3.org/2000/svg" width="12.261" height="14.55" viewBox="0 0 12.261 14.55"><defs><style>.a{fill:#2d2d2d;}</style></defs><g transform="translate(-231.774 -130.105)"><path class="a" d="M233.668,130.67h-1.263a.633.633,0,0,0-.631.631v2.841a.633.633,0,0,0,.631.631h1.263a.633.633,0,0,0,.631-.631V131.3A.633.633,0,0,0,233.668,130.67Z" transform="translate(0 -0.565)"/><path class="a" d="M420.338,130.67h-1.263a.633.633,0,0,0-.631.631v2.841a.633.633,0,0,0,.631.631h1.263a.633.633,0,0,0,.631-.631V131.3A.633.633,0,0,0,420.338,130.67Z" transform="translate(-176.935 -0.565)"/><path class="a" d="M233.668,348.45h-1.263a.633.633,0,0,0-.631.631v2.841a.633.633,0,0,0,.631.631h1.263a.633.633,0,0,0,.631-.631v-2.841A.633.633,0,0,0,233.668,348.45Z" transform="translate(0 -207.899)"/><path class="a" d="M420.338,348.45h-1.263a.633.633,0,0,0-.631.631v2.841a.633.633,0,0,0,.631.631h1.263a.633.633,0,0,0,.631-.631v-2.841A.633.633,0,0,0,420.338,348.45Z" transform="translate(-176.936 -207.899)"/><path class="a" d="M300.682,168.16V167H294v1.163h2.683v9.486H294v1.163h6.682v-1.163H298V168.16Z" transform="translate(-59.438 -35.433)"/></g></svg>