<svg xmlns="http://www.w3.org/2000/svg" width="13.704" height="17.899" viewBox="0 0 13.704 17.899"><defs><style>.a{fill:#2d2d2d;}</style></defs><path class="a" d="M34.577,28.948a4.316,4.316,0,0,1-.978-2.739V24.3a4.775,4.775,0,0,0-3.766-4.67v-.9a1.027,1.027,0,0,0-2.054,0v.9a4.775,4.775,0,0,0-3.766,4.67v1.907a4.316,4.316,0,0,1-.978,2.739l-.807,1.027a1.109,1.109,0,0,0,.856,1.809H34.577a1.109,1.109,0,0,0,.856-1.809Z" transform="translate(-21.979 -17.7)"/><path class="a" d="M42.445,83.345A2.452,2.452,0,0,0,44.89,80.9H40A2.452,2.452,0,0,0,42.445,83.345Z" transform="translate(-35.593 -65.447)"/></svg>