<svg xmlns="http://www.w3.org/2000/svg" width="14.87" height="13.647" viewBox="0 0 14.87 13.647"><defs><style>.a{fill:#2d2d2d;}</style></defs><g transform="translate(-115.929 -65.175)"><path class="a" d="M123.074,73.627h.578a.178.178,0,0,0,.178-.178l.356-4.18a.178.178,0,0,0-.178-.178h-1.29a.178.178,0,0,0-.178.178l.356,4.18a.178.178,0,0,0,.178.178Zm.289.612a.867.867,0,1,0,.867.867A.867.867,0,0,0,123.364,74.238Zm6.989.171-4.5-7.8a2.874,2.874,0,0,0-4.978,0l-4.56,7.9a2.874,2.874,0,0,0,2.489,4.311h9.156a2.874,2.874,0,0,0,2.4-4.412Zm-2.426,3.167,0,.623v-.623H118.8a1.629,1.629,0,0,1-1.411-2.444l4.56-7.9a1.629,1.629,0,0,1,2.822,0l4.508,7.809.015.025a1.629,1.629,0,0,1-1.37,2.508Z"/><path class="a" d="M123.074,73.627h.578a.178.178,0,0,0,.178-.178l.356-4.18a.178.178,0,0,0-.178-.178h-1.29a.178.178,0,0,0-.178.178l.356,4.18a.178.178,0,0,0,.178.178Zm.289.612a.867.867,0,1,0,.867.867A.867.867,0,0,0,123.364,74.238Zm6.989.171-4.5-7.8a2.874,2.874,0,0,0-4.978,0l-4.56,7.9a2.874,2.874,0,0,0,2.489,4.311h9.156a2.874,2.874,0,0,0,2.4-4.412Zm-2.426,3.167,0,.623v-.623H118.8a1.629,1.629,0,0,1-1.411-2.444l4.56-7.9a1.629,1.629,0,0,1,2.822,0l4.508,7.809.015.025a1.629,1.629,0,0,1-1.37,2.508Z"/></g></svg>