<svg xmlns="http://www.w3.org/2000/svg" width="15.333" height="16.33" viewBox="0 0 15.333 16.33"><defs><style>.a{fill:#2d2d2d;}</style></defs><g transform="translate(-230.424 -135.961)"><path class="a" d="M231.386,168.691a.643.643,0,0,0-.8.01.429.429,0,0,0,.011.678l2.244,1.9a.638.638,0,0,0,.761-.025.422.422,0,0,0,.029-.643Z" transform="translate(0 -30.778)"/><path class="a" d="M420.09,168.652a.636.636,0,0,0-.791,0l-2.244,1.9a.429.429,0,0,0-.011.678.643.643,0,0,0,.8.01l2.244-1.9a.425.425,0,0,0,0-.687Z" transform="translate(-174.508 -30.738)"/><path class="a" d="M341.811,135.01a.523.523,0,0,0-.561.474v2.683a.569.569,0,0,0,1.122,0v-2.683a.44.44,0,0,0-.164-.335A.617.617,0,0,0,341.811,135.01Z" transform="translate(-103.723 0.951)"/><path class="a" d="M250.95,267.66c0,1.213,2.248,2.895,2.248,2.895v5.789h4.5v-5.789s2.248-1.7,2.248-2.895" transform="translate(-17.357 -124.053)"/></g></svg>