<svg xmlns="http://www.w3.org/2000/svg" width="14.109" height="18.428" viewBox="0 0 14.109 18.428"><defs><style>.a{fill:#2d2d2d;}</style></defs><path class="a" d="M34.95,29.28a4.444,4.444,0,0,1-1.007-2.82V24.5a4.916,4.916,0,0,0-3.877-4.808v-.931a1.057,1.057,0,0,0-2.115,0v.931A4.916,4.916,0,0,0,24.074,24.5v1.964a4.444,4.444,0,0,1-1.007,2.82l-.831,1.057a1.142,1.142,0,0,0,.881,1.863H34.95a1.142,1.142,0,0,0,.881-1.863Z" transform="translate(-21.979 -17.7)"/><path class="a" d="M42.518,83.417A2.525,2.525,0,0,0,45.035,80.9H40A2.525,2.525,0,0,0,42.518,83.417Z" transform="translate(-35.463 -64.99)"/></svg>