<svg xmlns="http://www.w3.org/2000/svg" width="13.972" height="13.973" viewBox="0 0 13.972 13.973"><defs><style>.a{fill:#2d2d2d;}</style></defs><path class="a" d="M17.714,10.729A6.987,6.987,0,1,0,24.7,17.716a6.994,6.994,0,0,0-6.986-6.987m0,12.852a5.865,5.865,0,1,1,5.864-5.865,5.871,5.871,0,0,1-5.864,5.865M17.6,19.968a.9.9,0,1,0,.637.263.869.869,0,0,0-.637-.263m1.975-5.791a2.881,2.881,0,0,0-.9-.389,4.176,4.176,0,0,0-1.025-.126,2.843,2.843,0,0,0-.964.164,2.883,2.883,0,0,0-.817.443,2.266,2.266,0,0,0-.57.646,1.512,1.512,0,0,0-.214.772.6.6,0,0,0,.214.5.779.779,0,0,0,.5.17.678.678,0,0,0,.411-.11.954.954,0,0,0,.247-.268,2.348,2.348,0,0,0,.175-.345,1.421,1.421,0,0,1,.2-.345,1.053,1.053,0,0,1,.329-.268,1.169,1.169,0,0,1,.553-.11,1.127,1.127,0,0,1,.773.247.88.88,0,0,1,.28.7.841.841,0,0,1-.141.482,2.2,2.2,0,0,1-.355.4q-.214.192-.46.373a4.294,4.294,0,0,0-.461.389,2.1,2.1,0,0,0-.356.455,1.128,1.128,0,0,0-.142.575.821.821,0,0,0,.175.5.613.613,0,0,0,.526.236.774.774,0,0,0,.411-.088.628.628,0,0,0,.214-.225,1.5,1.5,0,0,0,.126-.3,1.1,1.1,0,0,1,.148-.307,1.077,1.077,0,0,1,.269-.263l.4-.291q.219-.159.456-.351a3.093,3.093,0,0,0,.428-.422,2.053,2.053,0,0,0,.313-.515,1.648,1.648,0,0,0,.121-.647,1.911,1.911,0,0,0-.869-1.676" transform="translate(-10.728 -10.729)"/></svg>