<svg xmlns="http://www.w3.org/2000/svg" width="13.975" height="13.976" viewBox="0 0 13.975 13.976"><defs><style>.a{fill:#2d2d2d;}</style></defs><path class="a" d="M17.716,10.729A6.988,6.988,0,1,0,24.7,17.717a7,7,0,0,0-6.988-6.988m0,12.854a5.866,5.866,0,1,1,5.866-5.866,5.873,5.873,0,0,1-5.866,5.866M17.6,19.97a.9.9,0,1,0,.638.264.87.87,0,0,0-.638-.264m1.975-5.792a2.882,2.882,0,0,0-.9-.389,4.177,4.177,0,0,0-1.026-.126,2.844,2.844,0,0,0-.965.164,2.884,2.884,0,0,0-.817.443,2.266,2.266,0,0,0-.57.646,1.513,1.513,0,0,0-.214.772.6.6,0,0,0,.214.5.779.779,0,0,0,.5.17.678.678,0,0,0,.411-.11.954.954,0,0,0,.247-.269,2.348,2.348,0,0,0,.175-.345,1.421,1.421,0,0,1,.2-.345,1.054,1.054,0,0,1,.329-.269,1.169,1.169,0,0,1,.553-.11,1.127,1.127,0,0,1,.773.247.88.88,0,0,1,.28.7.841.841,0,0,1-.141.482,2.2,2.2,0,0,1-.355.4q-.214.192-.46.373a4.3,4.3,0,0,0-.461.389,2.1,2.1,0,0,0-.356.455,1.128,1.128,0,0,0-.142.575.821.821,0,0,0,.175.5.613.613,0,0,0,.526.236.775.775,0,0,0,.411-.088.628.628,0,0,0,.214-.225,1.505,1.505,0,0,0,.126-.3,1.1,1.1,0,0,1,.148-.307,1.077,1.077,0,0,1,.269-.263l.4-.291q.219-.159.456-.351a3.093,3.093,0,0,0,.428-.422,2.054,2.054,0,0,0,.313-.515,1.649,1.649,0,0,0,.121-.647,1.911,1.911,0,0,0-.869-1.676" transform="translate(-10.728 -10.729)"/></svg>