<svg xmlns="http://www.w3.org/2000/svg" width="14.16" height="14.161" viewBox="0 0 14.16 14.161"><defs><style>.a{fill:#2d2d2d;}</style></defs><path class="a" d="M17.808,10.729a7.081,7.081,0,1,0,7.08,7.081,7.088,7.088,0,0,0-7.08-7.081m0,13.024a5.944,5.944,0,1,1,5.943-5.944,5.95,5.95,0,0,1-5.943,5.944M17.7,20.092a.911.911,0,1,0,.646.267.881.881,0,0,0-.646-.267m2-5.869a2.92,2.92,0,0,0-.907-.394,4.232,4.232,0,0,0-1.039-.128,2.881,2.881,0,0,0-.977.167,2.922,2.922,0,0,0-.828.449,2.3,2.3,0,0,0-.578.655,1.533,1.533,0,0,0-.217.783.608.608,0,0,0,.217.506.789.789,0,0,0,.506.172.687.687,0,0,0,.416-.111.967.967,0,0,0,.25-.272,2.379,2.379,0,0,0,.178-.35,1.44,1.44,0,0,1,.206-.35,1.067,1.067,0,0,1,.334-.272,1.185,1.185,0,0,1,.561-.111,1.142,1.142,0,0,1,.783.25.891.891,0,0,1,.283.705.852.852,0,0,1-.143.489,2.226,2.226,0,0,1-.359.406q-.217.194-.466.378a4.352,4.352,0,0,0-.467.394,2.124,2.124,0,0,0-.361.461,1.143,1.143,0,0,0-.144.583.832.832,0,0,0,.178.505.621.621,0,0,0,.533.239.785.785,0,0,0,.417-.089.637.637,0,0,0,.217-.228,1.525,1.525,0,0,0,.127-.306,1.114,1.114,0,0,1,.15-.311,1.092,1.092,0,0,1,.273-.266l.406-.294q.222-.161.462-.356a3.134,3.134,0,0,0,.433-.427,2.081,2.081,0,0,0,.317-.522,1.671,1.671,0,0,0,.123-.656,1.936,1.936,0,0,0-.881-1.7" transform="translate(-10.728 -10.729)"/></svg>