<svg xmlns="http://www.w3.org/2000/svg" width="24.046" height="29.64" viewBox="0 0 24.046 29.64"><defs><style>.a{fill:#2d2d2d;}.b{fill:red;}</style></defs><g transform="translate(0 2)"><path class="a" d="M41.434,35.07a6.665,6.665,0,0,1-1.51-4.229V27.9a7.373,7.373,0,0,0-5.815-7.212v-1.4a1.586,1.586,0,0,0-3.172,0v1.4A7.373,7.373,0,0,0,25.121,27.9v2.945a6.665,6.665,0,0,1-1.51,4.229l-1.246,1.586a1.712,1.712,0,0,0,1.322,2.794H41.434a1.712,1.712,0,0,0,1.322-2.794Z" transform="translate(-21.979 -17.7)"/><path class="a" d="M43.776,84.676A3.787,3.787,0,0,0,47.552,80.9H40A3.787,3.787,0,0,0,43.776,84.676Z" transform="translate(-33.195 -57.036)"/><ellipse class="b" cx="5.747" cy="5.747" rx="5.747" ry="5.747" transform="translate(12.553 -2)"/></g></svg>