<svg xmlns="http://www.w3.org/2000/svg" width="12.452" height="12.65" viewBox="0 0 12.452 12.65"><defs><style>.a{fill:#2d2d2d;}</style></defs><g transform="translate(0 0)"><path class="a" d="M16.317,8.181,10.6,3.452a.449.449,0,0,0-.569,0L4.312,8.181A.606.606,0,0,0,4.7,9.251h.637v5.691A1.05,1.05,0,0,0,6.4,16H8.648a.434.434,0,0,0,.447-.447V12.8a.434.434,0,0,1,.447-.447h1.572a.434.434,0,0,1,.447.447v2.737a.434.434,0,0,0,.447.447h2.263a1.05,1.05,0,0,0,1.057-1.057V9.238h.637A.589.589,0,0,0,16.317,8.181Z" transform="translate(-4.094 -3.35)"/></g></svg>