<svg xmlns="http://www.w3.org/2000/svg" width="14.628" height="14.658" viewBox="0 0 14.628 14.658"><defs><style>.a{fill:#1a76ff;}</style></defs><path class="a" d="M78.509,20.82h.03l1.449-2.479,1.42,2.479h.015l1.539-2.479,1.509,2.479h.015l1.479-2.479L87.4,20.82h.015l2.809-2.839-2.479-1.449,2.479-1.479-2.479-1.524,2.479-1.554-2.479-1.419,2.479-1.464L87.549,6.162,86,8.641,84.486,6.162,83.007,8.641,81.557,6.162,80.093,8.641,78.659,6.162,75.6,9.091l2.479,1.464L75.6,11.974l2.479,1.554L75.6,15.052l2.479,1.479L75.6,17.981Z" transform="translate(-75.596 -6.162)"/></svg>