<svg xmlns="http://www.w3.org/2000/svg" width="17" height="17" viewBox="0 0 17 17"><defs><style>.a{fill:#4c4c4c;}</style></defs><g transform="translate(-84 -14)"><path class="a" d="M92.5,14a8.5,8.5,0,1,0,8.5,8.5A8.508,8.508,0,0,0,92.5,14Zm1.646,11.775-.054.054A2.411,2.411,0,0,1,93,26.365v1.163H91.784v-1.2a2.454,2.454,0,0,1-.913-.465,2.064,2.064,0,0,1-.734-1.306l1.253-.179a.756.756,0,0,0,.3.519,1.264,1.264,0,0,0,1.575-.018A1.111,1.111,0,0,0,93.627,24a1.04,1.04,0,0,0-.412-.769,2.289,2.289,0,0,0-.931-.358,2.736,2.736,0,0,1-1.432-.7,2.221,2.221,0,0,1-.662-1.593,1.946,1.946,0,0,1,.662-1.378l.036-.036a2.668,2.668,0,0,1,.895-.465V17.49H93v1.2a2.506,2.506,0,0,1,1.038.537,2.07,2.07,0,0,1,.626.984l-1.271.2a.739.739,0,0,0-.179-.233,1.236,1.236,0,0,0-1.521-.018.716.716,0,0,0-.251.5.937.937,0,0,0,.3.662,1.358,1.358,0,0,0,.823.358,3.391,3.391,0,0,1,1.4.573,2.259,2.259,0,0,1,.913,1.7,2.482,2.482,0,0,1-.733,1.825Z" transform="translate(0 0)"/></g></svg>