<svg xmlns="http://www.w3.org/2000/svg" width="26.493" height="29.64" viewBox="0 0 26.493 29.64"><defs><style>.a{fill:red;opacity:0;}.b{fill:#2d2d2d;}</style></defs><g transform="translate(2.447 2)"><ellipse class="a" cx="13.247" cy="13.247" rx="13.247" ry="13.247" transform="translate(-2.447 -2)"/><path class="b" d="M41.434,35.07a6.665,6.665,0,0,1-1.51-4.229V27.9a7.373,7.373,0,0,0-5.815-7.212v-1.4a1.586,1.586,0,0,0-3.172,0v1.4A7.373,7.373,0,0,0,25.121,27.9v2.945a6.665,6.665,0,0,1-1.51,4.229l-1.246,1.586a1.712,1.712,0,0,0,1.322,2.794H41.434a1.712,1.712,0,0,0,1.322-2.794Z" transform="translate(-21.979 -17.7)"/><path class="b" d="M43.776,84.676A3.787,3.787,0,0,0,47.552,80.9H40A3.787,3.787,0,0,0,43.776,84.676Z" transform="translate(-37.195 -57.036)"/></g></svg>