<svg xmlns="http://www.w3.org/2000/svg" width="21.239" height="21.24" viewBox="0 0 21.239 21.24"><defs><style>.a{fill:#2d2d2d;}</style></defs><g transform="translate(-0.001)"><path class="a" d="M21.348,10.729a10.62,10.62,0,1,0,10.619,10.62,10.632,10.632,0,0,0-10.619-10.62m0,19.536a8.915,8.915,0,1,1,8.914-8.915,8.925,8.925,0,0,1-8.914,8.915m-.169-5.492a1.367,1.367,0,1,0,.969.4,1.321,1.321,0,0,0-.969-.4m3-8.8a4.38,4.38,0,0,0-1.361-.591,6.348,6.348,0,0,0-1.559-.191,4.321,4.321,0,0,0-1.466.25,4.382,4.382,0,0,0-1.241.674,3.444,3.444,0,0,0-.866.982,2.3,2.3,0,0,0-.325,1.174.911.911,0,0,0,.325.758,1.184,1.184,0,0,0,.758.258,1.03,1.03,0,0,0,.625-.167,1.451,1.451,0,0,0,.375-.408,3.569,3.569,0,0,0,.266-.525,2.16,2.16,0,0,1,.308-.525,1.6,1.6,0,0,1,.5-.408,1.777,1.777,0,0,1,.841-.167,1.712,1.712,0,0,1,1.174.375,1.337,1.337,0,0,1,.425,1.058,1.278,1.278,0,0,1-.214.733,3.339,3.339,0,0,1-.539.608q-.325.291-.7.567a6.527,6.527,0,0,0-.7.591,3.186,3.186,0,0,0-.541.692,1.714,1.714,0,0,0-.216.875,1.248,1.248,0,0,0,.266.758.931.931,0,0,0,.8.359,1.177,1.177,0,0,0,.625-.134.955.955,0,0,0,.325-.342,2.287,2.287,0,0,0,.191-.458,1.67,1.67,0,0,1,.225-.466,1.637,1.637,0,0,1,.409-.4l.608-.442q.333-.241.693-.533a4.7,4.7,0,0,0,.65-.641,3.121,3.121,0,0,0,.475-.783,2.506,2.506,0,0,0,.184-.983,2.9,2.9,0,0,0-1.321-2.548" transform="translate(-10.727 -10.729)"/></g></svg>