<svg xmlns="http://www.w3.org/2000/svg" width="12" height="12" viewBox="0 0 12 12"><defs><style>.a{fill:#4c4c4c;fill-rule:evenodd;}</style></defs><g transform="translate(-103.593 -33.602)"><path class="a" d="M104.564,33.6a.976.976,0,0,0-.971.973v3.537a.976.976,0,0,0,.971.973h3.527a.976.976,0,0,0,.971-.973V34.575a.976.976,0,0,0-.971-.973Z"/><path class="a" d="M372.808,33.6a.976.976,0,0,0-.971.973v3.537a.976.976,0,0,0,.971.973h3.528a.975.975,0,0,0,.969-.973V34.575a.976.976,0,0,0-.969-.973Z" transform="translate(-261.712)"/><path class="a" d="M104.564,301.18a.976.976,0,0,0-.971.973v3.539a.976.976,0,0,0,.971.973h3.527a.976.976,0,0,0,.971-.973v-3.539a.976.976,0,0,0-.971-.973Z" transform="translate(0 -261.062)"/><path class="a" d="M372.808,301.18a.976.976,0,0,0-.971.973v3.539a.976.976,0,0,0,.971.973h3.528a.976.976,0,0,0,.969-.973v-3.539a.976.976,0,0,0-.969-.973Z" transform="translate(-261.712 -261.062)"/></g></svg>