<svg xmlns="http://www.w3.org/2000/svg" width="15.248" height="20.123" viewBox="0 0 15.248 20.123"><defs><style>.a{fill:#2d2d2d;}.b{fill:#fff;}</style></defs><g transform="translate(-11 -2.028)"><g transform="translate(11 8.529)"><g transform="translate(0 0)"><path class="a" d="M20.077,12.656V23.615a1.353,1.353,0,0,1-1.369,1.331H12.369A1.353,1.353,0,0,1,11,23.615V12.656a1.353,1.353,0,0,1,1.369-1.331h6.338A1.353,1.353,0,0,1,20.077,12.656Z" transform="translate(-11 -11.325)"/><path class="b" d="M.3,0H5.748a.3.3,0,0,1,.3.3V5.748a.3.3,0,0,1-.3.3H.3a.3.3,0,0,1-.3-.3V.3A.3.3,0,0,1,.3,0Z" transform="translate(1.513 2.588)"/></g></g><g transform="translate(19.716 2.028) rotate(45)"><g transform="translate(0 0)"><path class="a" d="M.9,2.589a5.292,5.292,0,0,1,7.453,0,.524.524,0,0,0,.365.157.506.506,0,0,0,.365-.157.517.517,0,0,0,0-.741,6.312,6.312,0,0,0-8.924,0,.517.517,0,0,0,0,.741A.517.517,0,0,0,.9,2.589Z"/><path class="a" d="M5.647,2.111a.49.49,0,0,0,.365-.157.517.517,0,0,0,0-.741,4.139,4.139,0,0,0-5.856,0,.517.517,0,0,0,0,.741.517.517,0,0,0,.741,0,3.1,3.1,0,0,1,4.384,0A.506.506,0,0,0,5.647,2.111Z" transform="translate(1.534 2.168)"/></g></g></g></svg>