<svg xmlns="http://www.w3.org/2000/svg" width="12.254" height="12.449" viewBox="0 0 12.254 12.449"><defs><style>.a{fill:#2d2d2d;}</style></defs><g transform="translate(0)"><g transform="translate(0 0)"><path class="a" d="M16.123,8.1,10.5,3.45a.442.442,0,0,0-.56,0L4.308,8.1a.6.6,0,0,0,.387,1.054h.627v5.6a1.033,1.033,0,0,0,1.04,1.04H8.575a.427.427,0,0,0,.44-.44V12.652a.427.427,0,0,1,.44-.44H11a.427.427,0,0,1,.44.44v2.694a.427.427,0,0,0,.44.44h2.227a1.033,1.033,0,0,0,1.04-1.04v-5.6h.627A.58.58,0,0,0,16.123,8.1Z" transform="translate(-4.094 -3.35)"/></g></g></svg>