<svg xmlns="http://www.w3.org/2000/svg" width="12.616" height="12.817" viewBox="0 0 12.616 12.817"><defs><style>.a{fill:#2d2d2d;}</style></defs><g transform="translate(0 0)"><path class="a" d="M16.479,8.245,10.685,3.453a.455.455,0,0,0-.577,0L4.315,8.245a.614.614,0,0,0,.4,1.085h.645V15.1a1.064,1.064,0,0,0,1.071,1.071H8.708a.44.44,0,0,0,.453-.453V12.927a.44.44,0,0,1,.453-.453h1.593a.44.44,0,0,1,.453.453V15.7a.44.44,0,0,0,.453.453h2.293a1.064,1.064,0,0,0,1.071-1.071V9.316h.645A.6.6,0,0,0,16.479,8.245Z" transform="translate(-4.094 -3.35)"/></g></svg>