<svg xmlns="http://www.w3.org/2000/svg" width="16.604" height="20.459" viewBox="0 0 16.604 20.459"><defs><style>.a{fill:#2d2d2d;}</style></defs><g transform="translate(-134.4 -14)"><path class="a" d="M143.014,69.267a4.307,4.307,0,1,1-4.307-4.307,4.307,4.307,0,0,1,4.307,4.307" transform="translate(0 -49)"/><path class="a" d="M432.622,16.67A2.67,2.67,0,1,1,429.951,14a2.67,2.67,0,0,1,2.671,2.67" transform="translate(-281.618)"/><path class="a" d="M210.559,338.24h-1.594a1.556,1.556,0,0,0-1.443,1.034l-1.637,4.953a1.52,1.52,0,0,0,.969,1.917,1.831,1.831,0,0,0,.474.086,1.527,1.527,0,0,0,1.443-1.034l1.292-3.919H214.2l-3.532-2.95c-.043-.021-.065-.065-.108-.086Z" transform="translate(-68.665 -311.771)"/><path class="a" d="M392.9,171.6a2.62,2.62,0,0,0-2.929,1.831l-.775,2.52,4.135,3.446,1.594-4.286a2.569,2.569,0,0,0-.194-2.24A2.54,2.54,0,0,0,392.9,171.6Z" transform="translate(-245.001 -151.508)"/><path class="a" d="M338.48,290.923a.765.765,0,0,0-.969,1.185l4.975,4.135a.863.863,0,0,0,.5.172.722.722,0,0,0,.582-.28.779.779,0,0,0-.108-1.077Z" transform="translate(-195.035 -266.112)"/></g></svg>