<svg xmlns="http://www.w3.org/2000/svg" width="121.798" height="121.772" viewBox="0 0 121.798 121.772"><defs><style>.a{fill:#ccc;}</style></defs><g transform="translate(1254.555 37)"><path class="a" d="M105.048,58.037,164.446,28l59.4,30.037a2.714,2.714,0,0,1-1.217,5.142h-5.412v5.412a2.714,2.714,0,0,1-2.706,2.706H114.383a2.714,2.714,0,0,1-2.706-2.706V63.179h-5.412a2.714,2.714,0,0,1-1.217-5.142Zm117.578,75.5H106.266a2.714,2.714,0,0,0-2.706,2.706v13.53H225.333v-13.53a2.714,2.714,0,0,0-2.707-2.706ZM131.973,76.709H119.8a1.279,1.279,0,0,0-1.353,1.353v36.532h-4.059a2.714,2.714,0,0,0-2.706,2.706v10.825H217.214V117.3a2.714,2.714,0,0,0-2.706-2.706h-4.059V78.063a1.279,1.279,0,0,0-1.353-1.353H196.919a1.279,1.279,0,0,0-1.353,1.353v36.532H184.741V78.063a1.279,1.279,0,0,0-1.353-1.353H171.212a1.279,1.279,0,0,0-1.353,1.353v36.532H159.034V78.063a1.279,1.279,0,0,0-1.353-1.353H145.5a1.279,1.279,0,0,0-1.353,1.353v36.532H133.326V78.063a1.278,1.278,0,0,0-1.353-1.352Z" transform="translate(-1358.102 -65)"/></g></svg>