<svg xmlns="http://www.w3.org/2000/svg" width="18.923" height="19.225" viewBox="0 0 18.923 19.225"><defs><style>.a{fill:#2d2d2d;}</style></defs><g transform="translate(0 0)"><g transform="translate(0 0)"><path class="a" d="M22.67,10.692,13.98,3.5a.683.683,0,0,0-.865,0l-8.69,7.187a.921.921,0,0,0,.6,1.627H5.99v8.65A1.6,1.6,0,0,0,7.6,22.575h3.418a.66.66,0,0,0,.68-.68V17.715a.66.66,0,0,1,.68-.68h2.389a.66.66,0,0,1,.68.68v4.16a.66.66,0,0,0,.68.68h3.439a1.6,1.6,0,0,0,1.606-1.606V12.3h.968A.9.9,0,0,0,22.67,10.692Z" transform="translate(-4.094 -3.35)"/></g></g></svg>