<svg xmlns="http://www.w3.org/2000/svg" width="13.925" height="18.187" viewBox="0 0 13.925 18.187"><defs><style>.a{fill:#2d2d2d;}</style></defs><path class="a" d="M34.78,29.129a4.386,4.386,0,0,1-.994-2.783V24.408a4.852,4.852,0,0,0-3.826-4.746v-.919a1.044,1.044,0,0,0-2.087,0v.919a4.852,4.852,0,0,0-3.826,4.746v1.938a4.386,4.386,0,0,1-.994,2.783l-.82,1.044a1.127,1.127,0,0,0,.87,1.839H34.78a1.127,1.127,0,0,0,.87-1.839Z" transform="translate(-21.979 -17.7)"/><path class="a" d="M42.485,83.385A2.492,2.492,0,0,0,44.969,80.9H40A2.492,2.492,0,0,0,42.485,83.385Z" transform="translate(-35.522 -65.197)"/></svg>