<svg xmlns="http://www.w3.org/2000/svg" width="16.802" height="12.674" viewBox="0 0 16.802 12.674"><defs><style>.a{fill:#2d2d2d;}</style></defs><path class="a" d="M166.247,89.906a6.337,6.337,0,1,0,6.337,6.337A6.344,6.344,0,0,0,166.247,89.906Zm0,11.576a5.239,5.239,0,1,1,5.239-5.239A5.245,5.245,0,0,1,166.247,101.482Z" transform="translate(-157.846 -89.906)"/><path class="a" d="M332.308,365.075a.6.6,0,1,1-.6-.6.6.6,0,0,1,.6.6" transform="translate(-323.283 -355.524)"/><path class="a" d="M323.783,156.718a.857.857,0,0,0-1.286,0,.733.733,0,0,0-.228.684l.4,4.333a.471.471,0,1,0,.942,0l.4-4.333a.733.733,0,0,0-.228-.684Z" transform="translate(-314.719 -153.909)"/><path class="a" d="M99.1,99.247a7.467,7.467,0,0,1,2.19-5.3.549.549,0,0,0-.777-.777,8.6,8.6,0,0,0,0,12.145.549.549,0,1,0,.777-.777,7.466,7.466,0,0,1-2.19-5.3Z" transform="translate(-98.005 -92.91)"/><path class="a" d="M499.492,92.572a.549.549,0,0,0-.777.777,7.5,7.5,0,0,1,0,10.592.549.549,0,1,0,.777.777,8.6,8.6,0,0,0,0-12.145Z" transform="translate(-485.201 -92.328)"/></svg>