<svg xmlns="http://www.w3.org/2000/svg" xmlns:xlink="http://www.w3.org/1999/xlink" width="28.856" height="31.021" viewBox="0 0 28.856 31.021"><defs><style>.a{fill:#ff3f31;}.b{filter:url(#a);}</style><filter id="a" x="0" y="0" width="28.856" height="31.021" filterUnits="userSpaceOnUse"><feOffset input="SourceAlpha"/><feGaussianBlur stdDeviation="3" result="b"/><feFlood flood-opacity="0.102"/><feComposite operator="in" in2="b"/><feComposite in="SourceGraphic"/></filter></defs><g class="b" transform="matrix(1, 0, 0, 1, 0, 0)"><path class="a" d="M21.584,29.9a1.947,1.947,0,0,1-1.775-2.013c-.19-2.033-.5-6.811-.517-6.872a.7.7,0,0,1,.121-.407.405.405,0,0,1,.31-.163H28.1a.38.38,0,0,1,.31.163.529.529,0,0,1,.1.407c0,.041-.327,4.839-.5,6.872A1.921,1.921,0,0,1,26.2,29.9c-.758.02-1.516.02-2.275.02C23.135,29.921,22.343,29.921,21.584,29.9ZM18.931,19.309a.49.49,0,0,1-.431-.529v-.264a.49.49,0,0,1,.431-.529h1.758c.362,0,1.43-1.088,1.982-1.088h2.5c.551,0,1.637,1.088,2,1.108h1.758a.49.49,0,0,1,.431.529h0V18.8a.5.5,0,0,1-.431.529H18.931Z" transform="translate(-9.5 -7.9)"/></g></svg>