<svg xmlns="http://www.w3.org/2000/svg" width="154.79" height="204.454" viewBox="0 0 154.79 204.454"><defs><style>.a{fill:#6e6c7f;}</style></defs><path class="a" d="M757.906,302.867a7.662,7.662,0,0,0-7-4.99H611.265a7.836,7.836,0,0,0-7.57,8.069V494.262a7.836,7.836,0,0,0,7.57,8.069h139.65a7.842,7.842,0,0,0,7.57-8.069V305.946a8.38,8.38,0,0,0-.574-3.08Zm-1.107,191.4a6.1,6.1,0,0,1-5.889,6.277H611.265a6.093,6.093,0,0,1-5.889-6.275V305.947a6.1,6.1,0,0,1,5.889-6.277h139.65a5.934,5.934,0,0,1,5.466,3.949,7.235,7.235,0,0,1,.222.708,6.611,6.611,0,0,1,.2,1.62Z" transform="translate(-603.695 -297.877)"/></svg>