<svg xmlns="http://www.w3.org/2000/svg" xmlns:xlink="http://www.w3.org/1999/xlink" width="31.754" height="31.755" viewBox="0 0 31.754 31.755"><defs><style>.a{fill:#2d2d2d;}.b{filter:url(#a);}</style><filter id="a" x="0" y="0" width="31.754" height="31.755" filterUnits="userSpaceOnUse"><feOffset dy="1" input="SourceAlpha"/><feGaussianBlur stdDeviation="3" result="b"/><feFlood flood-opacity="0.102"/><feComposite operator="in" in2="b"/><feComposite in="SourceGraphic"/></filter></defs><g class="b" transform="matrix(1, 0, 0, 1, 0, 0)"><path class="a" d="M15.918,8.36l-1.335-.145a.39.39,0,0,1-.334-.276,5.641,5.641,0,0,0-.3-.74.4.4,0,0,1,.044-.435l.841-1.045a.507.507,0,0,0-.029-.667l-.87-.871a.478.478,0,0,0-.667-.029L12.2,4.979a.4.4,0,0,1-.435.044,4.671,4.671,0,0,0-.74-.3.371.371,0,0,1-.276-.334L10.608,3.05A.5.5,0,0,0,10.1,2.6H8.853a.5.5,0,0,0-.508.45L8.2,4.385a.39.39,0,0,1-.276.334,5.64,5.64,0,0,0-.74.3.4.4,0,0,1-.435-.044L5.7,4.138a.507.507,0,0,0-.667.029l-.87.871a.478.478,0,0,0-.029.667L4.979,6.75a.4.4,0,0,1,.044.435,7.96,7.96,0,0,0-.3.74.39.39,0,0,1-.334.276L3.05,8.346a.5.5,0,0,0-.45.508V10.1a.5.5,0,0,0,.45.508l1.335.145a.39.39,0,0,1,.334.276,5.641,5.641,0,0,0,.3.74.4.4,0,0,1-.044.435L4.138,13.25a.507.507,0,0,0,.029.667l.87.871a.478.478,0,0,0,.667.029l1.045-.842a.4.4,0,0,1,.435-.044,7.958,7.958,0,0,0,.74.3.39.39,0,0,1,.276.334L8.345,15.9a.5.5,0,0,0,.508.45H10.1a.5.5,0,0,0,.508-.45l.145-1.335a.39.39,0,0,1,.276-.334,5.64,5.64,0,0,0,.74-.3.4.4,0,0,1,.435.044l1.045.842a.507.507,0,0,0,.667-.029l.87-.871a.478.478,0,0,0,.029-.667l-.841-1.045a.4.4,0,0,1-.044-.435,7.96,7.96,0,0,0,.3-.74.39.39,0,0,1,.334-.276l1.335-.145a.5.5,0,0,0,.45-.508V8.853A.468.468,0,0,0,15.918,8.36ZM9.477,11.871a2.394,2.394,0,1,1,2.394-2.394A2.4,2.4,0,0,1,9.477,11.871Z" transform="translate(6.4 5.4)"/></g></svg>