<svg xmlns="http://www.w3.org/2000/svg" xmlns:xlink="http://www.w3.org/1999/xlink" width="35.215" height="40.528" viewBox="0 0 35.215 40.528"><defs><style>.a{fill:#1a76ff;}.b{filter:url(#a);}</style><filter id="a" x="0" y="0" width="35.215" height="40.528" filterUnits="userSpaceOnUse"><feOffset input="SourceAlpha"/><feGaussianBlur stdDeviation="5" result="b"/><feFlood flood-opacity="0.078"/><feComposite operator="in" in2="b"/><feComposite in="SourceGraphic"/></filter></defs><g class="b" transform="matrix(1, 0, 0, 1, 0, 0)"><path class="a" d="M5.8,5.024l4.512-3.911a.592.592,0,0,0,0-.922.836.836,0,0,0-1.063,0l-3.98,3.45L1.284.191A.836.836,0,0,0,.22.191a.592.592,0,0,0,0,.922L4.732,5.024A.836.836,0,0,0,5.8,5.024Z" transform="translate(20.21 15) rotate(90)"/></g></svg>