<svg xmlns="http://www.w3.org/2000/svg" xmlns:xlink="http://www.w3.org/1999/xlink" width="39.099" height="42.965" viewBox="0 0 39.099 42.965"><defs><style>.a{fill:#1a76ff;}.b{filter:url(#a);}</style><filter id="a" x="0" y="0" width="39.099" height="42.965" filterUnits="userSpaceOnUse"><feOffset input="SourceAlpha"/><feGaussianBlur stdDeviation="5" result="b"/><feFlood flood-opacity="0.078"/><feComposite operator="in" in2="b"/><feComposite in="SourceGraphic"/></filter></defs><g class="b" transform="matrix(1, 0, 0, 1, 0, 0)"><path class="a" d="M7.137,8.765l5.556-6.824a1.328,1.328,0,0,0,0-1.608.81.81,0,0,0-1.31,0l-4.9,6.02L1.581.333a.81.81,0,0,0-1.31,0,1.328,1.328,0,0,0,0,1.608L5.828,8.765A.81.81,0,0,0,7.137,8.765Z" transform="translate(24.1 15) rotate(90)"/></g></svg>