<svg xmlns="http://www.w3.org/2000/svg" width="108.952" height="187.692" viewBox="0 0 108.952 187.692"><defs><style>.a{fill:#3f3d56;}</style></defs><path class="a" d="M471.06,435.218H370.348a4.125,4.125,0,0,1-4.12-4.12V251.646a4.125,4.125,0,0,1,4.12-4.12H471.06a4.125,4.125,0,0,1,4.12,4.12V431.1A4.125,4.125,0,0,1,471.06,435.218ZM370.348,248.442a3.208,3.208,0,0,0-3.2,3.2V431.1a3.208,3.208,0,0,0,3.2,3.2H471.06a3.208,3.208,0,0,0,3.2-3.2V251.646a3.208,3.208,0,0,0-3.2-3.2Z" transform="translate(-366.228 -247.526)"/></svg>