<svg xmlns="http://www.w3.org/2000/svg" width="347" height="44" viewBox="0 0 347 44"><defs><style>.a{fill:#fff;}.b,.c{stroke:none;}.c{fill:#fff;}</style></defs><g class="a"><path class="b" d="M 342 43.75 L 5 43.75 C 2.380863666534424 43.75 0.25 41.61913681030273 0.25 39 L 0.25 5 C 0.25 2.380863666534424 2.380863666534424 0.25 5 0.25 L 342 0.25 C 344.619140625 0.25 346.75 2.380863666534424 346.75 5 L 346.75 39 C 346.75 41.61913681030273 344.619140625 43.75 342 43.75 Z"/><path class="c" d="M 5 0.5 C 2.5186767578125 0.5 0.5 2.518680572509766 0.5 5 L 0.5 39 C 0.5 41.48131942749023 2.5186767578125 43.5 5 43.5 L 342 43.5 C 344.4813232421875 43.5 346.5 41.48131942749023 346.5 39 L 346.5 5 C 346.5 2.518680572509766 344.4813232421875 0.5 342 0.5 L 5 0.5 M 5 0 L 342 0 C 344.7614135742188 0 347 2.238590240478516 347 5 L 347 39 C 347 41.76140975952148 344.7614135742188 44 342 44 L 5 44 C 2.23858642578125 44 0 41.76140975952148 0 39 L 0 5 C 0 2.238590240478516 2.23858642578125 0 5 0 Z"/></g></svg>