<svg xmlns="http://www.w3.org/2000/svg" xmlns:xlink="http://www.w3.org/1999/xlink" width="39.241" height="39.241" viewBox="0 0 39.241 39.241"><defs><style>.a{fill:#2d2d2d;}.b{filter:url(#a);}</style><filter id="a" x="0" y="0" width="39.241" height="39.241" filterUnits="userSpaceOnUse"><feOffset dy="1" input="SourceAlpha"/><feGaussianBlur stdDeviation="3" result="b"/><feFlood flood-opacity="0.102"/><feComposite operator="in" in2="b"/><feComposite in="SourceGraphic"/></filter></defs><g class="b" transform="matrix(1, 0, 0, 1, 0, 0)"><path class="a" d="M23.167,11.5l-2.061-.224a.6.6,0,0,1-.515-.426A8.711,8.711,0,0,0,20.12,9.7a.614.614,0,0,1,.067-.672l1.3-1.613a.783.783,0,0,0-.045-1.031L20.1,5.042A.739.739,0,0,0,19.067,5L17.432,6.275a.614.614,0,0,1-.672.067,7.214,7.214,0,0,0-1.143-.471.573.573,0,0,1-.426-.515l-.224-2.061a.779.779,0,0,0-.784-.695H12.256a.779.779,0,0,0-.784.695l-.224,2.061a.6.6,0,0,1-.426.515,8.71,8.71,0,0,0-1.143.471.614.614,0,0,1-.672-.067l-1.613-1.3a.783.783,0,0,0-1.031.045L5.02,6.364a.739.739,0,0,0-.045,1.031l1.3,1.613a.61.61,0,0,1,.067.672,12.292,12.292,0,0,0-.47,1.143.6.6,0,0,1-.515.426l-2.061.224a.779.779,0,0,0-.695.784v1.927a.779.779,0,0,0,.695.784l2.061.224a.6.6,0,0,1,.515.426,8.711,8.711,0,0,0,.47,1.143.614.614,0,0,1-.067.672l-1.3,1.613a.783.783,0,0,0,.045,1.031l1.344,1.344a.739.739,0,0,0,1.031.045l1.613-1.3A.61.61,0,0,1,9.68,20.1a12.29,12.29,0,0,0,1.143.471.6.6,0,0,1,.426.515l.224,2.061a.779.779,0,0,0,.784.695h1.927a.779.779,0,0,0,.784-.695l.224-2.061a.6.6,0,0,1,.426-.515A8.71,8.71,0,0,0,16.76,20.1a.614.614,0,0,1,.672.067l1.613,1.3a.783.783,0,0,0,1.031-.045l1.344-1.344a.739.739,0,0,0,.045-1.031l-1.3-1.613a.61.61,0,0,1-.067-.672,12.293,12.293,0,0,0,.47-1.143.6.6,0,0,1,.515-.426l2.061-.224a.779.779,0,0,0,.695-.784V12.257A.723.723,0,0,0,23.167,11.5ZM13.22,16.917a3.7,3.7,0,1,1,3.7-3.7A3.7,3.7,0,0,1,13.22,16.917Z" transform="translate(6.4 5.4)"/></g></svg>