<svg xmlns="http://www.w3.org/2000/svg" xmlns:xlink="http://www.w3.org/1999/xlink" width="32.261" height="35.106" viewBox="0 0 32.261 35.106"><defs><style>.a{fill:#ff3f31;}.b{filter:url(#a);}</style><filter id="a" x="0" y="0" width="32.261" height="35.106" filterUnits="userSpaceOnUse"><feOffset input="SourceAlpha"/><feGaussianBlur stdDeviation="3" result="b"/><feFlood flood-opacity="0.102"/><feComposite operator="in" in2="b"/><feComposite in="SourceGraphic"/></filter></defs><g class="b" transform="matrix(1, 0, 0, 1, 0, 0)"><path class="a" d="M22.552,33.979a2.558,2.558,0,0,1-2.332-2.644c-.249-2.671-.656-8.947-.679-9.027a.913.913,0,0,1,.158-.534.532.532,0,0,1,.407-.214h11a.5.5,0,0,1,.407.214.7.7,0,0,1,.136.534c0,.053-.43,6.356-.656,9.027a2.524,2.524,0,0,1-2.377,2.644c-1,.027-1.992.027-2.988.027C24.589,34.006,23.548,34.006,22.552,33.979ZM19.066,20.065a.643.643,0,0,1-.566-.694v-.347a.643.643,0,0,1,.566-.694h2.309c.475,0,1.879-1.429,2.6-1.429h3.282c.724,0,2.151,1.429,2.626,1.456H32.2a.643.643,0,0,1,.566.694h0V19.4a.661.661,0,0,1-.566.694H19.066Z" transform="translate(-9.5 -7.9)"/></g></svg>