<svg xmlns="http://www.w3.org/2000/svg" xmlns:xlink="http://www.w3.org/1999/xlink" width="31.976" height="31.976" viewBox="0 0 31.976 31.976"><defs><style>.a{fill:#2d2d2d;}.b{filter:url(#a);}</style><filter id="a" x="0" y="0" width="31.976" height="31.976" filterUnits="userSpaceOnUse"><feOffset dy="1" input="SourceAlpha"/><feGaussianBlur stdDeviation="3" result="b"/><feFlood flood-opacity="0.102"/><feComposite operator="in" in2="b"/><feComposite in="SourceGraphic"/></filter></defs><g class="b" transform="matrix(1, 0, 0, 1, 0, 0)"><path class="a" d="M16.133,8.453l-1.356-.147a.4.4,0,0,1-.339-.28,5.732,5.732,0,0,0-.31-.752.4.4,0,0,1,.044-.442l.855-1.062A.515.515,0,0,0,15,5.092l-.885-.885a.486.486,0,0,0-.678-.029l-1.076.84a.4.4,0,0,1-.442.044,4.747,4.747,0,0,0-.752-.31.377.377,0,0,1-.28-.339l-.147-1.356a.513.513,0,0,0-.516-.457H8.954a.513.513,0,0,0-.516.457L8.29,4.413a.4.4,0,0,1-.28.339,5.731,5.731,0,0,0-.752.31.4.4,0,0,1-.442-.044L5.755,4.163a.515.515,0,0,0-.678.029l-.885.885a.486.486,0,0,0-.029.678l.855,1.062a.4.4,0,0,1,.044.442,8.088,8.088,0,0,0-.31.752.4.4,0,0,1-.339.28l-1.356.147a.513.513,0,0,0-.457.516v1.268a.513.513,0,0,0,.457.516l1.356.147a.4.4,0,0,1,.339.28,5.732,5.732,0,0,0,.31.752.4.4,0,0,1-.044.442l-.855,1.062a.515.515,0,0,0,.029.678l.885.885a.486.486,0,0,0,.678.029l1.061-.855a.4.4,0,0,1,.442-.044,8.087,8.087,0,0,0,.752.31.4.4,0,0,1,.28.339l.147,1.356a.513.513,0,0,0,.516.457h1.268a.513.513,0,0,0,.516-.457l.147-1.356a.4.4,0,0,1,.28-.339,5.731,5.731,0,0,0,.752-.31.4.4,0,0,1,.442.044l1.061.855a.515.515,0,0,0,.678-.029l.885-.885a.486.486,0,0,0,.029-.678l-.855-1.062a.4.4,0,0,1-.044-.442,8.089,8.089,0,0,0,.31-.752.4.4,0,0,1,.339-.28l1.356-.147a.513.513,0,0,0,.457-.516V8.954A.475.475,0,0,0,16.133,8.453ZM9.588,12.021A2.433,2.433,0,1,1,12.02,9.588,2.435,2.435,0,0,1,9.588,12.021Z" transform="translate(6.4 5.4)"/></g></svg>