<svg xmlns="http://www.w3.org/2000/svg" xmlns:xlink="http://www.w3.org/1999/xlink" width="31.973" height="31.974" viewBox="0 0 31.973 31.974"><defs><style>.a{fill:#2d2d2d;}.b{filter:url(#a);}</style><filter id="a" x="0" y="0" width="31.973" height="31.974" filterUnits="userSpaceOnUse"><feOffset dy="1" input="SourceAlpha"/><feGaussianBlur stdDeviation="3" result="b"/><feFlood flood-opacity="0.102"/><feComposite operator="in" in2="b"/><feComposite in="SourceGraphic"/></filter></defs><g class="b" transform="matrix(1, 0, 0, 1, 0, 0)"><path class="a" d="M16.13,8.452,14.774,8.3a.4.4,0,0,1-.339-.28,5.731,5.731,0,0,0-.31-.752.4.4,0,0,1,.044-.442l.855-1.061A.515.515,0,0,0,15,5.091l-.884-.884a.486.486,0,0,0-.678-.029l-1.076.84a.4.4,0,0,1-.442.044,4.746,4.746,0,0,0-.752-.31.377.377,0,0,1-.28-.339l-.147-1.356A.513.513,0,0,0,10.22,2.6H8.953a.513.513,0,0,0-.516.457L8.289,4.413a.4.4,0,0,1-.28.339,5.73,5.73,0,0,0-.752.31.4.4,0,0,1-.442-.044L5.754,4.162a.515.515,0,0,0-.678.029l-.884.884a.486.486,0,0,0-.029.678l.855,1.061a.4.4,0,0,1,.044.442,8.087,8.087,0,0,0-.31.752.4.4,0,0,1-.339.28l-1.356.147a.513.513,0,0,0-.457.516v1.268a.513.513,0,0,0,.457.516l1.356.147a.4.4,0,0,1,.339.28,5.731,5.731,0,0,0,.31.752.4.4,0,0,1-.044.442l-.855,1.061a.515.515,0,0,0,.029.678l.884.884a.486.486,0,0,0,.678.029l1.061-.855a.4.4,0,0,1,.442-.044,8.085,8.085,0,0,0,.752.31.4.4,0,0,1,.28.339l.147,1.356a.513.513,0,0,0,.516.457H10.22a.513.513,0,0,0,.516-.457l.147-1.356a.4.4,0,0,1,.28-.339,5.73,5.73,0,0,0,.752-.31.4.4,0,0,1,.442.044l1.061.855a.515.515,0,0,0,.678-.029l.884-.884a.486.486,0,0,0,.029-.678l-.855-1.061a.4.4,0,0,1-.044-.442,8.087,8.087,0,0,0,.31-.752.4.4,0,0,1,.339-.28l1.356-.147a.513.513,0,0,0,.457-.516V8.953A.475.475,0,0,0,16.13,8.452ZM9.586,12.019a2.432,2.432,0,1,1,2.432-2.432A2.434,2.434,0,0,1,9.586,12.019Z" transform="translate(6.4 5.4)"/></g></svg>