<svg xmlns="http://www.w3.org/2000/svg" xmlns:xlink="http://www.w3.org/1999/xlink" width="32.161" height="32.161" viewBox="0 0 32.161 32.161"><defs><style>.a{fill:#2d2d2d;}.b{filter:url(#a);}</style><filter id="a" x="0" y="0" width="32.161" height="32.161" filterUnits="userSpaceOnUse"><feOffset dy="1" input="SourceAlpha"/><feGaussianBlur stdDeviation="3" result="b"/><feFlood flood-opacity="0.102"/><feComposite operator="in" in2="b"/><feComposite in="SourceGraphic"/></filter></defs><g class="b" transform="matrix(1, 0, 0, 1, 0, 0)"><path class="a" d="M16.312,8.53l-1.374-.149a.4.4,0,0,1-.344-.284,5.808,5.808,0,0,0-.314-.762.41.41,0,0,1,.045-.448l.866-1.076a.522.522,0,0,0-.03-.687l-.9-.9a.492.492,0,0,0-.687-.03l-1.09.851a.41.41,0,0,1-.448.045,4.81,4.81,0,0,0-.762-.314.382.382,0,0,1-.284-.344l-.149-1.374a.519.519,0,0,0-.523-.463H9.038a.519.519,0,0,0-.523.463L8.366,4.437a.4.4,0,0,1-.284.344,5.807,5.807,0,0,0-.762.314.41.41,0,0,1-.448-.045L5.8,4.183a.522.522,0,0,0-.687.03l-.9.9a.493.493,0,0,0-.03.687L5.05,6.872a.407.407,0,0,1,.045.448,8.2,8.2,0,0,0-.314.762.4.4,0,0,1-.344.284l-1.374.149a.519.519,0,0,0-.463.523v1.285a.519.519,0,0,0,.463.523L4.437,11a.4.4,0,0,1,.344.284,5.808,5.808,0,0,0,.314.762.41.41,0,0,1-.045.448l-.866,1.076a.522.522,0,0,0,.03.687l.9.9a.492.492,0,0,0,.687.03l1.075-.866a.407.407,0,0,1,.448-.045,8.194,8.194,0,0,0,.762.314.4.4,0,0,1,.284.344L8.515,16.3a.519.519,0,0,0,.523.463h1.285a.519.519,0,0,0,.523-.463l.149-1.374a.4.4,0,0,1,.284-.344,5.807,5.807,0,0,0,.762-.314.41.41,0,0,1,.448.045l1.075.866a.522.522,0,0,0,.687-.03l.9-.9a.493.493,0,0,0,.03-.687l-.866-1.076a.407.407,0,0,1-.045-.448,8.2,8.2,0,0,0,.314-.762A.4.4,0,0,1,14.923,11l1.374-.149a.519.519,0,0,0,.463-.523V9.038A.482.482,0,0,0,16.312,8.53ZM9.68,12.146a2.465,2.465,0,1,1,2.465-2.465A2.467,2.467,0,0,1,9.68,12.146Z" transform="translate(6.4 5.4)"/></g></svg>