<svg xmlns="http://www.w3.org/2000/svg" width="751.996" height="191" viewBox="0 0 751.996 191"><defs><style>.a{fill:#fbfbfb;}.b,.c{stroke:none;}.c{fill:#f0f0f0;}</style></defs><g class="a"><path class="b" d="M 742.9961547851562 190.75 L 9.000046730041504 190.75 C 4.175319671630859 190.75 0.2500468790531158 186.8247222900391 0.2500468790531158 182 L 0.2500468790531158 9 C 0.2500468790531158 4.175272941589355 4.175319671630859 0.25 9.000046730041504 0.25 L 742.9961547851562 0.25 C 747.8208618164062 0.25 751.7461547851562 4.175272941589355 751.7461547851562 9 L 751.7461547851562 182 C 751.7461547851562 186.8247222900391 747.8208618164062 190.75 742.9961547851562 190.75 Z"/><path class="c" d="M 8.99993896484375 0.5 C 4.31304931640625 0.5 0.49993896484375 4.313095092773438 0.49993896484375 9 L 0.49993896484375 182 C 0.49993896484375 186.6869049072266 4.31304931640625 190.5 8.99993896484375 190.5 L 742.9960327148438 190.5 C 747.6829223632812 190.5 751.4960327148438 186.6869049072266 751.4960327148438 182 L 751.4960327148438 9 C 751.4960327148438 4.313095092773438 747.6829223632812 0.5 742.9960327148438 0.5 L 8.99993896484375 0.5 M 8.99993896484375 0 L 742.9960327148438 0 C 747.9666748046875 0 751.9960327148438 4.029403686523438 751.9960327148438 9 L 751.9960327148438 182 C 751.9960327148438 186.9705963134766 747.9666748046875 191 742.9960327148438 191 L 8.99993896484375 191 C 4.0294189453125 191 -6.103515625e-05 186.9705963134766 -6.103515625e-05 182 L -6.103515625e-05 9 C -6.103515625e-05 4.029403686523438 4.0294189453125 0 8.99993896484375 0 Z"/></g></svg>