<svg xmlns="http://www.w3.org/2000/svg" width="58.94" height="20.64" viewBox="0 0 58.94 20.64"><defs><style>.a{isolation:isolate;}.b{fill:none;stroke-linejoin:round;}.c,.d{stroke:none;}.d{fill:#1c1c1c;}</style></defs><g class="a" transform="translate(0.5 0.5)"><g transform="translate(0 0)"><g class="b" transform="translate(-10 177.09)"><path class="c" d="M44.613-176.975a4.434,4.434,0,0,1,3.337,1.194c.95.683,3.894,3,4.809,3.789.73.637.278.556,6.269,1.1a34.206,34.206,0,0,1,4.1.533c2.468.637,3.627,1.912,3.836,4.218.081.869.093.892.521,1.171l.452.278v.881c0,.846-.023.915-.406,1.367-.892,1.066-.776,1-1.738,1h-.869v-.5a5.757,5.757,0,0,0-1.808-3.905,5.526,5.526,0,0,0-7.741,0,5.758,5.758,0,0,0-1.808,3.905v.5H28.691l-.081-.741a5.7,5.7,0,0,0-1.877-3.766,5.644,5.644,0,0,0-4.566-1.414,5.709,5.709,0,0,0-4.867,5.3v.475l-1.889.058c-1.031.023-2.1.035-2.364,0l-.487-.046-.035-.95-.035-.939-.892.035a6.4,6.4,0,0,1-1.24-.035L10-163.555v-1.831h.811v-6.489l10.858.035,10.87.023.035-2.642.023-2.63,5.249.023C40.72-177.068,43.767-177.021,44.613-176.975Zm-3.673,3.592v2.433l4.021-.023,4.009-.035.278-.811a4.812,4.812,0,0,0,.244-.892c-.023-.046-.846-.765-1.831-1.587l-1.8-1.506-2.468-.012H40.94Zm-6.026,0v2.433H38.97v-4.867H34.915Z"/><path class="d" d="M 32.59635543823242 -177.0900115966797 L 32.57330322265625 -174.4596557617188 L 32.53841400146484 -171.8174743652344 L 21.66886520385742 -171.8405303955078 L 10.81114196777344 -171.8754119873047 L 10.81114196777344 -165.3861694335938 L 10 -165.3861694335938 L 10 -163.5551452636719 L 10.35945129394531 -163.4741516113281 C 10.55632019042969 -163.4274291992188 11.11267852783203 -163.4161987304688 11.5992431640625 -163.4392700195312 L 12.49139404296875 -163.4741516113281 L 12.5611572265625 -161.5851898193359 L 13.04773712158203 -161.5390777587891 C 13.31377410888672 -161.5041656494141 14.38032531738281 -161.5160217285156 15.41141510009766 -161.5390777587891 L 17.30036544799805 -161.5970153808594 L 17.30036544799805 -162.0723571777344 C 17.30036544799805 -164.5868377685547 19.490234375 -166.9623565673828 22.16727447509766 -167.3679351806641 C 23.76652145385742 -167.611572265625 25.50469970703125 -167.0782318115234 26.73325347900391 -165.9543304443359 C 27.8340950012207 -164.9462890625 28.45961380004883 -163.6946716308594 28.6103630065918 -162.1882476806641 L 28.69136428833008 -161.4468536376953 L 53.5704231262207 -161.4468536376953 L 53.5704231262207 -161.9452362060547 C 53.5704231262207 -163.2660369873047 54.27752304077148 -164.7955322265625 55.37837219238281 -165.8502655029297 C 57.58007049560547 -167.9591522216797 60.91749572753906 -167.9591522216797 63.11919403076172 -165.8502655029297 C 64.22004699707031 -164.7961273193359 64.92713165283203 -163.2660369873047 64.92713165283203 -161.9452362060547 L 64.92713165283203 -161.4468536376953 L 65.79623413085938 -161.4468536376953 C 66.75814819335938 -161.4468078613281 66.64226531982422 -161.3776702880859 67.53441619873047 -162.4436492919922 C 67.91693115234375 -162.8959350585938 67.93998718261719 -162.9651031494141 67.93998718261719 -163.8111419677734 L 67.93998718261719 -164.6920623779297 L 67.48829650878906 -164.9699401855469 C 67.05966186523438 -165.2483978271484 67.04783630371094 -165.2714691162109 66.96684265136719 -166.1405487060547 C 66.75814056396484 -168.4463348388672 65.59934997558594 -169.7210083007812 63.13101196289062 -170.3583374023438 C 62.58650207519531 -170.5091094970703 60.96420288085938 -170.7178039550781 59.02914428710938 -170.8916320800781 C 53.03773498535156 -171.4361419677734 53.49002075195312 -171.3551483154297 52.75986480712891 -171.9924774169922 C 51.84466552734375 -172.7805786132812 48.90098571777344 -175.0981750488281 47.95089340209961 -175.7816314697266 C 46.53729248046875 -176.8133087158203 46.32859420776367 -176.8824920654297 44.61346435546875 -176.9752960205078 C 43.76743316650391 -177.0214233398438 40.72005081176758 -177.0680541992188 37.84578323364258 -177.0669403076172 L 32.59635543823242 -177.0900115966797 M 38.97029495239258 -170.9495697021484 L 34.91453170776367 -170.9495697021484 L 34.91453170776367 -175.8165130615234 L 38.97029495239258 -175.8165130615234 L 38.97029495239258 -170.9495697021484 M 40.94023513793945 -170.9495697021484 L 40.94023513793945 -175.8165130615234 L 43.39674377441406 -175.8165130615234 L 45.86508178710938 -175.8046722412109 L 47.66120147705078 -174.2982482910156 C 48.64617156982422 -173.4758605957031 49.46915435791016 -172.7569274902344 49.49220275878906 -172.7108154296875 C 49.50344085693359 -172.6647033691406 49.39938354492188 -172.2591247558594 49.24862289428711 -171.8186645507812 L 48.97016143798828 -171.0075073242188 L 44.96110534667969 -170.9726257324219 L 40.94023513793945 -170.9495697021484 M 32.59632873535156 -177.5900115966797 C 32.59708404541016 -177.5900115966797 32.59779739379883 -177.5900115966797 32.59855270385742 -177.5900115966797 L 37.84798431396484 -177.5669403076172 L 37.95366287231445 -177.5669555664062 C 40.89561462402344 -177.5669555664062 43.83903503417969 -177.5182647705078 44.64068222045898 -177.4745635986328 C 46.4595947265625 -177.3761291503906 46.76283264160156 -177.2677154541016 48.24565124511719 -176.1855163574219 C 49.22440338134766 -175.4814453125 52.16656494140625 -173.1632232666016 53.08612442016602 -172.3713684082031 C 53.13699340820312 -172.3269653320312 53.18041229248047 -172.2877960205078 53.22089385986328 -172.2512359619141 C 53.62208557128906 -171.8889465332031 53.62975311279297 -171.8820190429688 57.97637176513672 -171.4890441894531 C 58.31609344482422 -171.4583282470703 58.68138122558594 -171.4253082275391 59.07439422607422 -171.3895874023438 C 60.64962005615234 -171.2480773925781 62.57511520385742 -171.0298461914062 63.26041412353516 -170.8413238525391 C 65.93935394287109 -170.1484069824219 67.23610687255859 -168.7123718261719 67.46480560302734 -166.1856231689453 C 67.4891357421875 -165.9246520996094 67.51955413818359 -165.5982055664062 67.55495452880859 -165.5351257324219 C 67.57501220703125 -165.5101470947266 67.68601226806641 -165.4377593994141 67.75570678710938 -165.3924560546875 L 68.20197296142578 -165.117919921875 C 68.34988403320312 -165.0269317626953 68.43998718261719 -164.8657073974609 68.43998718261719 -164.6920623779297 L 68.43998718261719 -163.8111419677734 C 68.43998718261719 -162.9019317626953 68.40119934082031 -162.6942443847656 67.91618347167969 -162.1207733154297 L 67.77546691894531 -161.9521942138672 C 67.09766387939453 -161.1391143798828 66.93661499023438 -160.9459381103516 66.08824157714844 -160.9459381103516 C 66.00292205810547 -160.9459381103516 65.90689849853516 -160.9468536376953 65.79623413085938 -160.9468536376953 L 64.92713165283203 -160.9468536376953 C 64.65099334716797 -160.9468536376953 64.42713165283203 -161.1707153320312 64.42713165283203 -161.4468536376953 L 64.42713165283203 -161.9452362060547 C 64.42713165283203 -163.1360931396484 63.77800369262695 -164.5271453857422 62.77338409423828 -165.4891357421875 C 61.80202484130859 -166.4195556640625 60.55031585693359 -166.9319305419922 59.24878311157227 -166.9319305419922 C 57.9472541809082 -166.9319305419922 56.69554138183594 -166.4195556640625 55.72423553466797 -165.4891815185547 C 54.7196044921875 -164.5266265869141 54.0704231262207 -163.1355438232422 54.0704231262207 -161.9452362060547 L 54.0704231262207 -161.4468536376953 C 54.0704231262207 -161.1707153320312 53.84656524658203 -160.9468536376953 53.5704231262207 -160.9468536376953 L 28.69136428833008 -160.9468536376953 C 28.43623352050781 -160.9468536376953 28.2220344543457 -161.1389312744141 28.1943244934082 -161.3925476074219 L 28.11332321166992 -162.1339569091797 C 27.97388458251953 -163.5271453857422 27.41216278076172 -164.6546936035156 26.39558410644531 -165.5855865478516 C 25.46450424194336 -166.4373474121094 24.20570373535156 -166.9259643554688 22.94214248657227 -166.9259643554688 C 22.70589447021484 -166.9259643554688 22.47052383422852 -166.9083557128906 22.2425651550293 -166.8736267089844 C 19.79295349121094 -166.5025177001953 17.80036544799805 -164.3486938476562 17.80036544799805 -162.0723571777344 L 17.80036544799805 -161.5970153808594 C 17.80036544799805 -161.3268432617188 17.58573532104492 -161.1055297851562 17.31569290161133 -161.0972442626953 L 15.42674255371094 -161.039306640625 C 14.77679443359375 -161.0247650146484 14.22202301025391 -161.0171356201172 13.81825256347656 -161.0171356201172 C 13.26961517333984 -161.0171356201172 13.08242034912109 -161.0309906005859 12.99270629882812 -161.0420532226562 L 12.51398468017578 -161.0874176025391 C 12.26424407958984 -161.111083984375 12.07069396972656 -161.3161468505859 12.06149291992188 -161.5668487548828 L 12.01033782958984 -162.9549560546875 L 11.6187744140625 -162.9396514892578 C 11.45521545410156 -162.931884765625 11.27573394775391 -162.9276733398438 11.10389709472656 -162.9276733398438 C 10.82832336425781 -162.9276733398438 10.45670318603516 -162.93798828125 10.2471923828125 -162.9869079589844 L 9.890106201171875 -163.0673675537109 C 9.662025451660156 -163.1187591552734 9.5 -163.3213348388672 9.5 -163.5551452636719 L 9.5 -165.3861694335938 C 9.5 -165.6623077392578 9.723861694335938 -165.8861694335938 10 -165.8861694335938 L 10.31114196777344 -165.8861694335938 L 10.31114196777344 -171.8754119873047 C 10.31114196777344 -172.00830078125 10.36404418945312 -172.1357269287109 10.45815277099609 -172.2295379638672 C 10.55226898193359 -172.3233337402344 10.68000793457031 -172.375 10.81275177001953 -172.3754119873047 L 21.67047500610352 -172.3405303955078 L 32.04498291015625 -172.3185272216797 L 32.07334518432617 -174.4662475585938 L 32.09637451171875 -177.0943908691406 C 32.09877777099609 -177.3689117431641 32.32207489013672 -177.5900115966797 32.59632873535156 -177.5900115966797 Z M 45.68210983276367 -175.3055419921875 L 43.39434432983398 -175.3165283203125 L 41.44023513793945 -175.3165130615234 L 41.44023513793945 -171.4524383544922 L 44.95823287963867 -171.4726104736328 L 48.61210250854492 -171.5044097900391 L 48.77571105957031 -171.9810180664062 C 48.85286712646484 -172.2064208984375 48.91040802001953 -172.4014282226562 48.94729614257812 -172.5388488769531 C 48.67447662353516 -172.7828369140625 48.10071563720703 -173.2799224853516 47.34074401855469 -173.9144439697266 L 45.68210983276367 -175.3055419921875 Z M 38.47029495239258 -175.3165130615234 L 35.41453170776367 -175.3165130615234 L 35.41453170776367 -171.4495697021484 L 38.47029495239258 -171.4495697021484 L 38.47029495239258 -175.3165130615234 Z"/></g><g class="b" transform="translate(-689.028 2.225)"><path class="c" d="M702.61,8.806a4.353,4.353,0,0,1,3.662,3.638,4.409,4.409,0,0,1-2.526,4.67,3.25,3.25,0,0,1-1.738.3,3.192,3.192,0,0,1-1.854-.359,4.357,4.357,0,0,1-1.831-6.327A4.3,4.3,0,0,1,702.61,8.806Zm-1.541,1.541a2.9,2.9,0,1,0,3.673,3.615A2.914,2.914,0,0,0,701.068,10.347Z"/><path class="d" d="M 701.9696655273438 8.763551712036133 C 700.4617919921875 8.763551712036133 699.1155395507812 9.478937149047852 698.3223266601562 10.72915935516357 C 696.8856811523438 12.97757911682129 697.7317504882812 15.90885925292969 700.1533203125 17.05641937255859 C 700.83740234375 17.38040924072266 701.0111694335938 17.41529083251953 702.0073852539062 17.41529083251953 C 702.9462280273438 17.41529083251953 703.2010498046875 17.36917877197266 703.7455444335938 17.11436080932617 C 705.5535278320312 16.25650024414062 706.5385131835938 14.44912910461426 706.2718505859375 12.4442892074585 C 706.0283203125 10.61386966705322 704.4520263671875 9.037670135498047 702.60986328125 8.805910110473633 C 702.39404296875 8.777505874633789 702.1802978515625 8.763551712036133 701.9696655273438 8.763551712036133 M 701.96435546875 15.98906707763672 C 701.5259399414062 15.98906707763672 701.0778198242188 15.88947486877441 700.651123046875 15.67768955230713 C 698.3915405273438 14.5537691116333 698.6581420898438 11.17020988464355 701.0684814453125 10.34721946716309 C 703.270263671875 9.605756759643555 705.4725341796875 11.77269649505615 704.7417602539062 13.96254920959473 C 704.3240966796875 15.22325706481934 703.1806640625 15.98906707763672 701.96435546875 15.98906707763672 M 701.9696655273438 8.2635498046875 C 702.2025756835938 8.2635498046875 702.43994140625 8.279239654541016 702.6751098632812 8.310178756713867 C 704.7328491210938 8.569059371948242 706.4933471679688 10.31813907623291 706.7674560546875 12.37834930419922 C 706.9121704101562 13.46624946594238 706.7250366210938 14.52761936187744 706.2262573242188 15.44771957397461 C 705.728271484375 16.36634063720703 704.944580078125 17.0988597869873 703.9598999023438 17.56608963012695 C 703.3388671875 17.85673904418945 703.0108032226562 17.91529083251953 702.0073852539062 17.91529083251953 C 700.9454956054688 17.91529083251953 700.6942138671875 17.86584091186523 699.9393310546875 17.50830078125 C 698.6531372070312 16.89878845214844 697.6942749023438 15.77933979034424 697.3084716796875 14.43691921234131 C 696.92431640625 13.10006904602051 697.1402587890625 11.65051937103271 697.9010009765625 10.45993995666504 C 698.7862548828125 9.064599990844727 700.26953125 8.2635498046875 701.9696655273438 8.2635498046875 Z M 701.96435546875 15.48906993865967 C 703.0081176757812 15.48906993865967 703.9335327148438 14.81241989135742 704.26708984375 13.80531978607178 C 704.4998168945312 13.10794925689697 704.3786010742188 12.35535907745361 703.9349365234375 11.73946952819824 C 703.4655151367188 11.08792972564697 702.7288208007812 10.69890975952148 701.9641723632812 10.69883918762207 C 701.7164916992188 10.69883918762207 701.4689331054688 10.73996925354004 701.22802734375 10.82106971740723 C 700.111572265625 11.20228958129883 699.6571655273438 12.18096923828125 699.6047973632812 12.9695291519165 C 699.55419921875 13.73200988769531 699.8610229492188 14.72624969482422 700.873779296875 15.23000907897949 C 701.2200317382812 15.4018497467041 701.5870361328125 15.48906993865967 701.96435546875 15.48906993865967 Z"/></g><g class="b" transform="translate(-38.591 1.463)"><path class="c" d="M89.369,9.764a4.539,4.539,0,0,1,2.549,2.5,4.836,4.836,0,0,1-.012,3.21,4.671,4.671,0,0,1-2.19,2.318,4.8,4.8,0,0,1-3.754,0,4.338,4.338,0,0,1-1.194-7.011,5.469,5.469,0,0,1,1.194-.857,3.318,3.318,0,0,1,1.761-.348A3.684,3.684,0,0,1,89.369,9.764Zm-2.758,1.472a2.91,2.91,0,0,0-.683,4.786,2.914,2.914,0,0,0,4.067-.255,2.871,2.871,0,0,0-2.352-4.786A3.721,3.721,0,0,0,86.611,11.236Z"/><path class="d" d="M 88.13578796386719 9.572555541992188 C 88.01199340820312 9.572555541992188 87.87572479248047 9.574821472167969 87.72383117675781 9.578907012939453 C 86.78556060791016 9.601968765258789 86.51892852783203 9.648677825927734 85.96258544921875 9.926548004150391 C 85.59188842773438 10.11159706115723 85.05861663818359 10.49412727355957 84.76890563964844 10.78381729125977 C 82.62516021728516 12.91576766967773 83.22760772705078 16.45009803771973 85.96258544921875 17.79453659057617 C 86.66909027099609 18.14217758178711 86.81984710693359 18.17705917358398 87.83970642089844 18.17705917358398 C 88.85955047607422 18.17705917358398 89.00972747802734 18.14217758178711 89.71682739257812 17.79453659057617 C 90.67814636230469 17.31919860839844 91.54722595214844 16.40398788452148 91.90670013427734 15.47694778442383 C 92.27797698974609 14.53867816925049 92.27797698974609 13.0783576965332 91.91852569580078 12.26719760894775 C 91.3509521484375 11.02681732177734 90.53921508789062 10.22747802734375 89.36918640136719 9.763967514038086 C 89.01649475097656 9.621431350708008 88.71065521240234 9.572555541992188 88.13578796386719 9.572555541992188 M 87.86275482177734 16.72915840148926 C 87.01673126220703 16.72915840148926 86.5419921875 16.55533790588379 85.92771148681641 16.02205657958984 C 84.38639831542969 14.66637802124023 84.74526214599609 12.11702823638916 86.61114501953125 11.23610877990723 C 86.84291076660156 11.1202278137207 87.31824493408203 11.01557731628418 87.64223480224609 10.98128700256348 C 90.22634887695312 10.78444862365723 91.72106170654297 13.80910491943359 89.99468994140625 15.76723766326904 C 89.39225006103516 16.45127868652344 88.78978729248047 16.72915840148926 87.86275482177734 16.72915840148926 M 88.13578796386719 9.07255744934082 C 88.76853179931641 9.07255744934082 89.14031982421875 9.132177352905273 89.55654144287109 9.300397872924805 C 90.83293151855469 9.806028366088867 91.75531005859375 10.70883750915527 92.37319183349609 12.05914783477783 C 92.37401580810547 12.06096839904785 92.37484741210938 12.06279754638672 92.37565612792969 12.0646276473999 C 92.78900909423828 12.99742794036865 92.78720092773438 14.6107177734375 92.37162017822266 15.66091823577881 C 91.97032928466797 16.69585800170898 91.01475524902344 17.71053695678711 89.93844604492188 18.24273681640625 C 89.15400695800781 18.6284065246582 88.91874694824219 18.67705917358398 87.83970642089844 18.67705917358398 C 86.760009765625 18.67705917358398 86.52472686767578 18.62839889526367 85.74183654785156 18.24316787719727 C 84.28232574462891 17.52571868896484 83.2969970703125 16.21259689331055 83.03866577148438 14.64059829711914 C 82.78361511230469 13.08860778808594 83.28575897216797 11.55363845825195 84.41632843017578 10.42928886413574 C 84.74032592773438 10.10531806945801 85.32184600830078 9.687557220458984 85.73926544189453 9.47918701171875 C 86.38759613037109 9.155378341674805 86.74227142333984 9.102878570556641 87.7115478515625 9.079057693481445 C 87.87358856201172 9.074697494506836 88.01274871826172 9.07255744934082 88.13578796386719 9.07255744934082 Z M 87.86275482177734 16.22915840148926 C 88.63462829589844 16.22915840148926 89.11074829101562 16.01439666748047 89.61946868896484 15.43677806854248 C 90.26739501953125 14.7018575668335 90.41759490966797 13.73929786682129 90.02143859863281 12.86173820495605 C 89.63453674316406 12.0047082901001 88.81430816650391 11.47224807739258 87.88083648681641 11.47213745117188 C 87.81709289550781 11.47213745117188 87.75213623046875 11.47454833984375 87.68735504150391 11.47931289672852 C 87.38387298583984 11.51229476928711 86.98727416992188 11.6070671081543 86.83475494384766 11.68331718444824 C 86.83139038085938 11.68499755859375 86.82801055908203 11.68664741516113 86.82460784912109 11.68824768066406 C 86.10060882568359 12.03006839752197 85.600341796875 12.71626758575439 85.48641204833984 13.52383804321289 C 85.37290954589844 14.32830810546875 85.66133117675781 15.12187767028809 86.25792694091797 15.6466178894043 C 86.77790832519531 16.09801864624023 87.13842010498047 16.22915840148926 87.86275482177734 16.22915840148926 Z"/></g></g></g></svg>