<svg xmlns="http://www.w3.org/2000/svg" xmlns:xlink="http://www.w3.org/1999/xlink" width="664.563" height="12" viewBox="0 0 664.563 12"><defs><style>.a,.c,.d{fill:none;}.b{clip-path:url(#a);}.c{stroke:#707070;}.d{stroke:#acacac;stroke-width:0.5px;}</style><clipPath id="a"><rect class="a" width="664.563" height="12"/></clipPath></defs><g class="b"><g transform="translate(-345 -157.5)"><line class="c" y2="12" transform="translate(345.5 157.5)"/><line class="d" y1="6" transform="translate(367.5 163.5)"/><line class="d" y1="6" transform="translate(390.5 163.5)"/><line class="d" y1="6" transform="translate(413.5 163.5)"/></g><g transform="translate(-254 -157.5)"><line class="c" y2="12" transform="translate(345.5 157.5)"/><line class="d" y1="6" transform="translate(367.5 163.5)"/><line class="d" y1="6" transform="translate(390.5 163.5)"/><line class="d" y1="6" transform="translate(413.5 163.5)"/></g><g transform="translate(-163 -157.5)"><line class="c" y2="12" transform="translate(345.5 157.5)"/><line class="d" y1="6" transform="translate(367.5 163.5)"/><line class="d" y1="6" transform="translate(390.5 163.5)"/><line class="d" y1="6" transform="translate(413.5 163.5)"/></g><g transform="translate(-72 -157.5)"><line class="c" y2="12" transform="translate(345.5 157.5)"/><line class="d" y1="6" transform="translate(367.5 163.5)"/><line class="d" y1="6" transform="translate(390.5 163.5)"/><line class="d" y1="6" transform="translate(413.5 163.5)"/></g><g transform="translate(19 -157.5)"><line class="c" y2="12" transform="translate(345.5 157.5)"/><line class="d" y1="6" transform="translate(367.5 163.5)"/><line class="d" y1="6" transform="translate(390.5 163.5)"/><line class="d" y1="6" transform="translate(413.5 163.5)"/></g><g transform="translate(110 -157.5)"><line class="c" y2="12" transform="translate(345.5 157.5)"/><line class="d" y1="6" transform="translate(367.5 163.5)"/><line class="d" y1="6" transform="translate(390.5 163.5)"/><line class="d" y1="6" transform="translate(413.5 163.5)"/></g><g transform="translate(201 -157.5)"><line class="c" y2="12" transform="translate(345.5 157.5)"/><line class="d" y1="6" transform="translate(367.5 163.5)"/><line class="d" y1="6" transform="translate(390.5 163.5)"/><line class="d" y1="6" transform="translate(413.5 163.5)"/></g><g transform="translate(292 -157.5)"><line class="c" y2="12" transform="translate(345.5 157.5)"/><line class="d" y1="6" transform="translate(367.5 163.5)"/><line class="d" y1="6" transform="translate(390.5 163.5)"/><line class="d" y1="6" transform="translate(413.5 163.5)"/></g></g></svg>