<svg xmlns="http://www.w3.org/2000/svg" width="58.941" height="20.691" viewBox="0 0 58.941 20.691"><defs><style>.a{isolation:isolate;}.b{fill:none;stroke-linejoin:round;}.c,.d{stroke:none;}.d{fill:#1c1c1c;}</style></defs><g class="a" transform="translate(0.499 0.5)"><g transform="translate(0 0)"><g class="b" transform="translate(-10 177.525)"><path class="c" d="M39.306-177.454a23.074,23.074,0,0,1,4.634.943,41.264,41.264,0,0,1,8.616,4.658l1.316.908,1.362.116c3.936.349,8.78,1.735,10.654,3.074a2.757,2.757,0,0,1,1.013,1.432c0,.186.116.326.407.454.489.245.687.757.617,1.642-.047.5-.116.675-.361.862-.291.233-.3.3-.338,1.49a2.751,2.751,0,0,1-.077,1,1.069,1.069,0,0,1-.415.54s-1.4.046-2.589,0H61.953v-1.619a3.63,3.63,0,0,0-.431-2.259,5.405,5.405,0,0,0-2.62-2.62,3.612,3.612,0,0,0-2.248-.431,4.526,4.526,0,0,0-2,.268,5.753,5.753,0,0,0-3.12,3.132,6.617,6.617,0,0,0-.256,3.028l.116.5H26.94l.07-.268a5.523,5.523,0,0,0-1.292-4.983,5.225,5.225,0,0,0-3.994-1.735,5.361,5.361,0,0,0-5.31,4.273,5.17,5.17,0,0,0-.14,1.3l.035.513-1.4-.082c-.769-.035-1.956-.1-2.655-.151l-1.247-.071v-.315a3.383,3.383,0,0,0-.361-1.025,6.345,6.345,0,0,1-.629-3,1.77,1.77,0,0,1,.419-.908l.338-.4-.023-2.306a11.034,11.034,0,0,1,.116-2.574c.186-.338.873-.466,3.051-.559l1.8-.082,2.562-1.2a67.387,67.387,0,0,1,6.5-2.795,11.426,11.426,0,0,1,3.284-.582C30.5-177.5,37.641-177.605,39.306-177.454Zm-3.19,1.618a21.681,21.681,0,0,0,.454,2.643c.291,1.4.524,2.55.524,2.562a38.3,38.3,0,0,0,5.321.221l4.11.07v-2.445l-.861-.629a12.881,12.881,0,0,0-6.357-2.34A10.142,10.142,0,0,0,36.116-175.836Zm-7.312.128c-1.712.2-1.781.245-2.259,1.234a2.939,2.939,0,0,0-.372,2.026,5.894,5.894,0,0,0,.093,1.2c.07.07,8.616.594,8.663.524.023-.012-.047-1.106-.14-2.422-.128-1.887-.2-2.433-.349-2.608-.186-.21-.338-.21-2.468-.14C30.724-175.859,29.292-175.766,28.8-175.708Zm-3.819.7a20.885,20.885,0,0,0-4.75,3.447c-.116.233-.082.256.582.326.4.035,1.234.07,1.887.07h1.176l.967-2.014c.524-1.094.955-2.038.955-2.1C25.8-175.4,25.729-175.382,24.984-175.009Z"/><path class="d" d="M 36.30501174926758 -177.5252838134766 C 33.50500106811523 -177.5252838134766 29.7137451171875 -177.4291687011719 28.07026672363281 -177.2801971435547 C 26.28893661499023 -177.1288452148438 25.79940414428711 -177.0354309082031 24.78666687011719 -176.6978454589844 C 23.27256393432617 -176.1734313964844 21.50305557250977 -175.4166717529297 18.28922653198242 -173.9031372070312 L 15.72749328613281 -172.7035522460938 L 13.92251586914062 -172.6219482421875 C 11.74507141113281 -172.5291442871094 11.05808258056641 -172.4008331298828 10.87185668945312 -172.0632476806641 C 10.7784423828125 -171.8882293701172 10.74355316162109 -171.0617065429688 10.75538635253906 -169.4896392822266 L 10.7784423828125 -167.1838836669922 L 10.44085693359375 -166.7883453369141 C 10.21974182128906 -166.5435943603516 10.06838226318359 -166.2059936523438 10.02168273925781 -165.8802337646484 C 9.917045593261719 -165.1701812744141 10.20791625976562 -163.7612915039062 10.65074157714844 -162.8762359619141 C 10.84821319580078 -162.4806976318359 11.01138305664062 -162.0260314941406 11.01138305664062 -161.8516235351562 L 11.01138305664062 -161.5370941162109 L 12.25826263427734 -161.4661560058594 C 12.95648193359375 -161.4194488525391 14.14423370361328 -161.3496856689453 14.91281509399414 -161.3147888183594 L 16.30984497070312 -161.2332153320312 L 16.27496337890625 -161.7458038330078 C 16.25131607055664 -162.0254516601562 16.30984497070312 -162.6078186035156 16.41448593139648 -163.050048828125 C 17.0086555480957 -165.6236419677734 19.1275634765625 -167.3234100341797 21.72417449951172 -167.3234100341797 C 23.30744552612305 -167.3234100341797 24.63472366333008 -166.7528839111328 25.71783447265625 -165.5887603759766 C 26.92863464355469 -164.2963409423828 27.44121551513672 -162.3287353515625 27.01022338867188 -160.6053314208984 L 26.94045639038086 -160.3375091552734 L 51.39189529418945 -160.3375091552734 L 51.27542495727539 -160.8382720947266 C 51.10042572021484 -161.5601501464844 51.22871398925781 -163.0861206054688 51.53141784667969 -163.8659362792969 C 52.03217315673828 -165.2050628662109 53.26603698730469 -166.4395294189453 54.65184783935547 -166.9982452392578 C 55.21113586425781 -167.2193450927734 55.53688430786133 -167.2660675048828 56.65487670898438 -167.2660675048828 C 57.9590950012207 -167.2660675048828 58.01703643798828 -167.2542266845703 58.90267562866211 -166.8350677490234 C 60.10165405273438 -166.2532958984375 60.93999481201172 -165.4149322509766 61.52234649658203 -164.2153472900391 C 61.94151306152344 -163.3302917480469 61.95333480834961 -163.2717590332031 61.95333480834961 -161.9562683105469 L 61.95333480834961 -160.3375091552734 L 64.146484375 -160.3375091552734 C 65.33423614501953 -160.2913513183594 66.7353515625 -160.3374938964844 66.7353515625 -160.3375091552734 C 66.7353515625 -160.3375091552734 67.0087890625 -160.4936370849609 67.15038299560547 -160.8779296875 C 67.2919921875 -161.2622222900391 67.22756195068359 -161.8746795654297 67.22756195068359 -161.8746795654297 C 67.26244354248047 -163.0624694824219 67.27426147460938 -163.1322326660156 67.56514739990234 -163.3651733398438 C 67.80930328369141 -163.552001953125 67.87907409667969 -163.7264099121094 67.92577362060547 -164.2271728515625 C 67.99554443359375 -165.1116485595703 67.7974853515625 -165.6242370605469 67.30855560302734 -165.8690032958984 C 67.01767730712891 -165.9972991943359 66.90120697021484 -166.1368255615234 66.90120697021484 -166.3230590820312 C 66.90120697021484 -166.6488189697266 66.34251403808594 -167.4404754638672 65.88786315917969 -167.7549896240234 C 64.01371765136719 -169.0941162109375 59.16989517211914 -170.4793548583984 55.23419570922852 -170.8287658691406 L 53.87202453613281 -170.9452362060547 L 52.55599594116211 -171.8533477783203 C 49.83167266845703 -173.7630310058594 46.24537658691406 -175.7075500488281 43.93963623046875 -176.5110168457031 C 42.76371383666992 -176.9183654785156 40.90079498291016 -177.2908325195312 39.30569458007812 -177.4540252685547 C 38.7655143737793 -177.5031433105469 37.64986801147461 -177.5252838134766 36.30501174926758 -177.5252838134766 M 34.82511901855469 -170.7171478271484 C 33.85136795043945 -170.7171478271484 26.33071517944336 -171.1819152832031 26.26528549194336 -171.2473449707031 C 26.22981643676758 -171.2710113525391 26.1837043762207 -171.8178863525391 26.171875 -172.4469604492188 C 26.12517547607422 -173.5649566650391 26.13700485229492 -173.6228942871094 26.54434585571289 -174.4730834960938 C 27.02204513549805 -175.4627838134766 27.09180450439453 -175.5094909667969 28.80337524414062 -175.7075500488281 C 29.29230499267578 -175.7660827636719 30.72423553466797 -175.8589172363281 31.97109603881836 -175.8926086425781 C 34.10183334350586 -175.9629364013672 34.2531852722168 -175.9629516601562 34.43941497802734 -175.7530822753906 C 34.59076690673828 -175.5786743164062 34.66052627563477 -175.0317840576172 34.78881454467773 -173.1451873779297 C 34.88164520263672 -171.8296966552734 34.9514045715332 -170.7353515625 34.9283447265625 -170.7235260009766 C 34.92544174194336 -170.7191925048828 34.88969802856445 -170.7171478271484 34.82511901855469 -170.7171478271484 M 46.5244255065918 -170.3398284912109 L 42.41431427001953 -170.4095916748047 C 38.82859420776367 -170.467529296875 37.09337615966797 -170.5372924804688 37.09337615966797 -170.6307067871094 C 37.09337615966797 -170.6425323486328 36.86044311523438 -171.7954254150391 36.56956481933594 -173.1924896240234 C 36.27869415283203 -174.5901336669922 36.08062362670898 -175.7773132324219 36.11550521850586 -175.8358459472656 C 36.20832061767578 -175.9872131347656 37.87378692626953 -175.9404907226562 39.30569458007812 -175.7542572021484 C 42.03001403808594 -175.3936157226562 43.89293670654297 -174.7066040039062 45.66302490234375 -173.4141845703125 L 46.5244255065918 -172.7851409912109 L 46.5244255065918 -170.3398284912109 M 23.87855529785156 -171.1669464111328 L 22.70263671875 -171.1669464111328 C 22.0505256652832 -171.1669464111328 21.21159362792969 -171.2018280029297 20.81607437133789 -171.2367095947266 C 20.15214538574219 -171.3064727783203 20.11725616455078 -171.3295288085938 20.23372650146484 -171.5624694824219 C 20.4666633605957 -172.0632476806641 23.49367523193359 -174.2637939453125 24.98413467407227 -175.0093078613281 C 25.72906875610352 -175.3817749023438 25.79883193969727 -175.4048767089844 25.80001449584961 -175.2771453857422 C 25.80001449584961 -175.2192077636719 25.36901473999023 -174.2756042480469 24.84519577026367 -173.1812591552734 L 23.87855529785156 -171.1669464111328 M 36.30501556396484 -178.0252838134766 C 37.32668685913086 -178.0252838134766 38.68446350097656 -178.0125732421875 39.3509635925293 -177.9519805908203 C 39.35283660888672 -177.9518127441406 39.35471343994141 -177.9516143798828 39.35658645629883 -177.9514312744141 C 41.0139045715332 -177.7818756103516 42.92146682739258 -177.3928833007812 44.10329437255859 -176.9834747314453 C 46.45139312744141 -176.1652526855469 50.04493713378906 -174.2241516113281 52.84299468994141 -172.2627868652344 L 54.04679870605469 -171.4321136474609 L 55.27679443359375 -171.3269500732422 C 59.35054397583008 -170.9652862548828 64.23751831054688 -169.5467071533203 66.17568206787109 -168.1638488769531 C 66.65320587158203 -167.8317108154297 67.35044097900391 -166.9615020751953 67.39857482910156 -166.3845062255859 C 67.41976165771484 -166.3707885742188 67.45481109619141 -166.3509674072266 67.51033782958984 -166.3264770507812 C 67.51776123046875 -166.3231964111328 67.52511596679688 -166.3197326660156 67.53237915039062 -166.3161163330078 C 68.55185699462891 -165.8057556152344 68.45579528808594 -164.5880126953125 68.42422485351562 -164.1878509521484 C 68.42403411865234 -164.1854858398438 68.42383575439453 -164.18310546875 68.42361450195312 -164.1807403564453 C 68.37132263183594 -163.6199645996094 68.27169036865234 -163.2783050537109 67.87368011474609 -162.9716796875 C 67.82477569580078 -162.932373046875 67.80580139160156 -162.91455078125 67.79878997802734 -162.9064788818359 C 67.75617980957031 -162.8106994628906 67.74168395996094 -162.3475799560547 67.72825622558594 -161.8910369873047 C 67.74249267578125 -161.7289123535156 67.77976226806641 -161.1398315429688 67.61954498291016 -160.7050476074219 C 67.42069244384766 -160.1653747558594 67.0274658203125 -159.9285430908203 66.98328399658203 -159.9033050537109 C 66.91260528564453 -159.8629455566406 66.83314514160156 -159.8404541015625 66.75180816650391 -159.8377838134766 C 66.72603607177734 -159.8369293212891 66.11198425292969 -159.8170166015625 65.34556579589844 -159.8170166015625 C 64.89781188964844 -159.8170166015625 64.49126434326172 -159.8238983154297 64.13691711425781 -159.8375091552734 L 61.95333480834961 -159.8375091552734 C 61.67719268798828 -159.8375091552734 61.45333480834961 -160.0613708496094 61.45333480834961 -160.3375091552734 L 61.45333480834961 -161.9562683105469 C 61.45333480834961 -163.1929168701172 61.45333480834961 -163.1929168701172 61.07046508789062 -164.0013427734375 C 60.53986358642578 -165.0942535400391 59.78102493286133 -165.8531341552734 58.68440246582031 -166.3852233886719 C 57.87967681884766 -166.7660675048828 57.87967681884766 -166.7660675048828 56.65487670898438 -166.7660675048828 C 55.54542541503906 -166.7660675048828 55.30537414550781 -166.7189483642578 54.83566284179688 -166.5332641601562 C 53.58817291259766 -166.0303039550781 52.44724273681641 -164.8874969482422 51.9997444152832 -163.6908111572266 C 51.99901580810547 -163.6888732910156 51.99827575683594 -163.6869354248047 51.99753570556641 -163.6850128173828 C 51.73413467407227 -163.0064544677734 51.61052703857422 -161.5782165527344 51.7613525390625 -160.9560699462891 L 51.8788948059082 -160.4507751464844 C 51.91344451904297 -160.3022155761719 51.87830352783203 -160.1460266113281 51.78345489501953 -160.0265655517578 C 51.68860626220703 -159.9071350097656 51.54441452026367 -159.8375091552734 51.39189529418945 -159.8375091552734 L 26.94045639038086 -159.8375091552734 C 26.78562545776367 -159.8375091552734 26.6395263671875 -159.9092407226562 26.54483413696289 -160.0317535400391 C 26.45015335083008 -160.1542663574219 26.41757583618164 -160.3137359619141 26.45660400390625 -160.4635620117188 L 26.52637481689453 -160.7313842773438 C 26.91715621948242 -162.2940826416016 26.45703506469727 -164.0684051513672 25.35294342041016 -165.2469177246094 C 24.36556625366211 -166.3081512451172 23.1789665222168 -166.8234100341797 21.72417449951172 -166.8234100341797 C 19.33960342407227 -166.8234100341797 17.4466552734375 -165.2981262207031 16.90166473388672 -162.9375762939453 C 16.80342483520508 -162.5223388671875 16.75531387329102 -161.9993133544922 16.77318572998047 -161.7879333496094 C 16.77341461181641 -161.7852020263672 16.77362442016602 -161.7824859619141 16.7738151550293 -161.7797546386719 L 16.80869674682617 -161.2671661376953 C 16.81843566894531 -161.1239166259766 16.76613616943359 -160.9833831787109 16.66509628295898 -160.8813629150391 C 16.56406021118164 -160.7793731689453 16.42411422729492 -160.7257537841797 16.28070449829102 -160.7340698242188 L 14.88726043701172 -160.8154296875 C 14.12021255493164 -160.8502960205078 12.93186187744141 -160.9199829101562 12.22489166259766 -160.96728515625 L 10.98298645019531 -161.0379028320312 C 10.71830749511719 -161.0529479980469 10.51138305664062 -161.27197265625 10.51138305664062 -161.5370941162109 L 10.51138305664062 -161.8436279296875 C 10.50063323974609 -161.9357452392578 10.39105224609375 -162.2770233154297 10.20339202880859 -162.6528930664062 C 9.716621398925781 -163.6257781982422 9.406791687011719 -165.1372680664062 9.527023315429688 -165.953125 C 9.588218688964844 -166.3799743652344 9.784111022949219 -166.8046722412109 10.06460571289062 -167.1177062988281 L 10.27660369873047 -167.3660888671875 L 10.25541687011719 -169.4846343994141 C 10.23832702636719 -171.7552032470703 10.32095336914062 -172.0929565429688 10.43074798583984 -172.2986755371094 C 10.43183135986328 -172.3007049560547 10.43293762207031 -172.302734375 10.43405151367188 -172.3047637939453 C 10.75985717773438 -172.8953399658203 11.54547882080078 -173.0210876464844 13.90122222900391 -173.1215057373047 L 15.60554885864258 -173.1985473632812 L 18.07718658447266 -174.35595703125 C 21.23739624023438 -175.8442230224609 23.07295608520508 -176.6334228515625 24.62302398681641 -177.1703033447266 C 24.6248664855957 -177.1709442138672 24.62670516967773 -177.1715850830078 24.62855529785156 -177.1721954345703 C 25.70340347290039 -177.5304870605469 26.24349594116211 -177.6267852783203 28.02793502807617 -177.7783966064453 C 29.73162460327148 -177.9328460693359 33.57509613037109 -178.0252838134766 36.30501556396484 -178.0252838134766 Z M 34.05590438842773 -175.4152679443359 C 33.99928665161133 -175.4242553710938 33.87718963623047 -175.4347381591797 33.61581420898438 -175.4347381591797 C 33.27996444702148 -175.4347381591797 32.77663421630859 -175.4189300537109 31.98758316040039 -175.3928833007812 C 30.70113372802734 -175.3581085205078 29.30135345458984 -175.2635955810547 28.8628044128418 -175.2110900878906 C 28.12579345703125 -175.1258087158203 27.6641845703125 -175.0657348632812 27.45216369628906 -174.9490966796875 C 27.30683517456055 -174.869140625 27.21950531005859 -174.7216186523438 26.99463653564453 -174.2557373046875 C 26.62866592407227 -173.4918823242188 26.62866592407227 -173.4918823242188 26.67143630981445 -172.4678344726562 C 26.67159652709961 -172.4640045166016 26.67171478271484 -172.4601745605469 26.67178344726562 -172.4563598632812 C 26.67763519287109 -172.1453094482422 26.69118881225586 -171.8856048583984 26.70508193969727 -171.699951171875 C 28.03006744384766 -171.5886535644531 32.80835342407227 -171.2871856689453 34.41392135620117 -171.2274932861328 C 34.39518356323242 -171.5624542236328 34.35890197753906 -172.1343536376953 34.29005432128906 -173.1099853515625 C 34.23844146728516 -173.8690032958984 34.15394973754883 -175.1115112304688 34.05590438842773 -175.4152679443359 Z M 46.0244255065918 -172.5311431884766 L 45.36814498901367 -173.0104064941406 C 43.66070556640625 -174.2570648193359 41.88527679443359 -174.9084167480469 39.24007415771484 -175.2585754394531 C 38.45784378051758 -175.3603210449219 37.53375625610352 -175.4261627197266 36.88696670532227 -175.4261627197266 C 36.79929351806641 -175.4261627197266 36.72445678710938 -175.4249572753906 36.66078948974609 -175.4230194091797 C 36.72748565673828 -174.9938812255859 36.86129379272461 -174.2447357177734 37.05907440185547 -173.2943572998047 C 37.31614685058594 -172.0596771240234 37.44953155517578 -171.4065399169922 37.51874160766602 -171.0563201904297 C 38.02320098876953 -171.0130767822266 39.32659149169922 -170.9595489501953 42.42239379882812 -170.9095153808594 L 46.0244255065918 -170.848388671875 L 46.0244255065918 -172.5311431884766 Z M 23.56390762329102 -171.6669464111328 L 24.39441680908203 -173.3975830078125 C 24.57369232177734 -173.7721252441406 24.7281608581543 -174.0995635986328 24.85683822631836 -174.3758850097656 C 23.62883758544922 -173.6918792724609 21.84963989257812 -172.4057006835938 21.06097793579102 -171.7196655273438 C 21.48146057128906 -171.6920776367188 22.15901947021484 -171.6669464111328 22.70263671875 -171.6669464111328 L 23.56390762329102 -171.6669464111328 Z"/></g><g class="b" transform="translate(-89.427 -5.22)"><path class="c" d="M137.583,16.958a4.7,4.7,0,0,1,2.329,2.341,4.884,4.884,0,0,1,0,3.051,4.541,4.541,0,0,1-2.049,2.212,2.9,2.9,0,0,1-1.781.349,3.313,3.313,0,0,1-1.758-.3,4,4,0,0,1-1.991-1.945,3.1,3.1,0,0,1-.384-1.887,2.882,2.882,0,0,1,.372-1.816,4.488,4.488,0,0,1,2.2-2.014A4.833,4.833,0,0,1,137.583,16.958Zm-2.724,1.363A3.216,3.216,0,0,0,133.45,19.8a3.1,3.1,0,0,0,.571,2.946,3.173,3.173,0,0,0,2.061.827,2.745,2.745,0,0,0,1.945-4.646,3.494,3.494,0,0,0-.838-.605A3.272,3.272,0,0,0,134.859,18.321Z"/><path class="d" d="M 136.0379791259766 16.70345115661621 C 135.4924926757812 16.70345115661621 134.9477844238281 16.78504753112793 134.5204772949219 16.94682884216309 C 133.6709136962891 17.2613582611084 132.7858734130859 18.07606887817383 132.3199920654297 18.96112823486328 C 131.9824066162109 19.61324882507324 131.9475250244141 19.76459884643555 131.9475250244141 20.77736854553223 C 131.9475250244141 21.80254936218262 131.9824066162109 21.95389938354492 132.3318176269531 22.66395950317383 C 132.7746276855469 23.56084823608398 133.4030914306641 24.17749786376953 134.3230285644531 24.60849952697754 C 134.8817138671875 24.86449813842773 135.1264801025391 24.91119956970215 136.0812835693359 24.91119956970215 C 137.0709838867188 24.91119956970215 137.2572174072266 24.87631797790527 137.8626251220703 24.56178855895996 C 138.7358551025391 24.13078880310059 139.5972290039062 23.18778800964355 139.9117736816406 22.34942817687988 C 140.2375335693359 21.46436882019043 140.2375335693359 20.20683860778809 139.9117736816406 19.29871940612793 C 139.5859985351562 18.40182876586914 138.4910888671875 17.3074779510498 137.5829772949219 16.95805931091309 C 137.1485900878906 16.78782653808594 136.5928802490234 16.70345115661621 136.0379791259766 16.70345115661621 M 136.0812835693359 23.57207870483398 C 135.3594055175781 23.57207870483398 134.4394989013672 23.19960784912109 134.0203247070312 22.74554824829102 C 133.3563842773438 22.02366828918457 133.0885620117188 20.64966773986816 133.4497985839844 19.79947853088379 C 133.6827392578125 19.24077796936035 134.3230285644531 18.55376815795898 134.8586578369141 18.32082939147949 C 135.4758911132812 18.02935791015625 136.5702514648438 18.04117584228516 137.1874542236328 18.32082939147949 C 137.4434356689453 18.43729782104492 137.8164978027344 18.71694946289062 138.0258026123047 18.92624855041504 C 139.6794128417969 20.6727180480957 138.4798583984375 23.56025886535645 136.0812835693359 23.57207870483398 M 136.0379791259766 16.20344924926758 C 136.6762390136719 16.20344924926758 137.2897186279297 16.30610847473145 137.7654113769531 16.49252891540527 C 138.8094940185547 16.89425849914551 140.0089416503906 18.1016788482666 140.3817291259766 19.12801933288574 C 140.7505950927734 20.15627861022949 140.7500152587891 21.51951789855957 140.3809967041016 22.52213859558105 C 140.0198059082031 23.48487854003906 139.0566101074219 24.52826118469238 138.0884704589844 25.00790405273438 C 137.3782806396484 25.37637901306152 137.092529296875 25.41119956970215 136.0812835693359 25.41119956970215 C 135.0662536621094 25.41119956970215 134.7538146972656 25.35588836669922 134.11474609375 25.06304931640625 C 133.0874633789062 24.58178901672363 132.3796844482422 23.89035797119141 131.8834838867188 22.88530921936035 C 131.4963836669922 22.09866905212402 131.4475250244141 21.86232948303223 131.4475250244141 20.77736854553223 C 131.4475250244141 19.6955394744873 131.4955749511719 19.46606826782227 131.8759613037109 18.73126792907715 C 132.4000244140625 17.73563957214355 133.3923797607422 16.83130836486816 134.3468780517578 16.47792816162109 C 134.8131561279297 16.30138778686523 135.4149475097656 16.20344924926758 136.0379791259766 16.20344924926758 Z M 137.6674652099609 19.2750301361084 C 137.4819030761719 19.09096145629883 137.1625518798828 18.85881996154785 136.9803924560547 18.77593803405762 C 136.7467041015625 18.67005920410156 136.3835906982422 18.60664939880371 136.009765625 18.60663795471191 C 135.6376647949219 18.60663795471191 135.2959899902344 18.66725921630859 135.0721588134766 18.77294921875 C 135.0675048828125 18.7751579284668 135.0628051757812 18.77728843688965 135.0580596923828 18.77934837341309 C 134.6554718017578 18.95442771911621 134.0981597900391 19.54370880126953 133.9112854003906 19.99188804626465 C 133.6273345947266 20.66020774841309 133.8598175048828 21.83242797851562 134.3883361816406 22.40706825256348 C 134.7149658203125 22.76087951660156 135.5059356689453 23.07184982299805 136.0806884765625 23.07207870483398 C 136.9759521484375 23.06697463989258 137.7510681152344 22.55109405517578 138.1039428710938 21.72538948059082 C 138.3865661621094 21.06413459777832 138.4198455810547 20.07391929626465 137.6674652099609 19.2750301361084 Z"/></g><g class="b" transform="translate(-714.247 -5.671)"><path class="c" d="M727.275,17.3a4.091,4.091,0,0,1,2.83,4.04A3.231,3.231,0,0,1,729.732,23a4.232,4.232,0,0,1-2.014,2.061,3.243,3.243,0,0,1-1.746.3,3.343,3.343,0,0,1-1.654-.256,4.217,4.217,0,0,1-2.364-2.771,3.6,3.6,0,0,1,.058-2.317,4.054,4.054,0,0,1,1.979-2.387,2.9,2.9,0,0,1,1.805-.442A4.814,4.814,0,0,1,727.275,17.3Zm-2.527,1.5a2.294,2.294,0,0,0-1.176,1.094,2.778,2.778,0,1,0,1.176-1.094Z"/><path class="d" d="M 726.1385498046875 17.1827278137207 C 726.029541015625 17.1827278137207 725.9151611328125 17.1847972869873 725.7962036132812 17.18906784057617 C 724.8413696289062 17.21212959289551 724.6663818359375 17.25882911682129 723.9911499023438 17.63129806518555 C 723.0133056640625 18.16694831848145 722.3375854492188 18.98165893554688 722.0118408203125 20.0180778503418 C 721.7327880859375 20.93801879882812 721.720947265625 21.41513824462891 721.953857421875 22.33507919311523 C 722.2684326171875 23.55772972106934 723.1298217773438 24.55866813659668 724.3175659179688 25.10614967346191 C 724.7603759765625 25.31543922424316 725.0861206054688 25.36214828491211 725.97119140625 25.36214828491211 C 726.9259643554688 25.36214828491211 727.170166015625 25.31543922424316 727.7175903320312 25.05943870544434 C 728.5908203125 24.65149879455566 729.3009033203125 23.91837882995605 729.73193359375 22.99843788146973 C 730.0346069335938 22.34630966186523 730.092529296875 22.07848930358887 730.1043701171875 21.34477806091309 C 730.1043701171875 19.42330932617188 729.1029052734375 17.99135971069336 727.2747802734375 17.30435943603516 C 727.0443725585938 17.2278938293457 726.6484375 17.1827278137207 726.1385498046875 17.1827278137207 M 725.9706420898438 24.02302932739258 C 723.8516845703125 24.02302932739258 722.5006713867188 21.71724891662598 723.572021484375 19.90100860595703 C 723.9096069335938 19.31865882873535 724.1425170898438 19.1093692779541 724.7479858398438 18.80665969848633 C 726.0637817382812 18.15453338623047 727.6123657226562 18.60859870910645 728.3572998046875 19.87795829772949 C 729.4404296875 21.71784782409668 728.101318359375 24.02302932739258 725.9706420898438 24.02302932739258 M 726.1385498046875 16.68272972106934 C 726.526611328125 16.68272972106934 727.0659790039062 16.70824813842773 727.4322509765625 16.82980918884277 C 727.4384765625 16.83185958862305 727.444580078125 16.83402824401855 727.45068359375 16.83631896972656 C 728.4564208984375 17.21426963806152 729.24169921875 17.79920959472656 729.7847290039062 18.57488822937012 C 730.32861328125 19.35177803039551 730.6043701171875 20.28369903564453 730.6043701171875 21.34477806091309 C 730.6043701171875 21.34746932983398 730.6043701171875 21.35015869140625 730.6043090820312 21.35284805297852 C 730.5911865234375 22.16543960571289 730.516845703125 22.49501800537109 730.1854858398438 23.20893859863281 C 729.701904296875 24.24103927612305 728.90087890625 25.05852890014648 727.92919921875 25.51244926452637 C 727.3002319335938 25.80657958984375 726.9891357421875 25.86214828491211 725.97119140625 25.86214828491211 C 725.0677490234375 25.86214828491211 724.6498413085938 25.81622886657715 724.1038818359375 25.55819892883301 C 722.7809448242188 24.94840812683105 721.8192138671875 23.81829833984375 721.4696044921875 22.45966911315918 C 721.2151489257812 21.45440864562988 721.2294921875 20.8746280670166 721.5333862304688 19.87293815612793 C 721.5338745117188 19.8713493347168 721.5343627929688 19.86974906921387 721.5348510742188 19.8681583404541 C 721.8978271484375 18.7132396697998 722.6641235351562 17.78810882568359 723.7509155273438 17.19277954101562 C 724.5068359375 16.77579689025879 724.7542724609375 16.71420478820801 725.7807006835938 16.68930244445801 C 725.9030151367188 16.68494033813477 726.0233764648438 16.68272972106934 726.1385498046875 16.68272972106934 Z M 725.9706420898438 23.52302932739258 C 726.7958984375 23.52302932739258 727.5325927734375 23.09628868103027 727.9412841796875 22.38148880004883 C 728.3453369140625 21.67480850219727 728.3397216796875 20.83373832702637 727.9263916015625 20.13161849975586 C 727.5143432617188 19.42934799194336 726.79296875 19.01043891906738 725.9963989257812 19.01040840148926 C 725.6424560546875 19.01039886474609 725.297119140625 19.09257888793945 724.969970703125 19.25466918945312 C 724.4427490234375 19.51825904846191 724.2891235351562 19.66091918945312 724.0045776367188 20.15176963806152 C 723.59765625 20.84164810180664 723.59521484375 21.67068862915039 723.9962158203125 22.37270927429199 C 724.4075927734375 23.09299850463867 725.1456909179688 23.52302932739258 725.9706420898438 23.52302932739258 Z"/></g></g></g></svg>