<svg xmlns="http://www.w3.org/2000/svg" width="58.941" height="17.922" viewBox="0 0 58.941 17.922"><defs><style>.a{isolation:isolate;}.b{fill:none;stroke-linejoin:round;}.c,.d{stroke:none;}.d{fill:#1c1c1c;}</style></defs><g class="a" transform="translate(0.501 0.5)"><g transform="translate(0 0)"><g class="b" transform="translate(-10 154.115)"><path class="c" d="M37.884-154.086a17.763,17.763,0,0,1,4.128.685c.059.1-.02.176-.157.176-.391,0,.372.469,3.992,2.446l3.385,1.859h1.917a25.053,25.053,0,0,1,6.3.8c2.328.587,2.837.763,2.837,1.057,0,.235,1.135.685,3.033,1.194.313.078-.54-.335-.776-.491-.743-.528,1.167.3,3.124,1.313l2.152,1.115.059,1.781.059,1.8-.763.293a17.734,17.734,0,0,1-5.44.842l-2.426.137.313-.919a7.042,7.042,0,0,0-.274-4.539,7.186,7.186,0,0,0-3.307-2.9,5.813,5.813,0,0,0-7.142,2.954,4.458,4.458,0,0,0-.607,2.583,6.937,6.937,0,0,0,.235,1.859,2.292,2.292,0,0,1,.176.607c-.059.039-24.087-.411-24.166-.469a3.827,3.827,0,0,1,.176-.744,6.2,6.2,0,0,0-1.722-5.518A5,5,0,0,0,19-147.647a4.424,4.424,0,0,0-2.544.469,6.121,6.121,0,0,0-2.7,2.661,4.586,4.586,0,0,0-.528,2.583v1.6l-.489-.118a5.953,5.953,0,0,1-2.348-1.135c-.431-.529-.548-5.166-.137-5.792a9.149,9.149,0,0,0,.646-2.113,3.8,3.8,0,0,1,.626-1.722,2.16,2.16,0,0,1,1.057.157c1.037.333,3.248.059,9.412-1.213,7.612-1.585,8.61-1.722,11.976-1.82C35.693-154.125,37.454-154.125,37.884-154.086Zm-7.338,1.428s-3.081,1.566-3.081,1.878c0,.568,8.129,1.761,13.9,2.231,2.916.254,6.4.274,6.4.059-.02-.254-1.96-1.35-3.741-2.289a21.9,21.9,0,0,0-6.141-2.251C36.1-153.3,30.547-152.657,30.547-152.657Zm30.5,9.747c.783.9.942,2.091.374,2.483-.43.313-.43.313.391.313.45,0,.822-.1.822-.2a9.979,9.979,0,0,0-1.51-3.069C60.463-143.771,60.443-143.595,61.05-142.91Zm4.8,1.328c-.763,1.213-.724,1.566.176,1.389a1.278,1.278,0,0,0,1.233-1.213C67.549-142.971,66.8-143.069,65.847-141.582Z"/><path class="d" d="M 36.41173934936523 -154.1150054931641 C 35.70235061645508 -154.1150054931641 34.83148574829102 -154.1052398681641 33.97037124633789 -154.0857391357422 C 30.60456848144531 -153.9881896972656 29.60659027099609 -153.8510131835938 21.99465942382812 -152.2659606933594 C 15.83061981201172 -150.9942321777344 13.61946105957031 -150.7199096679688 12.58245849609375 -151.0527648925781 C 12.15205383300781 -151.2094421386719 11.66312408447266 -151.2679595947266 11.52594757080078 -151.2094421386719 C 11.36927795410156 -151.1503143310547 11.09552764892578 -150.4266662597656 10.89984893798828 -149.4872131347656 C 10.70474243164062 -148.5873565673828 10.43041229248047 -147.6284027099609 10.25422668457031 -147.3741607666016 C 9.843338012695312 -146.7474670410156 9.96038818359375 -142.1105194091797 10.39140319824219 -141.5819549560547 C 10.68522644042969 -141.2295989990234 11.85939788818359 -140.6620178222656 12.73970794677734 -140.4468078613281 L 13.22866058349609 -140.3291625976562 L 13.22866058349609 -141.9337310791016 C 13.2481689453125 -143.2840881347656 13.32621765136719 -143.6949920654297 13.75660705566406 -144.5167846679688 C 14.36320114135742 -145.6909637451172 15.26361846923828 -146.5517730712891 16.45730209350586 -147.1778717041016 C 17.18154144287109 -147.5692749023438 17.63145065307617 -147.6473083496094 19.00130844116211 -147.6473083496094 C 20.82109069824219 -147.6473083496094 21.66239166259766 -147.3345489501953 22.99322128295898 -146.1603851318359 C 24.36307144165039 -144.9667053222656 25.18428039550781 -142.3446350097656 24.71485137939453 -140.6425018310547 C 24.5977897644043 -140.2511138916016 24.51916122436523 -139.8987426757812 24.53866958618164 -139.8987426757812 C 24.61729431152344 -139.8402252197266 48.64621734619141 -139.3903350830078 48.70471954345703 -139.4293212890625 C 48.72422790527344 -139.4488372802734 48.64619064331055 -139.7231597900391 48.52853012084961 -140.0359039306641 C 48.41088104248047 -140.3492584228516 48.29381942749023 -141.1905670166016 48.29381942749023 -141.8947143554688 C 48.27431106567383 -142.9908447265625 48.37186050415039 -143.4017486572266 48.90040969848633 -144.4777679443359 C 50.21113967895508 -147.1388549804688 53.22457885742188 -148.3910675048828 56.04232788085938 -147.4321136474609 C 57.157958984375 -147.0602264404297 58.80154037475586 -145.6318359375 59.34960174560547 -144.5363006591797 C 59.91716766357422 -143.4407653808594 60.05434036254883 -141.2490997314453 59.62393188476562 -139.9968872070312 L 59.31057739257812 -139.0775299072266 L 61.7369384765625 -139.214111328125 C 64.41810607910156 -139.3512725830078 66.06170654296875 -139.6054992675781 67.17674255371094 -140.0560150146484 L 67.94000244140625 -140.3492584228516 L 67.82235717773438 -143.9302978515625 L 65.67031860351562 -145.0453338623047 C 63.71339416503906 -146.0628204345703 61.80332946777344 -146.8863372802734 62.5458984375 -146.3583984375 C 62.78119659423828 -146.2023162841797 63.63475036621094 -145.7897033691406 63.3213996887207 -145.8677215576172 C 61.42359161376953 -146.3767700195312 60.2884521484375 -146.8266906738281 60.2884521484375 -147.0614166259766 C 60.2884521484375 -147.3546600341797 59.77941131591797 -147.5308380126953 57.45119094848633 -148.117919921875 C 55.12297821044922 -148.6855010986328 53.28369903564453 -148.9202117919922 51.15058135986328 -148.9202117919922 L 49.23326110839844 -148.9202117919922 L 45.84794998168945 -150.7790374755859 C 42.22792053222656 -152.7554931640625 41.46464920043945 -153.2249145507812 41.85604095458984 -153.2249145507812 C 41.99319839477539 -153.2249145507812 42.07125091552734 -153.3035583496094 42.01271057128906 -153.4010925292969 C 41.91516876220703 -153.5571899414062 40.07588958740234 -153.8705444335938 37.88423919677734 -154.0857391357422 C 37.66903686523438 -154.1052398681641 37.12112426757812 -154.1150054931641 36.41173934936523 -154.1150054931641 M 45.96071624755859 -148.3418121337891 C 44.69229507446289 -148.3418121337891 42.94667053222656 -148.4106750488281 41.36771011352539 -148.5483245849609 C 35.59505081176758 -149.0177764892578 27.4658203125 -150.2114562988281 27.4658203125 -150.7790374755859 C 27.4658203125 -151.091796875 30.546630859375 -152.6573486328125 30.546630859375 -152.6573486328125 C 30.546630859375 -152.6573486328125 36.10346984863281 -153.3029632568359 37.88484191894531 -153.0298156738281 C 39.78264999389648 -152.7359771728516 42.10747909545898 -151.7770233154297 44.025390625 -150.7790374755859 C 45.8061408996582 -149.8395843505859 47.74694061279297 -148.7440338134766 47.76646041870117 -148.4898071289062 C 47.76646041870117 -148.3911285400391 47.03470230102539 -148.3418121337891 45.96071624755859 -148.3418121337891 M 61.81557083129883 -140.1145477294922 C 60.99378204345703 -140.1145477294922 60.99378204345703 -140.1145477294922 61.42419052124023 -140.4272918701172 C 61.99176025390625 -140.8186950683594 61.83256912231445 -142.0097198486328 61.04980087280273 -142.91015625 C 60.44321441650391 -143.5947723388672 60.46271514892578 -143.7709655761719 61.12783813476562 -143.3795776367188 C 61.46070098876953 -143.1838836669922 62.63737106323242 -140.7211456298828 62.63737106323242 -140.3102416992188 C 62.63737106323242 -140.2120971679688 62.2654914855957 -140.1145477294922 61.81557083129883 -140.1145477294922 M 65.65876007080078 -140.1499633789062 C 65.13011169433594 -140.1499633789062 65.20440673828125 -140.5613708496094 65.84649658203125 -141.5819549560547 C 66.80487060546875 -143.0688934326172 67.54861450195312 -142.9713287353516 67.25537109375 -141.4057769775391 C 67.09870147705078 -140.6230010986328 66.82495880126953 -140.3492584228516 66.02268218994141 -140.1925811767578 C 65.87973785400391 -140.1646118164062 65.75852203369141 -140.1499633789062 65.65876007080078 -140.1499633789062 M 36.41173934936523 -154.6150054931641 C 36.94651031494141 -154.6150054931641 37.6439094543457 -154.6095733642578 37.92937850952148 -154.5836944580078 C 38.99050140380859 -154.4795227050781 40.01441955566406 -154.3484954833984 40.81623840332031 -154.2144012451172 C 42.17427062988281 -153.9873046875 42.31674957275391 -153.8580780029297 42.43674087524414 -153.6660614013672 C 42.43832015991211 -153.6635131835938 42.43989181518555 -153.6609649658203 42.44142913818359 -153.6584014892578 C 42.52336883544922 -153.5218658447266 42.55019378662109 -153.3680114746094 42.52127838134766 -153.2229309082031 C 43.29135131835938 -152.7445526123047 45.05039215087891 -151.7841491699219 46.08755111694336 -151.2178802490234 L 49.36150360107422 -149.4202117919922 L 51.15058135986328 -149.4202117919922 C 53.3309326171875 -149.4202117919922 55.19065093994141 -149.1836547851562 57.56961822509766 -148.6036834716797 C 58.71108245849609 -148.3158721923828 59.45905303955078 -148.1168823242188 59.91572952270508 -147.9486541748047 C 60.16100692749023 -147.8583068847656 60.63581466674805 -147.6833801269531 60.75879669189453 -147.2708282470703 C 60.90847015380859 -147.1790161132812 61.27629852294922 -147.0137176513672 61.96467590332031 -146.7877960205078 C 62.05923461914062 -146.9323272705078 62.22459030151367 -147.0230102539062 62.40901947021484 -147.0230102539062 C 62.51773834228516 -147.0230102539062 62.68202972412109 -147.0230102539062 63.75164794921875 -146.5392150878906 C 64.39309692382812 -146.2490692138672 65.15641784667969 -145.8760833740234 65.90097808837891 -145.4889526367188 L 68.05238342285156 -144.3742523193359 C 68.2130126953125 -144.291015625 68.31614685058594 -144.1275177001953 68.32209014892578 -143.9467163085938 L 68.43972778320312 -140.3656616210938 C 68.44671630859375 -140.1528167724609 68.31812286376953 -139.9588928222656 68.11932373046875 -139.8825225830078 L 67.35990905761719 -139.5907592773438 C 66.18600463867188 -139.1174163818359 64.51152801513672 -138.8554077148438 61.76248168945312 -138.7147674560547 L 59.33868026733398 -138.5783081054688 C 59.17265319824219 -138.5690460205078 59.01286315917969 -138.6427764892578 58.91232299804688 -138.7752227783203 C 58.81178283691406 -138.9076690673828 58.78366851806641 -139.0814361572266 58.83731079101562 -139.2388305664062 L 59.15065765380859 -140.1581878662109 C 59.53411865234375 -141.2737884521484 59.41255187988281 -143.3278656005859 58.9056396484375 -144.3063049316406 C 58.90456008911133 -144.3083953857422 58.90348815917969 -144.3105010986328 58.90242767333984 -144.3126068115234 C 58.41498947143555 -145.2869720458984 56.89178085327148 -146.6219024658203 55.88420867919922 -146.9577789306641 C 55.30808258056641 -147.1538391113281 54.71646118164062 -147.2527313232422 54.12281799316406 -147.2527313232422 C 52.08840179443359 -147.2527313232422 50.25916290283203 -146.1047821044922 49.34894943237305 -144.2568359375 C 48.85354995727539 -143.248291015625 48.77568054199219 -142.9183349609375 48.79373931884766 -141.9036102294922 C 48.79379272460938 -141.9006500244141 48.79381942749023 -141.8976898193359 48.79381942749023 -141.8947143554688 C 48.79381942749023 -141.1970367431641 48.91393280029297 -140.4319000244141 48.99662017822266 -140.2116546630859 C 49.22419738769531 -139.6067352294922 49.29885864257812 -139.3163604736328 49.05826950073242 -139.0757751464844 C 49.03498840332031 -139.052490234375 49.00946807861328 -139.0315704345703 48.98207092285156 -139.0132904052734 C 48.85251998901367 -138.9269409179688 48.74893188476562 -138.9269409179688 48.57730865478516 -138.9269409179688 C 47.57978820800781 -138.9269409179688 41.28620910644531 -139.0376892089844 35.87099838256836 -139.1418914794922 C 32.80701065063477 -139.2008666992188 30.02973937988281 -139.2575378417969 28.05078887939453 -139.3014831542969 C 26.9515495300293 -139.3258972167969 26.09416198730469 -139.3464508056641 25.5024299621582 -139.362548828125 C 24.98117446899414 -139.3767395019531 24.7021484375 -139.3843383789062 24.53866958618164 -139.3988952636719 L 24.53866958618164 -139.3987426757812 C 24.49258041381836 -139.3987426757812 24.44716644287109 -139.4051666259766 24.40361022949219 -139.4174041748047 C 24.32986450195312 -139.4333190917969 24.29643249511719 -139.4559020996094 24.24919509887695 -139.4909210205078 C 24.20641708374023 -139.5211029052734 24.16816329956055 -139.5580749511719 24.13626861572266 -139.6008911132812 C 23.9915771484375 -139.7951812744141 23.98213958740234 -139.9368286132812 24.23410415649414 -140.780029296875 C 24.64744186401367 -142.2895355224609 23.88571166992188 -144.7194671630859 22.66474151611328 -145.7834320068359 C 21.42179870605469 -146.8800201416016 20.7032585144043 -147.1473083496094 19.00130844116211 -147.1473083496094 C 17.63471984863281 -147.1473083496094 17.30012893676758 -147.0650177001953 16.69501876831055 -146.7380065917969 C 16.69319915771484 -146.7370147705078 16.69137954711914 -146.7360382080078 16.68954849243164 -146.7350921630859 C 15.55963897705078 -146.1424407958984 14.74557876586914 -145.3417510986328 14.20082855224609 -144.2872924804688 C 13.81362533569336 -143.5479278564453 13.74736785888672 -143.2171630859375 13.72866058349609 -141.9299621582031 L 13.72866058349609 -140.3291625976562 C 13.72866058349609 -140.1759796142578 13.65843963623047 -140.0312347412109 13.53810882568359 -139.9364318847656 C 13.41778564453125 -139.8416290283203 13.2606201171875 -139.8072052001953 13.11170196533203 -139.8430328369141 L 12.62274932861328 -139.9606781005859 C 11.71440124511719 -140.1827392578125 10.40406036376953 -140.7860565185547 10.00739288330078 -141.2617340087891 C 10.00621795654297 -141.2631378173828 10.00505828857422 -141.2645568847656 10.00389862060547 -141.2659759521484 C 9.882797241210938 -141.4144897460938 9.744178771972656 -141.6843109130859 9.634246826171875 -142.5595397949219 C 9.569099426269531 -143.0783081054688 9.52398681640625 -143.7422485351562 9.507247924804688 -144.4290771484375 C 9.4833984375 -145.4076690673828 9.494400024414062 -147.1271514892578 9.836090087890625 -147.6483154296875 C 9.838432312011719 -147.6519012451172 9.8408203125 -147.6554412841797 9.84326171875 -147.6589508056641 C 9.935317993164062 -147.7967681884766 10.18415069580078 -148.5459594726562 10.41120147705078 -149.5931701660156 C 10.79634857177734 -151.4423217773438 11.18772888183594 -151.6158294677734 11.34243774414062 -151.6746063232422 C 11.43923950195312 -151.7135162353516 11.55110168457031 -151.731689453125 11.69293212890625 -151.731689453125 C 11.98538208007812 -151.7317047119141 12.39652252197266 -151.6512145996094 12.74339294433594 -151.5262603759766 C 12.96430969238281 -151.4568023681641 13.25856018066406 -151.4230346679688 13.64248657226562 -151.4230346679688 C 14.93204116821289 -151.4230346679688 17.24544143676758 -151.7966613769531 21.89363098144531 -152.7556610107422 C 29.37992858886719 -154.3145446777344 30.50733184814453 -154.4855804443359 33.95587921142578 -154.5855255126953 C 34.79578018188477 -154.6045684814453 35.66683197021484 -154.6150054931641 36.41173934936523 -154.6150054931641 Z M 46.46941375732422 -148.8459777832031 C 45.91454315185547 -149.1829223632812 45.05872344970703 -149.6685791015625 43.79209136962891 -150.3368072509766 C 41.58068084716797 -151.4875030517578 39.39876937866211 -152.2894592285156 37.80834197998047 -152.5357055664062 C 37.54254150390625 -152.5764617919922 37.15462875366211 -152.5971832275391 36.65610122680664 -152.5971984863281 C 34.58269882202148 -152.5971984863281 31.27523040771484 -152.2361907958984 30.6930046081543 -152.1707611083984 C 29.85646438598633 -151.7431945800781 28.93351745605469 -151.2340850830078 28.37711334228516 -150.8867645263672 C 29.05716323852539 -150.6964874267578 30.41461181640625 -150.4073333740234 32.8238410949707 -150.0453033447266 C 35.5531120300293 -149.6351776123047 38.76222991943359 -149.2618713378906 41.40824127197266 -149.0466766357422 C 42.85882186889648 -148.9202270507812 44.60211944580078 -148.8418121337891 45.96072006225586 -148.8418121337891 C 46.15177154541016 -148.8418121337891 46.32046508789062 -148.8433532714844 46.46941375732422 -148.8459777832031 Z M 66.76458740234375 -141.5014038085938 C 66.80699157714844 -141.7287445068359 66.82000732421875 -141.8924865722656 66.8203125 -142.0072631835938 C 66.68801879882812 -141.8857727050781 66.49903869628906 -141.6711120605469 66.26814270019531 -141.3132019042969 C 66.08421325683594 -141.0206909179688 65.97373199462891 -140.8180389404297 65.90739440917969 -140.6795654296875 C 65.91368865966797 -140.6807556152344 65.92012023925781 -140.6819915771484 65.92665863037109 -140.6832733154297 C 66.52254486083984 -140.7996368408203 66.64836883544922 -140.922119140625 66.76458740234375 -141.5014038085938 Z"/></g><g class="b" transform="translate(-41.542 34.064)"><path class="c" d="M94.375-26.324c.157.1.2.2.1.2a1.205,1.205,0,0,1-.489-.2c-.157-.1-.215-.2-.1-.2A1.328,1.328,0,0,1,94.375-26.324Z"/><path class="d" d="M 93.88568115234375 -26.52000617980957 C 93.76802062988281 -26.52000617980957 93.82656097412109 -26.42185592651367 93.98322296142578 -26.32430648803711 C 94.13931274414062 -26.22616577148438 94.35450744628906 -26.12861633300781 94.47216796875 -26.12861633300781 C 94.5703125 -26.12861633300781 94.53128051757812 -26.22675704956055 94.37461090087891 -26.32430648803711 C 94.21794128417969 -26.42244720458984 93.98322296142578 -26.52000617980957 93.88568115234375 -26.52000617980957 M 93.88568115234375 -27.02000617980957 C 94.20223236083984 -27.02000617980957 94.622314453125 -26.75913619995117 94.64004516601562 -26.74803733825684 C 95.07994079589844 -26.47413635253906 95.04203796386719 -26.14531707763672 95.00526428222656 -26.01668739318848 C 94.93890380859375 -25.78456687927246 94.72466278076172 -25.62861633300781 94.47216796875 -25.62861633300781 C 94.18170166015625 -25.62861633300781 93.84735107421875 -25.81911659240723 93.71708679199219 -25.90101623535156 C 93.28738403320312 -26.16858673095703 93.29868316650391 -26.4736270904541 93.34382629394531 -26.63153648376465 C 93.41129302978516 -26.86752700805664 93.62398529052734 -27.02000617980957 93.88568115234375 -27.02000617980957 Z"/></g><g class="b" transform="translate(-125.463 33.875)"><path class="c" d="M171.545-25.96a4.737,4.737,0,0,1,2.7,4.325c0,4.951-6.594,6.457-8.923,2.054a5.517,5.517,0,0,1-.079-4.031,5.427,5.427,0,0,1,2.387-2.348A5.508,5.508,0,0,1,171.545-25.96Zm-3.17,1.213a3.359,3.359,0,0,0-1.546,4.892,3.283,3.283,0,0,0,5.616-.274,3.585,3.585,0,0,0-.2-3.444A3.437,3.437,0,0,0,168.375-24.747Z"/><path class="d" d="M 169.5660705566406 -26.31937408447266 C 168.8543090820312 -26.31937408447266 168.1443328857422 -26.20191192626953 167.630859375 -25.9599494934082 C 166.6914215087891 -25.5289478302002 165.7129669189453 -24.57057762145996 165.2435302734375 -23.61161804199219 C 164.7546081542969 -22.59411811828613 164.7936096191406 -20.59814834594727 165.3221588134766 -19.58065795898438 C 167.6503601074219 -15.17783355712891 174.2448272705078 -16.68425369262695 174.2448272705078 -21.63515853881836 C 174.2448272705078 -23.51405906677246 173.1883239746094 -25.19668769836426 171.5447540283203 -25.9599494934082 C 171.0209350585938 -26.19707107543945 170.2925720214844 -26.31937408447266 169.5660705566406 -26.31937408447266 M 169.5718383789062 -18.40297508239746 C 168.5297393798828 -18.40297508239746 167.4786529541016 -18.88002967834473 166.8285980224609 -19.85498809814453 C 165.7135467529297 -21.5571174621582 166.4768218994141 -24.04261779785156 168.3746337890625 -24.74676895141602 C 169.7249755859375 -25.25521659851074 171.4075927734375 -24.74677085876465 172.2488708496094 -23.57259750366211 C 172.8945007324219 -22.67274856567383 172.9731292724609 -21.14621925354004 172.444580078125 -20.12871742248535 C 171.8686218261719 -18.98766899108887 170.7257232666016 -18.40297508239746 169.5718383789062 -18.40297508239746 M 169.5660705566406 -26.81937789916992 C 170.3995819091797 -26.81937789916992 171.1755218505859 -26.67592811584473 171.7509460449219 -26.41545867919922 C 173.5713806152344 -25.57007789611816 174.7448272705078 -23.69449806213379 174.7448272705078 -21.63515853881836 C 174.7448272705078 -20.13543891906738 174.1698608398438 -18.7857780456543 173.1258697509766 -17.83478736877441 C 172.1773223876953 -16.97075843811035 170.8754425048828 -16.47521781921387 169.5540008544922 -16.47521781921387 C 167.5782623291016 -16.47521781921387 165.8310394287109 -17.54874801635742 164.8801574707031 -19.3469181060791 C 164.2810363769531 -20.50022888183594 164.2394409179688 -22.67644882202148 164.7928619384766 -23.82816886901855 C 165.3141174316406 -24.89301300048828 166.368896484375 -25.93021011352539 167.4198303222656 -26.41323661804199 C 167.9767913818359 -26.67513656616211 168.7389068603516 -26.81937789916992 169.5660705566406 -26.81937789916992 Z M 169.5718383789062 -18.90297889709473 C 170.61669921875 -18.90297889709473 171.5464477539062 -19.45898818969727 171.9982147216797 -20.35401916503906 C 171.9990844726562 -20.35575866699219 171.9999694824219 -20.35747909545898 172.0008697509766 -20.35920906066895 C 172.4496917724609 -21.22320747375488 172.3786926269531 -22.53396797180176 171.8426208496094 -23.28111839294434 C 171.3289184570312 -23.99807739257812 170.4246826171875 -24.44330787658691 169.4826049804688 -24.44331741333008 C 169.1541748046875 -24.44331741333008 168.8406829833984 -24.38797760009766 168.5508270263672 -24.27883911132812 C 167.8076477050781 -24.00308799743652 167.2294769287109 -23.37956809997559 166.9623107910156 -22.56731796264648 C 166.6875305175781 -21.73193740844727 166.7938995361328 -20.82040786743164 167.2468414306641 -20.12897872924805 C 167.7655334472656 -19.3510684967041 168.61376953125 -18.90297889709473 169.5718383789062 -18.90297889709473 Z"/></g><g class="b" transform="translate(-753.892 34.461)"><path class="c" d="M765.007-26.409a4.573,4.573,0,0,1,1.272,7.338,4.612,4.612,0,0,1-8.042-2.837A4.615,4.615,0,0,1,765.007-26.409ZM761.329-25.1a3.5,3.5,0,0,0-1.761,2.818,3.371,3.371,0,0,0,4.109,3.209,3.25,3.25,0,0,0,1.7-5.244A3.1,3.1,0,0,0,761.329-25.1Z"/><path class="d" d="M 762.8006591796875 -26.94277381896973 C 760.2411499023438 -26.94277381896973 758.0535278320312 -24.82468795776367 758.2366943359375 -21.9089412689209 C 758.4915161132812 -17.78045654296875 763.441650390625 -16.03865432739258 766.2791137695312 -19.0716609954834 C 768.4713134765625 -21.41941070556641 767.8446044921875 -25.00044059753418 765.00732421875 -26.40933036804199 C 764.2718505859375 -26.77486038208008 763.521728515625 -26.94277381896973 762.8006591796875 -26.94277381896973 M 762.8861694335938 -18.95533561706543 C 761.1934814453125 -18.95533561706543 759.5675659179688 -20.48644256591797 759.5675659179688 -22.28082084655762 C 759.5675659179688 -23.33733177185059 760.350341796875 -24.58954048156738 761.328857421875 -25.09858131408691 C 762.796142578125 -25.88079452514648 764.2440795898438 -25.60701751708984 765.3786010742188 -24.31581115722656 C 766.9441528320312 -22.53504180908203 766.0443725585938 -19.77640151977539 763.6764526367188 -19.0716609954834 C 763.4153442382812 -18.99250602722168 763.1499633789062 -18.95533561706543 762.8861694335938 -18.95533561706543 M 762.8006591796875 -27.44277191162109 C 763.630615234375 -27.44277191162109 764.4478759765625 -27.2457103729248 765.2298583984375 -26.85708045959473 C 766.7139282226562 -26.12013053894043 767.7293701171875 -24.79217147827148 768.0155639648438 -23.21378135681152 C 768.3065185546875 -21.6092414855957 767.8068237304688 -19.97512054443359 766.6445922851562 -18.73042106628418 C 765.624267578125 -17.6397705078125 764.2723388671875 -17.03931045532227 762.8375854492188 -17.03931045532227 C 761.5694580078125 -17.03931045532227 760.3536987304688 -17.50184059143066 759.4142456054688 -18.34170150756836 C 758.4188842773438 -19.2315502166748 757.823486328125 -20.48748016357422 757.7376708984375 -21.87814140319824 C 757.6425170898438 -23.39232063293457 758.1326293945312 -24.80416107177734 759.11767578125 -25.85303115844727 C 760.0665283203125 -26.86333084106445 761.408935546875 -27.44277191162109 762.8006591796875 -27.44277191162109 Z M 762.8861694335938 -19.45533180236816 C 763.1067504882812 -19.45533180236816 763.3238525390625 -19.48723030090332 763.5314331054688 -19.55016136169434 C 764.5267944335938 -19.84641075134277 765.2822265625 -20.58802032470703 765.5546264648438 -21.53471183776855 C 765.8058471679688 -22.40786170959473 765.6048583984375 -23.30120086669922 765.0031127929688 -23.98568153381348 C 764.3912353515625 -24.68206024169922 763.6995239257812 -25.03510093688965 762.947021484375 -25.03512191772461 C 762.4995727539062 -25.03513145446777 762.0343017578125 -24.90803146362305 761.5640869140625 -24.65736198425293 C 761.5625610351562 -24.65657043457031 761.5610961914062 -24.65579032897949 761.5596313476562 -24.65501022338867 C 760.7508544921875 -24.23427200317383 760.0675659179688 -23.14703178405762 760.0675659179688 -22.28082084655762 C 760.0675659179688 -20.80206108093262 761.4110107421875 -19.45533180236816 762.8861694335938 -19.45533180236816 Z"/></g></g></g></svg>