<svg xmlns="http://www.w3.org/2000/svg" width="58.94" height="20.925" viewBox="0 0 58.94 20.925"><defs><style>.a{isolation:isolate;}.b{fill:none;stroke-linejoin:round;}.c,.d{stroke:none;}.d{fill:#1c1c1c;}</style></defs><g class="a" transform="translate(0.499 0.5)"><g transform="translate(0 0)"><g class="b" transform="translate(-10.002 179.509)"><path class="c" d="M31.43-179.46c5.816.139,9.689.636,12.2,1.573a64.889,64.889,0,0,1,9.018,4.544c1.5.89,1.5.89,2.543.971,3.9.289,8.984,1.758,10.845,3.122a2.663,2.663,0,0,1,.89,1.434c0,.139.069.254.162.254a1,1,0,0,1,.439.231c.543.416.555,2.058.023,2.3-.266.116-.277.162-.277,1.388,0,1.041-.035,1.272-.185,1.33a40.53,40.53,0,0,1-4.752,0c-.347-.069-.347-.069-.254-.659a5.561,5.561,0,0,0-.5-2.96,5.387,5.387,0,0,0-5.527-2.925,5.9,5.9,0,0,0-3.85,2.659,5.6,5.6,0,0,0-.555,3.631l.1.439h-24l.1-.439a5.4,5.4,0,0,0-4.44-6.29,5.349,5.349,0,0,0-5.492,2.914,5.62,5.62,0,0,0-.555,2.671c.046.266.023.335-.139.335-.1,0-1.4-.081-2.856-.173s-2.8-.173-2.983-.173c-.277,0-.312-.046-.312-.393,0-.324-.069-.439-.393-.636A1.626,1.626,0,0,1,10-165.886c.011-.451.069-.613.289-.774.139-.116.335-.266.4-.324.1-.092.15-.578.15-1.711a13.366,13.366,0,0,1,2.5-8.475l.624-.994,1.6-.254a56.7,56.7,0,0,1,8.348-1.006c1.179-.023,2.636-.058,3.238-.081S29.684-179.494,31.43-179.46Zm-3.064,1.885a4.137,4.137,0,0,0-.74,1.272,3.608,3.608,0,0,0-.451,2.289l.035,1.191,4.162.312c2.289.162,4.186.289,4.209.254a42.333,42.333,0,0,0-.347-5.03c-.15-.277-.324-.312-2.243-.439A15.353,15.353,0,0,0,28.366-177.575Zm-6.764-.034a26.505,26.505,0,0,0-3.885.277,7.259,7.259,0,0,0-1.654,1.908,17.275,17.275,0,0,0-1.284,1.908.457.457,0,0,0,.139.266c.139.1,10,.566,10.094.462s2.255-4.868,2.255-4.972c0-.069-.393-.092-1.075-.046C25.614-177.771,23.544-177.679,21.6-177.609Zm-7.655.74c-.786,1.029-2.37,4.3-2.185,4.486s.659-.173,1.191-.844a22.628,22.628,0,0,0,2.52-3.666c0-.289-.5-.624-.867-.578A1.764,1.764,0,0,0,13.947-176.869Zm22.848-.346a19.69,19.69,0,0,0,.428,2.648l.485,2.474,2.093.069c1.156.035,3.226.092,4.6.127l2.52.058v-2.428l-.717-.532c-1.954-1.434-3.527-2-6.717-2.416C37.8-177.424,36.876-177.436,36.795-177.216Z"/><path class="d" d="M 27.5777702331543 -179.5085296630859 C 27.40026092529297 -179.5085296630859 27.25503158569336 -179.5076141357422 27.15012741088867 -179.5056610107422 C 26.54885482788086 -179.4826202392578 25.09209442138672 -179.4477386474609 23.91261672973633 -179.4246673583984 C 21.80846786499023 -179.3673248291016 20.46700668334961 -179.2053375244141 15.56461715698242 -178.4190063476562 L 13.96890258789062 -178.1647796630859 L 13.34458923339844 -177.1703338623047 C 11.37936401367188 -174.0368499755859 10.84727478027344 -172.2448577880859 10.84727478027344 -168.6951751708984 C 10.84727478027344 -167.5623931884766 10.80115509033203 -167.0764007568359 10.69709777832031 -166.9841766357422 C 10.6279296875 -166.9262237548828 10.43163299560547 -166.7760620117188 10.29269409179688 -166.6601715087891 C 10.07277679443359 -166.498779296875 10.01483917236328 -166.3367767333984 10.00359344482422 -165.8856811523438 C 9.980545043945312 -165.1336517333984 10.20048522949219 -164.6133575439453 10.68586730957031 -164.3130340576172 C 11.00985717773438 -164.1161499023438 11.07902526855469 -164.0008544921875 11.07902526855469 -163.6768646240234 C 11.07902526855469 -163.3298187255859 11.11390686035156 -163.2837066650391 11.39118957519531 -163.2837066650391 C 11.57623291015625 -163.2837066650391 12.9058837890625 -163.2027130126953 14.37447738647461 -163.1104888916016 C 15.83123779296875 -163.0182495117188 17.12659454345703 -162.9372406005859 17.23065567016602 -162.9372406005859 C 17.39264678955078 -162.9372406005859 17.41569519042969 -163.0064239501953 17.36958694458008 -163.2724761962891 C 17.25430679321289 -163.8163909912109 17.53158569335938 -165.1342315673828 17.92474746704102 -165.9436187744141 C 18.9079475402832 -167.9667663574219 21.25509643554688 -169.2154541015625 23.41716766357422 -168.8571624755859 C 26.40045547485352 -168.3599395751953 28.50459671020508 -165.3772277832031 27.85721588134766 -162.567138671875 L 27.75316619873047 -162.1278686523438 L 51.75662612915039 -162.1278686523438 L 51.6525764465332 -162.567138671875 C 51.39834594726562 -163.642578125 51.6295051574707 -165.1342315673828 52.20772552490234 -166.1978454589844 C 52.90121459960938 -167.4583282470703 54.51997375488281 -168.5798797607422 56.05773544311523 -168.8571624755859 C 58.19677734375 -169.2272796630859 60.62489318847656 -167.9549560546875 61.58443450927734 -165.9317932128906 C 62.01248550415039 -165.0295867919922 62.22059631347656 -163.8158111572266 62.08165740966797 -162.9715423583984 C 61.98883819580078 -162.3815002441406 61.98883819580078 -162.3815002441406 62.33588409423828 -162.3123321533203 C 62.7869873046875 -162.2194976806641 66.85692596435547 -162.2194976806641 67.08809661865234 -162.3123321533203 C 67.23826599121094 -162.3702697753906 67.27314758300781 -162.6014404296875 67.27314758300781 -163.6419830322266 C 67.27314758300781 -164.8675994873047 67.28437805175781 -164.9137115478516 67.55043029785156 -165.0295867919922 C 68.08252716064453 -165.2725830078125 68.07069396972656 -166.9144134521484 67.52737426757812 -167.3306274414062 C 67.377197265625 -167.4577484130859 67.16908264160156 -167.5617980957031 67.08809661865234 -167.5617980957031 C 66.99526977539062 -167.5617980957031 66.92609405517578 -167.6770782470703 66.92609405517578 -167.8160247802734 C 66.92609405517578 -168.1624755859375 66.42888641357422 -168.9606170654297 66.03572845458984 -169.2497253417969 C 64.17456817626953 -170.6136932373047 59.08713531494141 -172.082275390625 55.19041442871094 -172.3713836669922 C 54.14987564086914 -172.4523773193359 54.14987564086914 -172.4523773193359 52.64699554443359 -173.3427734375 C 49.37518692016602 -175.2855224609375 45.82551574707031 -177.0662994384766 43.62855529785156 -177.8869018554688 C 41.11942672729492 -178.8234100341797 37.24576568603516 -179.3206329345703 31.42994689941406 -179.4595489501953 C 29.98809051513672 -179.4878692626953 28.41964340209961 -179.5085296630859 27.5777702331543 -179.5085296630859 M 24.71078109741211 -172.7724609375 C 23.04334259033203 -172.7724609375 15.04343032836914 -173.1562957763672 14.91839599609375 -173.2499389648438 C 14.84863662719727 -173.3191070556641 14.77946472167969 -173.4349975585938 14.77946472167969 -173.5159912109375 C 14.77946472167969 -173.5970001220703 15.3576774597168 -174.4524993896484 16.06299591064453 -175.4238739013672 C 16.98824691772461 -176.6843566894531 17.46240615844727 -177.2276916503906 17.71663665771484 -177.3317413330078 C 17.94779586791992 -177.4239807128906 19.2774543762207 -177.5280303955078 21.60153579711914 -177.6090240478516 C 23.54427719116211 -177.6787872314453 25.6135368347168 -177.7710266113281 26.19174575805664 -177.8053131103516 C 26.87399673461914 -177.8514251708984 27.26717376708984 -177.8283538818359 27.26717758178711 -177.7592010498047 C 27.26717758178711 -177.6551361083984 25.10449600219727 -172.8798370361328 25.01227569580078 -172.7876129150391 C 25.00304412841797 -172.7772064208984 24.89625549316406 -172.7724609375 24.71078109741211 -172.7724609375 M 35.5033073425293 -172.2509002685547 C 35.12490463256836 -172.2509002685547 33.40267944335938 -172.3671722412109 31.37140655517578 -172.5109100341797 L 27.20923614501953 -172.8230743408203 L 27.17435455322266 -174.0138092041016 C 27.14005661010742 -175.1932983398438 27.15129470825195 -175.2163543701172 27.62544631958008 -176.3030242919922 C 27.90332794189453 -176.9385833740234 28.21548461914062 -177.4824981689453 28.36565780639648 -177.5747528076172 C 28.71270370483398 -177.7940826416016 30.82867431640625 -177.8750762939453 32.99016571044922 -177.7255096435547 C 34.90926742553711 -177.598388671875 35.08307647705078 -177.5635070800781 35.23324584960938 -177.2862243652344 C 35.34912490844727 -177.0781097412109 35.67311477661133 -172.3489227294922 35.58029556274414 -172.2566986083984 C 35.57769775390625 -172.2527618408203 35.55135726928711 -172.2509002685547 35.5033073425293 -172.2509002685547 M 11.87785339355469 -172.3389587402344 C 11.83084869384766 -172.3389587402344 11.79170227050781 -172.3533782958984 11.76187896728516 -172.3832092285156 C 11.57682800292969 -172.5682678222656 13.16070556640625 -175.8401031494141 13.94702911376953 -176.8694000244141 C 14.19001770019531 -177.1928100585938 14.49094772338867 -177.4588623046875 14.60564422607422 -177.4712677001953 C 14.97573852539062 -177.5172424316406 15.47295761108398 -177.1821594238281 15.47295761108398 -176.8930511474609 C 15.47295761108398 -176.6500701904297 14.03925323486328 -174.5689544677734 12.95258331298828 -173.2274780273438 C 12.51258850097656 -172.6719818115234 12.10385131835938 -172.3389587402344 11.87785339355469 -172.3389587402344 M 46.92341613769531 -171.8398895263672 L 44.40304565429688 -171.8978271484375 C 43.02669525146484 -171.9327087402344 40.95742797851562 -171.9900512695312 39.80100631713867 -172.0249328613281 L 37.70808792114258 -172.0941009521484 L 37.22269439697266 -174.5677795410156 C 36.9448356628418 -175.9323272705078 36.7597770690918 -177.1236419677734 36.79465484619141 -177.2158660888672 C 36.87565231323242 -177.4358062744141 37.80031967163086 -177.4239807128906 39.48883438110352 -177.2164611816406 C 42.67964553833008 -176.8002471923828 44.25228500366211 -176.2338409423828 46.20625686645508 -174.8001251220703 L 46.92341613769531 -174.2680206298828 L 46.92341613769531 -171.8398895263672 M 27.57776641845703 -180.008544921875 C 28.39345550537109 -180.008544921875 29.94547653198242 -179.9888153076172 31.43976593017578 -179.9594421386719 C 37.31949615478516 -179.8190155029297 41.24745559692383 -179.3093109130859 43.80339431762695 -178.3553314208984 C 46.06525421142578 -177.5104827880859 49.63673400878906 -175.7117156982422 52.90227508544922 -173.772705078125 C 54.30465698242188 -172.9418487548828 54.30465698242188 -172.9418487548828 55.22921752929688 -172.869873046875 C 59.20703887939453 -172.5747528076172 64.39576721191406 -171.0714874267578 66.33128356933594 -169.6530151367188 C 66.76718902587891 -169.3324890136719 67.30810546875 -168.5389251708984 67.40935516357422 -167.98583984375 C 67.61656188964844 -167.8973999023438 67.79369354248047 -167.7586517333984 67.83948516845703 -167.7213134765625 C 68.34877014160156 -167.3229522705078 68.49948120117188 -166.4218597412109 68.42345428466797 -165.7498779296875 C 68.35858154296875 -165.1763763427734 68.13512420654297 -164.7669830322266 67.79251098632812 -164.5914154052734 C 67.77314758300781 -164.4107818603516 67.77314758300781 -164.0058898925781 67.77314758300781 -163.6419830322266 C 67.77314758300781 -162.5791015625 67.77315521240234 -162.0439910888672 67.27269744873047 -161.8476409912109 C 67.18028259277344 -161.8105773925781 66.99779510498047 -161.7427062988281 64.79446411132812 -161.7427062988281 C 64.28513336181641 -161.7427062988281 62.5953369140625 -161.7484741210938 62.23511505126953 -161.8225860595703 C 62.02706527709961 -161.8640441894531 61.70807647705078 -161.9276123046875 61.57730865478516 -162.2666931152344 C 61.49727630615234 -162.4742279052734 61.52750396728516 -162.6663818359375 61.58772659301758 -163.0492401123047 C 61.70896530151367 -163.7860107421875 61.51736450195312 -164.9067077636719 61.13269805908203 -165.7174835205078 C 60.38970565795898 -167.2840576171875 58.57314682006836 -168.4210510253906 56.81331634521484 -168.4210510253906 C 56.58544540405273 -168.4210510253906 56.35991668701172 -168.4020233154297 56.14298629760742 -168.3644714355469 C 54.76951599121094 -168.1168060302734 53.26456451416016 -167.0814819335938 52.64579772949219 -165.9568328857422 C 52.12909698486328 -165.0063629150391 51.9155158996582 -163.6282348632812 52.13916778564453 -162.6821746826172 L 52.2431640625 -162.2431182861328 C 52.27839660644531 -162.0943450927734 52.24364471435547 -161.9376373291016 52.1488151550293 -161.8177337646484 C 52.05398559570312 -161.6978149414062 51.90950775146484 -161.6278686523438 51.75662612915039 -161.6278686523438 L 27.75316619873047 -161.6278686523438 C 27.60028457641602 -161.6278686523438 27.45580673217773 -161.6978149414062 27.36097717285156 -161.8177337646484 C 27.26614761352539 -161.9376373291016 27.23139572143555 -162.0943450927734 27.26662445068359 -162.2431182861328 L 27.37067794799805 -162.6823883056641 C 27.63668441772461 -163.8370971679688 27.37877655029297 -165.1152496337891 26.66237640380859 -166.1861267089844 C 25.88562774658203 -167.3471832275391 24.67283630371094 -168.1409759521484 23.33496475219727 -168.3639526367188 C 23.11759567260742 -168.3999786376953 22.89267730712891 -168.4182739257812 22.66692733764648 -168.4182739257812 C 20.91019439697266 -168.4182739257812 19.14506530761719 -167.310791015625 18.37445449829102 -165.7250671386719 C 18.01100540161133 -164.9768371582031 17.77578735351562 -163.7674407958984 17.85871505737305 -163.3761444091797 C 17.86000442504883 -163.3700714111328 17.86118698120117 -163.3639831542969 17.86224746704102 -163.3578643798828 C 17.8924674987793 -163.1834564208984 17.94305419921875 -162.8915405273438 17.74458694458008 -162.6557312011719 C 17.62257766723633 -162.5107421875 17.44966506958008 -162.4372406005859 17.23065567016602 -162.4372406005859 C 17.14462661743164 -162.4372406005859 16.64452743530273 -162.4657440185547 14.34287643432617 -162.6114807128906 C 12.5233154296875 -162.7257537841797 11.53013610839844 -162.7837066650391 11.39118957519531 -162.7837066650391 C 10.57902526855469 -162.7837066650391 10.57902526855469 -163.4095916748047 10.57902526855469 -163.6768646240234 C 10.57902526855469 -163.7371368408203 10.57578277587891 -163.7687835693359 10.57344055175781 -163.7837982177734 C 10.55831146240234 -163.7978057861328 10.51959228515625 -163.8289947509766 10.42620849609375 -163.8857421875 C 9.7841796875 -164.2829742431641 9.474998474121094 -164.9602966308594 9.503822326660156 -165.9010009765625 C 9.516830444335938 -166.4227905273438 9.597587585449219 -166.7638092041016 9.983444213867188 -167.0532989501953 C 10.06665802001953 -167.1223297119141 10.16536712646484 -167.2001800537109 10.24534606933594 -167.2632446289062 C 10.26089477539062 -167.2755126953125 10.27582550048828 -167.2872772216797 10.28985595703125 -167.2983551025391 C 10.31398773193359 -167.4306945800781 10.34727478027344 -167.7793884277344 10.34727478027344 -168.6951751708984 C 10.34727478027344 -172.3355102539062 10.90050506591797 -174.2143707275391 12.92099761962891 -177.4360046386719 L 13.54544830322266 -178.4306335449219 C 13.62212371826172 -178.5527801513672 13.74781799316406 -178.6358642578125 13.89023590087891 -178.6585540771484 L 15.48594665527344 -178.9127807617188 C 20.42873764038086 -179.7055816650391 21.76547622680664 -179.8663330078125 23.89899444580078 -179.9244842529297 C 25.04137420654297 -179.9468383789062 26.51581573486328 -179.9817199707031 27.13097763061523 -180.0052947998047 C 27.13424682617188 -180.0054168701172 27.13751602172852 -180.0055084228516 27.14078521728516 -180.0055694580078 C 27.24616622924805 -180.0075378417969 27.39318466186523 -180.008544921875 27.57776641845703 -180.008544921875 Z M 24.70113372802734 -173.2724761962891 C 25.04980850219727 -173.9945373535156 26.07131958007812 -176.2417755126953 26.54558563232422 -177.3238220214844 C 26.44720840454102 -177.3200073242188 26.34025955200195 -177.314208984375 26.22545623779297 -177.3064575195312 C 25.67061614990234 -177.2735443115234 23.6041145324707 -177.1806182861328 21.61947631835938 -177.1093444824219 C 19.08367156982422 -177.0209655761719 18.10091400146484 -176.9171447753906 17.90340423583984 -176.8666687011719 C 17.77031707763672 -176.7873687744141 17.4116096496582 -176.4161529541016 16.466064453125 -175.1280059814453 C 16.00509262084961 -174.4931488037109 15.66508102416992 -174.0006256103516 15.46148300170898 -173.6918640136719 C 17.14649963378906 -173.5648040771484 23.15999221801758 -173.273681640625 24.70113372802734 -173.2724761962891 Z M 34.77630233764648 -177.0499114990234 C 34.53997039794922 -177.1217498779297 33.70230865478516 -177.17724609375 32.95711517333984 -177.2265930175781 C 32.24592590332031 -177.2758178710938 31.50702667236328 -177.3017730712891 30.81884765625 -177.3017730712891 C 29.42598724365234 -177.3017730712891 28.81131744384766 -177.2026672363281 28.64483642578125 -177.1522216796875 C 28.55887603759766 -177.0439910888672 28.34243392944336 -176.6947784423828 28.08357620239258 -176.1027221679688 L 28.0806770324707 -176.0960998535156 C 27.6431770324707 -175.0934143066406 27.6431770324707 -175.0934143066406 27.67414474487305 -174.0283355712891 L 27.69583511352539 -173.2879943847656 L 31.40880584716797 -173.0095062255859 C 32.7708625793457 -172.9131317138672 34.32783889770508 -172.8052368164062 35.09388732910156 -172.7660980224609 C 35.06166839599609 -173.8358612060547 34.87137603759766 -176.4767150878906 34.77630233764648 -177.0499114990234 Z M 14.92682647705078 -176.8736267089844 C 14.87142181396484 -176.9150085449219 14.79185104370117 -176.9561920166016 14.72294235229492 -176.9703674316406 C 14.63979339599609 -176.904052734375 14.49001312255859 -176.7597045898438 14.34676742553711 -176.5690612792969 C 13.92620086669922 -176.0185241699219 13.30319213867188 -174.8580169677734 12.84452819824219 -173.8947296142578 C 13.739013671875 -175.0380706787109 14.66976547241211 -176.3997955322266 14.92682647705078 -176.8736267089844 Z M 46.42341613769531 -174.0164031982422 L 45.9083251953125 -174.3985900878906 C 44.03354644775391 -175.7741851806641 42.5180549621582 -176.3170928955078 39.42416763305664 -176.7206573486328 C 38.5840950012207 -176.8238983154297 37.94260787963867 -176.8764801025391 37.52118682861328 -176.8764801025391 C 37.44196701049805 -176.8764801025391 37.37620544433594 -176.8746032714844 37.32192993164062 -176.8717193603516 C 37.37784576416016 -176.4578399658203 37.50821304321289 -175.6714935302734 37.712646484375 -174.6675415039062 L 38.12213516235352 -172.5806884765625 L 39.8175163269043 -172.5246734619141 C 41.01263427734375 -172.4886016845703 43.07601547241211 -172.4316101074219 44.41571426391602 -172.3976745605469 L 46.42341613769531 -172.3515167236328 L 46.42341613769531 -174.0164031982422 Z"/></g><g class="b" transform="translate(-86.204 -8.967)"><path class="c" d="M134.445,21.018a3.28,3.28,0,0,1,1.388.867,4.058,4.058,0,0,1-.046,5.955,3.8,3.8,0,0,1-2.717,1.052,3.966,3.966,0,0,1-4.093-4.116,4.082,4.082,0,0,1,2.347-3.608A4.539,4.539,0,0,1,134.445,21.018Zm-2.9,1.573a4.079,4.079,0,0,0-.844.925,1.906,1.906,0,0,0-.347,1.318,2.686,2.686,0,0,0,5.087,1.249,2.716,2.716,0,0,0-1.271-3.687,2.533,2.533,0,0,0-1.295-.185A2.031,2.031,0,0,0,131.543,22.591Z"/><path class="d" d="M 133.1111450195312 20.81050109863281 C 132.4764251708984 20.81050109863281 131.8248596191406 20.93135070800781 131.3237457275391 21.16875076293945 C 129.9249267578125 21.81673049926758 128.9884338378906 23.26168060302734 128.9766235351562 24.77640151977539 C 128.9647979736328 27.1584300994873 130.6994171142578 28.89249038696289 133.0696105957031 28.89249038696289 C 134.1450500488281 28.89249038696289 134.9774780273438 28.56850051879883 135.786865234375 27.84011077880859 C 137.5327301025391 26.2331714630127 137.5557861328125 23.45797157287598 135.8329772949219 21.88532066345215 C 135.2317047119141 21.34198188781738 135.1045837402344 21.27222061157227 134.4453887939453 21.01799011230469 C 134.0577697753906 20.87904930114746 133.5892486572266 20.81050109863281 133.1111450195312 20.81050109863281 M 133.0822601318359 27.57544708251953 C 131.7201385498047 27.57544708251953 130.3655700683594 26.55290412902832 130.351806640625 24.83315086364746 C 130.351806640625 24.18577003479004 130.3979187011719 23.98948097229004 130.6988372802734 23.51532173156738 C 130.8957061767578 23.2037410736084 131.2770538330078 22.78693008422852 131.5431060791016 22.59064102172852 C 131.9711456298828 22.30213165283203 132.1674346923828 22.24419021606445 132.8733367919922 22.20931053161621 C 133.5089569091797 22.18625831604004 133.8210754394531 22.23236465454102 134.1681060791016 22.39436149597168 C 135.5669250488281 23.06480026245117 136.1220855712891 24.69540023803711 135.4392242431641 26.08181190490723 C 134.9223327636719 27.11084365844727 134.0006408691406 27.57544708251953 133.0822601318359 27.57544708251953 M 133.1111450195312 20.31050109863281 C 133.6621856689453 20.31050109863281 134.1819000244141 20.39239120483398 134.6141052246094 20.54731178283691 C 134.6178588867188 20.54866027832031 134.62158203125 20.55005073547363 134.6253051757812 20.55148124694824 C 135.332275390625 20.82413101196289 135.5106811523438 20.9201717376709 136.1681976318359 21.51435089111328 C 137.0830688476562 22.3494701385498 137.6082000732422 23.54924011230469 137.6107940673828 24.80771064758301 C 137.6134490966797 26.09737014770508 137.0720672607422 27.33673095703125 136.1254730224609 28.20800018310547 C 136.1240997314453 28.20926094055176 136.1227264404297 28.21052169799805 136.121337890625 28.21177101135254 C 135.2139587402344 29.02834129333496 134.2727661132812 29.39249038696289 133.0696105957031 29.39249038696289 C 131.7872619628906 29.39249038696289 130.6168365478516 28.92598152160645 129.7739410400391 28.07889175415039 C 128.9309844970703 27.23173141479492 128.4702606201172 26.0580005645752 128.4766387939453 24.7739200592041 C 128.4899139404297 23.07010078430176 129.5496215820312 21.43954086303711 131.1135864257812 20.71506118774414 C 131.6628570556641 20.45483016967773 132.3736572265625 20.31050109863281 133.1111450195312 20.31050109863281 Z M 133.9539184570312 22.84617614746094 C 133.7553100585938 22.7538013458252 133.5677795410156 22.70375061035156 133.1521606445312 22.7037410736084 C 133.0748291015625 22.7037410736084 132.9906005859375 22.70541191101074 132.894775390625 22.70886039733887 C 132.2646179199219 22.74010848999023 132.1597747802734 22.7785587310791 131.8321533203125 22.99879264831543 C 131.6128845214844 23.16336822509766 131.2831420898438 23.52663040161133 131.1215209960938 23.78240013122559 C 130.8769683837891 24.16776084899902 130.851806640625 24.2658805847168 130.851806640625 24.83315086364746 C 130.8634643554688 26.28818130493164 132.0096893310547 27.0754508972168 133.0822601318359 27.0754508972168 C 133.9073638916016 27.0754508972168 134.6035919189453 26.6314811706543 134.992431640625 25.85738182067871 C 135.2629852294922 25.30802154541016 135.3052673339844 24.69232177734375 135.1097564697266 24.12722015380859 C 134.9155120849609 23.56580352783203 134.5050811767578 23.11093139648438 133.9539184570312 22.84617614746094 Z"/></g><g class="b" transform="translate(-700.088 -9.003)"><path class="c" d="M714.082,21.042a4.26,4.26,0,0,1,2.324,2.047c.289.52.312.694.312,1.792a2.828,2.828,0,0,1-.393,1.943,4.07,4.07,0,0,1-1.862,1.769,2.967,2.967,0,0,1-1.734.278,3.024,3.024,0,0,1-1.792-.3,4.657,4.657,0,0,1-1.885-1.954,3.005,3.005,0,0,1-.312-1.735,3.315,3.315,0,0,1,.254-1.642,4.763,4.763,0,0,1,1.977-2.023A4.566,4.566,0,0,1,714.082,21.042Zm-2.486,1.4a2.728,2.728,0,0,0,.555,5.1,2.785,2.785,0,0,0,3.3-2.278,2.865,2.865,0,0,0-1.469-2.8A3.1,3.1,0,0,0,711.6,22.441Z"/><path class="d" d="M 712.7881469726562 20.84814071655273 C 712.1360473632812 20.84814071655273 711.463134765625 20.97298431396484 710.97119140625 21.21598815917969 C 710.2078857421875 21.58550834655762 709.3411865234375 22.47588729858398 708.994140625 23.23915863037109 C 708.7860107421875 23.67842864990234 708.739990234375 24.00242805480957 708.739990234375 24.88097763061523 C 708.739990234375 25.84112739562988 708.7747802734375 26.06046676635742 709.0521240234375 26.61562728881836 C 709.4340209960938 27.40195846557617 710.1736450195312 28.16462707519531 710.9368896484375 28.56961822509766 C 711.4571533203125 28.83566856384277 711.6422119140625 28.87054824829102 712.7289428710938 28.87054824829102 C 713.7806396484375 28.87054824829102 714.0117797851562 28.83566856384277 714.4629516601562 28.59267807006836 C 715.342041015625 28.14216804504395 715.908447265625 27.59823799133301 716.3246459960938 26.82373809814453 C 716.7066040039062 26.12963676452637 716.7178344726562 26.04864692687988 716.7178344726562 24.88097763061523 C 716.7178344726562 23.7824878692627 716.6947631835938 23.6092586517334 716.4057006835938 23.08898735046387 C 715.8505249023438 22.08272743225098 715.0759887695312 21.40045738220215 714.0816040039062 21.04216766357422 C 713.7103271484375 20.9119987487793 713.2545776367188 20.84814071655273 712.7881469726562 20.84814071655273 M 712.7269287109375 27.60892677307129 C 712.535400390625 27.60892677307129 712.3419799804688 27.58674430847168 712.150146484375 27.54029846191406 C 710.8896484375 27.23995780944824 710.0690307617188 26.19940757751465 710.0690307617188 24.91586685180664 C 710.080810546875 23.7943172454834 710.5892944335938 22.95004844665527 711.5955810546875 22.44100761413574 C 712.1967163085938 22.12883567810059 713.318359375 22.14067077636719 713.9768676757812 22.46405792236328 C 714.9483032226562 22.9494571685791 715.6075439453125 24.20994758605957 715.4454956054688 25.2623176574707 C 715.2237548828125 26.61102867126465 714.0128173828125 27.60892677307129 712.7269287109375 27.60892677307129 M 712.7881469726562 20.34813690185547 C 713.3279418945312 20.34813690185547 713.8324584960938 20.42496681213379 714.2470092773438 20.57032775878906 C 715.3582763671875 20.9706974029541 716.23046875 21.73634719848633 716.843505859375 22.84744834899902 C 717.1900634765625 23.47123718261719 717.2178344726562 23.7266674041748 717.2178344726562 24.88097763061523 C 717.2178344726562 26.08403778076172 717.2009887695312 26.26834678649902 716.7626953125 27.06479835510254 C 716.296875 27.93173217773438 715.6583251953125 28.54104804992676 714.6953125 29.03542518615723 C 714.1328735351562 29.3375415802002 713.7980346679688 29.37054824829102 712.7289428710938 29.37054824829102 C 711.6388549804688 29.37054824829102 711.344970703125 29.33988761901855 710.709228515625 29.0147876739502 C 710.70703125 29.01363754272461 710.7047729492188 29.01247787475586 710.7025146484375 29.01128768920898 C 709.8368530273438 28.55193901062012 709.0327758789062 27.71882629394531 708.6035766601562 26.8365364074707 C 708.2757568359375 26.17968368530273 708.239990234375 25.85901260375977 708.239990234375 24.88097763061523 C 708.239990234375 23.98395347595215 708.2854614257812 23.56836891174316 708.540771484375 23.02828788757324 C 708.9387817382812 22.15629196166992 709.8892211914062 21.18427848815918 710.7533569335938 20.76594734191895 C 711.2894897460938 20.50106811523438 712.032470703125 20.34813690185547 712.7881469726562 20.34813690185547 Z M 714.95166015625 25.18392753601074 C 715.0802612304688 24.34060859680176 714.5319213867188 23.30035209655762 713.7533569335938 22.91132736206055 C 713.5029907226562 22.78836822509766 713.1187133789062 22.71403694152832 712.7286987304688 22.71401786804199 C 712.3693237304688 22.71401786804199 712.0318603515625 22.77784729003906 711.8259887695312 22.8847484588623 C 711.8244018554688 22.88556861877441 711.8228759765625 22.88637733459473 711.8212890625 22.88716697692871 C 710.9893798828125 23.30798721313477 710.5797729492188 23.9724006652832 710.5690307617188 24.9183349609375 C 710.570068359375 25.97034072875977 711.2359619140625 26.8084716796875 712.2660522460938 27.05391693115234 C 712.4174194335938 27.09055709838867 712.5718383789062 27.10892677307129 712.7269287109375 27.10892677307129 C 713.7960815429688 27.10892677307129 714.7727661132812 26.26356315612793 714.95166015625 25.18392753601074 Z"/></g></g></g></svg>