<svg xmlns="http://www.w3.org/2000/svg" width="924" height="509" viewBox="0 0 924 509"><defs><style>.a{fill:#1c1c1c;opacity:0.2;}</style></defs><path class="a" d="M909,509H15A15,15,0,0,1,0,494V15A15,15,0,0,1,15,0H909a15,15,0,0,1,15,15V494a15,15,0,0,1-15,15ZM441.111,93.378a20.022,20.022,0,0,0-20,20v294.43a20.023,20.023,0,0,0,20,20H758.3a20.023,20.023,0,0,0,20-20V113.377a20.022,20.022,0,0,0-20-20ZM158.177,119.011a20.022,20.022,0,0,0-20,20v232.2a20.023,20.023,0,0,0,20,20H378.551a20.023,20.023,0,0,0,20-20v-232.2a20.023,20.023,0,0,0-20-20Zm62.98-108.942a20.022,20.022,0,0,0-20,20V51.405a20.022,20.022,0,0,0,20,20h71.858a20.023,20.023,0,0,0,20-20V30.069a20.023,20.023,0,0,0-20-20Z" transform="translate(0 0)"/></svg>