<svg xmlns="http://www.w3.org/2000/svg" width="924.003" height="509.002" viewBox="0 0 924.003 509.002"><defs><style>.a{fill:#1c1c1c;opacity:0.2;}</style></defs><path class="a" d="M15720,10088h-894a14.992,14.992,0,0,1-15-15V9594a15,15,0,0,1,15-15h894a15.006,15.006,0,0,1,15,15v479a15,15,0,0,1-15,15Zm-753.889-421.216a20.022,20.022,0,0,0-20,20v344.429a20.022,20.022,0,0,0,20,20H15193.3a20.024,20.024,0,0,0,20-20V9686.786a20.024,20.024,0,0,0-20-20Zm277.387,0a20.02,20.02,0,0,0-20,20v245.433a20.02,20.02,0,0,0,20,20h317.192a20.022,20.022,0,0,0,20-20V9686.786a20.022,20.022,0,0,0-20-20Z" transform="translate(-14811 -9578.999)"/></svg>