<svg xmlns="http://www.w3.org/2000/svg" width="58.94" height="25.255" viewBox="0 0 58.94 25.255"><defs><style>.a{isolation:isolate;}.b{fill:none;}.c,.d{stroke:none;}.d{fill:#1a76ff;}</style></defs><g class="a" transform="translate(0.404 0.5)"><g transform="translate(0.096)"><g class="b" transform="translate(-10 216.125)"><path class="c" d="M38.275-216.059a28.192,28.192,0,0,1,4.4.591c.2.07,2.4,1.784,4.879,3.812l4.507,3.685.846.139c2.051.336,6.628,1.194,8.389,1.564,2.549.556,3.731.927,4.056,1.287a6.948,6.948,0,0,1,.869,2.561c.128.672.186.788.545,1.02.9.568,1.159,1.147,1.171,2.665,0,1.217-.186,1.7-.8,2.109-.371.255-.5.267-2.491.267H62.54l-.139-.95a6.042,6.042,0,0,0-9.05-4.415,5.977,5.977,0,0,0-2.909,4.739v.625H26.918v-.406a6.128,6.128,0,0,0-2.514-4.658,5.977,5.977,0,0,0-7.729.591,6.142,6.142,0,0,0-1.808,3.917c0,.244-.058.44-.116.44a16.688,16.688,0,0,1-3.3-1.194,1.269,1.269,0,0,1-.383-.776c-.081-.475-.116-.521-.429-.556-.51-.058-.637-.3-.637-1.275,0-1.055.116-1.3.614-1.3h.371l-.035-2c-.023-1.113.012-2.584.07-3.268.093-1.089.139-1.287.371-1.472a1.031,1.031,0,0,1,.556-.209c.429,0,1.425-1.055,3.141-3.349,1.066-1.437,1.4-1.97,1.356-2.144-.035-.139-.1-.359-.139-.5-.081-.3-.058-.3,1.692-.6a91.2,91.2,0,0,1,14.079-1C34.624-216.14,37.417-216.117,38.275-216.059Zm-12.747,1.043c-.8.058-1.68.139-1.947.186l-.51.058.081,3.094c.047,1.7.116,3.129.163,3.175s2.028.162,4.415.255,4.67.209,5.076.232l.718.058-.023-3.557-.035-3.557-.521-.081C32.295-215.248,27.463-215.155,25.528-215.016Zm9.4.012c-.255.093-.359.2-.359.371,0,.683.475,6.617.533,6.675a9.738,9.738,0,0,0,1.472.1c10.812.244,10.9.244,11.3.058a1.625,1.625,0,0,0,.545-.429,1.382,1.382,0,0,0,0-1.31,52.543,52.543,0,0,0-4.577-3.917,8.842,8.842,0,0,0-1.7-1.031,23.656,23.656,0,0,0-3.28-.568A22.245,22.245,0,0,0,34.926-215Zm-15.122.51a4.369,4.369,0,0,0-2.248,1.391c-1.078,1.171-2.167,3.812-1.657,4.01a50.523,50.523,0,0,0,5.887.521c.058-.058.267-3.87.267-4.971v-1.124h-.788A7.248,7.248,0,0,0,19.8-214.494Z"/><path class="d" d="M 34.08968734741211 -216.1253051757812 C 33.42782974243164 -216.1253051757812 32.74314117431641 -216.122314453125 32.07561874389648 -216.1161193847656 C 26.13087844848633 -216.0581665039062 21.62340927124023 -215.7336120605469 17.99625778198242 -215.1193389892578 C 16.24625015258789 -214.8184051513672 16.22317886352539 -214.8184051513672 16.30418014526367 -214.5168762207031 C 16.33906936645508 -214.3779296875 16.40822982788086 -214.1574401855469 16.44311904907227 -214.0184783935547 C 16.48923873901367 -213.8446502685547 16.15341949462891 -213.3113555908203 15.08744812011719 -211.8746795654297 C 13.37230682373047 -209.5807342529297 12.37551116943359 -208.5259857177734 11.94687652587891 -208.5259857177734 C 11.78488922119141 -208.5259857177734 11.52947998046875 -208.4331665039062 11.39054107666016 -208.3173217773438 C 11.15877532958984 -208.1322479248047 11.11265563964844 -207.9347839355469 11.01983642578125 -206.8457336425781 C 10.96190643310547 -206.1622772216797 10.92701721191406 -204.6907348632812 10.95008087158203 -203.5780487060547 L 10.98495483398438 -201.5731811523438 L 10.61426544189453 -201.5731811523438 C 10.11585998535156 -201.5731811523438 9.999977111816406 -201.3302001953125 9.999977111816406 -200.2754669189453 C 9.999977111816406 -199.3023223876953 10.12709808349609 -199.0587158203125 10.6373291015625 -199.0008087158203 C 10.95008087158203 -198.9659271240234 10.98495483398438 -198.9197998046875 11.06595611572266 -198.4444427490234 C 11.1239013671875 -198.108642578125 11.25160217285156 -197.8301849365234 11.44847869873047 -197.6681823730469 C 11.69147491455078 -197.4476470947266 14.3915901184082 -196.4745178222656 14.75103759765625 -196.4745178222656 C 14.80897903442383 -196.4745178222656 14.86692047119141 -196.6713714599609 14.86692047119141 -196.9149475097656 C 14.86692047119141 -198.1547393798828 15.60890960693359 -199.7658386230469 16.67486953735352 -200.8318176269531 C 18.73765182495117 -202.8945617675781 21.98226547241211 -203.1493988037109 24.4039192199707 -201.4230346679688 C 25.88669967651367 -200.3688812255859 26.91837692260742 -198.4450531005859 26.91837692260742 -196.7647857666016 L 26.91837692260742 -196.3592071533203 L 50.44190979003906 -196.3592071533203 L 50.44190979003906 -196.984130859375 C 50.44190979003906 -198.7335662841797 51.68228912353516 -200.7502136230469 53.3507194519043 -201.7233581542969 C 57.08251190185547 -203.9138336181641 61.77562713623047 -201.6193237304688 62.40113830566406 -197.3087310791016 L 62.54007720947266 -196.3586120605469 L 64.64897918701172 -196.3586120605469 C 66.64197540283203 -196.3586120605469 66.76967620849609 -196.3704376220703 67.140380859375 -196.6252593994141 C 67.75406646728516 -197.0308227539062 67.93971252441406 -197.5174102783203 67.93971252441406 -198.7341461181641 C 67.92787933349609 -200.2524108886719 67.67306518554688 -200.8318176269531 66.76908111572266 -201.3993835449219 C 66.41021728515625 -201.6311492919922 66.35227966308594 -201.7470245361328 66.22457885742188 -202.4192352294922 C 66.00464630126953 -203.5780487060547 65.64517974853516 -204.6676635742188 65.35547637939453 -204.9804229736328 C 65.03089904785156 -205.3398742675781 63.84903717041016 -205.7105865478516 61.29969787597656 -206.2669525146484 C 59.53844833374023 -206.6376342773438 54.96120834350586 -207.4954986572266 52.91025924682617 -207.8313140869141 L 52.06421661376953 -207.9702453613281 L 47.55673980712891 -211.6553497314453 C 45.07658004760742 -213.6832275390625 42.87485885620117 -215.3977813720703 42.6779899597168 -215.4675445556641 C 42.11040878295898 -215.6531982421875 40.01276779174805 -215.9429168701172 38.27457809448242 -216.0587768554688 C 37.64182281494141 -216.1015472412109 35.95495986938477 -216.1253051757812 34.08968734741211 -216.1253051757812 M 33.52351760864258 -207.9584197998047 L 32.80517959594727 -208.0163726806641 C 32.39960861206055 -208.0394134521484 30.11689758300781 -208.1440734863281 27.72953796386719 -208.2481231689453 C 25.34276962280273 -208.3409423828125 23.34975814819336 -208.4568176269531 23.31488037109375 -208.5029296875 C 23.2681770324707 -208.5496520996094 23.19900894165039 -209.9750823974609 23.15229797363281 -211.6784210205078 L 23.0713005065918 -214.7722778320312 L 23.58092880249023 -214.8302154541016 C 23.84756851196289 -214.8769226074219 24.72789764404297 -214.9579315185547 25.52782821655273 -215.0158386230469 C 27.4629020690918 -215.1548156738281 32.29495239257812 -215.2475891113281 32.94411849975586 -215.1541900634766 L 33.46557998657227 -215.0732116699219 L 33.50045776367188 -211.5158233642578 L 33.52351760864258 -207.9584197998047 M 46.39920806884766 -207.6636962890625 C 45.06050872802734 -207.6636962890625 42.34333419799805 -207.7243194580078 36.57125854492188 -207.8543548583984 C 35.79499053955078 -207.8774108886719 35.13459777832031 -207.9235382080078 35.09970855712891 -207.9584197998047 C 35.04176712036133 -208.0163726806641 34.56642913818359 -213.9498901367188 34.56642913818359 -214.6333618164062 C 34.56642913818359 -214.8071746826172 34.67107772827148 -214.9111938476562 34.92588806152344 -215.0040283203125 C 35.26170349121094 -215.1199645996094 37.86899185180664 -215.1548156738281 38.85396957397461 -215.0501556396484 C 39.91993713378906 -214.9461059570312 41.63507843017578 -214.6445922851562 42.13348007202148 -214.4825897216797 C 42.44622802734375 -214.3785400390625 43.21126937866211 -213.9150085449219 43.83677673339844 -213.4514770507812 C 45.16939926147461 -212.4546966552734 48.15921020507812 -209.9053344726562 48.41402816772461 -209.5346221923828 C 48.63395690917969 -209.2218475341797 48.63395690917969 -208.5378112792969 48.41402816772461 -208.2250823974609 C 48.32120895385742 -208.0861206054688 48.07820892333984 -207.9004669189453 47.8695182800293 -207.7964172363281 C 47.68597412109375 -207.7098846435547 47.56802368164062 -207.6636962890625 46.39920806884766 -207.6636962890625 M 21.61377716064453 -208.5579376220703 C 20.67558670043945 -208.5579376220703 16.23323440551758 -208.9580688476562 15.89859771728516 -209.0941467285156 C 15.38896942138672 -209.2916412353516 16.47799682617188 -211.9331970214844 17.55578994750977 -213.1038360595703 C 18.2274284362793 -213.8452453613281 18.89963912963867 -214.2508087158203 19.80361938476562 -214.4944000244141 C 20.17430877685547 -214.5872192382812 20.83486938476562 -214.6668548583984 21.26393890380859 -214.6676330566406 L 22.05204010009766 -214.6676330566406 L 22.05204010009766 -213.543701171875 C 22.05204010009766 -212.4428253173828 21.84333038330078 -208.6306610107422 21.785400390625 -208.5727081298828 C 21.77521896362305 -208.5625762939453 21.71489334106445 -208.5579376220703 21.61377716064453 -208.5579376220703 M 34.08968734741211 -216.6253051757812 C 36.07431030273438 -216.6253051757812 37.69078826904297 -216.5993804931641 38.30830001831055 -216.5576324462891 C 40.04689025878906 -216.4417572021484 42.20394897460938 -216.1486663818359 42.83342742919922 -215.9427642822266 L 42.84498977661133 -215.9388427734375 C 42.94062042236328 -215.9049530029297 43.07159805297852 -215.8585357666016 44.56879043579102 -214.6898803710938 C 45.51483917236328 -213.9514312744141 46.68838882446289 -213.0111999511719 47.87322998046875 -212.0424194335938 L 52.27717971801758 -208.4419708251953 L 52.99127960205078 -208.32470703125 C 55.13395690917969 -207.9738616943359 59.69143676757812 -207.1163940429688 61.40267944335938 -206.7562408447266 C 64.56215667724609 -206.0667266845703 65.36101531982422 -205.7183227539062 65.72452545166016 -205.3177795410156 C 66.15122222900391 -204.8539276123047 66.52507781982422 -203.5174407958984 66.71580505371094 -202.5124664306641 C 66.82000732421875 -201.9639739990234 66.82456207275391 -201.9587707519531 67.03729248046875 -201.8213653564453 C 68.0987548828125 -201.1541748046875 68.42649078369141 -200.4332427978516 68.43968963623047 -198.7380523681641 C 68.43971252441406 -197.5364837646484 68.27713012695312 -196.7791595458984 67.42003631591797 -196.2107543945312 C 66.90655517578125 -195.8586120605469 66.64595031738281 -195.8586120605469 64.64897918701172 -195.8586120605469 L 62.10787963867188 -195.8586120605469 L 61.90639877319336 -197.2363739013672 C 61.50028991699219 -200.0350189208984 59.18721771240234 -202.0659027099609 56.40635681152344 -202.0659027099609 C 55.42141723632812 -202.0659027099609 54.47850799560547 -201.8055725097656 53.60382843017578 -201.2921600341797 C 52.08576965332031 -200.4067230224609 50.94190979003906 -198.5549621582031 50.94190979003906 -196.984130859375 L 50.94190979003906 -195.8592071533203 L 26.41837692260742 -195.8592071533203 L 26.41837692260742 -196.7647857666016 C 26.41837692260742 -198.2786407470703 25.4493293762207 -200.0663299560547 24.11420822143555 -201.0155334472656 C 23.14997863769531 -201.7029113769531 22.02639007568359 -202.0660400390625 20.8643798828125 -202.0660400390625 C 19.41461944580078 -202.0660400390625 18.05230712890625 -201.5021514892578 17.02841949462891 -200.478271484375 C 16.06567764282227 -199.5155029296875 15.36692047119141 -198.0169219970703 15.36692047119141 -196.9149475097656 C 15.36692047119141 -196.0423431396484 14.8955192565918 -195.9745178222656 14.75103759765625 -195.9745178222656 C 14.51339721679688 -195.9745178222656 13.88601684570312 -196.1574859619141 12.88632965087891 -196.5183410644531 C 11.4310302734375 -197.0436706542969 11.19391632080078 -197.2254638671875 11.12116241455078 -197.2900848388672 C 10.84303283691406 -197.5237426757812 10.65369415283203 -197.8931579589844 10.5732421875 -198.3594207763672 C 10.56315612792969 -198.4185943603516 10.55412292480469 -198.46826171875 10.54615783691406 -198.50830078125 C 9.499885559082031 -198.6478424072266 9.499977111816406 -199.5873718261719 9.499977111816406 -200.2754669189453 C 9.499977111816406 -201.0014495849609 9.499923706054688 -201.9841461181641 10.47628784179688 -202.0674896240234 L 10.45015716552734 -203.5693511962891 C 10.42743682861328 -204.6653594970703 10.45948791503906 -206.1548309326172 10.52162933349609 -206.8879699707031 C 10.61690521240234 -208.005859375 10.666748046875 -208.3772430419922 11.07492828369141 -208.7051391601562 C 11.29296112060547 -208.8847351074219 11.64093017578125 -209.0164337158203 11.91696166992188 -209.0254821777344 C 12.06717681884766 -209.0810394287109 12.67182922363281 -209.4788665771484 14.68700790405273 -212.1740875244141 C 14.96482086181641 -212.5485229492188 15.78168487548828 -213.6494598388672 15.93346405029297 -213.9886779785156 C 15.92112350463867 -214.0327758789062 15.90710830688477 -214.0811767578125 15.89336013793945 -214.1286926269531 C 15.86700057983398 -214.2197265625 15.83976364135742 -214.3138122558594 15.82020950317383 -214.3912200927734 C 15.78845977783203 -214.509521484375 15.72640609741211 -214.7497100830078 15.8776969909668 -214.9862518310547 C 16.07617950439453 -215.2965393066406 16.3465576171875 -215.3430328369141 17.84713745117188 -215.6010437011719 L 17.91151809692383 -215.6121063232422 C 21.61345672607422 -216.2390594482422 26.11225891113281 -216.5580139160156 32.07074737548828 -216.6161041259766 C 32.72905731201172 -216.6222076416016 33.40824890136719 -216.6253051757812 34.08968734741211 -216.6253051757812 Z M 32.87045288085938 -214.6596374511719 C 32.81217575073242 -214.6676635742188 32.5536003112793 -214.6919403076172 31.56744003295898 -214.6919403076172 C 29.87899780273438 -214.6919403076172 26.99806976318359 -214.6201477050781 25.56364822387695 -214.5171203613281 C 24.73019790649414 -214.4568023681641 23.89706039428711 -214.3779907226562 23.66720962524414 -214.3377227783203 L 23.63740921020508 -214.3334197998047 L 23.58312225341797 -214.3272399902344 L 23.65213012695312 -211.6915130615234 C 23.68931198120117 -210.3354949951172 23.73282623291016 -209.4108581542969 23.7646484375 -208.9515380859375 C 24.37971878051758 -208.9031982421875 25.78929901123047 -208.8239593505859 27.74897003173828 -208.7477416992188 C 30.03256988525391 -208.6482238769531 32.40744018554688 -208.5397796630859 32.83353805541992 -208.5155792236328 L 32.84539031982422 -208.5147552490234 L 33.01999282836914 -208.5006713867188 L 33.00046920776367 -211.5125885009766 L 32.96975708007812 -214.6442108154297 L 32.87045288085938 -214.6596374511719 Z M 48.00411224365234 -209.2483215332031 C 47.74059295654297 -209.5927886962891 44.89720916748047 -212.0339050292969 43.53730010986328 -213.0510864257812 C 42.92483901977539 -213.5049438476562 42.20705032348633 -213.9311676025391 41.97563934326172 -214.0081634521484 C 41.53606033325195 -214.1510314941406 39.88603973388672 -214.4470367431641 38.80539703369141 -214.5525207519531 C 38.44472885131836 -214.5908203125 37.82143783569336 -214.612548828125 37.09111022949219 -214.612548828125 C 35.96195602416992 -214.612548828125 35.23374176025391 -214.5633392333984 35.08319473266602 -214.5290985107422 C 35.07807159423828 -214.5271606445312 35.07321548461914 -214.5252685546875 35.06863021850586 -214.5234527587891 C 35.098388671875 -213.6156158447266 35.42166137695312 -209.6092376708984 35.54478073120117 -208.404052734375 C 35.78022003173828 -208.3866424560547 36.13669586181641 -208.3674774169922 36.58609771728516 -208.3541412353516 C 42.21335983276367 -208.2273712158203 45.03970718383789 -208.1636962890625 46.39920806884766 -208.1636962890625 C 47.45546722412109 -208.1636962890625 47.55602645874023 -208.2015838623047 47.65077590942383 -208.2460784912109 C 47.81568145751953 -208.3292541503906 47.96704864501953 -208.4596710205078 47.99906921386719 -208.5039978027344 L 48.00505065917969 -208.5127105712891 C 48.10155868530273 -208.6499633789062 48.10153961181641 -209.1097564697266 48.00502014160156 -209.2470397949219 L 48.00411224365234 -209.2483215332031 Z M 21.55204010009766 -214.1676330566406 L 21.26393890380859 -214.1676330566406 C 20.88032913208008 -214.1676330566406 20.27296829223633 -214.0957794189453 19.92954635620117 -214.010498046875 C 19.10396957397461 -213.787353515625 18.52340316772461 -213.4272155761719 17.92634963989258 -212.7681427001953 C 17.5235481262207 -212.3306274414062 17.07513046264648 -211.6118011474609 16.7241096496582 -210.8423156738281 C 16.43238067626953 -210.2028045654297 16.31216430664062 -209.756103515625 16.27875900268555 -209.5242767333984 C 17.16669464111328 -209.3865203857422 20.18545532226562 -209.1115570068359 21.33853530883789 -209.0647888183594 C 21.41485977172852 -210.0491180419922 21.55204010009766 -212.6123962402344 21.55204010009766 -213.543701171875 L 21.55204010009766 -214.1676330566406 Z"/></g><g class="b" transform="translate(-84.144 -21.442)"><path class="c" d="M132.06,36.573a4.691,4.691,0,1,1-3.569.266,3.441,3.441,0,0,1,1.866-.464A4.429,4.429,0,0,1,132.06,36.573Zm-2.746,1.321a3.412,3.412,0,0,0-1.842,4.426,3.8,3.8,0,0,0,1.8,1.8,3.45,3.45,0,0,0,4.415-1.773,3.387,3.387,0,0,0-3.326-4.67A3.65,3.65,0,0,0,129.314,37.894Z"/><path class="d" d="M 130.6856994628906 36.3706169128418 C 130.5834655761719 36.3706169128418 130.4744720458984 36.37245178222656 130.3570709228516 36.37590026855469 C 129.4761657714844 36.41078948974609 129.2562103271484 36.45690155029297 128.4911804199219 36.83942031860352 C 125.3163146972656 38.40380096435547 124.9686584472656 42.86518096923828 127.8538208007812 44.83512878417969 C 130.9246368408203 46.93278884887695 135.0153350830078 44.98590469360352 135.2240295410156 41.33567810058594 C 135.3511505126953 39.18066024780273 134.0534057617188 37.23376846313477 132.0604095458984 36.57336807250977 C 131.6089935302734 36.42624282836914 131.2491760253906 36.3706169128418 130.6856994628906 36.3706169128418 M 130.5193634033203 44.36962509155273 C 130.0943145751953 44.36962509155273 129.6683502197266 44.28882598876953 129.26806640625 44.11679840087891 C 128.5378723144531 43.80403900146484 127.8077087402344 43.06204986572266 127.4718933105469 42.32065963745117 C 126.7417297363281 40.66345977783203 127.5877838134766 38.62432861328125 129.3141632080078 37.89416885375977 C 129.5110168457031 37.80192947387695 129.9863739013672 37.69728851318359 130.3576812744141 37.67364120483398 C 132.7914276123047 37.45361328125 134.6333770751953 40.03794860839844 133.6832885742188 42.34371948242188 C 133.1571655273438 43.58879470825195 131.8414611816406 44.36962509155273 130.5193634033203 44.36962509155273 M 130.6856994628906 35.87062072753906 C 131.2922668457031 35.87062072753906 131.7068481445312 35.9322395324707 132.2153472900391 36.09798049926758 C 134.4214935302734 36.82899856567383 135.8629913330078 38.99462127685547 135.7231597900391 41.36511993408203 C 135.6450653076172 42.7310791015625 135.0547332763672 43.97628021240234 134.0609588623047 44.87046051025391 C 133.1100006103516 45.72610855102539 131.8769836425781 46.19733810424805 130.5890350341797 46.19733810424805 C 129.5243377685547 46.19733810424805 128.4809875488281 45.86906051635742 127.5717926025391 45.24800109863281 C 126.0809173583984 44.23004150390625 125.2683410644531 42.52597808837891 125.3982543945312 40.68968963623047 C 125.5306091308594 38.81880950927734 126.6042327880859 37.21178817749023 128.2701873779297 36.39091110229492 C 129.0779724121094 35.98699951171875 129.3681182861328 35.91468048095703 130.3372802734375 35.87628936767578 L 130.3423767089844 35.87612152099609 C 130.4682159423828 35.87242126464844 130.5805053710938 35.87062072753906 130.6856994628906 35.87062072753906 Z M 130.5193786621094 43.86962890625 C 131.6829833984375 43.86962890625 132.7946472167969 43.1621208190918 133.2227172851562 42.14908981323242 C 133.587890625 41.26282119750977 133.4798583984375 40.24266052246094 132.9320373535156 39.42430114746094 C 132.4023742675781 38.63307952880859 131.5482940673828 38.16062927246094 130.6473693847656 38.1605110168457 C 130.5664367675781 38.1605110168457 130.4842071533203 38.16424942016602 130.4026794433594 38.17160797119141 L 130.3894653320312 38.17263031005859 C 130.0477447509766 38.19438934326172 129.6436462402344 38.29195022583008 129.5263061523438 38.34693145751953 L 129.5089263916016 38.35467910766602 C 128.7895355224609 38.65893936157227 128.2086334228516 39.25746917724609 127.9152069091797 39.99679946899414 C 127.634033203125 40.70520401000977 127.6388549804688 41.45824432373047 127.9287109375 42.11738967895508 C 128.2173461914062 42.75212097167969 128.8628997802734 43.39931869506836 129.4649200439453 43.65718841552734 C 129.7931213378906 43.7982292175293 130.147705078125 43.86962890625 130.5193786621094 43.86962890625 Z"/></g><g class="b" transform="translate(-722.141 -21.499)"><path class="c" d="M734.157,36.5a5.211,5.211,0,0,1,3.141,2.642,3.532,3.532,0,0,1,.313,1.947,3.349,3.349,0,0,1-.371,2.04,4.68,4.68,0,1,1-6.223-6.281,3.434,3.434,0,0,1,1.773-.417A8.082,8.082,0,0,1,734.157,36.5Zm-2.607,1.564a4.083,4.083,0,0,0-1.6,1.6,4.062,4.062,0,0,0-.116,2.5,3.606,3.606,0,0,0,1.761,1.947,3.348,3.348,0,0,0,3.951-5.238A3.3,3.3,0,0,0,731.55,38.067Z"/><path class="d" d="M 733.0105590820312 36.43071746826172 C 732.9366455078125 36.43071746826172 732.86279296875 36.43146133422852 732.7902221679688 36.43304061889648 C 731.9329223632812 36.46791839599609 731.677490234375 36.52585983276367 731.01708984375 36.85043716430664 C 728.1089477539062 38.27529907226562 727.4366455078125 41.96038818359375 729.661376953125 44.31287002563477 C 731.87451171875 46.65358352661133 735.8031616210938 46.03977966308594 737.23974609375 43.13100814819336 C 737.5873413085938 42.41209030151367 737.6104125976562 42.29619979858398 737.6104125976562 41.09128952026367 C 737.6104125976562 39.94371795654297 737.576171875 39.74684906005859 737.2976684570312 39.1443977355957 C 736.71826171875 37.92765045166016 735.4199829101562 36.82679748535156 734.1571655273438 36.5022087097168 C 733.9762573242188 36.46223831176758 733.4912109375 36.43071746826172 733.0105590820312 36.43071746826172 M 733.0342407226562 44.4368782043457 C 732.5346069335938 44.4368782043457 732.036376953125 44.32971954345703 731.595947265625 44.11539840698242 C 730.807861328125 43.73287963867188 730.089599609375 42.94477844238281 729.8345947265625 42.16849899291992 C 729.6029663085938 41.46197891235352 729.6607055664062 40.23342895507812 729.9505615234375 39.66584777832031 C 730.2633666992188 39.05156707763672 730.9473876953125 38.36811828613281 731.5498046875 38.06658935546875 C 732.9061279296875 37.38308334350586 734.5166015625 37.70776748657227 735.547119140625 38.87775039672852 C 737.0073852539062 40.53495025634766 736.462890625 43.14223861694336 734.4811401367188 44.11539840698242 C 734.0350341796875 44.32971954345703 733.533935546875 44.4368782043457 733.0342407226562 44.4368782043457 M 733.0105590820312 35.93071746826172 C 733.4332275390625 35.93071746826172 734.006103515625 35.95677947998047 734.2650146484375 36.01397705078125 L 734.2816162109375 36.01794815063477 C 735.6777954101562 36.3768196105957 737.1036987304688 37.57405853271484 737.7490844726562 38.92942810058594 L 737.7515258789062 38.93458938598633 C 738.0668334960938 39.61661911010742 738.1104125976562 39.8786506652832 738.1104125976562 41.09128952026367 C 738.1104125976562 42.32213973999023 738.0869750976562 42.52730941772461 737.6898803710938 43.34864807128906 C 736.8060913085938 45.13826751708984 735.0119018554688 46.2476692199707 733.0056762695312 46.2476692199707 C 731.5850219726562 46.2476692199707 730.2682495117188 45.68253707885742 729.2980346679688 44.65637969970703 C 728.1289672851562 43.42014694213867 727.627197265625 41.77754974365234 727.9215087890625 40.14981842041016 C 728.2163696289062 38.51855850219727 729.2645263671875 37.15232849121094 730.797119140625 36.40143966674805 C 731.5204467773438 36.04592895507812 731.8339233398438 35.97152709960938 732.7698974609375 35.93344879150391 L 732.7793579101562 35.93315887451172 C 732.8555297851562 35.93149948120117 732.9329833984375 35.93071746826172 733.0105590820312 35.93071746826172 Z M 733.0342407226562 43.9368782043457 C 733.468505859375 43.9368782043457 733.8939819335938 43.84275817871094 734.2646484375 43.66470718383789 C 735.07373046875 43.26736831665039 735.6416015625 42.52650833129883 735.81884765625 41.63397979736328 C 735.9930419921875 40.75666046142578 735.7572631835938 39.87252807617188 735.1719970703125 39.20830917358398 C 734.614501953125 38.57539749145508 733.83251953125 38.21244812011719 733.0264282226562 38.21244049072266 C 732.5918579101562 38.21244049072266 732.1707153320312 38.3135986328125 731.7748413085938 38.51309967041016 C 731.2654418945312 38.76805877685547 730.6603393554688 39.37379837036133 730.3961181640625 39.89273834228516 C 730.1646728515625 40.34589004516602 730.1204223632812 41.43534851074219 730.3096923828125 42.01273727416992 C 730.52197265625 42.65884780883789 731.1406860351562 43.33864974975586 731.8142700195312 43.66558837890625 C 732.1791381835938 43.8431396484375 732.6008911132812 43.9368782043457 733.0342407226562 43.9368782043457 Z"/></g></g></g></svg>