<svg xmlns="http://www.w3.org/2000/svg" width="87.589" height="26.103" viewBox="0 0 87.589 26.103"><defs><style>.a{opacity:0.9;}.b{fill:#8cd0f3;}.c{fill:#1a76ff;}.d,.h{fill:#33323d;}.e{fill:#515151;}.f{fill:#e6e6e6;}.g{fill:#414146;}.h{opacity:0.5;}.i{fill:#1c1c1c;}.j{fill:#fff;}.k{fill:#65617d;}.l{opacity:0.1;}</style></defs><g class="a" transform="translate(0 0)"><path class="b" d="M419.87,466.745s12.837-8.2,21.712-8.2a64.059,64.059,0,0,1,22.307,1.149c11.622,2.813,15.915,6.46,19.137,5.389l-13.537.4Z" transform="translate(-396.91 -458.055)"/><path class="c" d="M419.87,466.745s12.837-8.2,21.712-8.2a64.059,64.059,0,0,1,22.307,1.149c11.622,2.813,15.915,6.46,19.137,5.389l-13.537.4Z" transform="translate(-396.91 -458.055)"/><path class="d" d="M230.891,466.664H152.6l2.152-8.624,13.313-3.54,62.825,1.651Z" transform="translate(-147.424 -445.421)"/><path class="e" d="M297.749,477.822v2.752s-2.324,1.686-2.536,3.006a33.575,33.575,0,0,1-4.279.845,2.766,2.766,0,0,0-.279.01A7.913,7.913,0,0,0,291,483.21a8.068,8.068,0,1,0-15.314,1.642h-4.513s-.042.014-.109.044c-.242.109-.812.4-.895.853h-37.4l-.766-.007a7.907,7.907,0,0,0,.438-.847,7.82,7.82,0,0,0,.532-1.683,8.076,8.076,0,1,0-14.88,2.5c-.534-.13-1.7-.5-1.7-.5s-4.965-.528-6.233-1.642l.192-.133.812-.555-.37-1.423a.876.876,0,0,1-.109-.195,1.3,1.3,0,0,1,.163-1.233c.528-.845.264-3.856.264-3.856s7.184-4.965,21.342-6.075a2.044,2.044,0,0,0,1.037.318,4.529,4.529,0,0,0,1.923-.318s1.162.528,6.131-2.324a34.844,34.844,0,0,1,19.548-5.282s11.411-.688,21.131,3.066a59.828,59.828,0,0,0,9.648,2.933,22.383,22.383,0,0,0,4.018.506h.386s0,1.258.067,2.744v.008c.024.517.057,1.061.1,1.59v.033c.127,1.473.346,2.811.726,3.076Z" transform="translate(-210.16 -461.967)"/><path class="f" d="M228.368,570.263a10.507,10.507,0,0,1,7.145-1.954s-3.605,2.853-5.23,2.668l-.277-.238-1.642.092S228.119,570.448,228.368,570.263Z" transform="translate(-226.275 -556.172)"/><path class="g" d="M216.937,626v1.466s-.109,1.4-1.374,1.453l-3.613.179.811-.555-.37-1.423a.847.847,0,0,1-.109-.194,4.279,4.279,0,0,1,2.677-.922Z" transform="translate(-211.754 -607.612)"/><path class="g" d="M464.38,625.606s25.08-3.487,31.142-2.378a4.678,4.678,0,0,1,2.457.832c.674.713,0,.251,0,.251Z" transform="translate(-436.547 -604.95)"/><path class="h" d="M592.61,550.99s.318-.595.832-.608l3.341-.172a.824.824,0,0,1-.647.634Z" transform="translate(-550.737 -540.12)"/><path class="h" d="M769.21,541.784s.317-.595.832-.608l3.342-.176a.824.824,0,0,1-.647.634Z" transform="translate(-708.002 -531.919)"/><path class="c" d="M501.7,472.715l-2.564,6.725-9.245.01H481.62s1.235-.907,3.224-2.062c.657-.383,1.4-.793,2.212-1.2.744-.381,1.546-.766,2.388-1.132.657-.289,1.349-.567,2.056-.827A22.019,22.019,0,0,1,501.7,472.715Z" transform="translate(-451.899 -470.996)"/><path class="c" d="M683.961,477.361s-3.863.573-7.549,1c-1.409.162-2.792.3-3.924.38l-.158.011c-.438.028-.844.047-1.189.054a4.378,4.378,0,0,1-1.162-.08l1.065-6.432s1.314.014,3.257.11l.425.023c.4.023.83.049,1.274.08.635.044,1.3.1,1.994.16a36.733,36.733,0,0,1,9.493,1.842C692.571,476.608,683.961,477.361,683.961,477.361Z" transform="translate(-619.636 -470.731)"/><path class="f" d="M941.879,548.142v1.717s-2.773.039-2.179-.515a8.494,8.494,0,0,0,1.043-1.2Z" transform="translate(-859.752 -538.277)"/><path class="f" d="M979.912,541.951l-2.252.176v-2.064a1.157,1.157,0,0,1,2.087.159l.06.1Z" transform="translate(-893.63 -530.544)"/><path class="i" d="M6.445,0A6.445,6.445,0,1,1,0,6.445,6.445,6.445,0,0,1,6.445,0Z" transform="translate(8.452 13.212)"/><path class="j" d="M309.062,595.426a5.187,5.187,0,1,1-.109-1.051,5.188,5.188,0,0,1,.109,1.051Z" transform="translate(-288.994 -575.774)"/><path class="k" d="M2.538,0A2.538,2.538,0,1,1,0,2.538,2.538,2.538,0,0,1,2.538,0Z" transform="translate(12.352 17.113)"/><path class="i" d="M6.445,0A6.445,6.445,0,1,1,0,6.445,6.445,6.445,0,0,1,6.445,0Z" transform="translate(66.444 13.212)"/><path class="j" d="M838.742,595.426a5.187,5.187,0,1,1-.109-1.051A5.187,5.187,0,0,1,838.742,595.426Z" transform="translate(-760.682 -575.774)"/><path class="c" d="M503.549,505.5l-1.619,3.264h-1.79l1.2-2.059C502,506.321,502.74,505.913,503.549,505.5Z" transform="translate(-468.391 -500.305)"/><path class="c" d="M539.383,487.61l-1.613,5.219h-2.38l1.938-4.395C537.989,488.148,538.677,487.872,539.383,487.61Z" transform="translate(-499.782 -484.374)"/><path class="c" d="M685.47,473.452l-3.513,6.231-.158.011c-.438.028-.844.047-1.189.054l3.161-6.4.425.023C684.594,473.395,685.023,473.421,685.47,473.452Z" transform="translate(-629.102 -471.675)"/><path class="h" d="M448.733,667.431c-.242.109-.812.4-.895.853h-37.4l-.766-.007a7.917,7.917,0,0,0,.438-.848Z" transform="translate(-387.827 -644.506)"/><path class="l" d="M623.038,613.113H623S624.259,612.774,623.038,613.113Z" transform="translate(-577.8 -596.002)"/><path class="l" d="M718.332,672.25v.186A.406.406,0,0,1,718.332,672.25Z" transform="translate(-662.685 -648.798)"/><path class="k" d="M2.538,0A2.538,2.538,0,1,1,0,2.538,2.538,2.538,0,0,1,2.538,0Z" transform="translate(70.346 17.113)"/></g></svg>